<svg width="16" height="16" viewBox="0 0 16 16" fill="none" xmlns="http://www.w3.org/2000/svg">
<path d="M8.00015 0C8.41436 0 8.75015 0.335786 8.75015 0.75V9.15224L8.00015 9.5493L7.25015 9.15224V0.75C7.25015 0.335786 7.58594 0 8.00015 0Z" fill="url(#paint0_linear_5921_5039)"/>
<path d="M3.10107 8.08716C2.73499 7.89335 2.28111 8.03301 2.08731 8.39908C1.8935 8.76516 2.03316 9.21904 2.39923 9.41284L6.3972 11.5294L4.39923 12.5872C4.03316 12.781 3.8935 13.2348 4.08731 13.6009C4.28111 13.967 4.73499 14.1066 5.10107 13.9128L7.25015 12.7751V15.25C7.25015 15.6642 7.58594 16 8.00015 16C8.41436 16 8.75015 15.6642 8.75015 15.25V12.7751L10.8992 13.9128C11.2653 14.1066 11.7192 13.967 11.913 13.6009C12.1068 13.2348 11.9671 12.781 11.6011 12.5872L9.6031 11.5294L13.6011 9.41284C13.9671 9.21904 14.1068 8.76516 13.913 8.39908C13.7192 8.03301 13.2653 7.89335 12.8992 8.08716L8.00015 10.6808L3.10107 8.08716Z" fill="url(#paint1_linear_5921_5039)"/>
<defs>
<linearGradient id="paint0_linear_5921_5039" x1="8.00015" y1="-2.38419e-07" x2="17.2308" y2="13.8464" gradientUnits="userSpaceOnUse">
<stop stop-color="#0061C9"/>
<stop offset="1" stop-color="#C455F7"/>
</linearGradient>
<linearGradient id="paint1_linear_5921_5039" x1="8.00015" y1="-2.38419e-07" x2="17.2308" y2="13.8464" gradientUnits="userSpaceOnUse">
<stop stop-color="#0061C9"/>
<stop offset="1" stop-color="#C455F7"/>
</linearGradient>
</defs>
</svg>
