<svg xmlns="http://www.w3.org/2000/svg" fill="currentColor" class="vi" viewBox="0 0 16 16"><path d="M8.28 5.22a.75.75 0 0 0-1.06 1.06L8.94 8 7.22 9.72a.75.75 0 1 0 1.06 1.06L10 9.06l1.72 1.72a.75.75 0 1 0 1.06-1.06L11.06 8l1.72-1.72a.75.75 0 0 0-1.06-1.06L10 6.94z"/><path d="M13.25 14A2.75 2.75 0 0 0 16 11.25v-6.5A2.75 2.75 0 0 0 13.25 2H6.607a2.75 2.75 0 0 0-1.991.853l-4.41 4.63a.75.75 0 0 0 0 1.034l4.41 4.63A2.75 2.75 0 0 0 6.607 14zm1.25-2.75c0 .69-.56 1.25-1.25 1.25H6.607c-.342 0-.67-.14-.905-.388L1.786 8l3.916-4.112a1.25 1.25 0 0 1 .905-.388h6.643c.69 0 1.25.56 1.25 1.25z"/></svg>