<svg xmlns="http://www.w3.org/2000/svg" fill="currentColor" class="vi" viewBox="0 0 16 16"><path d="M8.526 2.5H3.75c-.69 0-1.25.56-1.25 1.25v8.5c0 .69.56 1.25 1.25 1.25h8.5c.69 0 1.25-.56 1.25-1.25V7.475l1.5-1.5v6.275A2.75 2.75 0 0 1 12.25 15h-8.5A2.75 2.75 0 0 1 1 12.25v-8.5A2.75 2.75 0 0 1 3.75 1h6.276zM11.66.78a2.25 2.25 0 0 1 3.182 0l.379.379a2.25 2.25 0 0 1 0 3.181l-6.487 6.487a1.75 1.75 0 0 1-.843.467l-2.971.686a.75.75 0 0 1-.9-.9l.686-2.97a1.75 1.75 0 0 1 .468-.844zm2.121 1.06a.75.75 0 0 0-1.06 0L6.233 8.327a.25.25 0 0 0-.067.12L5.75 10.25l1.802-.415a.25.25 0 0 0 .12-.068L14.16 3.28a.75.75 0 0 0 0-1.06z"/><path d="M8.526 2.5H3.75c-.69 0-1.25.56-1.25 1.25v8.5c0 .69.56 1.25 1.25 1.25h8.5c.69 0 1.25-.56 1.25-1.25V7.474l1.5-1.5v6.274A2.75 2.75 0 0 1 12.25 15h-8.5A2.75 2.75 0 0 1 1 12.25v-8.5A2.75 2.75 0 0 1 3.75 1h6.276zM11.66.78a2.25 2.25 0 0 1 3.182 0l.379.38a2.25 2.25 0 0 1 0 3.181l-6.487 6.487a1.75 1.75 0 0 1-.843.467l-2.971.686a.75.75 0 0 1-.9-.9l.686-2.97a1.75 1.75 0 0 1 .468-.844zm2.121 1.061a.75.75 0 0 0-1.06 0L6.233 8.327a.25.25 0 0 0-.067.122l-.416 1.8 1.802-.415a.25.25 0 0 0 .12-.067L14.16 3.28a.75.75 0 0 0 0-1.061z"/></svg>