<svg xmlns="http://www.w3.org/2000/svg" fill="currentColor" class="vi" viewBox="0 0 16 16"><path d="M8 1a.75.75 0 0 1 .691.46l2.863 6.814a2.8 2.8 0 0 0-.95.46l-.368.277L8 3.687 5.348 10h3.569l-.71.532a2.74 2.74 0 0 0-.81.968H4.719l-1.277 3.04a.75.75 0 1 1-1.382-.58l1.463-3.484.013-.032L7.309 1.46A.75.75 0 0 1 8 1m5.71 8.964a1.75 1.75 0 0 0-2.506-.43l-2.397 1.798a1.75 1.75 0 0 0-.406 2.371l.889 1.334a1.75 1.75 0 0 0 2.506.429l2.397-1.798a1.75 1.75 0 0 0 .406-2.371zm-1.606.77a.25.25 0 0 1 .358.062l.89 1.333a.25.25 0 0 1-.059.339l-1.609 1.206-1.166-1.75z"/></svg>