<svg xmlns="http://www.w3.org/2000/svg" fill="currentColor" class="vi" viewBox="0 0 16 16"><path d="m8.164 1.692 2.642 6.904a2.793 2.793 0 0 0-.202.138L9.25 9.75H4.305l-1.856 4.772a.75.75 0 0 1-1.398-.544l4.78-12.292C6.246.62 7.755.624 8.164 1.692Zm-1.17 1.142L4.888 8.25h4.18L6.993 2.834Zm6.716 7.13a1.75 1.75 0 0 0-2.506-.43l-2.397 1.798a1.75 1.75 0 0 0-.406 2.371l.889 1.334a1.75 1.75 0 0 0 2.506.429l2.397-1.798a1.75 1.75 0 0 0 .406-2.371l-.889-1.333Zm-1.606.77a.25.25 0 0 1 .358.062l.89 1.333a.25.25 0 0 1-.059.339l-1.609 1.206-1.166-1.75 1.586-1.19Z"/></svg>