<svg xmlns="http://www.w3.org/2000/svg" fill="currentColor" class="vi" viewBox="0 0 16 16"><path d="m8.164 1.692 2.402 6.276L8.02 9.75H4.305l-1.856 4.772a.75.75 0 0 1-1.398-.544l4.78-12.292C6.246.62 7.755.624 8.164 1.692Zm-1.17 1.142L4.888 8.25h4.18L6.993 2.834Zm6.697 6.351a1.75 1.75 0 0 0-2.46-.463l-3.36 2.353a1.75 1.75 0 0 0-.453 2.404l.89 1.336a1.75 1.75 0 0 0 2.46.463l3.361-2.353a1.75 1.75 0 0 0 .453-2.404l-.89-1.336Zm-1.599.766a.25.25 0 0 1 .351.066l.89 1.336a.25.25 0 0 1-.064.343l-2.57 1.8-1.168-1.752 2.561-1.793Z"/></svg>