<svg xmlns="http://www.w3.org/2000/svg" viewBox="0 0 16 16" fill="currentColor">
  <path fill-rule="evenodd" d="M8 8.5A2.75 2.75 0 1 0 8 3a2.75 2.75 0 0 0 0 5.5zM8 7a1.25 1.25 0 1 0 0-2.5A1.25 1.25 0 0 0 8 7z"/>
  <path fill-rule="evenodd" d="M14.245 13a8 8 0 1 0-1.054 1.087A8.052 8.052 0 0 0 14.245 13zm-1.054-1.087a6.5 6.5 0 1 0-10.382 0A7.968 7.968 0 0 1 8 10c1.981 0 3.794.72 5.191 1.913zM12.154 13A6.474 6.474 0 0 0 8 11.5c-1.58 0-3.027.563-4.154 1.5A6.473 6.473 0 0 0 8 14.5c1.58 0 3.027-.563 4.154-1.5z"/>
</svg>
