<svg xmlns="http://www.w3.org/2000/svg" viewBox="0 0 16 16" fill="currentColor">
  <path d="M7.293.03C4.174.3 1.46 2.423.439 5.39-.658 8.583.36 12.124 2.978 14.225a7.986 7.986 0 0 0 6.905 1.547c3.271-.796 5.647-3.485 6.068-6.865.045-.362.046-1.449.001-1.814a8.103 8.103 0 0 0-1.563-3.903A7.977 7.977 0 0 0 7.947.004a11.26 11.26 0 0 0-.654.026m1.654 1.541a6.496 6.496 0 0 1 4.88 3.561 6.454 6.454 0 0 1 .001 5.735c-.181.367-.587 1.026-.633 1.026a2.91 2.91 0 0 1-.294-.214c-2.86-2.239-6.946-2.232-9.823.016a2.498 2.498 0 0 1-.273.198c-.046 0-.451-.658-.633-1.026a6.61 6.61 0 0 1-.615-2 8.041 8.041 0 0 1-.001-1.734A6.485 6.485 0 0 1 3.497 3.32c1.116-1.073 2.501-1.686 4.09-1.81a9.06 9.06 0 0 1 1.36.061m-1.48 1.481c-1.246.26-2.142 1.296-2.205 2.55a2.743 2.743 0 0 0 3.834 2.666 2.762 2.762 0 0 0 1.525-1.695 2.764 2.764 0 0 0-.949-3.003 3.243 3.243 0 0 0-.968-.48c-.27-.073-.97-.094-1.237-.038m.823 1.483c.473.109.861.531.943 1.025.086.523-.207 1.075-.699 1.315-.199.097-.204.098-.534.098-.32 0-.341-.003-.514-.085a1.325 1.325 0 0 1-.719-.947c-.105-.612.327-1.263.932-1.405.14-.033.45-.034.591-.001m.203 6.986a6.534 6.534 0 0 1 3.41 1.282c.126.094.23.182.23.197 0 .015-.104.103-.23.197a6.6 6.6 0 0 1-3.028 1.242 6.527 6.527 0 0 1-4.782-1.246 24.529 24.529 0 0 1-.226-.173c-.025-.022.223-.22.545-.436a6.526 6.526 0 0 1 4.081-1.063"/>
</svg>
