<svg xmlns="http://www.w3.org/2000/svg" fill="currentColor" class="vi" viewBox="0 0 16 16"><path d="M8.5 6.25a1.75 1.75 0 1 1-3.5 0 1.75 1.75 0 0 1 3.5 0Zm-5.018 4.557c-.308-.436-.322-1.11.185-1.279a9.75 9.75 0 0 1 6.166 0c.507.17.493.843.185 1.279A3.995 3.995 0 0 1 6.75 12.5a3.995 3.995 0 0 1-3.268-1.693Z"/><path d="M2.75 0A1.75 1.75 0 0 0 1 1.75v12.5c0 .966.784 1.75 1.75 1.75h8a1.75 1.75 0 0 0 1.75-1.75V1.75A1.75 1.75 0 0 0 10.75 0h-8ZM2.5 1.75a.25.25 0 0 1 .25-.25h8a.25.25 0 0 1 .25.25v12.5a.25.25 0 0 1-.25.25h-8a.25.25 0 0 1-.25-.25V1.75ZM15 2.5a.75.75 0 0 0-1.5 0v2a.75.75 0 0 0 1.5 0v-2ZM15 7a.75.75 0 0 0-1.5 0v2A.75.75 0 0 0 15 9V7Zm0 4.5a.75.75 0 0 0-1.5 0v2a.75.75 0 0 0 1.5 0v-2Z"/></svg>