<svg xmlns="http://www.w3.org/2000/svg" viewBox="0 0 16 16" fill="currentColor"><path d="M8.5 6.25a1.75 1.75 0 1 1-3.5 0 1.75 1.75 0 0 1 3.5 0ZM3.48 10.8c-.3-.43-.32-1.1.19-1.27 2-.67 4.16-.67 6.16 0 .51.17.5.84.19 1.28a4 4 0 0 1-6.54 0Z"/><path d="M2.75 0C1.78 0 1 .78 1 1.75v12.5c0 .97.78 1.75 1.75 1.75h8c.97 0 1.75-.78 1.75-1.75V1.75C12.5.78 11.72 0 10.75 0h-8ZM2.5 1.75c0-.14.11-.25.25-.25h8c.14 0 .25.11.25.25v12.5c0 .14-.11.25-.25.25h-8a.25.25 0 0 1-.25-.25V1.75ZM15 2.5a.75.75 0 0 0-1.5 0v2a.75.75 0 0 0 1.5 0v-2ZM15 7a.75.75 0 0 0-1.5 0v2A.75.75 0 0 0 15 9V7Zm0 4.5a.75.75 0 0 0-1.5 0v2a.75.75 0 0 0 1.5 0v-2Z"/></svg>