<svg xmlns="http://www.w3.org/2000/svg" fill="currentColor" class="vi" viewBox="0 0 16 16"><path d="M8.5 6.25a1.75 1.75 0 1 1-3.5 0 1.75 1.75 0 0 1 3.5 0m-5.018 4.557c-.308-.436-.322-1.11.185-1.279a9.75 9.75 0 0 1 6.166 0c.507.17.493.843.185 1.279A4 4 0 0 1 6.75 12.5a4 4 0 0 1-3.268-1.693"/><path d="M3.75 0A2.75 2.75 0 0 0 1 2.75v10.5A2.75 2.75 0 0 0 3.75 16h6a2.75 2.75 0 0 0 2.75-2.75V2.75A2.75 2.75 0 0 0 9.75 0zM2.5 2.75c0-.69.56-1.25 1.25-1.25h6c.69 0 1.25.56 1.25 1.25v10.5c0 .69-.56 1.25-1.25 1.25h-6c-.69 0-1.25-.56-1.25-1.25zM15 2.5a.75.75 0 0 0-1.5 0v2a.75.75 0 0 0 1.5 0zM15 7a.75.75 0 0 0-1.5 0v2A.75.75 0 0 0 15 9zm0 4.5a.75.75 0 0 0-1.5 0v2a.75.75 0 0 0 1.5 0z"/></svg>