<svg xmlns="http://www.w3.org/2000/svg" viewBox="0 0 20 16" fill="currentColor">
  <path fill-rule="evenodd" d="M5.19 11.66c-.47-.5-.62-1.26-.18-1.78.31-.38.77-.65 1.3-.72a15.3 15.3 0 0 1 4.38 0c.53.07.99.34 1.3.72.44.52.29 1.29-.18 1.78a4.53 4.53 0 0 1-6.62 0zm3.31-.06c.84 0 1.6-.35 2.16-.9a.57.57 0 0 0-.18-.06 14.02 14.02 0 0 0-3.96 0 .57.57 0 0 0-.18.06c.55.55 1.32.9 2.16.9zm0-3.6a2.5 2.5 0 1 0 0-5 2.5 2.5 0 0 0 0 5zm0-1.5a1 1 0 1 1 0-2 1 1 0 0 1 0 2z"/>
  <path fill-rule="evenodd" d="M2 2c0-1.1.9-2 2-2h9a2 2 0 0 1 2 2v12a2 2 0 0 1-2 2H4a2 2 0 0 1-2-2V2zm2-.5a.5.5 0 0 0-.5.5v12c0 .28.22.5.5.5h9a.5.5 0 0 0 .5-.5V2a.5.5 0 0 0-.5-.5H4z"/>
  <path d="M16 2.75v1.5a.75.75 0 0 0 1.5 0v-1.5a.75.75 0 0 0-1.5 0zm0 4.5a.75.75 0 0 1 1.5 0v1.5a.75.75 0 0 1-1.5 0v-1.5zm0 4.5v1.5a.75.75 0 0 0 1.5 0v-1.5a.75.75 0 0 0-1.5 0z"/>
</svg>
