<svg xmlns="http://www.w3.org/2000/svg" viewBox="0 0 16 16" fill="currentColor">
  <path d="M9.747 2.324c-.044.017-.134.07-.2.118-.066.048-1.215 1.184-2.552 2.523-2.144 2.146-2.441 2.453-2.501 2.586-.092.201-.124.41-.093.601.057.349-.041.242 2.662 2.944 1.693 1.692 2.531 2.512 2.604 2.547.15.071.519.071.664-.001a.837.837 0 0 0 .342-.343c.086-.162.085-.49-.003-.659-.043-.083-.754-.813-2.319-2.38L6.094 8l2.257-2.26c1.565-1.567 2.276-2.297 2.319-2.38.088-.169.089-.497.003-.659a.84.84 0 0 0-.342-.342c-.123-.059-.462-.08-.584-.035"/>
</svg>
