<svg xmlns="http://www.w3.org/2000/svg" fill="currentColor" class="vi" viewBox="0 0 16 16"><path d="M13.5 1h-11A1.5 1.5 0 0 0 1 2.5v11A1.5 1.5 0 0 0 2.5 15h11a1.5 1.5 0 0 0 1.5-1.5v-11A1.5 1.5 0 0 0 13.5 1M4.969 12.016a.624.624 0 1 1-1.082-.625l.447-.772q.755-.23 1.238.356zm4.34-1.685H3.625A.627.627 0 0 1 3 9.706c0-.343.281-.625.625-.625h1.594l2.043-3.537-.64-1.106a.626.626 0 0 1 .228-.854.626.626 0 0 1 .853.228l.278.482.278-.481a.624.624 0 1 1 1.082.624L6.659 9.082H8.6c.631 0 .984.74.71 1.25m3.066 0h-.906l.612 1.06c.172.3.069.68-.228.853a.626.626 0 0 1-.853-.228C9.972 10.238 9.203 8.9 8.688 8.012c-.522-.906-.15-1.812.221-2.118q.614 1.065 1.841 3.187h1.625a.625.625 0 1 1 0 1.25"/></svg>