<svg xmlns="http://www.w3.org/2000/svg" viewBox="0 0 20 16" fill="currentColor">
  <path d="M15.5 1h-11A1.5 1.5 0 0 0 3 2.5v11A1.5 1.5 0 0 0 4.5 15h11a1.5 1.5 0 0 0 1.5-1.5v-11A1.5 1.5 0 0 0 15.5 1zM6.97 12.02a.62.62 0 1 1-1.08-.63l.44-.77c.5-.15.92-.04 1.24.36L6.97 12zm4.34-1.69H5.62A.63.63 0 0 1 5 9.71c0-.35.28-.63.63-.63h1.59l2.04-3.54-.64-1.1a.63.63 0 0 1 .23-.86.63.63 0 0 1 .85.23l.28.48.28-.48a.62.62 0 1 1 1.08.63L8.66 9.08h1.94c.63 0 .98.74.71 1.25zm3.07 0h-.91l.61 1.06c.17.3.07.68-.23.85a.63.63 0 0 1-.85-.22l-2.31-4c-.52-.91-.15-1.82.22-2.13l1.84 3.2h1.62a.63.63 0 1 1 0 1.24z"/>
</svg>
