<svg xmlns="http://www.w3.org/2000/svg" fill="currentColor" class="vi" viewBox="0 0 16 16"><path d="M11.96 8.397c-.007-1.147.512-2.013 1.562-2.65-.588-.84-1.475-1.303-2.647-1.394C9.765 4.266 8.553 5 8.109 5c-.468 0-1.543-.616-2.387-.616-1.744.028-3.597 1.391-3.597 4.163q0 1.228.45 2.537c.4 1.147 1.844 3.96 3.35 3.913.788-.019 1.344-.56 2.369-.56.993 0 1.51.56 2.387.56 1.519-.022 2.825-2.578 3.207-3.728-2.038-.96-1.929-2.813-1.929-2.872m-1.77-5.131c.854-1.013.776-1.935.75-2.266-.752.044-1.624.513-2.121 1.09-.547.62-.869 1.385-.8 2.248.815.062 1.56-.357 2.172-1.072"/></svg>