<svg xmlns="http://www.w3.org/2000/svg" fill="currentColor" class="vi" viewBox="0 0 16 16"><path d="M12 12H9.75v-1.5H12a2.5 2.5 0 0 0 .982-4.8 2.5 2.5 0 0 0-4.026-1.666 1.734 1.734 0 0 0-.104-.063A3.489 3.489 0 0 0 6 2.5 3.5 3.5 0 0 0 2.5 6 2.5 2.5 0 0 0 4 10.5h2.25V12H4a4 4 0 0 1-2.951-6.7 5.001 5.001 0 0 1 8.2-3.1 4 4 0 0 1 5.041 2.52A4 4 0 0 1 12 12"/><path d="M10.72 9.28a.75.75 0 1 0 1.06-1.06L8.53 4.97a.75.75 0 0 0-1.06 0L4.22 8.22a.75.75 0 0 0 1.06 1.06l1.97-1.97v7.44a.75.75 0 0 0 1.5 0V7.31z"/></svg>