<svg xmlns="http://www.w3.org/2000/svg" viewBox="0 0 16 16" fill="currentColor">
  <path d="M1.6 2.041A2.035 2.035 0 0 0 .157 3.226C-.007 3.618 0 3.409 0 8s-.007 4.382.157 4.774c.193.461.607.876 1.069 1.069.372.156.426.16 2.414.151l1.813-.007.134-.071c.536-.285.546-1.012.017-1.323l-.124-.073-1.6-.014c-1.523-.012-1.606-.016-1.725-.066a1.061 1.061 0 0 1-.598-.61c-.049-.132-.05-.266-.05-3.83s.001-3.698.05-3.83c.102-.275.31-.487.598-.61.119-.05.202-.054 1.725-.066l1.6-.014.124-.073c.361-.212.492-.636.307-.997a.716.716 0 0 0-.338-.334l-.12-.063-1.84-.005c-1.5-.004-1.872.002-2.013.033m8.693 1.237A.755.755 0 0 0 9.761 4c-.001.334-.021.309 1.527 1.86l1.39 1.393H9.277c-3.864 0-3.556-.018-3.799.225a.713.713 0 0 0 0 1.044c.243.243-.065.225 3.799.225h3.401l-1.39 1.393C9.74 11.691 9.76 11.666 9.761 12c0 .208.065.368.207.516.203.21.499.282.782.191.136-.044.245-.148 2.151-2.05 1.104-1.102 2.042-2.058 2.084-2.124a.985.985 0 0 0 0-1.066c-.042-.066-.98-1.022-2.084-2.124-1.829-1.825-2.019-2.007-2.139-2.046a.942.942 0 0 0-.469-.019"/>
</svg>
