<svg width="16" height="16" viewBox="0 0 16 16" fill="none" xmlns="http://www.w3.org/2000/svg">
<path fill-rule="evenodd" clip-rule="evenodd" d="M8 14.75C7.58579 14.75 7.25 14.4142 7.25 14H8H8.75C8.75 14.4142 8.41421 14.75 8 14.75ZM7.25 3.81066L7.25 14H8H8.75V3.81066L12.4686 7.52924L12.4694 7.53006C12.7623 7.82295 13.2374 7.82322 13.5303 7.53033C13.8232 7.23744 13.8232 6.76256 13.5303 6.46967L8.70734 1.64668C8.31672 1.25606 7.68338 1.25616 7.29289 1.6469L2.44292 6.5L2.4416 6.50132L2.44052 6.50241L2.43967 6.50325L2.43886 6.50407C2.14596 6.79696 2.14569 7.27211 2.43858 7.565C2.73147 7.85789 3.20635 7.85789 3.49924 7.565L3.5 7.56424L7.25 3.81066Z" fill="black"/>
</svg>
