<svg xmlns="http://www.w3.org/2000/svg" fill="currentColor" class="vi" viewBox="0 0 16 16"><path d="M13.553 3.161A3.502 3.502 0 0 1 12.5 10H9.75V8.5h2.75a2 2 0 1 0 0-4h-.05a2.5 2.5 0 0 0-3.881-1.55A3.006 3.006 0 0 0 6 1.5a3 3 0 0 0-2.976 2.62A2.251 2.251 0 0 0 3.75 8.5h2.5V10h-2.5a3.75 3.75 0 0 1-2.026-6.906 4.5 4.5 0 0 1 7.259-1.963 4.002 4.002 0 0 1 4.57 2.03"/><path d="M5.28 11.47a.75.75 0 0 0-1.06 1.06l3.25 3.25a.75.75 0 0 0 1.06 0l3.25-3.25a.75.75 0 1 0-1.06-1.06l-1.97 1.97V6a.75.75 0 0 0-1.5 0v7.44z"/></svg>