<svg xmlns="http://www.w3.org/2000/svg" fill="currentColor" class="vi" viewBox="0 0 16 16"><path d="M2.75 0A2.75 2.75 0 0 0 0 2.75v10.5A2.75 2.75 0 0 0 2.75 16h4.5A2.75 2.75 0 0 0 10 13.25v-3.5H8.5v3.5c0 .69-.56 1.25-1.25 1.25h-4.5c-.69 0-1.25-.56-1.25-1.25V2.75c0-.69.56-1.25 1.25-1.25h4.5c.69 0 1.25.56 1.25 1.25v3.5H10v-3.5A2.75 2.75 0 0 0 7.25 0h-4.5Z"/><path d="M4.75 12.25a.75.75 0 0 0 0 1.5h.5a.75.75 0 0 0 0-1.5h-.5Zm6.49-1.55a.75.75 0 1 0 1.02 1.1l3.5-3.25a.75.75 0 0 0 0-1.1l-3.5-3.25a.75.75 0 1 0-1.02 1.1l2.1 1.95H5.75a.75.75 0 0 0 0 1.5h7.59l-2.1 1.95Z"/></svg>