<svg width="16" height="16" viewBox="0 0 16 16" fill="none" xmlns="http://www.w3.org/2000/svg">
<path fill-rule="evenodd" clip-rule="evenodd" d="M9.46967 3.46967C9.76256 3.17678 10.2374 3.17678 10.5303 3.46967L14.3536 7.29289C14.7441 7.68342 14.7441 8.31658 14.3536 8.70711L10.5303 12.5303C10.2374 12.8232 9.76256 12.8232 9.46967 12.5303C9.17678 12.2374 9.17678 11.7626 9.46967 11.4697L12.1893 8.75H6C5.58579 8.75 5.25 8.41421 5.25 8C5.25 7.58579 5.58579 7.25 6 7.25H12.1893L9.46967 4.53033C9.17678 4.23744 9.17678 3.76256 9.46967 3.46967Z" fill="black"/>
<path fill-rule="evenodd" clip-rule="evenodd" d="M6.75 13C6.75 13.4142 6.41421 13.75 6 13.75H4C2.48122 13.75 1.25 12.5188 1.25 11L1.25 5C1.25 3.48122 2.48122 2.25 4 2.25H6C6.41421 2.25 6.75 2.58579 6.75 3C6.75 3.41421 6.41421 3.75 6 3.75H4C3.30964 3.75 2.75 4.30964 2.75 5L2.75 11C2.75 11.6904 3.30964 12.25 4 12.25H6C6.41421 12.25 6.75 12.5858 6.75 13Z" fill="black"/>
</svg>
