<svg xmlns="http://www.w3.org/2000/svg" fill="currentColor" class="vi" viewBox="0 0 16 16"><path d="M9 1.75A.75.75 0 0 1 9.75 1h1a.75.75 0 0 1 0 1.5h-1A.75.75 0 0 1 9 1.75M7.78 5.53a.75.75 0 0 1-1.06 0L4.75 3.56v10.69a.75.75 0 0 1-1.5 0V3.56L1.28 5.53A.75.75 0 0 1 .22 4.47l3.25-3.25a.75.75 0 0 1 1.06 0l3.25 3.25a.75.75 0 0 1 0 1.06M9.75 5a.75.75 0 0 0 0 1.5h2.5a.75.75 0 0 0 0-1.5zM9 9.75A.75.75 0 0 1 9.75 9h4a.75.75 0 0 1 0 1.5h-4A.75.75 0 0 1 9 9.75M9.75 13a.75.75 0 0 0 0 1.5h5.5a.75.75 0 0 0 0-1.5z"/></svg>