<svg width="16" height="16" viewBox="0 0 16 16" fill="none" xmlns="http://www.w3.org/2000/svg">
<path fill-rule="evenodd" clip-rule="evenodd" d="M5.46967 3.46967C5.76256 3.17678 6.23744 3.17678 6.53033 3.46967L10.3536 7.29289C10.7441 7.68342 10.7441 8.31658 10.3536 8.70711L6.53033 12.5303C6.23744 12.8232 5.76256 12.8232 5.46967 12.5303C5.17678 12.2374 5.17678 11.7626 5.46967 11.4697L8.18934 8.75H2C1.58579 8.75 1.25 8.41421 1.25 8C1.25 7.58579 1.58579 7.25 2 7.25H8.18934L5.46967 4.53033C5.17678 4.23744 5.17678 3.76256 5.46967 3.46967Z" fill="black"/>
<path fill-rule="evenodd" clip-rule="evenodd" d="M9.25 3C9.25 2.58579 9.58579 2.25 10 2.25H12C13.5188 2.25 14.75 3.48122 14.75 5V11C14.75 12.5188 13.5188 13.75 12 13.75H10C9.58579 13.75 9.25 13.4142 9.25 13C9.25 12.5858 9.58579 12.25 10 12.25H12C12.6904 12.25 13.25 11.6904 13.25 11V5C13.25 4.30964 12.6904 3.75 12 3.75H10C9.58579 3.75 9.25 3.41421 9.25 3Z" fill="black"/>
</svg>
