<svg xmlns="http://www.w3.org/2000/svg" viewBox="0 0 16 16" fill="currentColor">
  <path d="M7.808.276a.773.773 0 0 0-.528.523c-.017.06-.026 1.785-.027 4.747v4.653L5.82 8.77C4.525 7.478 4.374 7.336 4.255 7.297a.725.725 0 0 0-.777.181.724.724 0 0 0-.181.777c.039.12.223.312 2.073 2.166 2.331 2.336 2.175 2.206 2.63 2.206.455 0 .299.13 2.63-2.206 1.85-1.854 2.034-2.046 2.073-2.166a.724.724 0 0 0-.181-.777.725.725 0 0 0-.777-.181c-.119.039-.27.181-1.565 1.472l-1.433 1.429-.007-4.706L8.733.787 8.655.645a.748.748 0 0 0-.847-.369M2.533 14.531a.765.765 0 0 0-.525.79.76.76 0 0 0 .419.603l.12.063h10.906l.12-.063a.716.716 0 0 0 .338-.334c.185-.361.054-.785-.307-.997l-.124-.073-5.44-.005c-2.992-.002-5.47.005-5.507.016"/>
</svg>
