<svg xmlns="http://www.w3.org/2000/svg" fill="currentColor" class="vi" viewBox="0 0 16 16"><path d="M16 8a4.002 4.002 0 0 1-3.043 3.885 1.75 1.75 0 0 0-.33-1.464 2.501 2.501 0 0 0 .355-4.72 2.5 2.5 0 0 0-4.026-1.667 1.748 1.748 0 0 0-.104-.063A3.489 3.489 0 0 0 6 2.5 3.5 3.5 0 0 0 2.5 6a2.501 2.501 0 0 0 .872 4.42 1.75 1.75 0 0 0-.33 1.465A4.002 4.002 0 0 1 1.05 5.3a5.001 5.001 0 0 1 8.2-3.1 4 4 0 0 1 5.04 2.52A3.995 3.995 0 0 1 16 8"/><path d="M9.75 10.5h.025l-.025.025zm-3.5.025-.025-.025h.025z"/><path d="M5.28 10.97a.75.75 0 0 0-1.06 1.06l3.25 3.25a.75.75 0 0 0 1.06 0l3.25-3.25a.75.75 0 1 0-1.06-1.06l-1.97 1.97V5.5a.75.75 0 0 0-1.5 0v7.44z"/></svg>