<svg xmlns="http://www.w3.org/2000/svg" width="16" height="16" fill="currentColor" class="vi" viewBox="0 0 16 16"><path d="M.22 10.47c.3-.3.77-.3 1.06 0l1.97 1.97V1.75a.75.75 0 0 1 1.5 0v10.69l1.97-1.97a.75.75 0 0 1 1.06 1.06l-3.25 3.25c-.3.3-.77.3-1.06 0L.22 11.53a.75.75 0 0 1 0-1.06ZM9 1.75c0-.41.34-.75.75-.75h5.5a.75.75 0 0 1 0 1.5h-5.5A.75.75 0 0 1 9 1.75ZM9.75 5a.75.75 0 0 0 0 1.5h4a.75.75 0 0 0 0-1.5h-4ZM9 9.75c0-.41.34-.75.75-.75h2.5a.75.75 0 0 1 0 1.5h-2.5A.75.75 0 0 1 9 9.75ZM9.75 13a.75.75 0 0 0 0 1.5h1a.75.75 0 0 0 0-1.5h-1Z"/></svg>