<svg xmlns="http://www.w3.org/2000/svg" viewBox="0 0 16 16" fill="currentColor">
  <path d="M6.253 1.793a.983.983 0 0 0-.186.102c-.059.041-1.327 1.296-2.818 2.79C1.12 6.817.524 7.429.472 7.534a1 1 0 0 0-.1.632c.068.345-.032.236 2.93 3.197 1.917 1.915 2.797 2.778 2.871 2.812a.891.891 0 0 0 .623.011c.283-.122.483-.456.449-.749-.036-.298.018-.238-2.279-2.537L2.814 8.747l6.2-.007 6.199-.007.142-.078A.71.71 0 0 0 15.74 8a.71.71 0 0 0-.385-.655l-.142-.078-6.199-.007-6.2-.007L4.966 5.1c2.297-2.299 2.243-2.239 2.279-2.537.033-.285-.157-.612-.431-.74a.886.886 0 0 0-.561-.03"/>
</svg>
