<svg xmlns="http://www.w3.org/2000/svg" fill="currentColor" class="vi" viewBox="0 0 16 16"><path d="M11.25 5.5h2.206l-.005-.01A6 6 0 0 0 4.32 3.261c-.327.255-.8.259-1.092-.034-.293-.293-.295-.771.025-1.033A7.469 7.469 0 0 1 8 .5a7.497 7.497 0 0 1 6.5 3.756V2.25a.75.75 0 0 1 1.5 0v4a.75.75 0 0 1-.75.75h-4a.75.75 0 0 1 0-1.5m-6.49 5H2.554l.004.01a6 6 0 0 0 9.132 2.229c.327-.255.8-.259 1.093.034.293.293.295.771-.026 1.033A7.469 7.469 0 0 1 8.01 15.5a7.497 7.497 0 0 1-6.5-3.756v2.006a.75.75 0 0 1-1.5 0v-4A.75.75 0 0 1 .76 9h4a.75.75 0 1 1 0 1.5"/></svg>