<svg width="16" height="16" viewBox="0 0 16 16" fill="none" xmlns="http://www.w3.org/2000/svg">
<path fill-rule="evenodd" clip-rule="evenodd" d="M14.75 8C14.75 8.41421 14.4142 8.75 14 8.75V8V7.25C14.4142 7.25 14.75 7.58579 14.75 8ZM3.81066 8.75H14V8V7.25L3.81066 7.25L7.52924 3.53142L7.53006 3.5306C7.82295 3.23771 7.82322 2.76256 7.53033 2.46967C7.23744 2.17678 6.76256 2.17678 6.46967 2.46967L1.64668 7.29266C1.25606 7.68328 1.25616 8.31662 1.6469 8.70711L6.5 13.5571L6.50132 13.5584L6.50241 13.5595L6.50325 13.5603L6.50407 13.5611C6.79696 13.854 7.27211 13.8543 7.565 13.5614C7.85789 13.2685 7.85789 12.7937 7.565 12.5008L7.56424 12.5L3.81066 8.75Z" fill="black"/>
</svg>
