<svg xmlns="http://www.w3.org/2000/svg" fill="currentColor" class="vi" viewBox="0 0 16 16"><path d="M.22 10.47a.75.75 0 0 1 1.06 0l1.97 1.97V1.75a.75.75 0 0 1 1.5 0v10.69l1.97-1.97a.75.75 0 0 1 1.06 1.06l-3.25 3.25a.75.75 0 0 1-1.06 0L.22 11.53a.75.75 0 0 1 0-1.06ZM9 1.75A.75.75 0 0 1 9.75 1h1a.75.75 0 0 1 0 1.5h-1A.75.75 0 0 1 9 1.75ZM9.75 5a.75.75 0 0 0 0 1.5h2.5a.75.75 0 0 0 0-1.5h-2.5ZM9 9.75A.75.75 0 0 1 9.75 9h4a.75.75 0 0 1 0 1.5h-4A.75.75 0 0 1 9 9.75ZM9.75 13a.75.75 0 0 0 0 1.5h5.5a.75.75 0 0 0 0-1.5h-5.5Z"/></svg>