<svg width="16" height="16" viewBox="0 0 16 16" fill="none" xmlns="http://www.w3.org/2000/svg">
<path fill-rule="evenodd" clip-rule="evenodd" d="M1.25 8C1.25 7.58579 1.58579 7.25 2 7.25V8V8.75C1.58579 8.75 1.25 8.41421 1.25 8ZM12.1893 7.25L2 7.25V8V8.75H12.1893L8.47076 12.4686L8.46994 12.4694C8.17705 12.7623 8.17678 13.2374 8.46967 13.5303C8.76256 13.8232 9.23744 13.8232 9.53033 13.5303L14.3533 8.70734C14.7439 8.31672 14.7438 7.68338 14.3531 7.29289L9.5 2.44292L9.49868 2.4416L9.49759 2.44052L9.49675 2.43967L9.49593 2.43886C9.20304 2.14596 8.72789 2.14569 8.435 2.43858C8.14211 2.73147 8.14211 3.20635 8.435 3.49924L8.43576 3.5L12.1893 7.25Z" fill="black"/>
</svg>
