<svg xmlns="http://www.w3.org/2000/svg" viewBox="0 0 16 16" fill="currentColor">
  <path d="M7.773.384a1.475 1.475 0 0 0-.253.094C7.354.562 1.896 6.02 1.825 6.173a.891.891 0 0 0-.011.623c.123.287.453.484.75.448.297-.035.239.018 2.536-2.278l2.153-2.152.007 6.2.007 6.199.078.142A.71.71 0 0 0 8 15.74a.71.71 0 0 0 .655-.385l.078-.142.007-6.199.007-6.2L10.9 4.966c2.299 2.297 2.239 2.243 2.537 2.279.293.034.627-.166.749-.449a.891.891 0 0 0-.011-.623c-.034-.074-.897-.954-2.812-2.871C8.434.372 8.513.445 8.192.377a.747.747 0 0 0-.419.007"/>
</svg>
