<svg xmlns="http://www.w3.org/2000/svg" fill="currentColor" class="vi" viewBox="0 0 16 16"><path fill-rule="evenodd" d="M9.75 0a.75.75 0 0 0 0 1.5h3.69L7.22 7.72a.75.75 0 0 0 1.06 1.06l6.22-6.22v3.69a.75.75 0 0 0 1.5 0V.75a.75.75 0 0 0-.75-.75zM1.5 4.25C1.5 3.56 2.06 3 2.75 3h4.5a.75.75 0 0 0 0-1.5h-4.5A2.75 2.75 0 0 0 0 4.25v9A2.75 2.75 0 0 0 2.75 16h9a2.75 2.75 0 0 0 2.75-2.75v-4.5a.75.75 0 0 0-1.5 0v4.5c0 .69-.56 1.25-1.25 1.25h-9c-.69 0-1.25-.56-1.25-1.25z"/><path d="M9.75 0a.75.75 0 0 0 0 1.5h3.69L7.22 7.72a.75.75 0 0 0 1.06 1.06l6.22-6.22v3.69a.75.75 0 0 0 1.5 0V.75a.75.75 0 0 0-.75-.75z"/><path d="M1.5 4.25C1.5 3.56 2.06 3 2.75 3h4.5a.75.75 0 0 0 0-1.5h-4.5A2.75 2.75 0 0 0 0 4.25v9A2.75 2.75 0 0 0 2.75 16h9a2.75 2.75 0 0 0 2.75-2.75v-4.5a.75.75 0 0 0-1.5 0v4.5c0 .69-.56 1.25-1.25 1.25h-9c-.69 0-1.25-.56-1.25-1.25z"/></svg>