<svg xmlns="http://www.w3.org/2000/svg" viewBox="0 0 16 16" fill="currentColor">
  <path d="M7.808.276a.773.773 0 0 0-.528.523c-.017.06-.026 2.301-.027 6.241v6.146L5.1 11.034C2.803 8.738 2.861 8.791 2.564 8.756c-.297-.036-.627.161-.75.448a.891.891 0 0 0 .011.623c.035.074.979 1.037 3.079 3.14C7.324 15.39 7.946 16 8 16c.054 0 .676-.61 3.096-3.033 2.1-2.103 3.044-3.066 3.079-3.14a.891.891 0 0 0 .011-.623c-.123-.287-.453-.484-.75-.448-.297.035-.239-.018-2.536 2.278l-2.153 2.152-.007-6.2L8.733.787 8.655.645a.748.748 0 0 0-.847-.369"/>
</svg>
