<svg xmlns="http://www.w3.org/2000/svg" viewBox="0 0 16 16" fill="currentColor">
  <path d="M10.56 2.025a.913.913 0 0 0-.35.206.755.755 0 0 0 .186 1.176l.124.073 1.6.014c1.523.012 1.606.016 1.725.066.288.123.496.335.598.61.049.132.05.266.05 3.83s-.001 3.698-.05 3.83c-.102.275-.31.487-.598.61-.119.05-.202.054-1.725.066-1.587.014-1.601.014-1.71.073a.846.846 0 0 0-.374.457.745.745 0 0 0 .377.88l.134.071 1.813.007c1.58.007 1.841.002 2.027-.035a2.001 2.001 0 0 0 1.571-1.565c.037-.182.042-.68.042-4.394s-.005-4.212-.042-4.394a2.003 2.003 0 0 0-1.564-1.564c-.176-.036-.461-.042-1.986-.04-.98.002-1.811.012-1.848.023m-5.323 1.27a.804.804 0 0 0-.397.362.775.775 0 0 0-.016.663c.042.082.5.56 1.465 1.526l1.403 1.407-3.453.007-3.452.007-.11.058c-.281.151-.422.377-.42.673a.72.72 0 0 0 .388.657l.142.078 3.452.007 3.453.007-1.403 1.407c-.965.966-1.423 1.444-1.465 1.526a.775.775 0 0 0 .016.663.719.719 0 0 0 .718.397.918.918 0 0 0 .283-.072c.085-.043.692-.633 2.122-2.064C10.266 8.299 10.12 8.476 10.12 8s.146-.299-2.157-2.604C6.531 3.963 5.926 3.374 5.84 3.332a.927.927 0 0 0-.603-.037"/>
</svg>
