<svg width="16" height="16" viewBox="0 0 16 16" fill="none" xmlns="http://www.w3.org/2000/svg">
<path fill-rule="evenodd" clip-rule="evenodd" d="M2.25 14C2.25 13.5858 2.58579 13.25 3 13.25H13C13.4142 13.25 13.75 13.5858 13.75 14C13.75 14.4142 13.4142 14.75 13 14.75H3C2.58579 14.75 2.25 14.4142 2.25 14Z" fill="black"/>
<path fill-rule="evenodd" clip-rule="evenodd" d="M8 1.25C8.41421 1.25 8.75 1.58579 8.75 2V9.18934L11.4697 6.46967C11.7626 6.17678 12.2374 6.17678 12.5303 6.46967C12.8232 6.76256 12.8232 7.23744 12.5303 7.53033L8.70711 11.3536C8.31658 11.7441 7.68342 11.7441 7.29289 11.3536L3.46967 7.53033C3.17678 7.23744 3.17678 6.76256 3.46967 6.46967C3.76256 6.17678 4.23744 6.17678 4.53033 6.46967L7.25 9.18934V2C7.25 1.58579 7.58579 1.25 8 1.25Z" fill="black"/>
</svg>
