<svg xmlns="http://www.w3.org/2000/svg" fill="currentColor" class="vi" viewBox="0 0 16 16"><path d="M7.5 3.75c0-.69.56-1.25 1.25-1.25H11v2.75c0 .414.336.75.75.75h2.75v6.25c0 .69-.56 1.25-1.25 1.25H9.053L7.94 14.532q-.146.135-.31.23c.342.153.72.238 1.119.238h4.5A2.75 2.75 0 0 0 16 12.25v-7a.75.75 0 0 0-.22-.53l-3.5-3.5a.75.75 0 0 0-.53-.22h-3A2.75 2.75 0 0 0 6 3.75v1.418a1.76 1.76 0 0 1 1.5 0z"/><path d="M6.2 13.76a.75.75 0 0 1 .04-1.06l2.1-1.95H.75a.75.75 0 0 1 0-1.5h7.59L6.24 7.3a.75.75 0 1 1 1.02-1.1l3.5 3.25a.75.75 0 0 1 0 1.1l-3.5 3.25a.75.75 0 0 1-1.06-.04"/></svg>