<svg xmlns="http://www.w3.org/2000/svg" viewBox="0 0 16 16" fill="currentColor">
  <path d="M9.186 1.823c-.278.129-.465.452-.43.741.035.297-.018.239 2.278 2.536l2.152 2.153-6.2.007-6.199.007-.11.058c-.281.151-.422.377-.42.673a.72.72 0 0 0 .388.657l.142.078 6.199.007 6.2.007-2.152 2.153c-2.296 2.297-2.243 2.239-2.278 2.536-.049.412.304.803.726.804.363 0 .126.212 3.202-2.863 2.977-2.976 2.876-2.865 2.944-3.211a1 1 0 0 0-.1-.632c-.052-.106-.653-.72-2.844-2.911-2.547-2.547-2.788-2.78-2.909-2.82a.852.852 0 0 0-.589.02"/>
</svg>
