<svg width="16" height="16" viewBox="0 0 16 16" fill="none" xmlns="http://www.w3.org/2000/svg">
<path fill-rule="evenodd" clip-rule="evenodd" d="M8 1.25C8.41421 1.25 8.75 1.58579 8.75 2H8H7.25C7.25 1.58579 7.58579 1.25 8 1.25ZM8.75 12.1893V2H8H7.25V12.1893L3.53142 8.47076L3.5306 8.46994C3.23771 8.17705 2.76256 8.17678 2.46967 8.46967C2.17678 8.76256 2.17678 9.23744 2.46967 9.53033L7.29266 14.3533C7.68328 14.7439 8.31662 14.7438 8.70711 14.3531L13.5571 9.5L13.5584 9.49868L13.5595 9.49759L13.5603 9.49675L13.5611 9.49593C13.854 9.20304 13.8543 8.72789 13.5614 8.435C13.2685 8.14211 12.7937 8.14211 12.5008 8.435L12.5 8.43576L8.75 12.1893Z" fill="black"/>
</svg>
