<svg xmlns="http://www.w3.org/2000/svg" fill="currentColor" class="vi" viewBox="0 0 16 16"><path d="M1.5 3.75c0-.69.56-1.25 1.25-1.25H5v2.75c0 .414.336.75.75.75H8.5v2.25H10v-3a.75.75 0 0 0-.22-.53l-3.5-3.5A.75.75 0 0 0 5.75 1h-3A2.75 2.75 0 0 0 0 3.75v8.5A2.75 2.75 0 0 0 2.75 15h4.5A2.75 2.75 0 0 0 10 12.25v-.5H8.5v.5c0 .69-.56 1.25-1.25 1.25h-4.5c-.69 0-1.25-.56-1.25-1.25v-8.5Z"/><path d="M11.2 13.76a.75.75 0 0 1 .04-1.06l2.1-1.95H5.75a.75.75 0 0 1 0-1.5h7.59l-2.1-1.95a.75.75 0 1 1 1.02-1.1l3.5 3.25a.75.75 0 0 1 0 1.1l-3.5 3.25a.75.75 0 0 1-1.06-.04Z"/></svg>