<svg xmlns="http://www.w3.org/2000/svg" viewBox="0 0 16 16" fill="currentColor">
  <path fill-rule="evenodd" d="M1.482 2.054a.74.74 0 0 0-.467.693c.001.319.13.53.407.666l.165.081 6.44-.007c6.354-.007 6.441-.008 6.546-.06a.834.834 0 0 0 .371-.405.87.87 0 0 0-.013-.569.814.814 0 0 0-.418-.4c-.14-.052-.216-.053-6.521-.052-6.23.001-6.382.003-6.51.053m.03 5.238c-.334.119-.515.398-.494.757.018.284.15.489.403.624l.112.06h12.934l.112-.06a.849.849 0 0 0 .343-.342c.072-.147.072-.515 0-.662a.849.849 0 0 0-.343-.342l-.112-.06-6.427-.006c-5.363-.005-6.443 0-6.528.031m-.093 5.296c-.275.137-.403.348-.404.665a.737.737 0 0 0 .472.694c.14.052.217.053 6.513.053s6.373-.001 6.513-.053a.814.814 0 0 0 .418-.4.87.87 0 0 0 .013-.569.834.834 0 0 0-.371-.405c-.105-.052-.192-.053-6.548-.06l-6.443-.007-.163.082"/>
</svg>
