<svg xmlns="http://www.w3.org/2000/svg" fill="currentColor" class="vi" viewBox="0 0 16 16"><path d="M2 1.75A.75.75 0 0 1 2.75 1h5.874a3.7 3.7 0 0 1 1.503.319c2.486 1.105 2.858 4.26 1.139 5.987.086.035.172.074.256.116 2.948 1.474 2.948 5.682 0 7.156a4 4 0 0 1-1.79.422H2.75a.75.75 0 0 1 0-1.5h.75v-11h-.75A.75.75 0 0 1 2 1.75m3 .75V7h3.846l.645-.276c1.765-.757 1.782-3.254.027-4.034a2.2 2.2 0 0 0-.894-.19zm0 6v5h4.733a2.5 2.5 0 0 0 1.118-.264c1.842-.921 1.842-3.55 0-4.472A2.5 2.5 0 0 0 9.733 8.5z"/></svg>