<svg xmlns="http://www.w3.org/2000/svg" viewBox="0 0 16 16" fill="currentColor">
  <path d="M3.6.041a2.032 2.032 0 0 0-1.443 1.185C1.99 1.625 2 1.207 2 8s-.01 6.375.157 6.774c.193.461.607.876 1.069 1.069.397.167.125.159 5.414.151l4.813-.007.12-.063a.716.716 0 0 0 .338-.334.748.748 0 0 0-.305-.996c-.101-.059-.163-.073-.357-.083l-.236-.011v-1.513h.093c.122 0 .355-.089.491-.188.155-.112.288-.304.35-.506.053-.171.054-.224.047-5.853L13.987.76l-.076-.163A1.13 1.13 0 0 0 13.4.088l-.16-.075L8.507.009C4.524.005 3.746.01 3.6.041m8.546 1.482a.553.553 0 0 1 .331.331c.04.145.042 9.128.001 9.273a.673.673 0 0 1-.248.321c-.043.024-1.024.035-4.19.046-4.334.015-4.22.012-4.5.12-.044.017-.047-.223-.047-4.818.001-3.346.009-4.868.029-4.939a.534.534 0 0 1 .305-.324c.09-.031.736-.037 4.16-.038 2.878-.001 4.084.007 4.159.028M5.452 3.064a.717.717 0 0 0-.438.681c.001.31.135.53.413.677l.133.071h4.88l.133-.071c.278-.147.412-.368.412-.675a.7.7 0 0 0-.405-.665l-.137-.069-2.442.001c-2.316 0-2.447.003-2.549.05m6.041 10.696v.748L7.78 14.5c-4.161-.008-3.794.011-4.03-.207a.666.666 0 0 1-.241-.546.586.586 0 0 1 .07-.32.764.764 0 0 1 .368-.358c.118-.054.156-.055 3.833-.055l3.713-.001v.747"/>
</svg>
