<svg xmlns="http://www.w3.org/2000/svg" viewBox="0 0 16 16" fill="currentColor">
  <g clip-path="url(#a)">
    <path fill-rule="evenodd" d="M12.5 2a.5.5 0 0 0-.5-.5H4a.5.5 0 0 0-.5.5v9.628c.235-.083.487-.128.75-.128H12a.5.5 0 0 0 .5-.5V2zm.5 11a1 1 0 0 0 1-1V1a1 1 0 0 0-1-1H4a2 2 0 0 0-2 2v12a2 2 0 0 0 2 2h9.25a.75.75 0 0 0 0-1.5h-9a.75.75 0 0 1 0-1.5H13z"/>
    <path d="M10.25 4.5h-4.5a.75.75 0 0 1 0-1.5h4.5a.75.75 0 0 1 0 1.5zm2.75 10V13h-1.5v1.5H13z"/>
  </g>
  <defs>
    <clipPath id="a">
      <path d="M0 0h12v16H0z" transform="translate(2)"/>
    </clipPath>
  </defs>
</svg>
