<svg xmlns="http://www.w3.org/2000/svg" viewBox="0 0 20 16" fill="currentColor"><path d="M9 4a2 2 0 0 1-.8 1.6l1.7.36.17-.28.15.25 1.54-.33-.8-1.4 2.59-1.5 1.3 2.24 1.53-.33-1.78-3.1a1 1 0 0 0-1.37-.36l-2.93 1.7A3.5 3.5 0 0 0 3.55 4.6l.07.01 1.62.35A2 2 0 1 1 9 4ZM3.41 5.59 10 7l-1.78 3.12a.5.5 0 0 1-.63.21L2.46 8.19a.5.5 0 0 1-.28-.65l.66-1.65a.5.5 0 0 1 .57-.3ZM10 7l1.78 3.12c.13.22.4.3.63.21l5.14-2.14a.5.5 0 0 0 .27-.65l-.66-1.65a.5.5 0 0 0-.57-.3L10 7Z"/><path d="M3 9.5v3.3c0 .42.27.8.66.94l6 2.14a1 1 0 0 0 .68 0l6-2.14a1 1 0 0 0 .66-.94V9.5l-1.5.63v2.31l-4.75 1.7v-3.82L10 9.02l-.75 1.31v3.8L4.5 12.45v-2.32L3 9.5Z"/></svg>