<svg xmlns="http://www.w3.org/2000/svg" fill="currentColor" class="vi" viewBox="0 0 16 16"><path d="M7 4c0 .65-.31 1.228-.791 1.593l1.694.363a3.5 3.5 0 0 0 .169-.278l.146.253 1.54-.33-.807-1.4 2.598-1.5 1.293 2.239 1.536-.33h.005l-1.785-3.092a1 1 0 0 0-1.366-.366l-2.928 1.69a3.501 3.501 0 0 0-6.753 1.755c.023.004.047.008.07.014l1.623.347A2 2 0 1 1 7 4M1.412 5.588 8 7l-1.781 3.117a.5.5 0 0 1-.626.213L.455 8.19a.5.5 0 0 1-.272-.648l.66-1.65a.5.5 0 0 1 .57-.304ZM8 7l1.781 3.117a.5.5 0 0 0 .626.213l5.138-2.14a.5.5 0 0 0 .272-.648l-.66-1.65a.5.5 0 0 0-.57-.304z"/><path d="M1 9.497v3.245a1.75 1.75 0 0 0 1.278 1.685l5.52 1.545a.749.749 0 0 0 .404 0l5.52-1.545A1.75 1.75 0 0 0 15 12.742V9.5l-1.5.625v2.617a.25.25 0 0 1-.183.24l-4.567 1.28v-3.94l-.747-1.308-.753 1.318v3.93l-4.567-1.28a.25.25 0 0 1-.183-.24v-2.62z"/></svg>