<svg xmlns="http://www.w3.org/2000/svg" viewBox="0 0 20 16" fill="currentColor">
  <path d="m11.05 3.549.885 1.534-1.553.31-.446-.772a2.98 2.98 0 0 1-.282.78l-1.612-.322a1.5 1.5 0 1 0-2.42-.484l-1.61-.322a3 3 0 0 1 5.664-1.63.965.965 0 0 1 .19-.143l3.464-2a1 1 0 0 1 1.366.366l1.897 3.286-1.553.31-1.393-2.413-2.598 1.5zM10 7 2.908 5.582a.5.5 0 0 0-.562.304L1.688 7.53a.5.5 0 0 0 .285.652l5.626 2.164a.5.5 0 0 0 .614-.219L10 7zm0 0 1.787 3.127a.5.5 0 0 0 .614.219l5.626-2.164a.5.5 0 0 0 .285-.652l-.658-1.644a.5.5 0 0 0-.562-.304L10 7z"/>
  <path d="M10 9a.75.75 0 0 1 .75.75v4.444l5.75-1.797v-2.02l1.5-.578V13.5L10 16l-8-2.5V9.8l1.5.576v2.021l5.75 1.797V9.75A.75.75 0 0 1 10 9z"/>
</svg>
