<svg xmlns="http://www.w3.org/2000/svg" viewBox="0 0 20 16" fill="currentColor">
  <path d="m11.05 3.55.88 1.53-1.55.31-.44-.77c-.06.28-.16.54-.29.78l-1.6-.32A1.5 1.5 0 0 0 7 2.5a1.5 1.5 0 0 0-1.38 2.1l-1.6-.33C4 4.18 4 4.1 4 4a3 3 0 0 1 5.68-1.36 1 1 0 0 1 .19-.14l3.46-2a1 1 0 0 1 1.37.37l1.9 3.28-1.56.31-1.4-2.41-2.6 1.5zM10 7 2.9 5.58a.5.5 0 0 0-.55.3l-.66 1.65a.5.5 0 0 0 .28.65l5.63 2.17c.23.08.5 0 .61-.22L10 7zm0 0 1.79 3.13c.12.21.38.3.61.22l5.63-2.17a.5.5 0 0 0 .28-.65l-.66-1.64a.5.5 0 0 0-.56-.3L10 7z"/>
  <path d="M10 9c.41 0 .75.34.75.75v4.44l5.75-1.8v-2.01L18 9.8v3.7L10 16l-8-2.5V9.8l1.5.58v2.02l5.75 1.8V9.74c0-.41.34-.75.75-.75z"/>
</svg>
