<svg xmlns="http://www.w3.org/2000/svg" viewBox="0 0 20 16" fill="currentColor">
  <path d="m11.05 4.549.372.646L10 5.5l-1.51-.324a1.5 1.5 0 0 0-2.921-.626l-1.47-.315a3.001 3.001 0 0 1 5.577-.593c.056-.054.12-.101.19-.142l3.464-2a1 1 0 0 1 1.366.366l1.35 2.338-1.541.33-.858-1.485-2.598 1.5zM10 7 3.412 5.588a.5.5 0 0 0-.569.304l-.66 1.65a.5.5 0 0 0 .272.648l5.138 2.14a.5.5 0 0 0 .626-.213L10 7zm0 0 1.781 3.117a.5.5 0 0 0 .627.213l5.137-2.14a.5.5 0 0 0 .272-.648l-.66-1.65a.5.5 0 0 0-.57-.304L10 7z"/>
  <path d="M10 10a.75.75 0 0 1 .75.75v2.53l4.75-1.131v-1.48l1.5-.624v3.288L10 15l-7-1.667v-3.288l1.5.625v1.479l4.75 1.13V10.75A.75.75 0 0 1 10 10z"/>
</svg>
