<svg xmlns="http://www.w3.org/2000/svg" viewBox="0 0 16 16" fill="currentColor">
  <path d="M11.576 1.4c-.09.026-.793.416-1.906 1.058-.97.559-1.817 1.053-1.882 1.098-.067.045-.122.068-.128.051-.035-.107-.357-.537-.538-.719-1.552-1.565-4.211-.963-4.949 1.119a.923.923 0 0 0-.062.22c.007.007.336.082.731.167l.719.154.103-.214c.193-.401.59-.705 1.043-.801.234-.049.352-.049.586 0 .69.145 1.188.742 1.198 1.434.002.159.012.209.042.218.022.006.364.08.76.163l.72.152.691-.149c.379-.082.695-.154.701-.16a2.139 2.139 0 0 0-.164-.309 3.095 3.095 0 0 1-.174-.321c0-.012.577-.355 1.282-.762 1.077-.622 1.287-.734 1.316-.703.019.021.206.337.415.704.21.367.395.682.411.7.024.026.188-.001.775-.127.409-.089.749-.165.754-.171.015-.015.018-.009-.719-1.288-.573-.992-.686-1.171-.81-1.285a1.004 1.004 0 0 0-.915-.229M1.137 5.612c-.202.072-.231.124-.616 1.085-.299.748-.361.927-.361 1.039a.46.46 0 0 0 .195.39c.106.072 5.238 2.212 5.361 2.235a.528.528 0 0 0 .384-.106c.045-.038.448-.717.982-1.652.497-.873.911-1.588.918-1.588.007 0 .422.717.921 1.592 1.026 1.8.993 1.754 1.287 1.75.138-.002.4-.106 2.747-1.086a172.511 172.511 0 0 0 2.67-1.128.56.56 0 0 0 .145-.152c.132-.205.117-.274-.292-1.297-.309-.771-.376-.918-.453-.985a.607.607 0 0 0-.33-.136c-.021 0-1.522.318-3.335.707-1.813.389-3.323.707-3.354.707-.032 0-1.543-.318-3.358-.707a228.772 228.772 0 0 0-3.355-.705.647.647 0 0 0-.156.037m6.613 4.432a.653.653 0 0 0-.269.178c-.233.233-.228.195-.228 1.732 0 1.054-.007 1.329-.033 1.32-.018-.007-1.086-.263-2.373-.568l-2.34-.557v-1.477l-.194-.081a388.64 388.64 0 0 1-.74-.309c-.3-.126-.555-.229-.566-.229-.011 0-.02.737-.02 1.637v1.637l.166.041c.797.199 6.805 1.619 6.85 1.619.045 0 6.747-1.582 6.964-1.644.043-.012.046-.114.046-1.651 0-.901-.007-1.639-.015-1.639-.009 0-.351.14-.76.31l-.745.31v1.477l-2.326.553c-1.28.304-2.348.559-2.374.567-.044.013-.046-.062-.046-1.317 0-1.535.005-1.498-.228-1.731-.209-.209-.472-.27-.769-.178"/>
</svg>
