<svg xmlns="http://www.w3.org/2000/svg" viewBox="0 0 20 16" fill="currentColor"><path fill-rule="evenodd" d="M3.5 3.75A2.75 2.75 0 0 1 6.25 1h.5a.75.75 0 0 1 0 1.5h-.5C5.56 2.5 5 3.06 5 3.75v1.92c0 .73-.29 1.43-.8 1.95L3.8 8l.38.38c.52.52.81 1.22.81 1.95v1.92c0 .69.56 1.25 1.25 1.25h.5a.75.75 0 0 1 0 1.5h-.5a2.75 2.75 0 0 1-2.75-2.75v-1.92c0-.33-.13-.65-.37-.89L2.3 8.6l.53-.53-.53.53a.85.85 0 0 1 0-1.2l.53.53-.53-.53.84-.84c.24-.24.37-.56.37-.89V3.75Zm8-2c0-.41.34-.75.75-.75h.5a2.75 2.75 0 0 1 2.75 2.75v1.92c0 .33.13.65.37.89l.84.84c.33.33.33.87 0 1.2l-.84.84c-.24.24-.37.56-.37.89v1.92A2.75 2.75 0 0 1 12.75 15h-.5a.75.75 0 1 1 0-1.5h.5c.69 0 1.25-.56 1.25-1.25v-1.92c0-.73.29-1.43.8-1.95l.4-.38-.38-.38A2.75 2.75 0 0 1 14 5.67V3.75c0-.69-.56-1.25-1.25-1.25h-.5a.75.75 0 0 1-.75-.75Z"/></svg>