<svg xmlns="http://www.w3.org/2000/svg" viewBox="0 0 20 16" fill="currentColor"><path d="M11.5 4v-.5a1.5 1.5 0 0 0-3 0V4H7v-.5a3 3 0 0 1 6 0V4h-1.5Z"/><path fill-rule="evenodd" d="M6 10v1.5c0 .26.02.51.07.76l-2.1 2.18a.75.75 0 0 0 1.09 1.04l1.64-1.71a4 4 0 0 0 6.57.03l1.67 1.7c.3.3.77.3 1.06 0 .3-.3.3-.77 0-1.06-.74-.75-1.43-1.45-2.08-2.13.05-.26.08-.53.08-.81V10h2.25a.75.75 0 0 0 0-1.5H14V6.17l2.02-2.11a.75.75 0 1 0-1.08-1.04L13.04 5H7.01c-.61-.64-1.26-1.3-1.95-2A.75.75 0 0 0 4 3c-.3.3-.3.77 0 1.06l2 2.05V8.5H3.75a.75.75 0 0 0 0 1.5H6Zm1.5-3.5h5v5a2.5 2.5 0 0 1-5 0v-5Z"/></svg>