<svg xmlns="http://www.w3.org/2000/svg" fill="currentColor" class="vi" viewBox="0 0 16 16"><path d="M8 1a3 3 0 0 0-3 3v.5a1 1 0 0 0-.297.045L2.269 2.209a.75.75 0 1 0-1.038 1.082L4 5.95V8H1.75a.75.75 0 0 0 0 1.5H4V11q0 .264.033.518L1.231 14.21a.75.75 0 1 0 1.038 1.082l2.31-2.217A4 4 0 0 0 8 15c1.45 0 2.72-.771 3.421-1.926l2.31 2.217a.75.75 0 1 0 1.038-1.082l-2.802-2.69A4 4 0 0 0 12 11V9.5h2.25a.75.75 0 0 0 0-1.5H12V5.95l2.77-2.659a.75.75 0 1 0-1.04-1.082l-2.433 2.336A1 1 0 0 0 11 4.5V4a3 3 0 0 0-3-3m1.5 3.5h-3V4a1.5 1.5 0 1 1 3 0zM5.5 6h5v5a2.5 2.5 0 0 1-5 0z"/></svg>