<svg xmlns="http://www.w3.org/2000/svg" width="16" height="16" fill="currentColor" class="vi" viewBox="0 0 16 16"><path d="M8 1a3 3 0 0 0-3 3v.5a1 1 0 0 0-.3.04L2.27 2.21a.75.75 0 1 0-1.04 1.08L4 5.95V8H1.75a.75.75 0 0 0 0 1.5H4V11c0 .18.01.35.03.52l-2.8 2.69a.75.75 0 1 0 1.04 1.08l2.3-2.22a4 4 0 0 0 6.85 0l2.31 2.22a.75.75 0 1 0 1.04-1.08l-2.8-2.7c.02-.16.03-.33.03-.51V9.5h2.25a.75.75 0 0 0 0-1.5H12V5.95l2.77-2.66a.75.75 0 1 0-1.04-1.08L11.3 4.54a1 1 0 0 0-.3-.04V4a3 3 0 0 0-3-3Zm1.5 3.5h-3V4a1.5 1.5 0 1 1 3 0v.5ZM5.5 6h5v5a2.5 2.5 0 0 1-5 0V6Z"/></svg>