<svg xmlns="http://www.w3.org/2000/svg" viewBox="0 0 16 16" fill="currentColor">
  <path d="M2 2v14h1.5V2.5a1 1 0 0 1 1-1h7a1 1 0 0 1 1 1V16H14V2a2 2 0 0 0-2-2H4a2 2 0 0 0-2 2z"/>
  <path d="M7 3H6a.5.5 0 0 0-.5.5v1A.5.5 0 0 0 6 5h1a.5.5 0 0 0 .5-.5v-1A.5.5 0 0 0 7 3zm2 .5v1a.5.5 0 0 0 .5.5h.5a.5.5 0 0 0 .5-.5v-1A.5.5 0 0 0 10 3h-.5a.5.5 0 0 0-.5.5zm-2.5 3H6a.5.5 0 0 0-.5.5v1a.5.5 0 0 0 .5.5h.5A.5.5 0 0 0 7 8V7a.5.5 0 0 0-.5-.5zm3.5 0H9a.5.5 0 0 0-.5.5v1a.5.5 0 0 0 .5.5h1a.5.5 0 0 0 .5-.5V7a.5.5 0 0 0-.5-.5zm-3.5 5V16h3v-4.5A.5.5 0 0 0 9 11H7a.5.5 0 0 0-.5.5z"/>
</svg>
