<svg xmlns="http://www.w3.org/2000/svg" fill="currentColor" class="vi" viewBox="0 0 16 16"><path d="M3.5 2.75c0-.69.56-1.25 1.25-1.25h6.5c.69 0 1.25.56 1.25 1.25V16H14V2.75A2.75 2.75 0 0 0 11.25 0h-6.5A2.75 2.75 0 0 0 2 2.75V16h1.5z"/><path d="M5.5 3a.5.5 0 0 0-.5.5v1a.5.5 0 0 0 .5.5h1a.5.5 0 0 0 .5-.5v-1a.5.5 0 0 0-.5-.5zm3.5.5a.5.5 0 0 1 .5-.5h1a.5.5 0 0 1 .5.5v1a.5.5 0 0 1-.5.5h-1a.5.5 0 0 1-.5-.5zM5.5 7a.5.5 0 0 0-.5.5v1a.5.5 0 0 0 .5.5h1a.5.5 0 0 0 .5-.5v-1a.5.5 0 0 0-.5-.5zm3.5.5a.5.5 0 0 1 .5-.5h1a.5.5 0 0 1 .5.5v1a.5.5 0 0 1-.5.5h-1a.5.5 0 0 1-.5-.5zM7.5 11a1 1 0 0 0-1 1v4h3v-4a1 1 0 0 0-1-1z"/></svg>