<svg xmlns="http://www.w3.org/2000/svg" viewBox="0 0 16 16" fill="currentColor">
  <path d="M2 1v15h1.5V2a.5.5 0 0 1 .5-.5h8a.5.5 0 0 1 .5.5v14H14V1a1 1 0 0 0-1-1H3a1 1 0 0 0-1 1z"/>
  <path d="M6.5 3h-1a.5.5 0 0 0-.5.5v1a.5.5 0 0 0 .5.5h1a.5.5 0 0 0 .5-.5v-1a.5.5 0 0 0-.5-.5zm2.5.5v1a.5.5 0 0 0 .5.5h1a.5.5 0 0 0 .5-.5v-1a.5.5 0 0 0-.5-.5h-1a.5.5 0 0 0-.5.5zM6.5 7h-1a.5.5 0 0 0-.5.5v1a.5.5 0 0 0 .5.5h1a.5.5 0 0 0 .5-.5v-1a.5.5 0 0 0-.5-.5zm4 0h-1a.5.5 0 0 0-.5.5v1a.5.5 0 0 0 .5.5h1a.5.5 0 0 0 .5-.5v-1a.5.5 0 0 0-.5-.5zm-4 4.5V16h3v-4.5A.5.5 0 0 0 9 11H7a.5.5 0 0 0-.5.5z"/>
</svg>
