<svg xmlns="http://www.w3.org/2000/svg" viewBox="0 0 16 16" fill="currentColor">
  <path d="M3.6.042a2.028 2.028 0 0 0-1.443 1.184C1.99 1.627 2 1.115 2 8.906V16h1.493L3.5 9.14c.007-6.799.007-6.861.06-6.985.124-.288.336-.496.61-.598.132-.049.266-.05 3.83-.05s3.698.001 3.83.05c.274.102.486.31.61.598.053.124.053.186.06 6.985l.007 6.86H14V8.906c0-6.362-.004-7.116-.042-7.3A2.003 2.003 0 0 0 12.394.042C12.212.005 11.717 0 7.981.002 4.48.004 3.744.011 3.6.042m2.155 3.025a.49.49 0 0 0-.231.29c-.019.057-.031.296-.031.643 0 .693.035.812.276.941.106.056.141.059.724.059.695 0 .748-.012.905-.209l.082-.103V3.316l-.076-.1c-.153-.2-.164-.203-.897-.201-.594.001-.663.005-.752.052m3.511-.004a.637.637 0 0 0-.246.292c-.026.094-.026 1.197 0 1.291.026.093.164.25.271.309.066.036.155.045.456.045.334-.001.385-.007.484-.06.241-.128.276-.247.276-.94 0-.566-.014-.665-.113-.807-.104-.149-.216-.18-.653-.18-.337.001-.406.008-.475.05M5.8 6.543a.602.602 0 0 0-.278.33c-.038.134-.037 1.137.001 1.273a.553.553 0 0 0 .331.331c.14.039.673.038.789-.001a.496.496 0 0 0 .298-.245C6.997 8.125 7 8.09 7 7.507c0-.695-.012-.748-.209-.905l-.102-.082-.405-.007c-.294-.004-.426.004-.484.03m2.987.008a.464.464 0 0 0-.23.228c-.045.089-.05.163-.05.714 0 .457.009.638.036.702a.583.583 0 0 0 .33.283c.134.038 1.137.037 1.273-.001a.565.565 0 0 0 .204-.127.565.565 0 0 0 .127-.204c.038-.136.039-1.139.001-1.273a.583.583 0 0 0-.283-.33c-.135-.056-1.299-.05-1.408.008M6.76 11.063a.553.553 0 0 0-.225.252c-.019.051-.028.812-.028 2.38V16h2.987l-.007-2.342-.007-2.342-.076-.1c-.161-.211-.102-.202-1.404-.202-1.085 0-1.165.003-1.24.049"/>
</svg>
