<svg xmlns="http://www.w3.org/2000/svg" fill="currentColor" class="vi" viewBox="0 0 16 16"><path d="M13.327 13.5h-2.45a3.4 3.4 0 0 1-.874 1.5h3.324a1.75 1.75 0 0 0 1.744-1.61l.918-11.472A.85.85 0 0 0 15.142 1H6.858a.85.85 0 0 0-.847.918l.253 3.164c.967.133 1.842.43 2.584.918h5.31l-.582 7.27a.25.25 0 0 1-.25.23m-5.605-9-.16-2h6.876l-.16 2z"/><path d="M.223 10.717a1.6 1.6 0 0 1-.22-.877c.034-.854.355-1.875 1.255-2.667C2.147 6.391 3.41 6 5 6s2.853.391 3.742 1.173c.9.792 1.22 1.813 1.255 2.667.013.327-.07.625-.22.877a.75.75 0 0 1 .002 1.065c.14.237.221.513.221.809A2.41 2.41 0 0 1 7.59 15H2.41A2.41 2.41 0 0 1 0 12.59c0-.295.08-.571.22-.808a.75.75 0 0 1 .003-1.065M7.953 8.5a2.4 2.4 0 0 0-.48-.412.5.5 0 1 1-.634-.312 5 5 0 0 0-1.399-.264q.059.108.06.238a.5.5 0 1 1-.94-.238 5 5 0 0 0-1.4.264.5.5 0 1 1-.633.312 2.4 2.4 0 0 0-.529.47c-.193.236-.32.492-.398.75-.06.2-.09.4-.098.592-.002.055.043.1.098.1h6.8c.055 0 .1-.045.098-.1a2.4 2.4 0 0 0-.098-.592 2.15 2.15 0 0 0-.448-.808m-6.362 4a.09.09 0 0 0-.091.09.91.91 0 0 0 .91.91h5.18a.91.91 0 0 0 .91-.91.09.09 0 0 0-.09-.09z"/></svg>