<svg xmlns="http://www.w3.org/2000/svg" fill="currentColor" class="vi" viewBox="0 0 16 16"><path d="M5.5 7a.5.5 0 0 1 .5.5V8h.5a.5.5 0 0 1 0 1H6v.5a.5.5 0 0 1-1 0V9h-.5a.5.5 0 0 1 0-1H5v-.5a.5.5 0 0 1 .5-.5ZM11 9.5a.5.5 0 0 0-1 0v.5h-.5a.5.5 0 0 0 0 1h.5v.5a.5.5 0 0 0 1 0V11h.5a.5.5 0 0 0 0-1H11v-.5Z"/><path d="M1 2.75C1 1.784 1.784 1 2.75 1h10.5c.966 0 1.75.784 1.75 1.75v10.5A1.75 1.75 0 0 1 13.25 15H2.75A1.75 1.75 0 0 1 1 13.25V2.75Zm1.75-.25a.25.25 0 0 0-.25.25V4h11V2.75a.25.25 0 0 0-.25-.25H2.75Zm10.75 3h-11v7.75c0 .138.112.25.25.25h10.5a.25.25 0 0 0 .25-.25V5.5Z"/></svg>