<svg xmlns="http://www.w3.org/2000/svg" fill="currentColor" class="vi" viewBox="0 0 16 16"><path d="M4.75 7a.75.75 0 0 0-.75.75v3.5a.75.75 0 0 0 1.5 0v-3.5A.75.75 0 0 0 4.75 7Zm2.5.75a.75.75 0 0 1 1.5 0v3.5a.75.75 0 0 1-1.5 0v-3.5Zm4-.75a.75.75 0 0 0-.75.75v3.5a.75.75 0 0 0 1.5 0v-3.5a.75.75 0 0 0-.75-.75Z"/><path d="M3.75 1A2.75 2.75 0 0 0 1 3.75v8.5A2.75 2.75 0 0 0 3.75 15h8.5A2.75 2.75 0 0 0 15 12.25v-8.5A2.75 2.75 0 0 0 12.25 1h-8.5ZM2.5 3.75c0-.69.56-1.25 1.25-1.25h8.5c.69 0 1.25.56 1.25 1.25V4h-11v-.25Zm0 1.75h11v6.75c0 .69-.56 1.25-1.25 1.25h-8.5c-.69 0-1.25-.56-1.25-1.25V5.5Z"/></svg>