<svg xmlns="http://www.w3.org/2000/svg" fill="currentColor" class="vi" viewBox="0 0 16 16"><path d="M5.5 7a.5.5 0 0 1 .5.5V8h.5a.5.5 0 0 1 0 1H6v.5a.5.5 0 0 1-1 0V9h-.5a.5.5 0 0 1 0-1H5v-.5a.5.5 0 0 1 .5-.5M11 9.5a.5.5 0 0 0-1 0v.5h-.5a.5.5 0 0 0 0 1h.5v.5a.5.5 0 0 0 1 0V11h.5a.5.5 0 0 0 0-1H11z"/><path d="M1 3.75A2.75 2.75 0 0 1 3.75 1h8.5A2.75 2.75 0 0 1 15 3.75v8.5A2.75 2.75 0 0 1 12.25 15h-8.5A2.75 2.75 0 0 1 1 12.25zM3.75 2.5c-.69 0-1.25.56-1.25 1.25V4h11v-.25c0-.69-.56-1.25-1.25-1.25zm9.75 3h-11v6.75c0 .69.56 1.25 1.25 1.25h8.5c.69 0 1.25-.56 1.25-1.25z"/></svg>