<svg xmlns="http://www.w3.org/2000/svg" fill="currentColor" class="vi" viewBox="0 0 16 16"><path d="M7.47 10.22a.75.75 0 0 1 1.004-.052l.056.052 1.5 1.5a.75.75 0 1 1-1.06 1.06l-.22-.22v2.69a.75.75 0 0 1-1.5 0v-2.69l-.22.22a.75.75 0 0 1-1.112-1.004l.052-.056z"/><path d="M12.25 1A2.75 2.75 0 0 1 15 3.75v8.5A2.75 2.75 0 0 1 12.25 15h-2.5v-1.02a1.74 1.74 0 0 0 .973-.48h1.527c.69 0 1.25-.56 1.25-1.25V5.5h-11v6.75c0 .69.56 1.25 1.25 1.25h1.526c.276.27.619.428.974.48V15h-2.5A2.75 2.75 0 0 1 1 12.25v-8.5A2.75 2.75 0 0 1 3.75 1zm-8.5 1.5c-.69 0-1.25.56-1.25 1.25V4h11v-.25c0-.69-.56-1.25-1.25-1.25z"/><path d="M8 7a1 1 0 1 1 0 2 1 1 0 0 1 0-2"/></svg>