<svg xmlns="http://www.w3.org/2000/svg" fill="currentColor" class="vi" viewBox="0 0 16 16"><path d="M3.75 1A2.75 2.75 0 0 0 1 3.75v8.5A2.75 2.75 0 0 0 3.75 15H8a4.985 4.985 0 0 1-.771-1.5H3.75c-.69 0-1.25-.56-1.25-1.25V5.5h11v1.729a4.985 4.985 0 0 1 1.5.77V3.75A2.75 2.75 0 0 0 12.25 1h-8.5ZM2.5 3.75c0-.69.56-1.25 1.25-1.25h8.5c.69 0 1.25.56 1.25 1.25V4h-11v-.25Z"/><path d="M7 12c0-.711.148-1.387.416-2H5a1 1 0 1 0 0 2h2Zm1-3a4.997 4.997 0 0 1 3.306-1.952A1 1 0 0 0 11 7H8a1 1 0 0 0 0 2Z"/><path d="M16 12a4 4 0 1 1-8 0 4 4 0 0 1 8 0Zm-4-2.5a.5.5 0 0 0-.5.5v2a.5.5 0 0 0 .146.354l1 1a.5.5 0 0 0 .708-.708l-.854-.853V10a.5.5 0 0 0-.5-.5Z"/></svg>