<svg xmlns="http://www.w3.org/2000/svg" fill="currentColor" class="vi" viewBox="0 0 16 16"><path d="M3.75 1A2.75 2.75 0 0 0 1 3.75v8.5A2.75 2.75 0 0 0 3.75 15h5.188a4.486 4.486 0 0 1-.762-1.5H3.75c-.69 0-1.25-.56-1.25-1.25V5.5h11v2.361a4.49 4.49 0 0 1 1.5.647V3.75A2.75 2.75 0 0 0 12.25 1zM2.5 3.75c0-.69.56-1.25 1.25-1.25h8.5c.69 0 1.25.56 1.25 1.25V4h-11z"/><path d="M8.007 12a4.474 4.474 0 0 1 .514-1.854A.995.995 0 0 0 8 10H5a1 1 0 1 0 0 2h3zm1.38-3a4.485 4.485 0 0 1 2.589-1.22A1 1 0 0 0 11 7H8a1 1 0 0 0 0 2zM16 12.25a3.5 3.5 0 1 1-7 0 3.5 3.5 0 0 1 7 0m-3.5-2.5a.5.5 0 0 0-.5.5v2a.5.5 0 0 0 .146.354l1 1a.5.5 0 0 0 .708-.708L13 12.043V10.25a.5.5 0 0 0-.5-.5"/></svg>