<svg xmlns="http://www.w3.org/2000/svg" width="16" height="16" fill="currentColor" class="vi" viewBox="0 0 16 16"><path d="M5.5 7c.28 0 .5.22.5.5V8h.5a.5.5 0 0 1 0 1H6v.5a.5.5 0 0 1-1 0V9h-.5a.5.5 0 0 1 0-1H5v-.5c0-.28.22-.5.5-.5ZM11 9.5a.5.5 0 0 0-1 0v.5h-.5a.5.5 0 0 0 0 1h.5v.5a.5.5 0 0 0 1 0V11h.5a.5.5 0 0 0 0-1H11v-.5Z"/><path d="M1 2.75C1 1.78 1.78 1 2.75 1h10.5c.97 0 1.75.78 1.75 1.75v10.5c0 .97-.78 1.75-1.75 1.75H2.75C1.78 15 1 14.22 1 13.25V2.75Zm1.75-.25a.25.25 0 0 0-.25.25V4h11V2.75a.25.25 0 0 0-.25-.25H2.75Zm10.75 3h-11v7.75c0 .14.11.25.25.25h10.5c.14 0 .25-.11.25-.25V5.5Z"/></svg>