<svg xmlns="http://www.w3.org/2000/svg" fill="currentColor" class="vi" viewBox="0 0 16 16"><path d="M3.75 1A2.75 2.75 0 0 0 1 3.75v8.5A2.75 2.75 0 0 0 3.75 15h5.008a4.5 4.5 0 0 1-.646-1.5H3.75c-.69 0-1.25-.56-1.25-1.25V5.5h11v2.611a4.5 4.5 0 0 1 1.5.647V3.75A2.75 2.75 0 0 0 12.25 1zM2.5 3.75c0-.69.56-1.25 1.25-1.25h8.5c.69 0 1.25.56 1.25 1.25V4h-11z"/><path d="M8.028 12a4.5 4.5 0 0 1 .594-1.783A1 1 0 1 0 8.028 12m2.189-3.378A4.5 4.5 0 0 1 12 8.027V8a1 1 0 1 0-1.783.622M5 9a1 1 0 1 0 0-2 1 1 0 0 0 0 2m4-1a1 1 0 1 1-2 0 1 1 0 0 1 2 0m-3 3a1 1 0 1 1-2 0 1 1 0 0 1 2 0m10 1.5a3.5 3.5 0 1 1-7 0 3.5 3.5 0 0 1 7 0M12.5 10a.5.5 0 0 0-.5.5v2a.5.5 0 0 0 .146.354l1 1a.5.5 0 0 0 .708-.708L13 12.293V10.5a.5.5 0 0 0-.5-.5"/></svg>