<svg xmlns="http://www.w3.org/2000/svg" fill="currentColor" class="vi" viewBox="0 0 16 16"><path d="M4 7.75A.75.75 0 0 1 4.75 7h6.5a.75.75 0 0 1 0 1.5h-6.5A.75.75 0 0 1 4 7.75ZM5 9.5a1 1 0 0 0-1 1v.5a1 1 0 0 0 1 1h6a1 1 0 0 0 1-1v-.5a1 1 0 0 0-1-1H5Z"/><path d="M1 3.75A2.75 2.75 0 0 1 3.75 1h8.5A2.75 2.75 0 0 1 15 3.75v8.5A2.75 2.75 0 0 1 12.25 15h-8.5A2.75 2.75 0 0 1 1 12.25v-8.5ZM3.75 2.5c-.69 0-1.25.56-1.25 1.25V4h11v-.25c0-.69-.56-1.25-1.25-1.25h-8.5Zm9.75 3h-11v6.75c0 .69.56 1.25 1.25 1.25h8.5c.69 0 1.25-.56 1.25-1.25V5.5Z"/></svg>