<svg xmlns="http://www.w3.org/2000/svg" width="16" height="16" fill="currentColor" class="vi" viewBox="0 0 16 16"><path d="M5 9a1 1 0 1 0 0-2 1 1 0 0 0 0 2Zm4-1a1 1 0 1 1-2 0 1 1 0 0 1 2 0Zm2 1a1 1 0 1 0 0-2 1 1 0 0 0 0 2Zm-5 2a1 1 0 1 1-2 0 1 1 0 0 1 2 0Zm2 1a1 1 0 1 0 0-2 1 1 0 0 0 0 2Z"/><path d="M2.75 1C1.78 1 1 1.78 1 2.75v10.5c0 .97.78 1.75 1.75 1.75h10.5c.97 0 1.75-.78 1.75-1.75V2.75C15 1.78 14.22 1 13.25 1H2.75ZM2.5 2.75c0-.14.11-.25.25-.25h10.5c.14 0 .25.11.25.25V4h-11V2.75Zm0 2.75h11v7.75c0 .14-.11.25-.25.25H2.75a.25.25 0 0 1-.25-.25V5.5Z"/></svg>