<svg xmlns="http://www.w3.org/2000/svg" viewBox="0 0 20 16" fill="currentColor">
  <path fill-rule="evenodd" d="m17.57 14.4.36-1.82a2 2 0 0 0-1.16-2.22l-3.65-1.59a1 1 0 0 0-1.1.21l-.77.77a.5.5 0 0 1-.57.09l-.19-.1a5 5 0 0 1-2.24-2.23l-.09-.19a.5.5 0 0 1 .1-.57l.76-.77a1 1 0 0 0 .2-1.1l-1.51-3.5A2 2 0 0 0 5.3.26L3.37.84c-.82.24-1.4.99-1.31 1.84.52 4.76 4.24 12.44 13.55 13.25.95.08 1.77-.6 1.96-1.54ZM6.91 8.17a6.5 6.5 0 0 0 2.91 2.9l.19.1a2 2 0 0 0 2.3-.37l.53-.53 3.33 1.45c.22.1.34.33.3.56l-.37 1.8a.46.46 0 0 1-.16.28.28.28 0 0 1-.2.07C7.4 13.7 4.03 6.85 3.55 2.52c0-.03 0-.06.03-.1a.43.43 0 0 1 .22-.15l1.93-.57a.5.5 0 0 1 .6.28l1.39 3.18-.53.52A2 2 0 0 0 6.82 8l.1.19Z"/>
  <path d="M16.32 7.47c.12.4.53.66.94.57a.7.7 0 0 0 .53-.88A9.96 9.96 0 0 0 10.95.32a.7.7 0 0 0-.88.53.8.8 0 0 0 .57.94 8.46 8.46 0 0 1 5.68 5.68Z"/>
  <path d="M10.36 2.75a.7.7 0 0 0-.87.53c-.1.4.17.82.58.95a5.97 5.97 0 0 1 3.8 3.8c.14.41.55.68.96.58a.7.7 0 0 0 .53-.86 7.47 7.47 0 0 0-5-5Z"/>
</svg>
