<svg xmlns="http://www.w3.org/2000/svg" viewBox="0 0 20 16" fill="currentColor">
  <path d="M1.06 2.68c.41 3.78 2.85 9.42 8.52 11.97.1-.4.32-.75.61-1.03a2.2 2.2 0 0 1-.41-.54C5 10.71 2.92 5.86 2.55 2.52c0-.03 0-.06.03-.1a.43.43 0 0 1 .22-.15l1.93-.57a.5.5 0 0 1 .6.28l1.39 3.18-.53.52A2 2 0 0 0 5.82 8l.1.19a6.5 6.5 0 0 0 2.9 2.9l.19.1a2 2 0 0 0 .58.19c.11-.39.32-.73.6-1a2.26 2.26 0 0 1-.38-.49.5.5 0 0 1-.13-.04l-.19-.1a5 5 0 0 1-2.24-2.23l-.09-.19a.5.5 0 0 1 .1-.57l.76-.77a1 1 0 0 0 .2-1.1l-1.51-3.5A2 2 0 0 0 4.3.26L2.37.84c-.82.24-1.4.99-1.31 1.84ZM11.75 8a.75.75 0 0 0 0 1.5h6.5a.75.75 0 0 0 0-1.5h-6.5ZM11 12c0-.41.34-.75.75-.75h6.5a.75.75 0 0 1 0 1.5h-6.5A.75.75 0 0 1 11 12Zm.75 2.5a.75.75 0 0 0 0 1.5h6.5a.75.75 0 0 0 0-1.5h-6.5Z"/>
</svg>
