<svg xmlns="http://www.w3.org/2000/svg" fill="currentColor" class="vi" viewBox="0 0 16 16"><path d="M13 9.5v-.75A1.75 1.75 0 0 0 11.25 7h-1.5A1.75 1.75 0 0 0 8 8.75v.75h-.35c-.146.492-.398.94-.73 1.315A19.729 19.729 0 0 1 8.044 11H14a2 2 0 0 0 2-2V2a2 2 0 0 0-2-2H5a2 2 0 0 0-2 2v3.248a3.49 3.49 0 0 1 1.5-.242V2a.5.5 0 0 1 .5-.5h9a.5.5 0 0 1 .5.5v7a.5.5 0 0 1-.5.5zm-3.5-.75a.25.25 0 0 1 .25-.25h1.5a.25.25 0 0 1 .25.25v.75h-2z"/><path d="M4.296 11a2.5 2.5 0 1 0 0-5 2.5 2.5 0 0 0 0 5m0-1.5a1 1 0 1 1 0-2 1 1 0 0 1 0 2M4.293 16a4.992 4.992 0 0 1-3.952-1.94c-.574-.74-.432-1.925.489-2.098 2.29-.43 4.64-.43 6.931 0 .921.173 1.063 1.358.489 2.099A4.992 4.992 0 0 1 4.298 16zM1.69 13.337A3.488 3.488 0 0 0 4.293 14.5h.005c1.033 0 1.96-.447 2.603-1.163a17.309 17.309 0 0 0-5.21 0Z"/></svg>