<svg xmlns="http://www.w3.org/2000/svg" viewBox="0 0 20 16" fill="currentColor"><path d="M8.31 3.8A2.98 2.98 0 0 1 10 3.24a3 3 0 0 1 1.69.54A2.6 2.6 0 0 1 12.75 6c0 1.3-.7 2.07-1.45 2.44-.19.1-.34.2-.44.32a.37.37 0 0 0-.11.24l-.02.3a.75.75 0 1 1-1.5-.1l.02-.2c0-1 .81-1.62 1.38-1.9.18-.09.33-.2.43-.36.1-.16.19-.39.19-.74 0-.56-.21-.83-.44-1-.26-.18-.6-.25-.81-.25-.21 0-.55.07-.81.26a.98.98 0 0 0-.26.27C8.7 5.63 8.4 6 8 6c-.41 0-.76-.34-.67-.74a2.5 2.5 0 0 1 .98-1.47ZM10 13a1 1 0 1 0 0-2 1 1 0 0 0 0 2Z"/><path fill-rule="evenodd" d="M10 15.5a7.5 7.5 0 1 0 0-15 7.5 7.5 0 0 0 0 15Zm0-1.5a6 6 0 1 1 0-12 6 6 0 0 1 0 12Z"/></svg>