<svg xmlns="http://www.w3.org/2000/svg" fill="currentColor" class="vi" viewBox="0 0 16 16"><path d="M8 9.5A3.25 3.25 0 1 0 8 3a3.25 3.25 0 0 0 0 6.5M8 8a1.75 1.75 0 1 1 0-3.5A1.75 1.75 0 0 1 8 8"/><path d="M3.051 14.286a8 8 0 0 1-1.088-1.036 8 8 0 1 1 11.05.984l-.064.052A7.97 7.97 0 0 1 8 16a7.97 7.97 0 0 1-4.949-1.714m9.898-2.072a6.5 6.5 0 1 0-9.898 0A7.97 7.97 0 0 1 8 10.5c1.869 0 3.587.64 4.949 1.714m-1.116 1.036A6.47 6.47 0 0 0 8 12a6.47 6.47 0 0 0-3.833 1.25A6.47 6.47 0 0 0 8 14.5a6.47 6.47 0 0 0 3.833-1.25"/></svg>