<svg xmlns="http://www.w3.org/2000/svg" fill="currentColor" class="vi" viewBox="0 0 16 16"><path d="M6.66.112a8 8 0 0 1 2.68 0 .75.75 0 1 1-.25 1.479 6.6 6.6 0 0 0-2.18 0A.75.75 0 1 1 6.66.11m4.924 1.542a.75.75 0 0 1 1.046-.177 8 8 0 0 1 1.895 1.895.75.75 0 1 1-1.223.869 6.5 6.5 0 0 0-1.54-1.541.75.75 0 0 1-.178-1.046m-7.168 0a.75.75 0 0 1-.177 1.046 6.5 6.5 0 0 0-1.541 1.54.75.75 0 0 1-1.223-.868A8 8 0 0 1 3.37 1.475a.75.75 0 0 1 1.046.177M.976 6.045a.75.75 0 0 1 .615.865 6.6 6.6 0 0 0 0 2.18.75.75 0 1 1-1.48.25 8 8 0 0 1 0-2.68.75.75 0 0 1 .865-.615m14.048 0a.75.75 0 0 1 .864.615 8 8 0 0 1 0 2.68.75.75 0 1 1-1.479-.25 6.6 6.6 0 0 0 0-2.18.75.75 0 0 1 .615-.865M1.652 11.584a.75.75 0 0 1 1.046.177 6.5 6.5 0 0 0 1.54 1.541.75.75 0 1 1-.868 1.223 8 8 0 0 1-1.895-1.895.75.75 0 0 1 .177-1.046m12.696 0a.75.75 0 0 1 .177 1.046 8 8 0 0 1-1.895 1.895.75.75 0 1 1-.869-1.223 6.5 6.5 0 0 0 1.541-1.54.75.75 0 0 1 1.046-.178m-8.303 3.44a.75.75 0 0 1 .865-.615 6.6 6.6 0 0 0 2.18 0 .75.75 0 1 1 .25 1.48 8 8 0 0 1-2.68 0 .75.75 0 0 1-.615-.865"/></svg>