<svg xmlns="http://www.w3.org/2000/svg" viewBox="0 0 20 16" fill="currentColor">
  <path d="M8.312 3.291A2.983 2.983 0 0 1 10 2.75c.453 0 1.117.13 1.688.541.61.44 1.062 1.165 1.062 2.209 0 1.297-.692 2.07-1.455 2.444a1.37 1.37 0 0 0-.43.315c-.095.11-.115.19-.115.241l-.032.781A.75.75 0 1 1 9.22 9.22l.03-.72c0-.997.814-1.623 1.384-1.903a1.06 1.06 0 0 0 .426-.36c.102-.153.19-.382.19-.737 0-.556-.215-.83-.438-.991A1.487 1.487 0 0 0 10 4.25c-.213 0-.55.07-.812.259a.98.98 0 0 0-.26.273c-.221.35-.514.718-.928.718-.414 0-.762-.34-.665-.744a2.492 2.492 0 0 1 .977-1.465zM10 13a1 1 0 1 0 0-2 1 1 0 0 0 0 2z"/>
  <path fill-rule="evenodd" d="M10 16a8 8 0 1 0 0-16 8 8 0 0 0 0 16zm0-1.5a6.5 6.5 0 1 1 0-13 6.5 6.5 0 0 1 0 13z"/>
</svg>
