<svg xmlns="http://www.w3.org/2000/svg" viewBox="0 0 16 16" fill="currentColor">
  <path d="M7.293.03C4.174.3 1.46 2.423.439 5.39c-1.428 4.156.756 8.687 4.892 10.149a7.98 7.98 0 0 0 8.322-1.886 7.991 7.991 0 0 0 .736-10.463A7.977 7.977 0 0 0 7.947.004a11.26 11.26 0 0 0-.654.026m1.654 1.541a6.496 6.496 0 0 1 4.88 3.561 6.455 6.455 0 0 1 .612 3.743 6.496 6.496 0 0 1-3.571 4.952 6.458 6.458 0 0 1-5.708.014c-1.966-.963-3.291-2.793-3.603-4.974a8.041 8.041 0 0 1-.001-1.734A6.485 6.485 0 0 1 3.497 3.32c1.116-1.073 2.501-1.686 4.09-1.81a9.06 9.06 0 0 1 1.36.061M4.96 4.452a.837.837 0 0 0-.467.4c-.07.139-.082.393-.026.564.043.135.123.221 1.262 1.364L6.946 8 5.742 9.207c-.662.663-1.225 1.248-1.252 1.3-.074.14-.069.509.008.653a.965.965 0 0 0 .354.347c.139.07.393.082.564.026.135-.043.221-.123 1.364-1.262L8 9.055l1.22 1.216c1.143 1.139 1.229 1.219 1.364 1.262.171.056.425.044.564-.026a.933.933 0 0 0 .351-.346.836.836 0 0 0 .034-.577c-.043-.135-.123-.221-1.262-1.364L9.055 8l1.216-1.22c1.139-1.143 1.219-1.229 1.262-1.364a.836.836 0 0 0-.034-.577.933.933 0 0 0-.351-.346c-.139-.07-.393-.082-.564-.026-.135.043-.221.123-1.364 1.262L8 6.945 6.78 5.73C5.684 4.637 5.547 4.509 5.429 4.47a.93.93 0 0 0-.469-.018"/>
</svg>
