<svg xmlns="http://www.w3.org/2000/svg" viewBox="0 0 20 16" fill="currentColor">
  <path d="M8.31 3.3A2.98 2.98 0 0 1 10 2.74a3 3 0 0 1 1.69.54 2.6 2.6 0 0 1 1.06 2.21c0 1.3-.7 2.07-1.46 2.44a1.37 1.37 0 0 0-.42.32c-.1.1-.12.19-.12.24l-.03.78a.75.75 0 1 1-1.5-.06l.03-.72c0-1 .81-1.62 1.38-1.9a1.06 1.06 0 0 0 .43-.36c.1-.16.19-.39.19-.74 0-.56-.21-.83-.44-1a1.49 1.49 0 0 0-.81-.25c-.21 0-.55.07-.81.26a.98.98 0 0 0-.26.27c-.22.35-.52.72-.93.72-.41 0-.76-.34-.67-.74a2.5 2.5 0 0 1 .98-1.47zM10 13a1 1 0 1 0 0-2 1 1 0 0 0 0 2z"/>
  <path fill-rule="evenodd" d="M10 16a8 8 0 1 0 0-16 8 8 0 0 0 0 16zm0-1.5a6.5 6.5 0 1 1 0-13 6.5 6.5 0 0 1 0 13z"/>
</svg>
