<svg xmlns="http://www.w3.org/2000/svg" viewBox="0 0 16 16" fill="currentColor">
  <path d="M7.293.03C4.174.3 1.46 2.423.439 5.39c-1.428 4.156.756 8.687 4.892 10.149a7.98 7.98 0 0 0 8.322-1.886 7.991 7.991 0 0 0 .736-10.463A7.977 7.977 0 0 0 7.947.004a11.26 11.26 0 0 0-.654.026m1.654 1.541a6.496 6.496 0 0 1 4.88 3.561 6.455 6.455 0 0 1 .612 3.743 6.496 6.496 0 0 1-3.571 4.952 6.458 6.458 0 0 1-5.708.014c-1.966-.963-3.291-2.793-3.603-4.974a8.041 8.041 0 0 1-.001-1.734A6.485 6.485 0 0 1 3.497 3.32c1.116-1.073 2.501-1.686 4.09-1.81a9.06 9.06 0 0 1 1.36.061M7.734 3.3a.786.786 0 0 0-.255.178c-.235.234-.226.151-.226 2.087v1.688H5.565c-1.936 0-1.853-.009-2.087.225a.713.713 0 0 0 0 1.044c.234.234.151.225 2.087.225h1.688v1.688c0 1.936-.009 1.853.225 2.087a.713.713 0 0 0 1.044 0c.234-.234.225-.151.225-2.087V8.747h1.688c1.936 0 1.853.009 2.087-.225a.713.713 0 0 0 0-1.044c-.234-.234-.151-.225-2.087-.225H8.747V5.565c0-1.936.009-1.853-.225-2.087a.736.736 0 0 0-.788-.178"/>
</svg>
