<svg xmlns="http://www.w3.org/2000/svg" viewBox="0 0 20 16" fill="currentColor">
  <path fill-rule="evenodd" d="M10 8.5A2.75 2.75 0 1 0 10 3a2.75 2.75 0 0 0 0 5.5zM10 7a1.25 1.25 0 1 1 0-2.5A1.25 1.25 0 0 1 10 7z"/>
  <path fill-rule="evenodd" d="M16.245 13a8 8 0 1 0-1.054 1.087A8.052 8.052 0 0 0 16.245 13zm-1.054-1.087A7.968 7.968 0 0 0 10 10c-1.981 0-3.794.72-5.191 1.913a6.5 6.5 0 1 1 10.382 0zM14.154 13A6.474 6.474 0 0 1 10 14.5 6.473 6.473 0 0 1 5.846 13 6.473 6.473 0 0 1 10 11.5c1.58 0 3.027.563 4.154 1.5z"/>
</svg>
