<svg xmlns="http://www.w3.org/2000/svg" viewBox="0 0 16 16" fill="currentColor">
  <path d="M7.293.03C4.174.3 1.46 2.423.439 5.39c-1.428 4.156.756 8.687 4.892 10.149a7.98 7.98 0 0 0 8.322-1.886 7.991 7.991 0 0 0 .736-10.463A7.977 7.977 0 0 0 7.947.004a11.26 11.26 0 0 0-.654.026m1.654 1.541a6.496 6.496 0 0 1 4.88 3.561 6.455 6.455 0 0 1 .612 3.743 6.496 6.496 0 0 1-3.571 4.952 6.458 6.458 0 0 1-5.708.014c-1.966-.963-3.291-2.793-3.603-4.974a8.041 8.041 0 0 1-.001-1.734A6.485 6.485 0 0 1 3.497 3.32c1.116-1.073 2.501-1.686 4.09-1.81a9.06 9.06 0 0 1 1.36.061M7.765 3.544a.708.708 0 0 0-.425.374l-.087.167v2.646c0 3.017-.016 2.803.228 3.047a.715.715 0 0 0 1.039-.001c.244-.244.229-.029.221-3.072L8.733 4.04l-.082-.147a.761.761 0 0 0-.444-.359.603.603 0 0 0-.442.01m-.02 7.505a.742.742 0 0 0-.49.713.823.823 0 0 0 .247.548c.372.315.91.22 1.149-.203.073-.131.082-.171.082-.36 0-.17-.013-.237-.061-.328a.811.811 0 0 0-.398-.363c-.143-.049-.411-.053-.529-.007"/>
</svg>
