<svg xmlns="http://www.w3.org/2000/svg" viewBox="0 0 16 16" fill="currentColor">
  <path d="M7.293.03C4.174.3 1.46 2.423.439 5.39c-1.428 4.156.756 8.687 4.892 10.149a7.98 7.98 0 0 0 8.322-1.886 7.991 7.991 0 0 0 .736-10.463A7.977 7.977 0 0 0 7.947.004a11.26 11.26 0 0 0-.654.026m1.654 1.541a6.496 6.496 0 0 1 4.88 3.561 6.455 6.455 0 0 1 .612 3.743 6.496 6.496 0 0 1-3.571 4.952 6.458 6.458 0 0 1-5.708.014c-1.966-.963-3.291-2.793-3.603-4.974a8.041 8.041 0 0 1-.001-1.734A6.485 6.485 0 0 1 3.497 3.32c1.116-1.073 2.501-1.686 4.09-1.81a9.06 9.06 0 0 1 1.36.061m1.797 3.746c-.054.019-.138.06-.187.091-.05.031-.87.837-1.823 1.791L7.001 8.933l-.761-.757c-.498-.496-.801-.777-.878-.816a.735.735 0 0 0-.831.125c-.181.169-.247.338-.232.594.007.118.032.24.059.294.026.052.499.545 1.051 1.097C6.587 10.646 6.56 10.627 7 10.627c.461 0 .293.14 2.589-2.157 1.379-1.379 2.018-2.037 2.052-2.11a.925.925 0 0 0 .024-.594c-.138-.361-.574-.573-.921-.449"/>
</svg>
