<svg xmlns="http://www.w3.org/2000/svg" viewBox="0 0 16 16" fill="currentColor"><path d="M1.5 2.75c0-.69.56-1.25 1.25-1.25H9.5a1 1 0 0 1 1 1A2.5 2.5 0 0 0 13 5h.25c.69 0 1.25.56 1.25 1.25V16H16V6.25a2.75 2.75 0 0 0-2.75-2.75H13a1 1 0 0 1-1-1A2.5 2.5 0 0 0 9.5 0H2.75A2.75 2.75 0 0 0 0 2.75V16h1.5V2.75Z"/><path d="M3.5 3a.5.5 0 0 0-.5.5v1c0 .28.22.5.5.5h1a.5.5 0 0 0 .5-.5v-1a.5.5 0 0 0-.5-.5h-1Zm3.5.5c0-.28.22-.5.5-.5h1c.28 0 .5.22.5.5v1a.5.5 0 0 1-.5.5h-1a.5.5 0 0 1-.5-.5v-1ZM3.5 7a.5.5 0 0 0-.5.5v1c0 .28.22.5.5.5h1a.5.5 0 0 0 .5-.5v-1a.5.5 0 0 0-.5-.5h-1Zm3.5.5c0-.28.22-.5.5-.5h1c.28 0 .5.22.5.5v1a.5.5 0 0 1-.5.5h-1a.5.5 0 0 1-.5-.5v-1Zm4.5-.5a.5.5 0 0 0-.5.5v1c0 .28.22.5.5.5h1a.5.5 0 0 0 .5-.5v-1a.5.5 0 0 0-.5-.5h-1Zm-.5 4.5c0-.28.22-.5.5-.5h1c.28 0 .5.22.5.5v1a.5.5 0 0 1-.5.5h-1a.5.5 0 0 1-.5-.5v-1ZM5.5 11a1 1 0 0 0-1 1v4h3v-4a1 1 0 0 0-1-1h-1Z"/></svg>