<svg xmlns="http://www.w3.org/2000/svg" fill="currentColor" class="vi" viewBox="0 0 16 16"><path fill-rule="evenodd" d="M9.526 14.496 6.08 8.694a2.23 2.23 0 0 1 .029-2.326c.888-1.377 2.907-1.373 3.788.012l4.095 6.435a3.5 3.5 0 0 1-1.404 1.303c-.288.147-.686.258-1.427.319-.452.037-.981.052-1.636.059m-1.742.004L4.791 9.46a4 4 0 0 1-.28-.58l-2.504 3.935a3.5 3.5 0 0 0 1.404 1.303c.288.147.686.258 1.427.319.72.059 1.637.063 2.946.063m-2.94-8.938-.008.013-3.3 5.185C1.502 10.062 1.5 9.185 1.5 8c0-1.425.001-2.403.063-3.162.06-.74.172-1.139.318-1.427a3.5 3.5 0 0 1 1.53-1.53c.288-.146.686-.257 1.427-.318C5.597 1.501 6.575 1.5 8 1.5s2.403.001 3.162.063c.74.06 1.139.172 1.427.318a3.5 3.5 0 0 1 1.53 1.53c.146.288.257.686.318 1.427.062.759.063 1.737.063 3.162 0 1.185 0 2.062-.037 2.76l-3.3-5.185v-.002l-.015-.022c-1.466-2.305-4.83-2.305-6.296 0zM.545 2.73C0 3.8 0 5.2 0 8s0 4.2.545 5.27a5 5 0 0 0 2.185 2.185C3.8 16 5.2 16 8 16s4.2 0 5.27-.545a5 5 0 0 0 2.185-2.185C16 12.2 16 10.8 16 8s0-4.2-.545-5.27A5 5 0 0 0 13.27.545C12.2 0 10.8 0 8 0S3.8 0 2.73.545A5 5 0 0 0 .545 2.73"/></svg>