<svg xmlns="http://www.w3.org/2000/svg" viewBox="0 0 16 16" fill="currentColor"><path d="M6.78 4.72c.3.3.3.77 0 1.06L4.56 8l2.22 2.22a.75.75 0 1 1-1.06 1.06l-2.4-2.4a1.25 1.25 0 0 1 0-1.76l2.4-2.4c.3-.3.77-.3 1.06 0Zm2.44 0c.3-.3.77-.3 1.06 0l2.4 2.4c.48.48.48 1.28 0 1.76l-2.4 2.4a.75.75 0 0 1-1.06-1.06L11.44 8 9.22 5.78a.75.75 0 0 1 0-1.06Z"/><path d="M1.75 2C.78 2 0 2.78 0 3.75v8.5C0 13.22.78 14 1.75 14h12.5c.97 0 1.75-.78 1.75-1.75v-8.5C16 2.78 15.22 2 14.25 2H1.75ZM1.5 3.75c0-.14.11-.25.25-.25h12.5c.14 0 .25.11.25.25v8.5c0 .14-.11.25-.25.25H1.75a.25.25 0 0 1-.25-.25v-8.5Z"/></svg>