<svg xmlns="http://www.w3.org/2000/svg" fill="currentColor" class="vi" viewBox="0 0 16 16"><path d="M6.78 4.72a.75.75 0 0 1 0 1.06L4.56 8l2.22 2.22a.75.75 0 1 1-1.06 1.06L3.323 8.884a1.25 1.25 0 0 1 0-1.768L5.72 4.72a.75.75 0 0 1 1.06 0Zm2.44 0a.75.75 0 0 1 1.06 0l2.397 2.396a1.25 1.25 0 0 1 0 1.768L10.28 11.28a.75.75 0 0 1-1.06-1.06L11.44 8 9.22 5.78a.75.75 0 0 1 0-1.06Z"/><path d="M1.75 2A1.75 1.75 0 0 0 0 3.75v8.5C0 13.216.784 14 1.75 14h12.5A1.75 1.75 0 0 0 16 12.25v-8.5A1.75 1.75 0 0 0 14.25 2H1.75ZM1.5 3.75a.25.25 0 0 1 .25-.25h12.5a.25.25 0 0 1 .25.25v8.5a.25.25 0 0 1-.25.25H1.75a.25.25 0 0 1-.25-.25v-8.5Z"/></svg>