<svg xmlns="http://www.w3.org/2000/svg" fill="currentColor" class="vi" viewBox="0 0 16 16"><path d="M8.75 11.937V14a2 2 0 0 1-2 2H2a2 2 0 0 1-2-2V6a2 2 0 0 1 2-2h4.75c.173 0 .34.022.5.063V2a2 2 0 0 1 2-2H14a2 2 0 0 1 2 2v8a2 2 0 0 1-2 2H9.25c-.173 0-.34-.022-.5-.063m.5-1.437H14a.5.5 0 0 0 .5-.5V6.75h-2.12l.44.512a.75.75 0 1 1-1.14.976l-1.5-1.75a.75.75 0 0 1 0-.976l1.5-1.75a.75.75 0 1 1 1.14.976l-.44.512h2.12V2a.5.5 0 0 0-.5-.5H9.25a.5.5 0 0 0-.5.5v8a.5.5 0 0 0 .5.5m-2-4.5a.5.5 0 0 0-.5-.5H2a.5.5 0 0 0-.5.5v3.25h2.12l-.44-.512a.75.75 0 1 1 1.14-.976l1.5 1.75a.75.75 0 0 1 0 .976l-1.5 1.75a.75.75 0 1 1-1.14-.976l.44-.512H1.5V14a.5.5 0 0 0 .5.5h4.75a.5.5 0 0 0 .5-.5z"/></svg>