<svg xmlns="http://www.w3.org/2000/svg" fill="currentColor" class="vi" viewBox="0 0 16 16"><path fill-rule="evenodd" d="M10.5 5.25c0 .138.112.25.25.25h3.5a.75.75 0 0 1 0 1.5h-3.5A1.75 1.75 0 0 1 9 5.25v-3.5a.75.75 0 0 1 1.5 0v3.5ZM5.25 10.5a.25.25 0 0 1 .25.25v3.5a.75.75 0 0 0 1.5 0v-3.5A1.75 1.75 0 0 0 5.25 9h-3.5a.75.75 0 0 0 0 1.5h3.5Zm5.25.25a.25.25 0 0 1 .25-.25h3.5a.75.75 0 0 0 0-1.5h-3.5A1.75 1.75 0 0 0 9 10.75v3.5a.75.75 0 0 0 1.5 0v-3.5Zm-5-5.5a.25.25 0 0 1-.25.25h-3.5a.75.75 0 0 0 0 1.5h3.5A1.75 1.75 0 0 0 7 5.25v-3.5a.75.75 0 0 0-1.5 0v3.5Z"/></svg>