<svg xmlns="http://www.w3.org/2000/svg" fill="currentColor" class="vi" viewBox="0 0 16 16"><path d="M10.5 4.25c0 .69.56 1.25 1.25 1.25h2.5a.75.75 0 0 1 0 1.5h-2.5A2.75 2.75 0 0 1 9 4.25v-2.5a.75.75 0 0 1 1.5 0zM4.25 10.5c.69 0 1.25.56 1.25 1.25v2.5a.75.75 0 0 0 1.5 0v-2.5A2.75 2.75 0 0 0 4.25 9h-2.5a.75.75 0 0 0 0 1.5zm6.25 1.25c0-.69.56-1.25 1.25-1.25h2.5a.75.75 0 0 0 0-1.5h-2.5A2.75 2.75 0 0 0 9 11.75v2.5a.75.75 0 0 0 1.5 0zm-5-7.5c0 .69-.56 1.25-1.25 1.25h-2.5a.75.75 0 0 0 0 1.5h2.5A2.75 2.75 0 0 0 7 4.25v-2.5a.75.75 0 0 0-1.5 0z"/></svg>