<svg xmlns="http://www.w3.org/2000/svg" width="16" height="16" fill="currentColor" class="vi" viewBox="0 0 16 16"><path fill-rule="evenodd" d="M10.5 5.25c0 .14.11.25.25.25h3.5a.75.75 0 0 1 0 1.5h-3.5C9.78 7 9 6.22 9 5.25v-3.5a.75.75 0 0 1 1.5 0v3.5ZM5.25 10.5c.14 0 .25.11.25.25v3.5a.75.75 0 0 0 1.5 0v-3.5C7 9.78 6.22 9 5.25 9h-3.5a.75.75 0 0 0 0 1.5h3.5Zm5.25.25c0-.14.11-.25.25-.25h3.5a.75.75 0 0 0 0-1.5h-3.5C9.78 9 9 9.78 9 10.75v3.5a.75.75 0 0 0 1.5 0v-3.5Zm-5-5.5c0 .14-.11.25-.25.25h-3.5a.75.75 0 0 0 0 1.5h3.5C6.22 7 7 6.22 7 5.25v-3.5a.75.75 0 0 0-1.5 0v3.5Z"/></svg>