<svg xmlns="http://www.w3.org/2000/svg" viewBox="0 0 16 16" fill="currentColor">
  <path d="M7.293.03C4.174.3 1.46 2.423.439 5.39c-1.428 4.156.756 8.687 4.892 10.149a7.98 7.98 0 0 0 8.322-1.886 7.991 7.991 0 0 0 .736-10.463A7.977 7.977 0 0 0 7.947.004a11.26 11.26 0 0 0-.654.026m1.654 1.541a6.496 6.496 0 0 1 4.88 3.561 6.455 6.455 0 0 1 .612 3.743 6.496 6.496 0 0 1-3.571 4.952 6.458 6.458 0 0 1-5.708.014c-1.966-.963-3.291-2.793-3.603-4.974a8.041 8.041 0 0 1-.001-1.734A6.485 6.485 0 0 1 3.497 3.32c1.116-1.073 2.501-1.686 4.09-1.81a9.06 9.06 0 0 1 1.36.061M4.68 4.424a.524.524 0 0 0-.307.468c0 .07.255.603 1.011 2.114 1.099 2.195 1.122 2.235 1.473 2.499.111.084.863.475 2.164 1.125 2.142 1.071 2.082 1.046 2.299.946a.524.524 0 0 0 .307-.468c0-.126-1.935-4.003-2.122-4.251-.264-.351-.304-.374-2.499-1.473-2.171-1.086-2.109-1.061-2.326-.96M8.428 7.1c.188.092.38.284.473.472.065.133.072.177.072.428s-.007.295-.072.428c-.093.188-.285.38-.473.473-.133.065-.177.072-.428.072s-.295-.007-.428-.072a1.125 1.125 0 0 1-.472-.472 1.146 1.146 0 0 1-.038-.77c.1-.263.323-.49.583-.595.197-.079.585-.061.783.036"/>
</svg>
