<svg xmlns="http://www.w3.org/2000/svg" fill="currentColor" class="vi" viewBox="0 0 16 16"><path d="M7.75 0A1.75 1.75 0 0 0 6 1.75v9c0 .966.784 1.75 1.75 1.75h5.5A1.75 1.75 0 0 0 15 10.75v-7a.75.75 0 0 0-.22-.53l-3-3a.75.75 0 0 0-.53-.22h-3.5ZM7.5 1.75a.25.25 0 0 1 .25-.25h2.75v2.25c0 .414.336.75.75.75h2.25v6.25a.25.25 0 0 1-.25.25h-5.5a.25.25 0 0 1-.25-.25v-9Z"/><path d="M2.75 3.5H5V5H2.75a.25.25 0 0 0-.25.25v9c0 .138.112.25.25.25h5.5a.25.25 0 0 0 .25-.25v-.75H10v.75A1.75 1.75 0 0 1 8.25 16h-5.5A1.75 1.75 0 0 1 1 14.25v-9c0-.966.784-1.75 1.75-1.75Z"/></svg>