<svg xmlns="http://www.w3.org/2000/svg" viewBox="0 0 16 16" fill="currentColor">
  <path d="M7.747.017a2.286 2.286 0 0 0-.5.134 2.043 2.043 0 0 0-1.196 1.396c-.056.217-.056 8.687-.001 8.904.188.733.696 1.253 1.457 1.492.117.037.517.043 3.373.05 2.179.006 3.3 0 3.422-.019a2.024 2.024 0 0 0 1.537-1.201c.155-.367.145-.124.154-3.76.009-3.643.013-3.55-.139-3.927-.14-.349-.207-.427-1.36-1.58s-1.231-1.22-1.58-1.36C12.551 0 12.537 0 10.074.003c-1.25.002-2.298.008-2.327.014m3.512 2.736.008 1.26.078.16c.099.203.279.383.482.482l.16.078 1.26.008 1.26.008v2.646c-.001 1.847-.01 2.677-.03 2.751a.553.553 0 0 1-.331.331c-.149.041-6.143.041-6.292 0a.553.553 0 0 1-.331-.331c-.041-.147-.042-8.142-.001-8.289a.534.534 0 0 1 .305-.324c.087-.031.406-.038 1.765-.038l1.659-.002.008 1.26m2.181-.18.68.68h-1.373v-.68c0-.374.003-.68.007-.68.003 0 .312.306.686.68M1.6 4.042A2.028 2.028 0 0 0 .157 5.226C-.007 5.618 0 5.409 0 10s-.007 4.382.157 4.774c.193.461.608.876 1.069 1.069.386.161.283.157 3.774.157s3.388.004 3.774-.157a2.067 2.067 0 0 0 1.069-1.069c.111-.265.157-.54.157-.933v-.348H8.507v.274c-.001.15-.014.321-.03.379a.553.553 0 0 1-.331.331c-.149.041-6.143.041-6.292 0a.553.553 0 0 1-.331-.331c-.042-.15-.042-8.142 0-8.292a.553.553 0 0 1 .331-.331c.07-.02.533-.029 1.379-.03h1.274V4l-1.367.002c-1.065.002-1.405.01-1.54.04"/>
</svg>
