<svg xmlns="http://www.w3.org/2000/svg" viewBox="0 0 16 16" fill="currentColor">
  <path fill-rule="evenodd" d="M6 10V2a2 2 0 0 1 2-2h4.172a2 2 0 0 1 1.414.586l1.828 1.828A2 2 0 0 1 16 3.828V10a2 2 0 0 1-2 2H8a2 2 0 0 1-2-2zm1.5 0a.5.5 0 0 0 .5.5h6a.5.5 0 0 0 .5-.5V4.75h-2.25a1 1 0 0 1-1-1V1.5H8a.5.5 0 0 0-.5.5v8zm5.25-8.129V3.25h1.379L12.75 1.871z"/>
  <path d="M4.5 4H2a2 2 0 0 0-2 2v8a2 2 0 0 0 2 2h6a2 2 0 0 0 2-2v-.5H8.5v.5a.5.5 0 0 1-.5.5H2a.5.5 0 0 1-.5-.5V6a.5.5 0 0 1 .5-.5h2.5V4z"/>
</svg>
