<svg xmlns="http://www.w3.org/2000/svg" viewBox="0 0 20 16" fill="currentColor">
  <path fill-rule="evenodd" d="M8 10V2a2 2 0 0 1 2-2h4.172a2 2 0 0 1 1.414.586l1.828 1.828A2 2 0 0 1 18 3.828V10a2 2 0 0 1-2 2h-6a2 2 0 0 1-2-2zm1.5 0a.5.5 0 0 0 .5.5h6a.5.5 0 0 0 .5-.5V4.75h-2.25a1 1 0 0 1-1-1V1.5H10a.5.5 0 0 0-.5.5v8zm5.25-8.129V3.25h1.379L14.75 1.871z"/>
  <path d="M6.5 4H4a2 2 0 0 0-2 2v8a2 2 0 0 0 2 2h6a2 2 0 0 0 2-2v-.5h-1.5v.5a.5.5 0 0 1-.5.5H4a.5.5 0 0 1-.5-.5V6a.5.5 0 0 1 .5-.5h2.5V4z"/>
</svg>
