<svg xmlns="http://www.w3.org/2000/svg" viewBox="0 0 16 16" fill="currentColor">
  <path fill-rule="evenodd" d="M2 1a1 1 0 0 0-1 1v4.25a1 1 0 0 0 1 1h4.25a1 1 0 0 0 1-1V2a1 1 0 0 0-1-1H2zm.5 1.5v3.25h3.25V2.5H2.5zM1 9.75a1 1 0 0 1 1-1h4.25a1 1 0 0 1 1 1V14a1 1 0 0 1-1 1H2a1 1 0 0 1-1-1V9.75zm1.5 3.75v-3.25h3.25v3.25H2.5zm6.25-3.75a1 1 0 0 1 1-1H14a1 1 0 0 1 1 1V14a1 1 0 0 1-1 1H9.75a1 1 0 0 1-1-1V9.75zm1.5 3.75v-3.25h3.25v3.25h-3.25zM8.75 2a1 1 0 0 1 1-1H14a1 1 0 0 1 1 1v4.25a1 1 0 0 1-1 1H9.75a1 1 0 0 1-1-1V2zm1.5 3.75V2.5h3.25v3.25h-3.25z"/>
</svg>
