<svg xmlns="http://www.w3.org/2000/svg" viewBox="0 0 16 16" fill="currentColor">
  <path fill-rule="evenodd" d="M1.645 1.066c-.255.1-.476.323-.587.593L1 1.8v4.64l.061.151c.114.282.306.475.592.598.115.049.22.051 2.374.059 2.408.009 2.464.006 2.702-.123.174-.094.374-.318.449-.505l.062-.153V4.133c0-2.227-.002-2.339-.051-2.47a.984.984 0 0 0-.593-.595c-.141-.053-.196-.055-2.484-.053-2.222.001-2.345.003-2.467.051m7.734.012a.979.979 0 0 0-.592.673c-.037.142-.041.446-.034 2.439l.007 2.277.064.16c.088.219.33.461.549.549l.16.064h2.334c2.23 0 2.339-.002 2.466-.051.288-.109.489-.308.606-.598L15 6.44V4.147c0-2.102-.004-2.306-.046-2.443a1.049 1.049 0 0 0-.616-.641c-.128-.045-.301-.048-2.471-.048H9.533l-.154.063M5.754 4.127l-.007 1.62-1.62.007-1.62.006V2.507H5.76l-.006 1.62m7.739.007V5.76l-1.62-.006-1.62-.007-.007-1.62-.006-1.62h3.253v1.627M1.734 8.789c-.298.081-.548.31-.672.618L1 9.56v4.64l.058.141c.119.29.369.527.646.613.137.042.341.046 2.443.046H6.44l.151-.061a1.01 1.01 0 0 0 .598-.602c.049-.131.051-.243.051-2.47V9.533l-.061-.152a1.033 1.033 0 0 0-.695-.598c-.233-.055-4.544-.049-4.75.006m7.76 0a1.03 1.03 0 0 0-.673.592l-.061.152-.007 2.277c-.009 2.516-.011 2.466.159 2.732.105.164.295.315.495.396L9.56 15h2.293c2.102 0 2.306-.004 2.443-.046a1.06 1.06 0 0 0 .658-.658c.042-.137.046-.341.046-2.443V9.56l-.061-.151a1.052 1.052 0 0 0-.592-.598c-.115-.049-.218-.051-2.414-.056-1.956-.005-2.314 0-2.439.034m-3.74 3.084.006 1.62H2.507V10.24l1.62.006 1.62.007.007 1.62m7.739-.006v1.626H10.24v-1.609c0-.884.008-1.616.018-1.626.01-.01.742-.018 1.626-.018h1.609v1.627"/>
</svg>
