<svg xmlns="http://www.w3.org/2000/svg" viewBox="0 0 20 16" fill="currentColor">
  <path fill-rule="evenodd" d="M4 1a1 1 0 0 0-1 1v4.25a1 1 0 0 0 1 1h4.25a1 1 0 0 0 1-1V2a1 1 0 0 0-1-1H4zm.5 1.5h3.25v3.25H4.5V2.5zM3 9.75a1 1 0 0 1 1-1h4.25a1 1 0 0 1 1 1V14a1 1 0 0 1-1 1H4a1 1 0 0 1-1-1V9.75zm1.5 3.75h3.25v-3.25H4.5v3.25zm6.25-3.75a1 1 0 0 1 1-1H16a1 1 0 0 1 1 1V14a1 1 0 0 1-1 1h-4.25a1 1 0 0 1-1-1V9.75zm1.5 3.75h3.25v-3.25h-3.25v3.25zM10.75 2a1 1 0 0 1 1-1H16a1 1 0 0 1 1 1v4.25a1 1 0 0 1-1 1h-4.25a1 1 0 0 1-1-1V2zm1.5 3.75h3.25V2.5h-3.25v3.25z"/>
</svg>
