<svg xmlns="http://www.w3.org/2000/svg" fill="currentColor" class="vi" viewBox="0 0 16 16"><path fill-rule="evenodd" d="M3.75 1.5c-.69 0-1.25.56-1.25 1.25V9H7v2H1.25C.56 11 0 10.44 0 9.75A.75.75 0 0 1 .75 9H1V2.75A2.75 2.75 0 0 1 3.75 0h8.5A2.75 2.75 0 0 1 15 2.75v.683a3.7 3.7 0 0 0-1.5-.425V2.75c0-.69-.56-1.25-1.25-1.25zM9.5 6.75c0-.69.56-1.25 1.25-1.25h2.5c.69 0 1.25.56 1.25 1.25v6.5c0 .69-.56 1.25-1.25 1.25h-2.5c-.69 0-1.25-.56-1.25-1.25zM10.75 4A2.75 2.75 0 0 0 8 6.75v6.5A2.75 2.75 0 0 0 10.75 16h2.5A2.75 2.75 0 0 0 16 13.25v-6.5A2.75 2.75 0 0 0 13.25 4z"/></svg>