<svg xmlns="http://www.w3.org/2000/svg" viewBox="0 0 16 16" fill="currentColor">
  <path d="M2.707 1.041a1.055 1.055 0 0 0-.652.655C2.001 1.87 2 1.917 2 5.936V10h-.715c-.824 0-.901.014-1.086.199-.511.512.016 1.595.862 1.772.099.02 1.094.029 3.287.029h3.145v-2h-4V6.487c.001-2.37.01-3.546.029-3.614a.583.583 0 0 1 .283-.33c.129-.054 8.261-.054 8.39 0a.583.583 0 0 1 .283.33c.016.055.028.217.029.36v.26H14v-.808c0-.891-.013-.985-.165-1.224a.994.994 0 0 0-.403-.361l-.139-.073-5.253-.005c-2.975-.002-5.288.006-5.333.019m6.938 4.025a1.08 1.08 0 0 0-.587.593L9 5.8v8.4l.058.141c.119.29.369.527.646.613.138.042.36.046 2.816.046h2.667l.15-.061a.993.993 0 0 0 .61-.642c.052-.166.053-.24.053-4.295 0-4.548.01-4.266-.165-4.541a.994.994 0 0 0-.403-.361l-.139-.073-2.76-.006c-2.648-.005-2.765-.004-2.888.045M14.507 10v3.493h-4V6.507h4V10"/>
</svg>
