<svg xmlns="http://www.w3.org/2000/svg" viewBox="0 0 16 16" fill="currentColor">
  <mask id="a">
    <rect x="9" y="5" rx="1"/>
  </mask>
  <rect x="9" y="5" stroke="#000" stroke-width="3" mask="url(#a)" rx="1"/>
  <path fill-rule="evenodd" d="M.667 10a.667.667 0 0 0-.667.667C0 11.403.597 12 1.333 12H7.5v-2h-4V3a.5.5 0 0 1 .5-.5h8a.5.5 0 0 1 .5.5v.5H14V2a1 1 0 0 0-1-1H3a1 1 0 0 0-1 1v8H.667z"/>
  <path d="M0 10.667C0 10.299.298 10 .667 10H2V2a1 1 0 0 1 1-1h10a1 1 0 0 1 1 1v1.5h-1.5V3a.5.5 0 0 0-.5-.5H4a.5.5 0 0 0-.5.5v7h4v2H1.333A1.333 1.333 0 0 1 0 10.667z"/>
  <path fill-rule="evenodd" d="M9 6a1 1 0 0 1 1-1h5a1 1 0 0 1 1 1v8a1 1 0 0 1-1 1h-5a1 1 0 0 1-1-1V6zm1.5 7.5v-7h4v7h-4z"/>
</svg>
