<svg xmlns="http://www.w3.org/2000/svg" fill="currentColor" class="vi" viewBox="0 0 16 16"><path d="M2.75 1.5a.25.25 0 0 0-.25.25V9H7v2H1.25C.56 11 0 10.44 0 9.75 0 9.34.34 9 .75 9H1V1.75C1 .78 1.78 0 2.75 0h10.5C14.22 0 15 .78 15 1.75V3.1c-.24-.06-.49-.1-.75-.1h-.75V1.75a.25.25 0 0 0-.25-.25H2.75Z"/><path d="M9.75 4C8.78 4 8 4.78 8 5.75v8.5c0 .97.78 1.75 1.75 1.75h4.5c.97 0 1.75-.78 1.75-1.75v-8.5C16 4.78 15.22 4 14.25 4h-4.5ZM9.5 5.75c0-.14.11-.25.25-.25h4.5c.14 0 .25.11.25.25v8.5c0 .14-.11.25-.25.25h-4.5a.25.25 0 0 1-.25-.25v-8.5Z"/></svg>