<svg xmlns="http://www.w3.org/2000/svg" fill="currentColor" class="vi" viewBox="0 0 16 16"><path d="M2.75 1.5a.25.25 0 0 0-.25.25V9H7v2H1.25C.56 11 0 10.44 0 9.75A.75.75 0 0 1 .75 9H1V1.75C1 .784 1.784 0 2.75 0h10.5C14.216 0 15 .784 15 1.75v1.354A2.752 2.752 0 0 0 14.25 3h-.75V1.75a.25.25 0 0 0-.25-.25H2.75Z"/><path d="M9.75 4A1.75 1.75 0 0 0 8 5.75v8.5c0 .966.784 1.75 1.75 1.75h4.5A1.75 1.75 0 0 0 16 14.25v-8.5A1.75 1.75 0 0 0 14.25 4h-4.5ZM9.5 5.75a.25.25 0 0 1 .25-.25h4.5a.25.25 0 0 1 .25.25v8.5a.25.25 0 0 1-.25.25h-4.5a.25.25 0 0 1-.25-.25v-8.5Z"/></svg>