<svg xmlns="http://www.w3.org/2000/svg" fill="currentColor" class="vi" viewBox="0 0 16 16"><path d="M8.5 7.25a.75.75 0 1 0 0-1.5.75.75 0 0 0 0 1.5m4.75-.75a.75.75 0 1 1-1.5 0 .75.75 0 0 1 1.5 0M10.5 5.25a.75.75 0 1 0 0-1.5.75.75 0 0 0 0 1.5m.75 3.25a.75.75 0 1 1-1.5 0 .75.75 0 0 1 1.5 0"/><path d="M5.823 4.555a2.75 2.75 0 0 0 0 3.89l2.732 2.732a2.75 2.75 0 0 0 3.89 0l2.732-2.732a2.75 2.75 0 0 0 0-3.89l-2.732-2.732a2.75 2.75 0 0 0-3.89 0zm8.293 1.061a1.25 1.25 0 0 1 0 1.768l-2.732 2.732a1.25 1.25 0 0 1-1.768 0L6.884 7.384a1.25 1.25 0 0 1 0-1.768l2.732-2.732a1.25 1.25 0 0 1 1.768 0z"/><path d="M2.75 5.5h1.403c-.135.489-.169 1-.102 1.5H2.75c-.69 0-1.25.56-1.25 1.25v4c0 .69.56 1.25 1.25 1.25h4c.69 0 1.25-.56 1.25-1.25v-.223c.426.383.92.65 1.439.803A2.751 2.751 0 0 1 6.75 15h-4A2.75 2.75 0 0 1 0 12.25v-4A2.75 2.75 0 0 1 2.75 5.5"/><path d="M4 8.75a.75.75 0 1 1-1.5 0 .75.75 0 0 1 1.5 0m2.25 3.75a.75.75 0 1 0 0-1.5.75.75 0 0 0 0 1.5"/></svg>