<svg xmlns="http://www.w3.org/2000/svg" fill="currentColor" class="vi" viewBox="0 0 16 16"><path d="M5 6a1 1 0 1 0 0-2 1 1 0 0 0 0 2Zm1 5a1 1 0 1 1-2 0 1 1 0 0 1 2 0Zm2-2a1 1 0 1 0 0-2 1 1 0 0 0 0 2Zm4-4a1 1 0 1 1-2 0 1 1 0 0 1 2 0Zm-1 7a1 1 0 1 0 0-2 1 1 0 0 0 0 2Z"/><path d="M3.75 1A2.75 2.75 0 0 0 1 3.75v8.5A2.75 2.75 0 0 0 3.75 15h8.5A2.75 2.75 0 0 0 15 12.25v-8.5A2.75 2.75 0 0 0 12.25 1h-8.5ZM2.5 3.75c0-.69.56-1.25 1.25-1.25h8.5c.69 0 1.25.56 1.25 1.25v8.5c0 .69-.56 1.25-1.25 1.25h-8.5c-.69 0-1.25-.56-1.25-1.25v-8.5Z"/></svg>