<svg xmlns="http://www.w3.org/2000/svg" fill="currentColor" class="vi" viewBox="0 0 16 16"><path d="M5.5 4.691v.5a.309.309 0 0 0 .585.138l.224-.447a.427.427 0 1 0-.809-.191"/><path d="M8 16A8 8 0 1 0 8 0a8 8 0 0 0 0 16m5.893-5.253a.85.85 0 0 0-.614-.247.9.9 0 0 1-.511-.155l-1.016-.677a1 1 0 0 0-.555-.168h-.394a1 1 0 0 1-.555-.168l-.996-.664a1 1 0 0 0-.555-.168h-.96a1 1 0 0 0-.448.106l-1.49.745a1 1 0 0 0-.448.447l-.245.49a1 1 0 0 0-.106.448v.85a1 1 0 0 0 .293.707l.914.914a1 1 0 0 0 .707.293h.836a.75.75 0 0 1 .75.75q0 .12.036.228A6.5 6.5 0 0 1 3.5 3.31v.778a.392.392 0 0 0 .744.176l.16-.32a.65.65 0 0 1 .29-.29l.15-.075a.847.847 0 0 0 .204-1.37 6.47 6.47 0 0 1 3.619-.674.96.96 0 0 0-.46.259l-1 1a.7.7 0 0 0-.207.5V3.5a.5.5 0 0 0 .5.5h.146A.354.354 0 0 0 8 3.646c0-.093.037-.183.104-.25l.189-.189a.7.7 0 0 1 .5-.207h.353a.354.354 0 0 1 .25.604l-.73.73a1 1 0 0 1-.39.24l-.975.326A.44.44 0 0 0 7 5.318a.44.44 0 0 1-.129.311l-.578.578A1 1 0 0 0 6 6.914v.159c0 .512.424.927.936.927a.91.91 0 0 0 .814-.5l.088-.176a.585.585 0 0 1 .786-.262l.82.41a.27.27 0 0 0 .36-.362l-.096-.194c-.11-.22 0-.485.233-.563l.86-.287A.29.29 0 0 0 11 5.791c0-.16.13-.291.29-.291h.96a.25.25 0 1 1 0 .5h-.457a.7.7 0 0 0-.5.207l-.19.19a.353.353 0 0 0 .25.603h.354c.188 0 .367.074.5.207l.116.116a.604.604 0 0 1 0 .854l-.005.005a.62.62 0 0 0-.117.72l.394.789a.904.904 0 0 0 1.214.404l.02-.01a.8.8 0 0 1 .357-.085 7 7 0 0 1-.293.747"/></svg>