<svg xmlns="http://www.w3.org/2000/svg" fill="currentColor" class="vi" viewBox="0 0 16 16"><path d="M8 0a.75.75 0 0 0-.75.75v.5a.75.75 0 0 0 1.5 0v-.5A.75.75 0 0 0 8 0M0 8c0 .414.336.75.75.75h.5a.75.75 0 0 0 0-1.5h-.5A.75.75 0 0 0 0 8m14 0c0 .414.336.75.75.75h.5a.75.75 0 0 0 0-1.5h-.5A.75.75 0 0 0 14 8m-6 8a.75.75 0 0 0 .75-.75v-.5a.75.75 0 0 0-1.5 0v.5c0 .414.336.75.75.75M2.343 2.343a.75.75 0 0 0 0 1.06l.354.354a.75.75 0 0 0 1.06-1.06l-.353-.354a.75.75 0 0 0-1.06 0m-.001 11.314a.75.75 0 0 0 1.06 0l.354-.354a.75.75 0 0 0-1.06-1.06l-.354.353a.75.75 0 0 0 0 1.06m9.9-9.899a.75.75 0 0 0 1.06 0l.354-.353a.75.75 0 0 0-1.06-1.06l-.354.353a.75.75 0 0 0 0 1.06m1.414 9.9a.75.75 0 0 0 0-1.06l-.354-.354a.75.75 0 0 0-1.06 1.06l.353.354a.75.75 0 0 0 1.06 0m-.76-4.64c.016-.075.03-.15.042-.227a3 3 0 0 1-4.235-4.22 3 3 0 0 1 1.627-.995 4.974 4.974 0 0 0-2.162-.572 5 5 0 1 0 4.729 6.015m-2.913 1.867a3.5 3.5 0 1 1-3.1-6.202 4.502 4.502 0 0 0 3.1 6.202"/><path d="M9.729 4.956a3.499 3.499 0 0 1 1.743 3.488 2.004 2.004 0 0 0 1.443-1.366 4.986 4.986 0 0 0-1.23-2.458 1.997 1.997 0 0 0-1.956.336"/></svg>