<svg xmlns="http://www.w3.org/2000/svg" fill="currentColor" class="vi" viewBox="0 0 16 16"><path d="M8 0a.75.75 0 0 0-.75.75v.5a.75.75 0 0 0 1.5 0v-.5A.75.75 0 0 0 8 0ZM0 8c0 .41.34.75.75.75h.5a.75.75 0 0 0 0-1.5h-.5A.75.75 0 0 0 0 8Zm14 0c0 .41.34.75.75.75h.5a.75.75 0 0 0 0-1.5h-.5A.75.75 0 0 0 14 8Zm-6 8c.41 0 .75-.34.75-.75v-.5a.75.75 0 0 0-1.5 0v.5c0 .41.34.75.75.75ZM2.34 2.34a.75.75 0 0 0 0 1.06l.36.36A.75.75 0 0 0 3.76 2.7l-.36-.36a.75.75 0 0 0-1.06 0Zm0 11.32c.3.29.77.29 1.06 0l.36-.36a.75.75 0 0 0-1.06-1.06l-.36.36a.75.75 0 0 0 0 1.06Zm9.9-9.9c.3.29.77.29 1.06 0l.36-.36a.75.75 0 0 0-1.06-1.06l-.36.36a.75.75 0 0 0 0 1.06Zm1.42 9.9a.75.75 0 0 0 0-1.06l-.36-.36a.75.75 0 0 0-1.06 1.06l.36.36c.29.29.76.29 1.06 0Zm-.76-4.64.04-.23A3 3 0 0 1 8.7 4.57a3 3 0 0 1 1.63-1A5.09 5.09 0 0 0 8 3a5 5 0 1 0 4.9 6.03Zm-2.92 1.86a3.5 3.5 0 1 1-3.1-6.2 4.48 4.48 0 0 0 3.1 6.2Z"/><path d="M9.73 4.96a3.5 3.5 0 0 1 1.74 3.48 2 2 0 0 0 1.45-1.36 4.99 4.99 0 0 0-1.24-2.46 2 2 0 0 0-1.95.34Z"/></svg>