<svg xmlns="http://www.w3.org/2000/svg" viewBox="0 0 16 16" fill="currentColor"><path d="M3.75 1.17A7.8 7.8 0 0 1 7.97 0C13.22 0 16 3.87 16 6.86a3.9 3.9 0 0 1-3.83 3.88c-2.35 0-2.86-.72-2.86-1 0-.12.04-.2.15-.3l.03-.03.01-.05c.33-.36.5-.82.5-1.3C10 5.6 7.43 3.6 4.25 3.6a6.9 6.9 0 0 0-3.36.84A9.17 9.17 0 0 1 3.74 1.2c.03-.02.01-.03.01-.03Zm.5 9.94c-.05.94.13 1.88.5 2.73A6.6 6.6 0 0 0 6.52 16 8.09 8.09 0 0 1 0 8.06c0-1.6 1.95-2.95 4.25-2.95a5.2 5.2 0 0 1 3.18 1.02l-.11.04C5.7 6.72 4.24 9 4.24 11.11Zm10.43 1.4h-.02c-.37.58-.81 1.1-1.32 1.54a5.98 5.98 0 0 1-3.4 1.56 3.7 3.7 0 0 1-1.68-.36 4.18 4.18 0 0 1-2.52-4.14c-.02-.63.17-1.26.47-1.82a5.59 5.59 0 0 0 5.28 3.42c.97.01 1.94-.2 2.82-.64l.06-.03c.12-.07.24-.12.36 0 .14.15.06.29-.04.44v.02Z"/></svg>