<svg xmlns="http://www.w3.org/2000/svg" fill="currentColor" class="vi" viewBox="0 0 16 16"><path d="M3.753 1.171A7.796 7.796 0 0 1 7.97.001C13.219.001 16 3.87 16 6.861a3.888 3.888 0 0 1-3.831 3.881c-2.35 0-2.86-.722-2.86-1 0-.12.038-.194.15-.294l.032-.038.012-.05A1.91 1.91 0 0 0 10 8.06c0-2.459-2.569-4.459-5.75-4.459a6.895 6.895 0 0 0-3.36.84c.844-1.797 2.585-3.05 2.854-3.244.025-.017.01-.026.01-.026m.488 9.94a6.158 6.158 0 0 0 .512 2.724c.425.825 1.022 1.594 1.766 2.166-1.86-.36-3.484-1.372-4.669-2.79A8.104 8.104 0 0 1 0 8.06c0-1.6 1.95-2.95 4.25-2.95a5.2 5.2 0 0 1 3.181 1.021l-.112.038c-1.61.55-3.078 2.834-3.078 4.94m10.44 1.39-.022.003a7.057 7.057 0 0 1-1.318 1.547c-.963.875-2.128 1.422-3.4 1.56-.582.009-1.15-.1-1.682-.357-.8-.322-1.472-.937-1.925-1.656a4.209 4.209 0 0 1-.593-2.488c-.02-.628.168-1.259.468-1.818a5.576 5.576 0 0 0 5.281 3.419 6.29 6.29 0 0 0 2.82-.641l.059-.028c.122-.072.24-.122.362 0 .14.153.056.287-.037.437-.007.006-.01.016-.013.022"/></svg>