<svg xmlns="http://www.w3.org/2000/svg" viewBox="0 0 16 16" fill="currentColor">
  <path fill-rule="evenodd" d="M1.627 6.549a1.537 1.537 0 0 0-1.08 1.09c-.2.786.297 1.611 1.092 1.814.786.2 1.611-.297 1.814-1.092.2-.787-.295-1.61-1.092-1.814a1.797 1.797 0 0 0-.734.002m6 0a1.537 1.537 0 0 0-1.08 1.09c-.2.786.297 1.611 1.092 1.814.786.2 1.611-.297 1.814-1.092.2-.787-.295-1.61-1.092-1.814a1.797 1.797 0 0 0-.734.002m6 0a1.537 1.537 0 0 0-1.08 1.09c-.2.786.297 1.611 1.092 1.814.786.2 1.611-.297 1.814-1.092.2-.787-.295-1.61-1.092-1.814a1.797 1.797 0 0 0-.734.002"/>
</svg>
