<svg xmlns="http://www.w3.org/2000/svg" viewBox="0 0 16 16" fill="currentColor">
  <path fill-rule="evenodd" d="M1.747 2.017a2.286 2.286 0 0 0-.5.134A2.043 2.043 0 0 0 .051 3.547c-.056.217-.056 8.687-.001 8.904.188.733.694 1.251 1.457 1.492.119.038.766.043 6.373.051 4.254.005 6.298-.001 6.422-.021a2.034 2.034 0 0 0 1.647-1.52c.056-.218.056-8.688.001-8.904-.205-.798-.843-1.394-1.63-1.521-.164-.026-12.44-.038-12.573-.011m9.346 3.832C8.925 8.013 8.719 8.211 8.559 8.287a1.276 1.276 0 0 1-1.118.002c-.162-.076-.344-.252-2.534-2.439l-2.36-2.356h10.906l-2.36 2.355m-4.64 3.597c.885.568 1.898.628 2.808.165.106-.053.252-.14.326-.192.073-.052 1.21-1.169 2.526-2.483l2.394-2.389v3.747c-.001 2.651-.009 3.777-.03 3.852a.553.553 0 0 1-.331.331c-.151.042-12.141.042-12.292 0a.553.553 0 0 1-.331-.331c-.021-.075-.029-1.201-.03-3.852V4.547L3.9 6.949c1.486 1.483 2.463 2.438 2.553 2.497"/>
</svg>
