<svg xmlns="http://www.w3.org/2000/svg" fill="currentColor" class="vi" viewBox="0 0 16 16"><path d="M4.25 9.5a.75.75 0 0 1 .75.75v1a.75.75 0 0 1-1.5 0v-1a.75.75 0 0 1 .75-.75Zm3.25.75a.75.75 0 0 0-1.5 0v1a.75.75 0 0 0 1.5 0v-1Zm1.75-.75a.75.75 0 0 1 .75.75v1a.75.75 0 0 1-1.5 0v-1a.75.75 0 0 1 .75-.75Zm3.25.75a.75.75 0 0 0-1.5 0v1a.75.75 0 0 0 1.5 0v-1Z"/><path d="M4.5 2.75C4.5 1.784 5.284 1 6.25 1h3.5c.966 0 1.75.784 1.75 1.75v.75h2.75c.966 0 1.75.784 1.75 1.75v8A1.75 1.75 0 0 1 14.25 15H1.75A1.75 1.75 0 0 1 0 13.25v-8C0 4.284.784 3.5 1.75 3.5H4.5v-.75Zm1.75-.25a.25.25 0 0 0-.25.25v1.5a.75.75 0 0 1-.75.75h-3.5a.25.25 0 0 0-.25.25v8c0 .138.112.25.25.25h12.5a.25.25 0 0 0 .25-.25v-8a.25.25 0 0 0-.25-.25h-3.5a.75.75 0 0 1-.75-.75v-1.5a.25.25 0 0 0-.25-.25h-3.5Z"/></svg>