<svg xmlns="http://www.w3.org/2000/svg" width="16" height="16" fill="currentColor" class="vi" viewBox="0 0 16 16"><path d="M4.25 9.5c.41 0 .75.34.75.75v1a.75.75 0 0 1-1.5 0v-1c0-.41.34-.75.75-.75Zm3.25.75a.75.75 0 0 0-1.5 0v1a.75.75 0 0 0 1.5 0v-1Zm1.75-.75c.41 0 .75.34.75.75v1a.75.75 0 0 1-1.5 0v-1c0-.41.34-.75.75-.75Zm3.25.75a.75.75 0 0 0-1.5 0v1a.75.75 0 0 0 1.5 0v-1Z"/><path d="M4.5 2.75C4.5 1.78 5.28 1 6.25 1h3.5c.97 0 1.75.78 1.75 1.75v.75h2.75c.97 0 1.75.78 1.75 1.75v8c0 .97-.78 1.75-1.75 1.75H1.75C.78 15 0 14.22 0 13.25v-8C0 4.28.78 3.5 1.75 3.5H4.5v-.75Zm1.75-.25a.25.25 0 0 0-.25.25v1.5c0 .41-.34.75-.75.75h-3.5a.25.25 0 0 0-.25.25v8c0 .14.11.25.25.25h12.5c.14 0 .25-.11.25-.25v-8a.25.25 0 0 0-.25-.25h-3.5a.75.75 0 0 1-.75-.75v-1.5a.25.25 0 0 0-.25-.25h-3.5Z"/></svg>