<svg xmlns="http://www.w3.org/2000/svg" viewBox="0 0 16 16" fill="currentColor"><path d="M4.25 9.25c.41 0 .75.34.75.75v1a.75.75 0 0 1-1.5 0v-1c0-.41.34-.75.75-.75ZM7.5 10A.75.75 0 0 0 6 10v1a.75.75 0 0 0 1.5 0v-1Zm1.75-.75c.41 0 .75.34.75.75v1a.75.75 0 0 1-1.5 0v-1c0-.41.34-.75.75-.75Zm3.25.75a.75.75 0 0 0-1.5 0v1a.75.75 0 0 0 1.5 0v-1Z"/><path d="M4.5 3.75C4.5 2.78 5.28 2 6.25 2h3.5c.97 0 1.75.78 1.75 1.75v.75h2.75c.97 0 1.75.78 1.75 1.75v6c0 .97-.78 1.75-1.75 1.75H1.75C.78 14 0 13.22 0 12.25v-6C0 5.28.78 4.5 1.75 4.5H4.5v-.75Zm1.75-.25a.25.25 0 0 0-.25.25v1.5c0 .41-.34.75-.75.75h-3.5a.25.25 0 0 0-.25.25v6c0 .14.11.25.25.25h12.5c.14 0 .25-.11.25-.25v-6a.25.25 0 0 0-.25-.25h-3.5a.75.75 0 0 1-.75-.75v-1.5a.25.25 0 0 0-.25-.25h-3.5Z"/></svg>