<svg xmlns="http://www.w3.org/2000/svg" viewBox="0 0 20 16" fill="currentColor"><path d="M3.75 9c.41 0 .75.34.75.75V13c0 .28.22.5.5.5h3.25a.75.75 0 0 1 0 1.5H5a2 2 0 0 1-2-2V9.75c0-.41.34-.75.75-.75ZM9 1.75c0 .41-.34.75-.75.75H5a.5.5 0 0 0-.5.5v3.25a.75.75 0 0 1-1.5 0V3c0-1.1.9-2 2-2h3.25c.41 0 .75.34.75.75ZM16.25 7a.75.75 0 0 1-.75-.75V3a.5.5 0 0 0-.5-.5h-3.25a.75.75 0 0 1 0-1.5H15a2 2 0 0 1 2 2v3.25c0 .41-.34.75-.75.75ZM11 14.25c0-.41.34-.75.75-.75H15a.5.5 0 0 0 .5-.5V9.75a.75.75 0 0 1 1.5 0V13a2 2 0 0 1-2 2h-3.25a.75.75 0 0 1-.75-.75Z"/></svg>