<svg xmlns="http://www.w3.org/2000/svg" fill="currentColor" class="vi" viewBox="0 0 16 16"><path d="M2.5 2.75a.25.25 0 0 1 .25-.25h3.5a.75.75 0 0 0 0-1.5h-3.5A1.75 1.75 0 0 0 1 2.75v3.5a.75.75 0 0 0 1.5 0v-3.5Zm10.75-.25a.25.25 0 0 1 .25.25v3.5a.75.75 0 0 0 1.5 0v-3.5A1.75 1.75 0 0 0 13.25 1h-3.5a.75.75 0 0 0 0 1.5h3.5ZM2.5 13.25c0 .138.112.25.25.25h3.5a.75.75 0 0 1 0 1.5h-3.5A1.75 1.75 0 0 1 1 13.25v-3.5a.75.75 0 0 1 1.5 0v3.5Zm11 0a.25.25 0 0 1-.25.25h-3.5a.75.75 0 0 0 0 1.5h3.5A1.75 1.75 0 0 0 15 13.25v-3.5a.75.75 0 0 0-1.5 0v3.5Z"/></svg>