<svg xmlns="http://www.w3.org/2000/svg" fill="currentColor" class="vi" viewBox="0 0 16 16"><path d="M2.5 2.75c0-.14.11-.25.25-.25h3.5a.75.75 0 0 0 0-1.5h-3.5C1.78 1 1 1.78 1 2.75v3.5a.75.75 0 0 0 1.5 0v-3.5Zm10.75-.25c.14 0 .25.11.25.25v3.5a.75.75 0 0 0 1.5 0v-3.5C15 1.78 14.22 1 13.25 1h-3.5a.75.75 0 0 0 0 1.5h3.5ZM2.5 13.25c0 .14.11.25.25.25h3.5a.75.75 0 0 1 0 1.5h-3.5C1.78 15 1 14.22 1 13.25v-3.5a.75.75 0 0 1 1.5 0v3.5Zm11 0c0 .14-.11.25-.25.25h-3.5a.75.75 0 0 0 0 1.5h3.5c.97 0 1.75-.78 1.75-1.75v-3.5a.75.75 0 0 0-1.5 0v3.5Z"/></svg>