<svg xmlns="http://www.w3.org/2000/svg" fill="currentColor" class="vi" viewBox="0 0 16 16"><path fill-rule="evenodd" d="M2.5 3.75c0-.69.56-1.25 1.25-1.25h2.5a.75.75 0 0 0 0-1.5h-2.5A2.75 2.75 0 0 0 1 3.75v2.5a.75.75 0 0 0 1.5 0zm9.75-1.25c.69 0 1.25.56 1.25 1.25v2.5a.75.75 0 0 0 1.5 0v-2.5A2.75 2.75 0 0 0 12.25 1h-2.5a.75.75 0 0 0 0 1.5zM2.5 12.25c0 .69.56 1.25 1.25 1.25h2.5a.75.75 0 0 1 0 1.5h-2.5A2.75 2.75 0 0 1 1 12.25v-2.5a.75.75 0 0 1 1.5 0zm11 0c0 .69-.56 1.25-1.25 1.25h-2.5a.75.75 0 0 0 0 1.5h2.5A2.75 2.75 0 0 0 15 12.25v-2.5a.75.75 0 0 0-1.5 0z"/><path d="M2.5 3.75c0-.69.56-1.25 1.25-1.25h2.5a.75.75 0 0 0 0-1.5h-2.5A2.75 2.75 0 0 0 1 3.75v2.5a.75.75 0 0 0 1.5 0zm9.75-1.25c.69 0 1.25.56 1.25 1.25v2.5a.75.75 0 0 0 1.5 0v-2.5A2.75 2.75 0 0 0 12.25 1h-2.5a.75.75 0 0 0 0 1.5zM2.5 12.25c0 .69.56 1.25 1.25 1.25h2.5a.75.75 0 0 1 0 1.5h-2.5A2.75 2.75 0 0 1 1 12.25v-2.5a.75.75 0 0 1 1.5 0zm11 0c0 .69-.56 1.25-1.25 1.25h-2.5a.75.75 0 0 0 0 1.5h2.5A2.75 2.75 0 0 0 15 12.25v-2.5a.75.75 0 0 0-1.5 0z"/></svg>