<svg xmlns="http://www.w3.org/2000/svg" fill="currentColor" class="vi" viewBox="0 0 16 16"><path d="M13.305 1.496a.75.75 0 0 0-1.11 1.009L13.555 4H7.5a2.75 2.75 0 0 0-2.75 2.75V9.5a.75.75 0 0 0 1.5 0V6.75c0-.69.56-1.25 1.251-1.25h6.061l-1.369 1.516a.75.75 0 1 0 1.114 1.005l2.5-2.768a.75.75 0 0 0-.002-1.008z"/><path d="M11 12.25A2.75 2.75 0 0 1 8.25 15h-5.5A2.75 2.75 0 0 1 0 12.25v-5.5A2.75 2.75 0 0 1 2.75 4h2.201c-.44.409-.783.922-.988 1.5H2.75c-.69 0-1.25.56-1.25 1.25v5.5c0 .69.56 1.25 1.25 1.25h5.5c.69 0 1.25-.56 1.25-1.25v-5.5q0-.13-.025-.25h1.514q.01.123.011.25z"/></svg>