<svg xmlns="http://www.w3.org/2000/svg" fill="currentColor" class="vi" viewBox="0 0 16 16"><path d="M1.28.22A.75.75 0 1 0 .22 1.28l2.093 2.094A7.976 7.976 0 0 0 .062 8a8.001 8.001 0 0 0 12.47 5.593l2.188 2.187a.75.75 0 1 0 1.06-1.06L1.28.22Zm10.17 12.29A6.502 6.502 0 0 1 1.577 8a6.479 6.479 0 0 1 1.797-3.566L4.69 5.752a4 4 0 0 0 5.557 5.557l1.201 1.201ZM5.783 6.844l3.373 3.373a2.5 2.5 0 0 1-3.373-3.373ZM7.15 4.09l4.76 4.759A4 4 0 0 0 7.15 4.09Z"/><path d="M14.424 8a6.453 6.453 0 0 1-.914 2.45l1.083 1.083A7.954 7.954 0 0 0 15.938 8a8.001 8.001 0 0 0-11.19-6.312l1.158 1.157A6.502 6.502 0 0 1 14.424 8Z"/></svg>