<svg xmlns="http://www.w3.org/2000/svg" viewBox="0 0 20 16" fill="currentColor"><path d="M10 1c1.31 0 2.55.32 3.65.88L12.52 3a6.5 6.5 0 0 0-8.94 5 6.46 6.46 0 0 0 1.15 2.79l-1.08 1.07A7.96 7.96 0 0 1 2.06 8 8 8 0 0 1 10 1Z"/><path d="M10 4a4 4 0 0 1 1.3.22L9.09 6.45a2 2 0 0 1 .57-.93A2.5 2.5 0 0 0 7.5 8v.03L6.22 9.3A4 4 0 0 1 10 4Zm3.78 2.7-2.23 2.22a2 2 0 0 0 .93-.57A2.5 2.5 0 0 1 10 10.5h-.03L8.7 11.78a4 4 0 0 0 5.1-5.09Z"/><path d="M10 13.5c-.9 0-1.74-.18-2.52-.5l-1.13 1.12A8 8 0 0 0 17.94 8a7.96 7.96 0 0 0-1.6-3.87L15.28 5.2c.6.81 1 1.77 1.15 2.8A6.5 6.5 0 0 1 10 13.5Zm6-10.44A.75.75 0 0 0 14.94 2L4 12.94A.75.75 0 0 0 5.06 14L16 3.06Z"/></svg>