<svg xmlns="http://www.w3.org/2000/svg" viewBox="0 0 20 16" fill="currentColor"><circle cx="10" cy="8" r="3.25" stroke="#000" stroke-width="1.5"/><circle cx="11" cy="7" r="2"/><mask id="a"><path fill-rule="evenodd" d="M2.06 8a8 8 0 0 1 15.88 0A8 8 0 0 1 2.06 8Z"/></mask><path d="M2.06 8 .57 7.81.55 8l.02.19L2.07 8Zm15.88 0 1.49.19.02-.19-.02-.19-1.5.19Zm-14.39.19A6.5 6.5 0 0 1 10 2.5v-3A9.5 9.5 0 0 0 .57 7.81l2.98.38ZM10 2.5a6.5 6.5 0 0 1 6.45 5.69l2.98-.38A9.5 9.5 0 0 0 10-.5v3Zm6.45 5.31A6.5 6.5 0 0 1 10 13.5v3a9.5 9.5 0 0 0 9.43-8.31l-2.98-.38ZM10 13.5a6.5 6.5 0 0 1-6.45-5.69L.57 8.2A9.5 9.5 0 0 0 10 16.5v-3Z" mask="url(#a)"/><path fill-rule="evenodd" d="M10 12a4 4 0 1 0 0-8 4 4 0 0 0 0 8Zm0-1.5a2.5 2.5 0 0 1-.35-4.98A2 2 0 0 0 11 9a2 2 0 0 0 1.48-.65A2.5 2.5 0 0 1 10 10.5Z"/><path fill-rule="evenodd" d="M10 1a8 8 0 0 1 7.94 7A8 8 0 0 1 2.06 8 8 8 0 0 1 10 1Zm0 12.5A6.5 6.5 0 0 0 16.42 8 6.5 6.5 0 0 0 3.58 8 6.5 6.5 0 0 0 10 13.5Z"/></svg>