<svg xmlns="http://www.w3.org/2000/svg" viewBox="0 0 16 16" fill="currentColor">
  <path d="M8.016 0C3.5 0 0 3.3 0 7.761c0 2.333.958 4.349 2.518 5.739.27.242.214.383.26 1.878a.643.643 0 0 0 .9.567c1.706-.752 1.728-.81 2.017-.732C10.642 16.574 16 13.41 16 7.76 16 3.3 12.536 0 8.016 0zm4.813 5.971L10.474 9.7a1.206 1.206 0 0 1-1.739.32L6.862 8.618a.484.484 0 0 0-.581 0l-2.528 1.918c-.338.255-.78-.149-.552-.506l2.355-3.729a1.205 1.205 0 0 1 1.739-.32l1.873 1.402a.484.484 0 0 0 .58 0l2.53-1.916c.336-.257.778.147.551.504z"/>
</svg>
