<svg xmlns="http://www.w3.org/2000/svg" viewBox="0 0 16 16" fill="currentColor">
  <path d="m7.44.016-.386.039c-1.829.177-3.572.991-4.843 2.263C.775 3.756 0 5.663.001 7.76c0 2.161.821 4.112 2.35 5.587.229.221.313.319.338.4.029.094.063.651.091 1.506.01.3.042.398.176.543.152.163.433.242.634.177.057-.019.426-.178.821-.353.395-.176.784-.342.864-.37a.848.848 0 0 1 .527-.012c.543.159 1.238.254 1.988.274a7.952 7.952 0 0 0 2.33-.25c1.494-.38 2.72-1.08 3.761-2.146a7.254 7.254 0 0 0 1.997-3.943c.296-1.756.04-3.505-.735-5.017C13.984 1.896 11.825.43 9.12.066 8.83.027 7.647-.009 7.44.016m5.225 5.41c.138.071.215.19.215.333 0 .118-.027.17-.341.671-1.494 2.375-2.129 3.363-2.226 3.462a1.173 1.173 0 0 1-1.363.245c-.09-.043-.607-.41-1.15-.817-.543-.407-1.014-.75-1.048-.763a.609.609 0 0 0-.398.023c-.047.026-.646.473-1.331.993-.685.521-1.283.967-1.328.993-.242.134-.548-.056-.548-.342 0-.098.124-.306 1.228-2.053.675-1.069 1.272-1.99 1.326-2.047a1.14 1.14 0 0 1 .859-.373c.262-.001.448.051.66.186.077.049.546.394 1.042.766.497.373.94.697.986.721a.597.597 0 0 0 .392.016c.038-.015.603-.432 1.256-.927.652-.495 1.259-.951 1.348-1.013.177-.124.287-.143.421-.074"/>
</svg>
