<svg xmlns="http://www.w3.org/2000/svg" viewBox="0 0 20 16" fill="currentColor">
  <path d="M10.015.5C5.781.5 2.5 3.594 2.5 7.776c0 2.187.898 4.077 2.361 5.38.253.227.2.359.243 1.761a.602.602 0 0 0 .844.532c1.6-.705 1.62-.76 1.892-.687 4.637 1.276 9.66-1.69 9.66-6.986C17.5 3.594 14.252.5 10.015.5zm4.512 5.598L12.32 9.594a1.13 1.13 0 0 1-1.63.3L8.932 8.58a.454.454 0 0 0-.545 0l-2.37 1.798c-.316.24-.73-.14-.517-.474l2.208-3.496a1.13 1.13 0 0 1 1.63-.3l1.756 1.314a.453.453 0 0 0 .544 0l2.371-1.796c.316-.24.73.138.517.473z"/>
</svg>
