<svg xmlns="http://www.w3.org/2000/svg" viewBox="0 0 16 16" fill="currentColor">
  <path d="M7.307.029A8.017 8.017 0 0 0 .903 4.308a8.058 8.058 0 0 0-.875 4.345c.227 2.692 1.749 5.037 4.126 6.359.719.399 1.721.751 2.479.87l.114.018v-5.58H4.72V8h2.021l.014-1.14c.013-1.199.025-1.338.155-1.78a2.617 2.617 0 0 1 1.591-1.735c.649-.244 1.455-.28 2.672-.117l.394.052c.003 0 .006.444.006.987v.986l-.62.001c-.68 0-.876.026-1.112.146a1.07 1.07 0 0 0-.44.437c-.131.26-.147.399-.147 1.316L9.253 8h1.107c.609 0 1.107.007 1.107.014 0 .008-.078.521-.174 1.139-.095.618-.173 1.133-.173 1.145 0 .012-.42.022-.933.022h-.934v5.579l.127-.018c.25-.036.88-.2 1.23-.32A8 8 0 0 0 11.72.917 8.1 8.1 0 0 0 7.307.029"/>
</svg>
