<svg xmlns="http://www.w3.org/2000/svg" fill="currentColor" class="vi" viewBox="0 0 16 16"><path d="M9.5 7.5a.5.5 0 0 1 .5.5v1a.5.5 0 0 1-.5.5h-1A.5.5 0 0 1 8 9V8a.5.5 0 0 1 .5-.5zm3 0a.5.5 0 0 1 .5.5v1a.5.5 0 0 1-.5.5h-1A.5.5 0 0 1 11 9V8a.5.5 0 0 1 .5-.5zm-4 3a.5.5 0 0 0-.5.5v1a.5.5 0 0 0 .5.5h1a.5.5 0 0 0 .5-.5v-1a.5.5 0 0 0-.5-.5zm4 0a.5.5 0 0 1 .5.5v1a.5.5 0 0 1-.5.5h-1a.5.5 0 0 1-.5-.5v-1a.5.5 0 0 1 .5-.5z"/><path d="M13.5 3.914v1.097A2.75 2.75 0 0 1 16 7.75v4.5A2.75 2.75 0 0 1 13.25 15H2.75A2.75 2.75 0 0 1 0 12.25v-7.5A2.75 2.75 0 0 1 2.75 2h1A2.75 2.75 0 0 1 6.5 4.75V5h1V2.75C7.5 1.784 8.284 1 9.25 1h1.336c.464 0 .909.184 1.237.513l1.164 1.164c.329.328.513.773.513 1.237M9 2.75V5h3V3.914a.25.25 0 0 0-.073-.177l-1.164-1.164a.25.25 0 0 0-.177-.073H9.25a.25.25 0 0 0-.25.25M6.5 13.5h6.75c.69 0 1.25-.56 1.25-1.25v-4.5c0-.69-.56-1.25-1.25-1.25H6.5zm-1.5 0V4.75c0-.69-.56-1.25-1.25-1.25h-1c-.69 0-1.25.56-1.25 1.25v7.5c0 .69.56 1.25 1.25 1.25z"/></svg>