<svg xmlns="http://www.w3.org/2000/svg" fill="currentColor" class="vi" viewBox="0 0 16 16"><path d="M9.5 7.5a.5.5 0 0 1 .5.5v1a.5.5 0 0 1-.5.5h-1A.5.5 0 0 1 8 9V8a.5.5 0 0 1 .5-.5h1Zm3 0a.5.5 0 0 1 .5.5v1a.5.5 0 0 1-.5.5h-1A.5.5 0 0 1 11 9V8a.5.5 0 0 1 .5-.5h1Zm-4 3a.5.5 0 0 0-.5.5v1a.5.5 0 0 0 .5.5h1a.5.5 0 0 0 .5-.5v-1a.5.5 0 0 0-.5-.5h-1Zm4 0a.5.5 0 0 1 .5.5v1a.5.5 0 0 1-.5.5h-1a.5.5 0 0 1-.5-.5v-1a.5.5 0 0 1 .5-.5h1Z"/><path d="M8.25 1a.75.75 0 0 0-.75.75V5h-1V3.75A1.75 1.75 0 0 0 4.75 2h-3A1.75 1.75 0 0 0 0 3.75v9.5C0 14.216.784 15 1.75 15h12.5A1.75 1.75 0 0 0 16 13.25v-6.5A1.75 1.75 0 0 0 14.25 5h-.75V3.5a.75.75 0 0 0-.22-.53l-1.75-1.75A.75.75 0 0 0 11 1H8.25ZM12 5H9V2.5h1.69L12 3.81V5Zm-5.5 8.5v-7h7.75a.25.25 0 0 1 .25.25v6.5a.25.25 0 0 1-.25.25H6.5Zm-1.5 0H1.75a.25.25 0 0 1-.25-.25v-9.5a.25.25 0 0 1 .25-.25h3a.25.25 0 0 1 .25.25v9.75Z"/></svg>