<svg xmlns="http://www.w3.org/2000/svg" viewBox="0 0 20 16" fill="currentColor">
  <path d="M10 11.5a.5.5 0 0 0-.5.5v1a.5.5 0 0 0 .5.5h1a.5.5 0 0 0 .5-.5v-1a.5.5 0 0 0-.5-.5h-1zm-.5-3A.5.5 0 0 1 10 8h1a.5.5 0 0 1 .5.5v1a.5.5 0 0 1-.5.5h-1a.5.5 0 0 1-.5-.5v-1zm4.5 3a.5.5 0 0 0-.5.5v1a.5.5 0 0 0 .5.5h1a.5.5 0 0 0 .5-.5v-1a.5.5 0 0 0-.5-.5h-1zm-.5-3A.5.5 0 0 1 14 8h1a.5.5 0 0 1 .5.5v1a.5.5 0 0 1-.5.5h-1a.5.5 0 0 1-.5-.5v-1z"/>
  <path fill-rule="evenodd" d="M8.5 5.5V1a1 1 0 0 1 1-1h4.086a1 1 0 0 1 .707.293l1.914 1.914a1 1 0 0 1 .293.707V5.5h.5a2 2 0 0 1 2 2V14a2 2 0 0 1-2 2H3a2 2 0 0 1-2-2V4a2 2 0 0 1 2-2h2.5a2 2 0 0 1 2 2v1.5h1zM15 3.121 13.379 1.5H10v4h5V3.121zM7.5 7v7c0 .173-.022.34-.063.5H17a.5.5 0 0 0 .5-.5V7.5A.5.5 0 0 0 17 7H7.5zM6 4a.5.5 0 0 0-.5-.5H3a.5.5 0 0 0-.5.5v10a.5.5 0 0 0 .5.5h2.5A.5.5 0 0 0 6 14V4z"/>
</svg>
