<svg xmlns="http://www.w3.org/2000/svg" viewBox="0 0 20 16" fill="currentColor"><path d="M10 11a.5.5 0 0 0-.5.5v1c0 .28.22.5.5.5h1a.5.5 0 0 0 .5-.5v-1a.5.5 0 0 0-.5-.5h-1Zm-.5-3c0-.28.22-.5.5-.5h1c.28 0 .5.22.5.5v1a.5.5 0 0 1-.5.5h-1a.5.5 0 0 1-.5-.5V8Zm4 3a.5.5 0 0 0-.5.5v1c0 .28.22.5.5.5h1a.5.5 0 0 0 .5-.5v-1a.5.5 0 0 0-.5-.5h-1ZM13 8c0-.28.22-.5.5-.5h1c.28 0 .5.22.5.5v1a.5.5 0 0 1-.5.5h-1A.5.5 0 0 1 13 9V8Z"/><path fill-rule="evenodd" d="M9 5V1.5a1 1 0 0 1 1-1h3.09a1 1 0 0 1 .7.3l1.42 1.4a1 1 0 0 1 .29.71V5h.5a2 2 0 0 1 2 2v6.5a2 2 0 0 1-2 2H4a2 2 0 0 1-2-2v-10c0-1.1.9-2 2-2h2a2 2 0 0 1 2 2V5h1Zm5-1.88L12.88 2H10.5v3H14V3.12ZM8 6.5v7a2 2 0 0 1-.06.5H16a.5.5 0 0 0 .5-.5V7a.5.5 0 0 0-.5-.5H8Zm-1.5-3A.5.5 0 0 0 6 3H4a.5.5 0 0 0-.5.5v10c0 .28.22.5.5.5h2a.5.5 0 0 0 .5-.5v-10Z"/></svg>