<svg xmlns="http://www.w3.org/2000/svg" fill="currentColor" class="vi" viewBox="0 0 16 16"><path stroke="#000" stroke-linecap="round" stroke-linejoin="round" stroke-miterlimit="16" stroke-width="1.5" d="M9.75.75h-5a2 2 0 0 0-2 2v10.5a2 2 0 0 0 2 2h6.5a2 2 0 0 0 2-2v-9M9.75.75l3.5 3.5M9.75.75v3.5h3.5"/><path d="M4.75 1.5c-.69 0-1.25.56-1.25 1.25v10.5c0 .69.56 1.25 1.25 1.25h6.5c.69 0 1.25-.56 1.25-1.25V5H9.75A.75.75 0 0 1 9 4.25V1.5H4.75ZM2 2.75A2.75 2.75 0 0 1 4.75 0h5a.75.75 0 0 1 .53.22l3.5 3.5c.141.14.22.331.22.53v9A2.75 2.75 0 0 1 11.25 16h-6.5A2.75 2.75 0 0 1 2 13.25V2.75Z"/></svg>