<svg xmlns="http://www.w3.org/2000/svg" fill="currentColor" class="vi" viewBox="0 0 16 16"><path d="M5 1.75a.25.25 0 0 1 .25-.25H8.5v2.25c0 .414.336.75.75.75h2.25v4H13V3.75a.75.75 0 0 0-.22-.53l-3-3A.75.75 0 0 0 9.25 0h-4A1.75 1.75 0 0 0 3.5 1.75v10c0 .966.784 1.75 1.75 1.75h1.918a1.74 1.74 0 0 1 0-1.5H5.25a.25.25 0 0 1-.25-.25z"/><path d="M7 15.25c0-.268.06-.523.168-.75H5.25a2.75 2.75 0 0 1-2.75-2.75V2.518A1.75 1.75 0 0 0 1 4.25v7.5A4.25 4.25 0 0 0 5.25 16h1.918A1.74 1.74 0 0 1 7 15.25m1-5a.75.75 0 0 1 .75-.75h5.5a.75.75 0 0 1 0 1.5h-5.5a.75.75 0 0 1-.75-.75M8.75 12a.75.75 0 0 0 0 1.5h5.5a.75.75 0 0 0 0-1.5zm0 2.5a.75.75 0 0 0 0 1.5h5.5a.75.75 0 0 0 0-1.5z"/></svg>