<svg xmlns="http://www.w3.org/2000/svg" viewBox="0 0 20 16" fill="currentColor">
  <path d="M14 1.5H3l4 5.33c.32.44.5.96.5 1.5v5.02l2-1.2v-2.12l.08.09 1.24 1.23-1.24 1.24a2.24 2.24 0 0 0-.66 1.66l-2.16 1.3a.5.5 0 0 1-.76-.43V8.33a1 1 0 0 0-.2-.6l-4-5.33A1.5 1.5 0 0 1 3 0h11a1.5 1.5 0 0 1 1.2 2.4l-3.07 4.09a2.26 2.26 0 0 0-1.85-.03L14 1.5Z"/>
  <path d="m11.7 8 2.3 2.3L16.3 8a.75.75 0 0 1 1.06 1.06l-2.3 2.3 2.3 2.3a.75.75 0 1 1-1.06 1.05l-2.3-2.3-2.3 2.3a.75.75 0 1 1-1.06-1.06l2.3-2.3-2.3-2.3A.75.75 0 0 1 11.7 8Z"/>
</svg>
