<svg xmlns="http://www.w3.org/2000/svg" fill="currentColor" class="vi" viewBox="0 0 16 16"><path d="M.086.401A.75.75 0 0 1 .75 0h14.5a.75.75 0 0 1 .617 1.176L11.85 7.002a4.97 4.97 0 0 0-2.237.604.756.756 0 0 1 .02-.032l4.19-6.074H2.178l4.19 6.074A.75.75 0 0 1 6.5 8v6.096l.81-.36c.176.478.424.92.73 1.317l-1.985.882A.75.75 0 0 1 5 15.25V8.234L.133 1.176A.75.75 0 0 1 .086.4Z"/><path d="M16 12a4 4 0 1 1-8 0 4 4 0 0 1 8 0Zm-4-2.5a.5.5 0 0 0-.5.5v1.5H10a.5.5 0 1 0 0 1h1.5V14a.5.5 0 0 0 1 0v-1.5H14a.5.5 0 1 0 0-1h-1.5V10a.5.5 0 0 0-.5-.5Z"/></svg>