<svg xmlns="http://www.w3.org/2000/svg" viewBox="0 0 20 16" fill="currentColor">
  <path fill-rule="evenodd" d="m5.3 7.73-4-5.33A1.5 1.5 0 0 1 2.5 0h11a1.5 1.5 0 0 1 1.2 2.4l-4 5.33a1 1 0 0 0-.2.6v1.8a2.25 2.25 0 0 0-.43 3.37.99.99 0 0 1-.06.04L6.26 15.8a.5.5 0 0 1-.76-.43V8.33a1 1 0 0 0-.2-.6Zm8.2-6.23h-11l4 5.33c.32.44.5.96.5 1.5v5.27l2-1.2V8.33c0-.54.18-1.06.5-1.5l4-5.33Z"/>
  <path d="M15.75 8.75v2.5h2.5a.75.75 0 0 1 0 1.5h-2.5v2.5a.75.75 0 0 1-1.5 0v-2.5h-2.5a.75.75 0 0 1 0-1.5h2.5v-2.5a.75.75 0 0 1 1.5 0Z"/>
</svg>
