<svg xmlns="http://www.w3.org/2000/svg" viewBox="0 0 20 16" fill="currentColor"><path d="M14.5 1.5h-11l4 5.33c.32.44.5.96.5 1.5v5.27l1.01-.6c.28.47.77.8 1.36.93L7.26 15.8a.5.5 0 0 1-.76-.43V8.33a1 1 0 0 0-.2-.6l-4-5.33A1.5 1.5 0 0 1 3.5 0h11a1.5 1.5 0 0 1 1.2 2.4l-4 5.33a1 1 0 0 0-.2.6V10H11c-.36 0-.7.06-1 .18V8.33c0-.54.18-1.06.5-1.5l4-5.33Z"/><path d="M14 8c.41 0 .75.34.75.75v2.5h2.5a.75.75 0 0 1 0 1.5h-2.5v2.5a.75.75 0 0 1-1.5 0v-2.5h-2.5a.75.75 0 0 1 0-1.5h2.5v-2.5c0-.41.34-.75.75-.75Z"/></svg>