<svg xmlns="http://www.w3.org/2000/svg" fill="currentColor" class="vi" viewBox="0 0 16 16"><path d="M1.08.4c.13-.24.39-.4.67-.4h12.5a.75.75 0 0 1 .6 1.19l-4.34 6.04A4.9 4.9 0 0 0 9 8V7c0-.16.05-.31.14-.44L12.8 1.5H3.2l3.65 5.06c.1.13.14.28.14.44v6.96l.32-.19a5 5 0 0 0 .74 1.3l-1.44.83a.75.75 0 0 1-1.12-.65v-8L1.14 1.18A.75.75 0 0 1 1.08.4Z"/><path d="M16 12a4 4 0 1 1-8 0 4 4 0 0 1 8 0Zm-4-2.5a.5.5 0 0 0-.5.5v1.5H10a.5.5 0 1 0 0 1h1.5V14a.5.5 0 0 0 1 0v-1.5H14a.5.5 0 1 0 0-1h-1.5V10a.5.5 0 0 0-.5-.5Z"/></svg>