<svg xmlns="http://www.w3.org/2000/svg" viewBox="0 0 20 16" fill="currentColor">
  <path d="M14 1.5H3l4 5.33c.32.44.5.96.5 1.5v5.02l.73-.44c.4.37.94.59 1.52.59h.42l-3.41 2.05a.5.5 0 0 1-.76-.43V8.33a1 1 0 0 0-.2-.6l-4-5.33A1.5 1.5 0 0 1 3 0h11a1.5 1.5 0 0 1 1.2 2.4l-2 2.67a2.25 2.25 0 0 0-1.7 2.18v.08l-.3.4a1 1 0 0 0-.2.6V9H9.75l-.25.01v-.68c0-.54.18-1.06.5-1.5l4-5.33z"/>
  <path d="M14.5 7.25v3.25h3.25a.75.75 0 0 1 0 1.5H14.5v3.25a.75.75 0 0 1-1.5 0V12H9.75a.75.75 0 0 1 0-1.5H13V7.25a.75.75 0 0 1 1.5 0z"/>
</svg>
