<svg xmlns="http://www.w3.org/2000/svg" fill="currentColor" class="vi" viewBox="0 0 16 16"><path d="M.086.401A.75.75 0 0 1 .75 0h14.5a.75.75 0 0 1 .617 1.176L11.85 7.002a4.97 4.97 0 0 0-2.237.604.756.756 0 0 1 .02-.032l4.19-6.074H2.178l4.19 6.074A.75.75 0 0 1 6.5 8v6.096l.81-.36c.176.478.424.92.73 1.317l-1.985.882A.75.75 0 0 1 5 15.25V8.234L.133 1.176A.75.75 0 0 1 .086.4Z"/><path d="M16 12a4 4 0 1 1-8 0 4 4 0 0 1 8 0Zm-5.854-1.854a.5.5 0 0 0 0 .708L11.293 12l-1.147 1.146a.5.5 0 0 0 .708.708L12 12.707l1.146 1.147a.5.5 0 0 0 .708-.708L12.707 12l1.147-1.146a.5.5 0 0 0-.708-.708L12 11.293l-1.146-1.147a.5.5 0 0 0-.708 0Z"/></svg>