<svg xmlns="http://www.w3.org/2000/svg" fill="currentColor" class="vi" viewBox="0 0 16 16"><path d="M1 2.75A.75.75 0 0 1 1.75 2h12.5a.75.75 0 0 1 0 1.5H1.75A.75.75 0 0 1 1 2.75M3 8a.75.75 0 0 1 .75-.75h8.5a.75.75 0 0 1 .75.777 4.479 4.479 0 0 0-2.988.723H3.75A.75.75 0 0 1 3 8m5.256 6A4.493 4.493 0 0 1 8 12.5H5.75a.75.75 0 0 0 0 1.5zM16 12.5a3.5 3.5 0 1 1-7 0 3.5 3.5 0 0 1 7 0m-5.354-1.854a.5.5 0 0 0 0 .708l1.147 1.146-1.147 1.146a.5.5 0 0 0 .708.708l1.146-1.147 1.146 1.147a.5.5 0 0 0 .708-.708L13.207 12.5l1.147-1.146a.5.5 0 0 0-.708-.708L12.5 11.793l-1.146-1.147a.5.5 0 0 0-.708 0"/></svg>