<svg xmlns="http://www.w3.org/2000/svg" fill="currentColor" class="vi" viewBox="0 0 16 16"><path d="M1.082.408A.75.75 0 0 1 1.75 0h12.5a.75.75 0 0 1 .609 1.188l-4.347 6.037A4.984 4.984 0 0 0 9 8V7c0-.157.05-.31.141-.438L12.786 1.5H3.214L6.86 6.562A.75.75 0 0 1 7 7v6.958l.323-.185c.18.474.43.914.737 1.306l-1.438.822A.75.75 0 0 1 5.5 15.25V7.242L1.141 1.188a.75.75 0 0 1-.059-.78Z"/><path d="M16 12a4 4 0 1 1-8 0 4 4 0 0 1 8 0Zm-4-2.5a.5.5 0 0 0-.5.5v1.5H10a.5.5 0 1 0 0 1h1.5V14a.5.5 0 0 0 1 0v-1.5H14a.5.5 0 1 0 0-1h-1.5V10a.5.5 0 0 0-.5-.5Z"/></svg>