<svg xmlns="http://www.w3.org/2000/svg" viewBox="0 0 20 16" fill="currentColor"><path fill-rule="evenodd" d="m6.3 7.73-4-5.33A1.5 1.5 0 0 1 3.5 0h11a1.5 1.5 0 0 1 1.2 2.4l-4 5.33a1 1 0 0 0-.2.6v.1l-.04.03c-.68.69-.68 1.8 0 2.48l.04.03v1.71a1 1 0 0 1-.11.46l-.19.26a1 1 0 0 1-.19.14L7.26 15.8a.5.5 0 0 1-.76-.43V8.33a1 1 0 0 0-.2-.6Zm8.2-6.23h-11l4 5.33c.32.44.5.96.5 1.5v5.27l2-1.2V8.33c0-.54.18-1.06.5-1.5l4-5.33Z"/><path d="M13.23 9.17 15 10.94l1.77-1.77a.75.75 0 1 1 1.06 1.06L16.06 12l1.77 1.77a.75.75 0 1 1-1.06 1.06L15 13.06l-1.77 1.77a.75.75 0 1 1-1.06-1.06L13.94 12l-1.77-1.77a.75.75 0 1 1 1.06-1.06Z"/></svg>