<svg xmlns="http://www.w3.org/2000/svg" fill="currentColor" class="vi" viewBox="0 0 16 16"><path d="M15.693 6.122c-.424.282-1.002.05-1.192-.423C13.473 3.137 10.898 1.5 8.25 1.5c-3.822 0-6.507 3.025-6.768 6.267-.054.668-.93.828-1.252.239L.107 7.78a.747.747 0 0 1-.089-.446C.478 3.518 3.686 0 8.25 0c3.28 0 6.505 2.069 7.717 5.318a.683.683 0 0 1-.274.804Z"/><path d="M13.402 12.882a.743.743 0 0 1-.734.618.756.756 0 0 1-.742-.883l.07-.43c.215-1.337.386-2.667.461-3.68C12.65 5.9 10.528 4 8.25 4a4.3 4.3 0 0 0-1.179.162c-.47.133-1.01-.112-1.107-.59-.065-.327.101-.66.417-.768A5.79 5.79 0 0 1 8.25 2.5c3.058 0 5.967 2.55 5.703 6.118-.08 1.071-.258 2.447-.476 3.806l-.075.458ZM4.238 5.488c-.333-.333-.888-.291-1.107.126a5.829 5.829 0 0 0-.652 2.233c-.05.613-.17 1.598-.356 2.754a54.817 54.817 0 0 1-.348 1.944.763.763 0 0 0 .375.816.741.741 0 0 0 1.091-.498c.131-.66.254-1.35.363-2.024a39.8 39.8 0 0 0 .37-2.871c.042-.518.18-1.024.4-1.492.156-.33.122-.73-.136-.988Zm5.445 10.178a.739.739 0 0 0 .758-.582c.105-.492.205-.995.298-1.495a.743.743 0 0 0-.553-.855.757.757 0 0 0-.925.598c-.089.475-.183.95-.282 1.414a.76.76 0 0 0 .704.92Z"/><path d="M5.527 14.15a.74.74 0 0 1-1.086.484.765.765 0 0 1-.373-.831 54.65 54.65 0 0 0 .523-2.806 40.74 40.74 0 0 0 .38-2.95C5.1 6.442 6.43 5 8.25 5c1.754 0 3.356 1.46 3.21 3.434-.02.278-.05.584-.084.91a.74.74 0 0 1-.738.656.76.76 0 0 1-.75-.845c.031-.3.057-.579.076-.832C10.04 7.29 9.204 6.5 8.25 6.5c-.973 0-1.712.774-1.784 1.668a41.65 41.65 0 0 1-.394 3.067 56.02 56.02 0 0 1-.545 2.915Z"/><path d="M7.904 14.98a.737.737 0 0 1-.754.572.762.762 0 0 1-.703-.93c.23-1.029.44-2.157.612-3.228.199-1.235.34-2.358.404-3.145.033-.413.373-.749.787-.749.414 0 .747.336.717.75-.065.874-.22 2.097-.427 3.381a57.242 57.242 0 0 1-.636 3.348Z"/></svg>