<svg xmlns="http://www.w3.org/2000/svg" viewBox="0 0 17 16" fill="currentColor"><path d="M15.7 6.12c-.43.28-1 .05-1.2-.42a6.8 6.8 0 0 0-6.25-4.2 6.8 6.8 0 0 0-6.77 6.27c-.05.67-.93.82-1.25.24l-.12-.23a.75.75 0 0 1-.1-.45A8.3 8.3 0 0 1 8.26 0c3.28 0 6.5 2.07 7.72 5.32.1.3-.01.63-.28.8Z"/><path d="M13.4 12.88a.74.74 0 0 1-.73.62.76.76 0 0 1-.74-.88l.07-.43c.21-1.34.38-2.67.46-3.68a4.2 4.2 0 0 0-5.39-4.35c-.47.14-1.01-.11-1.1-.59a.66.66 0 0 1 .41-.77 5.7 5.7 0 0 1 7.57 5.81 47.85 47.85 0 0 1-.55 4.27ZM4.24 5.49c-.34-.34-.89-.3-1.1.12-.37.7-.6 1.46-.66 2.24a54.82 54.82 0 0 1-.7 4.7c-.07.32.08.65.37.81.44.25 1 0 1.1-.5a56.25 56.25 0 0 0 .72-4.9c.05-.51.18-1.02.4-1.48a.87.87 0 0 0-.13-1Zm5.44 10.18c.36.01.69-.23.76-.59l.3-1.5a.74.74 0 0 0-.55-.85.76.76 0 0 0-.93.6l-.28 1.42c-.1.45.23.9.7.92Z"/><path d="M5.53 14.15a.74.74 0 0 1-1.09.48.76.76 0 0 1-.37-.83 54.65 54.65 0 0 0 .9-5.75A3.3 3.3 0 0 1 8.25 5a3.2 3.2 0 0 1 3.21 3.43l-.08.91a.74.74 0 0 1-.74.66c-.45 0-.8-.4-.75-.84.03-.3.06-.58.07-.84A1.7 1.7 0 0 0 8.25 6.5a1.8 1.8 0 0 0-1.78 1.67 56.02 56.02 0 0 1-.94 5.98Z"/><path d="M7.9 14.98a.74.74 0 0 1-.75.57.76.76 0 0 1-.7-.93 55.9 55.9 0 0 0 1.01-6.37.8.8 0 0 1 .79-.75.7.7 0 0 1 .72.75 57.24 57.24 0 0 1-1.06 6.73Z"/></svg>