<svg xmlns="http://www.w3.org/2000/svg" viewBox="0 0 20 16" fill="currentColor"><path d="M17.7 6.12c-.43.28-1 .05-1.2-.42a6.8 6.8 0 0 0-6.25-4.2 6.8 6.8 0 0 0-6.77 6.27c-.05.67-.93.82-1.25.24l-.12-.23a.75.75 0 0 1-.1-.45A8.3 8.3 0 0 1 10.26 0c3.28 0 6.5 2.07 7.72 5.32.1.3-.01.63-.28.8Z"/><path d="M15.4 12.88a.74.74 0 0 1-.73.62.76.76 0 0 1-.74-.88l.07-.43c.21-1.34.38-2.67.46-3.68a4.2 4.2 0 0 0-5.39-4.35c-.47.14-1.01-.11-1.1-.59a.66.66 0 0 1 .41-.77 5.7 5.7 0 0 1 7.57 5.81 47.85 47.85 0 0 1-.55 4.27ZM6.24 5.49c-.34-.34-.89-.3-1.1.12-.37.7-.6 1.46-.66 2.24a54.75 54.75 0 0 1-.7 4.72c-.07.31.07.64.35.8.44.26 1 .01 1.1-.49a56.19 56.19 0 0 0 .74-4.91c.05-.52.18-1.03.4-1.5a.87.87 0 0 0-.13-.98Zm5.44 10.16c.36.02.69-.23.76-.58l.3-1.48a.74.74 0 0 0-.55-.86.76.76 0 0 0-.93.6l-.28 1.4c-.1.45.23.9.7.92Z"/><path d="M7.5 14.24c-.1.5-.66.73-1.1.47a.77.77 0 0 1-.35-.82 54.28 54.28 0 0 0 .92-5.84A3.3 3.3 0 0 1 10.25 5a3.2 3.2 0 0 1 3.21 3.43l-.08.91a.74.74 0 0 1-.74.66c-.45 0-.8-.4-.75-.84.03-.3.06-.58.07-.84a1.7 1.7 0 0 0-1.71-1.82 1.8 1.8 0 0 0-1.78 1.67 55.64 55.64 0 0 1-.96 6.07Z"/><path d="M9.91 14.94a.73.73 0 0 1-.76.57.76.76 0 0 1-.7-.93 56.09 56.09 0 0 0 1.01-6.33.8.8 0 0 1 .79-.75.7.7 0 0 1 .72.75 57.47 57.47 0 0 1-1.05 6.69Z"/></svg>