<svg xmlns="http://www.w3.org/2000/svg" viewBox="0 0 20 16" fill="currentColor">
  <path d="M14.418 13.5c.363 0 .674-.26.734-.618l.075-.458c.218-1.359.397-2.735.476-3.806C15.967 5.051 13.058 2.5 10 2.5a5.79 5.79 0 0 0-1.87.304c-.315.107-.481.44-.416.767.096.48.637.725 1.107.591C9.191 4.057 9.585 4 10 4c2.278 0 4.4 1.899 4.207 4.507-.075 1.013-.246 2.343-.46 3.68l-.071.43a.756.756 0 0 0 .742.883zm-8.42-8.002c.252.252.286.643.133.965a4.314 4.314 0 0 0-.407 1.505c-.054.665-.18 1.691-.37 2.87a56.392 56.392 0 0 1-.351 1.965c-.11.557-.773.767-1.137.332a8.07 8.07 0 0 1-.169-.208.719.719 0 0 1-.133-.582c.11-.57.215-1.161.309-1.744a38.38 38.38 0 0 0 .356-2.754 5.83 5.83 0 0 1 .662-2.252c.215-.407.757-.447 1.082-.122l.025.025zm10.217 7.085c-.026.158.167.244.261.115A7.964 7.964 0 0 0 18 8a.31.31 0 0 0-.456-.272l-.456.228a.702.702 0 0 0-.378.595 7.59 7.59 0 0 1-.01.141c-.082 1.11-.265 2.517-.485 3.89z"/>
  <path d="M14.832 3.542c.298.302.79.336 1.09.036a.662.662 0 0 0 .043-.91A8.012 8.012 0 0 0 12.72.475 8.001 8.001 0 0 0 2.043 7.166a.597.597 0 0 0 .488.64l.512.103a.158.158 0 0 0 .189-.142C3.493 4.525 6.178 1.5 10 1.5c1.798 0 3.563.755 4.832 2.042zm-2.896 9.192a.743.743 0 0 1 .553.855 55.374 55.374 0 0 1-.344 1.704.703.703 0 0 1-.54.546l-.155.03c-.495.09-.884-.376-.776-.868.12-.544.232-1.107.337-1.668a.757.757 0 0 1 .925-.599z"/>
  <path d="M12.388 10a.76.76 0 0 1-.75-.845c.031-.3.057-.579.076-.832C11.79 7.29 10.954 6.5 10 6.5c-.973 0-1.712.774-1.784 1.668a41.65 41.65 0 0 1-.394 3.067 59.562 59.562 0 0 1-.303 1.727.742.742 0 0 1-1.064.516.76.76 0 0 1-.405-.822c.105-.549.203-1.11.291-1.659.192-1.195.323-2.249.38-2.95C6.85 6.442 8.18 5 10 5c1.754 0 3.356 1.46 3.21 3.434-.02.278-.05.584-.084.91a.74.74 0 0 1-.738.656z"/>
  <path d="M10.29 11.631a55.41 55.41 0 0 1-.725 3.738.694.694 0 0 1-.772.54 7.935 7.935 0 0 1-.682-.133c-.095-.023-.162-.111-.138-.206.316-1.251.61-2.764.836-4.176.199-1.235.34-2.358.404-3.145.033-.413.373-.749.787-.749.414 0 .747.336.717.75-.065.874-.22 2.097-.427 3.381z"/>
</svg>
