<svg xmlns="http://www.w3.org/2000/svg" viewBox="0 0 20 16" fill="currentColor">
  <path d="M14.42 13.5c.36 0 .67-.26.73-.62l.08-.46c.21-1.36.4-2.73.47-3.8A5.7 5.7 0 0 0 10 2.5a5.79 5.79 0 0 0-1.87.3.66.66 0 0 0-.42.77c.1.48.64.73 1.11.6a4.2 4.2 0 0 1 5.39 4.34 46.7 46.7 0 0 1-.46 3.68l-.07.43a.76.76 0 0 0 .74.88zM6 5.5c.25.25.28.64.13.96a4.31 4.31 0 0 0-.4 1.5c-.06.67-.19 1.7-.38 2.88A56.4 56.4 0 0 1 5 12.8c-.1.56-.77.77-1.13.33a8.07 8.07 0 0 1-.17-.2.72.72 0 0 1-.14-.59c.11-.57.22-1.16.31-1.74a38.38 38.38 0 0 0 .36-2.75 5.83 5.83 0 0 1 .66-2.25c.22-.41.76-.45 1.08-.13L6 5.5zm10.21 7.08c-.02.16.17.25.27.12A7.96 7.96 0 0 0 18 8a.31.31 0 0 0-.46-.27l-.45.23a.7.7 0 0 0-.38.6 7.59 7.59 0 0 1-.01.13 48.95 48.95 0 0 1-.48 3.9z"/>
  <path d="M14.83 3.54c.3.3.8.34 1.1.04a.66.66 0 0 0 .04-.91 8.01 8.01 0 0 0-3.25-2.2 8 8 0 0 0-10.68 6.7.6.6 0 0 0 .5.64l.5.1a.16.16 0 0 0 .2-.14A6.8 6.8 0 0 1 10 1.5c1.8 0 3.56.76 4.83 2.04zm-2.9 9.2a.74.74 0 0 1 .56.85 55.37 55.37 0 0 1-.34 1.7.7.7 0 0 1-.54.55l-.16.03c-.5.09-.88-.38-.78-.87.12-.54.24-1.1.34-1.67a.76.76 0 0 1 .93-.6z"/>
  <path d="M12.39 10a.76.76 0 0 1-.75-.84l.07-.84A1.7 1.7 0 0 0 10 6.5a1.8 1.8 0 0 0-1.78 1.67 41.65 41.65 0 0 1-.4 3.06 59.56 59.56 0 0 1-.3 1.73.74.74 0 0 1-1.07.52.76.76 0 0 1-.4-.82 56.48 56.48 0 0 0 .67-4.61A3.3 3.3 0 0 1 10 5a3.2 3.2 0 0 1 3.21 3.43l-.08.91a.74.74 0 0 1-.74.66z"/>
  <path d="M10.29 11.63a55.41 55.41 0 0 1-.72 3.74.7.7 0 0 1-.78.54 7.93 7.93 0 0 1-.68-.13c-.1-.03-.16-.11-.14-.21a50.44 50.44 0 0 0 1.24-7.32.8.8 0 0 1 .79-.75.7.7 0 0 1 .72.75c-.07.87-.22 2.1-.43 3.38z"/>
</svg>
