<svg xmlns="http://www.w3.org/2000/svg" fill="currentColor" class="vi" viewBox="0 0 16 16"><path d="M13.63 3.407c.536.277 1.22 1.153 1.557 1.964v-.002a8 8 0 0 1 .502 3.898l-.008.076-.027.224A7.759 7.759 0 0 1 .251 8.255v-.04A7.4 7.4 0 0 1 .377 7.14l.001-.011c.01-.075.062-.417.077-.485l.01-.051a6.6 6.6 0 0 1 1.041-2.35q.326-.465.725-.87a5.7 5.7 0 0 1 .759-.65q.121-.081.259-.137c-.018.268-.04 1.553.268 1.943h.003a5.75 5.75 0 0 1 1.868-1.443 3.6 3.6 0 0 0 .022 1.896q.102.07.198.15c.105.09.223.206.447.427l.086.084c.354.35 1.08.706 1.52.922.213.105.358.177.36.197v.002c-.013.193-.695.858-.933.858-2.206 0-2.565 1.335-2.565 1.335.098 1.124.881 2.05 1.828 2.538q.065.034.13.063.115.05.229.093c.324.115.665.18 1.01.195 3.866.181 4.615-4.624 1.824-6.02a2.68 2.68 0 0 1 1.871.455 3.92 3.92 0 0 0-3.399-1.985q-.116.001-.23.01l-.04.003c.06-1.057.722-3.167 2.67-4.308l-.003.005.003-.001.003-.002h.001L10.422 0h.015a.02.02 0 0 1 .018.02q.04.16.115.308.035.072.086.16.09.152.182.297c.49.773 1.023 1.378 1.543 1.968.771.874 1.513 1.715 2.037 3.02l-.002-.013a8 8 0 0 0-.785-2.354m-7.342 8.058.07.035-.005-.003zm8.13-5.696v.007l.001.001z"/></svg>