<svg xmlns="http://www.w3.org/2000/svg" fill="currentColor" class="vi" viewBox="0 0 16 16"><path d="M13.63 3.4a4.35 4.35 0 0 1 1.56 1.97 8 8 0 0 1 .5 3.9v.07l-.04.23A7.76 7.76 0 0 1 .25 8.26v-.04a7.4 7.4 0 0 1 .13-1.08v-.01c0-.08.06-.42.07-.49l.02-.05a6.55 6.55 0 0 1 2.52-3.87c.08-.05.17-.1.26-.13-.02.26-.04 1.55.27 1.94.52-.6 1.15-1.1 1.87-1.44a3.6 3.6 0 0 0 .02 1.9l.2.14.45.43.08.08c.35.35 1.08.7 1.52.93.21.1.36.17.36.2-.01.19-.7.85-.93.85-2.2 0-2.57 1.34-2.57 1.34a3.27 3.27 0 0 0 2.19 2.7c.32.1.66.17 1 .19 3.88.18 4.63-4.63 1.83-6.02.66-.09 1.33.07 1.88.45a3.92 3.92 0 0 0-3.63-1.97h-.04A5.66 5.66 0 0 1 10.42 0h.03v.01a2.4 2.4 0 0 0 .2.47l.19.3c.49.77 1.02 1.37 1.54 1.96.77.88 1.51 1.72 2.04 3.02a8.06 8.06 0 0 0-.79-2.36ZM6.3 11.48a2.2 2.2 0 0 0 .07.03 1.33 1.33 0 0 1-.07-.03Zm8.13-5.7Z"/></svg>