<svg xmlns="http://www.w3.org/2000/svg" fill="currentColor" class="vi" viewBox="0 0 16 16"><path d="M13.63 3.407c.536.277 1.22 1.153 1.557 1.964v-.002a7.98 7.98 0 0 1 .502 3.898l-.008.076c-.009.075-.017.15-.027.224A7.759 7.759 0 0 1 .251 8.255v-.04A7.394 7.394 0 0 1 .377 7.14l.001-.011c.01-.075.062-.417.077-.485l.01-.051a6.552 6.552 0 0 1 1.041-2.35c.217-.31.46-.6.725-.87a5.65 5.65 0 0 1 .759-.65c.08-.054.168-.1.259-.137-.018.268-.04 1.553.268 1.943h.003a5.745 5.745 0 0 1 1.868-1.443 3.597 3.597 0 0 0 .022 1.896c.068.047.134.097.198.15.105.09.223.206.447.427l.086.084c.354.35 1.08.706 1.52.922.213.105.358.177.36.197v.002c-.013.193-.695.858-.933.858-2.206 0-2.565 1.335-2.565 1.335.098 1.124.881 2.05 1.828 2.538.043.023.087.043.13.063.077.033.153.064.229.093.324.115.665.18 1.01.195 3.866.181 4.615-4.624 1.824-6.02a2.679 2.679 0 0 1 1.871.455 3.916 3.916 0 0 0-3.399-1.985c-.078 0-.154.005-.23.01l-.04.003c.06-1.057.722-3.167 2.67-4.308l-.003.005.003-.001.003-.002h.001L10.422 0a.028.028 0 0 1 .015 0 .02.02 0 0 1 .018.02c.026.107.065.21.115.308.024.048.051.101.086.16.06.102.121.2.182.297.49.773 1.023 1.378 1.543 1.968.771.874 1.513 1.715 2.037 3.02l-.002-.013a8.062 8.062 0 0 0-.785-2.354m-7.342 8.058a2.206 2.206 0 0 0 .07.035l-.005-.003a1.33 1.33 0 0 1-.065-.032m8.13-5.696v.007l.001.001z"/></svg>