<svg xmlns="http://www.w3.org/2000/svg" viewBox="0 0 20 16" fill="currentColor">
  <path fill-rule="evenodd" d="M3.5 15.25v-2.66l1.48-.4a9.12 9.12 0 0 1 5.02.06 9.12 9.12 0 0 0 5.02.06l2.43-.66a.75.75 0 0 0 .55-.72V.98a.75.75 0 0 0-.95-.72L15.02.8A9.12 9.12 0 0 1 10 .75 9.12 9.12 0 0 0 4.98.69l-1.48.4V.75a.75.75 0 0 0-1.5 0v14.5a.75.75 0 0 0 1.5 0zm1.09-4.51-1.09.3V9.37l1.68-.46a8.38 8.38 0 0 1 .29-.07v1.7c-.3.05-.59.12-.88.2zm2.38-.37V8.63a8.37 8.37 0 0 1 2.25.2v1.7a10.62 10.62 0 0 0-2.25-.15zm5.75.76a7.62 7.62 0 0 1-2-.24V9.2a9.6 9.6 0 0 0 2 .18v1.75zm1.5-.16V9.25a9.81 9.81 0 0 0 1-.21l1.28-.35v1.66l-1.88.52-.4.1zm0-3.24V5.75a9.81 9.81 0 0 0 1-.21l1.28-.35v1.94l-1.68.46-.6.14zm-1.5-1.85v2a8.37 8.37 0 0 1-2-.21V5.7a9.6 9.6 0 0 0 2 .18zm0-1.5a8.37 8.37 0 0 1-2-.21v-1.7c.66.11 1.33.17 2 .16v1.75zm1.5-.15V2.51c.4-.06.8-.14 1.2-.25l1.08-.3v1.67l-1.68.46-.6.14zm-7.25.9a8.37 8.37 0 0 1 2.25.19v1.97a9.87 9.87 0 0 0-2.25-.17v-2zm0-1.5V1.87a7.6 7.6 0 0 1 2.25.21v1.7a9.87 9.87 0 0 0-2.25-.17zm-1.5 1.7V7.3l-.69.16-1.28.35V5.87l1.68-.46a8.38 8.38 0 0 1 .29-.07zm0-1.53-.69.16-1.28.35V2.65l1.88-.52.09-.02v1.7z"/>
</svg>
