<svg xmlns="http://www.w3.org/2000/svg" fill="currentColor" class="vi" viewBox="0 0 16 16"><path d="M1.75 0a.75.75 0 0 1 .75.75v.48C3.083 1.1 3.845 1 4.75 1c1.622 0 2.741.323 3.357.5a41.892 41.892 0 0 0 .13.038C8.693 1.69 9.91 2 11 2c1.109 0 2.578-.317 3.013-.462A.75.75 0 0 1 15 2.25v9a.75.75 0 0 1-.513.711c-.565.189-2.196.539-3.487.539-1.296 0-2.666-.35-3.221-.533l-.08-.023A9.864 9.864 0 0 0 4.75 11.5c-1.033 0-1.801.148-2.25.275v3.475a.75.75 0 0 1-1.5 0V.75A.75.75 0 0 1 1.75 0Zm.75 2.775v1.454A9.915 9.915 0 0 1 4 4.024V2.527a7.68 7.68 0 0 0-1.5.248Zm3-.248v1.497c.699.044 1.282.145 1.75.25V2.82a9.52 9.52 0 0 0-1.75-.292Zm3.25.7v1.459c.404.102.942.213 1.5.272V3.465c-.538-.048-1.06-.14-1.5-.238ZM7.25 5.82a9.52 9.52 0 0 0-1.75-.292v1.497c.699.044 1.282.145 1.75.25V5.82Zm1.5 1.867c.404.102.942.213 1.5.272V6.465c-.538-.048-1.06-.14-1.5-.238v1.459ZM7.25 8.82a9.52 9.52 0 0 0-1.75-.292v1.497a11 11 0 0 1 1.75.25V8.82Zm1.5 1.866c.404.103.942.214 1.5.273V9.465c-.538-.048-1.06-.14-1.5-.238v1.458Zm3 .276c.635-.06 1.288-.18 1.75-.286V9.21c-.516.106-1.14.206-1.75.257v1.494Zm0-3c.635-.06 1.288-.18 1.75-.286V6.21c-.516.106-1.14.206-1.75.257V7.96Zm0-3c.635-.06 1.288-.18 1.75-.286V3.21c-.516.106-1.14.206-1.75.257V4.96ZM4 10.024V8.527a7.68 7.68 0 0 0-1.5.248v1.454a9.907 9.907 0 0 1 1.5-.205ZM2.5 7.229A9.915 9.915 0 0 1 4 7.024V5.527a7.68 7.68 0 0 0-1.5.248v1.454Z"/></svg>