<svg xmlns="http://www.w3.org/2000/svg" viewBox="0 0 20 16" fill="currentColor">
  <path fill-rule="evenodd" d="M3.5 15.25v-2.66l1.482-.403A9.115 9.115 0 0 1 10 12.25a9.115 9.115 0 0 0 5.018.063l2.43-.662a.75.75 0 0 0 .552-.724V.982a.75.75 0 0 0-.947-.724l-2.035.555A9.116 9.116 0 0 1 10 .75 9.116 9.116 0 0 0 4.982.687L3.5 1.09V.75a.75.75 0 0 0-1.5 0v14.5a.75.75 0 0 0 1.5 0zm1.087-4.51-1.087.296V9.368l1.68-.458a8.38 8.38 0 0 1 .29-.073v1.702c-.296.054-.59.121-.883.2zm2.383-.367V8.627a8.366 8.366 0 0 1 2.25.194v1.706a10.617 10.617 0 0 0-2.25-.152zm5.75.76a7.619 7.619 0 0 1-2-.24V9.2c.66.13 1.33.19 2 .184v1.75zm1.5-.168V9.253a9.81 9.81 0 0 0 .995-.217l1.285-.35v1.667l-1.877.512c-.133.037-.268.07-.403.098zm0-3.235V5.754a9.81 9.81 0 0 0 .995-.217l1.285-.35v1.945l-1.68.458c-.198.054-.399.1-.6.14zm-1.5-1.846v2a8.365 8.365 0 0 1-2-.218V5.7c.66.13 1.33.19 2 .184zm0-1.5a8.365 8.365 0 0 1-2-.218V2.463c.66.12 1.33.177 2 .171v1.75zm1.5-.154V2.513c.4-.061.799-.145 1.193-.253l1.087-.296v1.668l-1.68.458c-.198.054-.399.1-.6.14zm-7.25.896a8.366 8.366 0 0 1 2.25.194v1.968a9.866 9.866 0 0 0-2.25-.164V5.126zm0-1.502V1.877a7.593 7.593 0 0 1 2.25.214v1.697a9.866 9.866 0 0 0-2.25-.164zm-1.5 1.713v1.965c-.23.046-.459.1-.685.161l-1.285.35V5.869l1.68-.458a8.38 8.38 0 0 1 .29-.073zm0-1.535c-.23.046-.459.1-.685.161l-1.285.35V2.647l1.877-.512.093-.025v1.693z"/>
</svg>
