<svg xmlns="http://www.w3.org/2000/svg" viewBox="0 0 20 16" fill="currentColor">
  <path fill-rule="evenodd" d="M3.5 12.59v2.66a.75.75 0 0 1-1.5 0V.75a.75.75 0 0 1 1.5 0v.34L4.982.688A9.116 9.116 0 0 1 10 .75a9.116 9.116 0 0 0 5.018.063l2.035-.555A.75.75 0 0 1 18 .982v9.945a.75.75 0 0 1-.553.724l-2.429.662A9.115 9.115 0 0 1 10 12.25a9.115 9.115 0 0 0-5.018-.063L3.5 12.59zm0-1.554 1.087-.296a10.616 10.616 0 0 1 5.844.073 7.616 7.616 0 0 0 4.192.053l1.877-.512v-8.39l-1.087.296a10.616 10.616 0 0 1-5.844-.073 7.616 7.616 0 0 0-4.192-.053L3.5 2.646v8.39z"/>
</svg>
