<svg xmlns="http://www.w3.org/2000/svg" fill="currentColor" class="vi" viewBox="0 0 16 16"><path d="M1.75 0a.75.75 0 0 1 .75.75v.48C3.083 1.1 3.845 1 4.75 1c1.622 0 2.741.323 3.357.5l.1.029.03.01C8.693 1.69 9.91 2 11 2c1.109 0 2.578-.317 3.013-.462A.75.75 0 0 1 15 2.25v9a.75.75 0 0 1-.513.711c-.565.189-2.196.539-3.487.539-1.296 0-2.666-.35-3.221-.533l-.08-.023A9.864 9.864 0 0 0 4.75 11.5c-1.033 0-1.801.148-2.25.275v3.475a.75.75 0 0 1-1.5 0V.75A.75.75 0 0 1 1.75 0Zm.75 2.775v7.454A10.515 10.515 0 0 1 4.75 10c1.622 0 2.741.323 3.357.5l.1.029.03.01C8.693 10.69 9.91 11 11 11c.825 0 1.85-.175 2.5-.325V3.21c-.732.15-1.684.29-2.5.29-1.296 0-2.666-.35-3.221-.533l-.08-.023A9.864 9.864 0 0 0 4.75 2.5c-1.033 0-1.801.148-2.25.275Z"/></svg>