<svg xmlns="http://www.w3.org/2000/svg" viewBox="0 0 16 16" fill="currentColor">
  <path fill-rule="evenodd" d="M2.507 1.068A1.991 1.991 0 0 0 1.215 2.12C.982 2.593 1 2.107 1 8s-.018 5.407.215 5.88c.259.526.713.895 1.305 1.06l.213.059 5.054.009c3.411.005 5.149-.001 5.349-.02.452-.043.787-.171 1.097-.42.341-.274.585-.649.707-1.088l.06-.213V5.56l-.06-.213a2.991 2.991 0 0 0-.171-.44c-.108-.217-.15-.265-.954-1.077-2.502-2.527-2.457-2.485-2.836-2.656-.375-.168-.165-.161-4.411-.159-3.724.001-3.868.003-4.061.053m1.499 2.805.007 1.367.076.163c.095.206.301.411.511.509l.16.075h4.988l.177-.088c.22-.108.42-.319.506-.532.062-.152.062-.165.07-1.446l.008-1.292 1.441 1.439c.792.791 1.463 1.483 1.492 1.538.05.096.051.193.051 3.808 0 3.366-.004 3.717-.043 3.794a.457.457 0 0 1-.229.235c-.088.045-.162.05-.66.05H12v-1.808c0-1.989.002-1.962-.165-2.224a.994.994 0 0 0-.403-.361l-.139-.073H4.707l-.169.091a1.07 1.07 0 0 0-.465.509c-.059.146-.06.152-.067 2.006l-.007 1.86h-.561c-.464 0-.575-.007-.646-.043a.457.457 0 0 1-.235-.229c-.049-.096-.05-.247-.05-5.221s.001-5.125.05-5.221a.464.464 0 0 1 .23-.228c.065-.035.182-.042.645-.043l.566-.001.008 1.366m4.981-.552c0 .759-.004.822-.053.918a.477.477 0 0 1-.291.237c-.124.042-2.638.043-2.789.001a.553.553 0 0 1-.331-.331c-.018-.066-.029-.396-.03-.873v-.766h3.494v.814m1.208 7.222a.583.583 0 0 1 .283.33c.018.063.028.563.029 1.36v1.26H5.493v-1.26c.001-.797.011-1.297.029-1.36a.604.604 0 0 1 .278-.329c.12-.053 4.269-.054 4.395-.001"/>
</svg>
