<svg xmlns="http://www.w3.org/2000/svg" fill="currentColor" class="vi" viewBox="0 0 16 16"><path d="M1 2.75C1 1.784 1.784 1 2.75 1h7.836c.464 0 .909.184 1.237.513l2.664 2.664c.329.328.513.773.513 1.237v7.836A1.75 1.75 0 0 1 13.25 15H2.75A1.75 1.75 0 0 1 1 13.25V2.75Zm1.75-.25a.25.25 0 0 0-.25.25v10.5c0 .138.112.25.25.25H4V9.75c0-.69.56-1.25 1.25-1.25h5.5c.69 0 1.25.56 1.25 1.25v3.75h1.25a.25.25 0 0 0 .25-.25V5.414a.25.25 0 0 0-.073-.177l-2.664-2.664a.25.25 0 0 0-.177-.073H10.5v1.75c0 .69-.56 1.25-1.25 1.25h-4C4.56 5.5 4 4.94 4 4.25V2.5H2.75Zm2.75 0V4H9V2.5H5.5Zm5 11V10h-5v3.5h5Z"/></svg>