<svg xmlns="http://www.w3.org/2000/svg" viewBox="0 0 20 16" fill="currentColor">
  <path fill-rule="evenodd" d="M3 3v10a2 2 0 0 0 2 2h10a2 2 0 0 0 2-2V5.828a2 2 0 0 0-.586-1.414l-2.828-2.828A2 2 0 0 0 12.172 1H5a2 2 0 0 0-2 2zm1.5 0a.5.5 0 0 1 .5-.5h1V5a1 1 0 0 0 1 1h4.5a1 1 0 0 0 1-1V2.623a.49.49 0 0 1 .025.023l2.829 2.829a.5.5 0 0 1 .146.353V13a.5.5 0 0 1-.5.5h-1V10a1 1 0 0 0-1-1H7a1 1 0 0 0-1 1v3.5H5a.5.5 0 0 1-.5-.5V3zm8 10.5h-5V11a.5.5 0 0 1 .5-.5h4a.5.5 0 0 1 .5.5v2.5zm-5-11H11V4a.5.5 0 0 1-.5.5H8a.5.5 0 0 1-.5-.5V2.5z"/>
</svg>
