<svg xmlns="http://www.w3.org/2000/svg" viewBox="0 0 20 16" fill="currentColor">
  <path fill-rule="evenodd" d="M3 3v10a2 2 0 0 0 2 2h10a2 2 0 0 0 2-2V5.83a2 2 0 0 0-.59-1.42L13.6 1.6a2 2 0 0 0-1.43-.6H5a2 2 0 0 0-2 2zm1.5 0a.5.5 0 0 1 .5-.5h1V5a1 1 0 0 0 1 1h4.5a1 1 0 0 0 1-1V2.62a.49.49 0 0 1 .03.03l2.82 2.83a.5.5 0 0 1 .15.35V13a.5.5 0 0 1-.5.5h-1V10a1 1 0 0 0-1-1H7a1 1 0 0 0-1 1v3.5H5a.5.5 0 0 1-.5-.5V3zm8 10.5h-5V11a.5.5 0 0 1 .5-.5h4a.5.5 0 0 1 .5.5v2.5zm-5-11H11V4a.5.5 0 0 1-.5.5H8a.5.5 0 0 1-.5-.5V2.5z"/>
</svg>
