<svg xmlns="http://www.w3.org/2000/svg" viewBox="0 0 16 16" fill="currentColor">
  <path fill-rule="evenodd" d="M1 3v10a2 2 0 0 0 2 2h10a2 2 0 0 0 2-2V5.828a2 2 0 0 0-.586-1.414l-2.828-2.828A2 2 0 0 0 10.172 1H3a2 2 0 0 0-2 2zm1.5 0v10a.5.5 0 0 0 .5.5h1V10a1 1 0 0 1 1-1h6a1 1 0 0 1 1 1v3.5h1a.5.5 0 0 0 .5-.5V5.828a.5.5 0 0 0-.146-.353l-2.829-2.829a.49.49 0 0 0-.025-.023V5a1 1 0 0 1-1 1H5a1 1 0 0 1-1-1V2.5H3a.5.5 0 0 0-.5.5zm8 10.5V11a.5.5 0 0 0-.5-.5H6a.5.5 0 0 0-.5.5v2.5h5zm-5-11H9V4a.5.5 0 0 1-.5.5H6a.5.5 0 0 1-.5-.5V2.5z"/>
</svg>
