<svg xmlns="http://www.w3.org/2000/svg" width="16" height="16" fill="currentColor" class="vi" viewBox="0 0 16 16"><path d="M1 2.75C1 1.78 1.78 1 2.75 1h7.84c.46 0 .9.18 1.23.51l2.67 2.67c.33.32.51.77.51 1.23v7.84c0 .97-.78 1.75-1.75 1.75H2.75C1.78 15 1 14.22 1 13.25V2.75Zm1.75-.25a.25.25 0 0 0-.25.25v10.5c0 .14.11.25.25.25H4V9.75c0-.69.56-1.25 1.25-1.25h5.5c.69 0 1.25.56 1.25 1.25v3.75h1.25c.14 0 .25-.11.25-.25V5.41a.25.25 0 0 0-.07-.17l-2.67-2.67a.25.25 0 0 0-.17-.07h-.09v1.75c0 .69-.56 1.25-1.25 1.25h-4C4.56 5.5 4 4.94 4 4.25V2.5H2.75Zm2.75 0V4H9V2.5H5.5Zm5 11V10h-5v3.5h5Z"/></svg>