<svg xmlns="http://www.w3.org/2000/svg" fill="currentColor" class="vi" viewBox="0 0 16 16"><path d="M1 3.75A2.75 2.75 0 0 1 3.75 1h6.422c.729 0 1.428.29 1.944.805l2.079 2.079A2.75 2.75 0 0 1 15 5.828v6.422A2.75 2.75 0 0 1 12.25 15h-8.5A2.75 2.75 0 0 1 1 12.25v-8.5ZM3.75 2.5c-.69 0-1.25.56-1.25 1.25v8.5c0 .69.56 1.25 1.25 1.25H4v-3.25c0-.966.784-1.75 1.75-1.75h4.5c.966 0 1.75.784 1.75 1.75v3.25h.25c.69 0 1.25-.56 1.25-1.25V5.828a1.25 1.25 0 0 0-.366-.883l-2.079-2.079a1.25 1.25 0 0 0-.555-.322V3.75A1.75 1.75 0 0 1 8.75 5.5h-3A1.75 1.75 0 0 1 4 3.75V2.5h-.25Zm1.75 0v1.25c0 .138.112.25.25.25h3A.25.25 0 0 0 9 3.75V2.5H5.5Zm5 11v-3.25a.25.25 0 0 0-.25-.25h-4.5a.25.25 0 0 0-.25.25v3.25h5Z"/></svg>