<svg xmlns="http://www.w3.org/2000/svg" fill="currentColor" class="vi" viewBox="0 0 16 16"><path d="M11.5 9a1.5 1.5 0 1 0 0-3 1.5 1.5 0 0 0 0 3"/><path d="M0 4.25A2.75 2.75 0 0 1 2.75 1.5h2.72c.95 0 1.777.647 2.008 1.568a.57.57 0 0 0 .553.432h5.219A2.75 2.75 0 0 1 16 6.25v5.5a2.75 2.75 0 0 1-2.75 2.75H2.75A2.75 2.75 0 0 1 0 11.75zM2.75 3c-.69 0-1.25.56-1.25 1.25v6.69l2.763-2.763a1.75 1.75 0 0 1 2.474 0l4.793 4.793-.03.03h1.75c.69 0 1.25-.56 1.25-1.25v-5.5c0-.69-.56-1.25-1.25-1.25H8.03a2.07 2.07 0 0 1-2.008-1.568A.57.57 0 0 0 5.47 3zm0 10h6.69L5.676 9.237a.25.25 0 0 0-.354 0l-3.426 3.427c.223.208.523.336.853.336"/></svg>