<svg xmlns="http://www.w3.org/2000/svg" viewBox="0 0 20 16" fill="currentColor">
  <path d="M14 6.94a.75.75 0 0 1 .06 1.05l-1.93 2.2a2.51 2.51 0 0 0-1.12-.98l1.93-2.2a.75.75 0 0 1 1.05-.07z"/>
  <path fill-rule="evenodd" d="M4.92 14h10.16c.65 0 .97 0 1.33-.14.26-.11.64-.39.82-.6.24-.31.3-.52.43-.95a8 8 0 1 0-15.32 0c.13.43.2.64.43.94.18.22.56.5.82.6.36.15.68.15 1.33.15zm11.3-2.12a10.59 10.59 0 0 1-.07.24 1.3 1.3 0 0 1-.05.13.5.5 0 0 1-.04.05.8.8 0 0 1-.1.1 1.21 1.21 0 0 1-.12.07.47.47 0 0 1-.11.02 8.35 8.35 0 0 1-.65.01H12.3a2.5 2.5 0 1 0-4.58 0H4.9a8.35 8.35 0 0 1-.64-.01.47.47 0 0 1-.11-.02 1.22 1.22 0 0 1-.21-.15l-.02-.02a.5.5 0 0 1-.04-.07 1.3 1.3 0 0 1-.04-.1l-.08-.25a6.5 6.5 0 1 1 12.45 0zM11 11.5a1 1 0 1 1-2 0 1 1 0 0 1 2 0z"/>
</svg>
