<svg xmlns="http://www.w3.org/2000/svg" viewBox="0 0 20 16" fill="currentColor">
  <path d="M13.994 6.436a.75.75 0 0 1 .07 1.058l-1.929 2.205a2.51 2.51 0 0 0-1.128-.988l1.929-2.205a.75.75 0 0 1 1.058-.07z"/>
  <path fill-rule="evenodd" d="M17.497 14.343c-.373.157-.72.157-1.416.157H3.92c-.696 0-1.043 0-1.416-.157a2.392 2.392 0 0 1-.828-.65c-.242-.326-.3-.568-.419-1.052a9 9 0 1 1 17.487 0c-.117.484-.176.726-.418 1.052a2.392 2.392 0 0 1-.828.65zm-.21-2.057A7.542 7.542 0 0 0 17.5 10.5a7.5 7.5 0 1 0-14.787 1.786c.031.126.052.212.073.286a1.618 1.618 0 0 0 .056.17.43.43 0 0 0 .03.046l.017.018a1.133 1.133 0 0 0 .208.159.506.506 0 0 0 .126.021c.14.013.324.014.696.014h4.58a2.5 2.5 0 1 1 3 0h4.582c.372 0 .557-.001.696-.014a.506.506 0 0 0 .126-.021.846.846 0 0 0 .118-.081 1.123 1.123 0 0 0 .107-.096.409.409 0 0 0 .03-.046 1.61 1.61 0 0 0 .056-.17c.02-.074.042-.16.073-.286zM10 12a1 1 0 1 0 0-2 1 1 0 0 0 0 2z"/>
</svg>
