<svg xmlns="http://www.w3.org/2000/svg" viewBox="0 0 20 16" fill="currentColor">
  <path d="M13.994 6.936a.75.75 0 0 1 .07 1.058l-1.929 2.205a2.51 2.51 0 0 0-1.128-.988l1.929-2.205a.75.75 0 0 1 1.058-.07z"/>
  <path fill-rule="evenodd" d="M4.916 14h10.168c.647 0 .97 0 1.33-.145.26-.105.637-.385.812-.604.243-.303.307-.515.435-.941a8 8 0 1 0-15.323 0c.129.426.193.638.436.941.175.219.552.499.812.604.36.145.683.145 1.33.145zm11.31-2.123a10.59 10.59 0 0 1-.077.248 1.302 1.302 0 0 1-.051.13.508.508 0 0 1-.033.047.804.804 0 0 1-.108.09 1.212 1.212 0 0 1-.116.077.474.474 0 0 1-.115.019 8.35 8.35 0 0 1-.642.012h-2.792a2.5 2.5 0 1 0-4.584 0H4.916a8.35 8.35 0 0 1-.642-.012.475.475 0 0 1-.115-.02 1.223 1.223 0 0 1-.209-.152l-.015-.014a.506.506 0 0 1-.045-.07 1.303 1.303 0 0 1-.039-.107c-.02-.063-.043-.136-.076-.248a6.5 6.5 0 1 1 12.45 0zM11 11.5a1 1 0 1 1-2 0 1 1 0 0 1 2 0z"/>
</svg>
