<svg xmlns="http://www.w3.org/2000/svg" viewBox="0 0 20 16" fill="currentColor"><path d="M14 6.44c.3.27.34.74.06 1.05l-1.92 2.2A2.5 2.5 0 0 0 11 8.72l1.93-2.2a.75.75 0 0 1 1.05-.07Z"/><path fill-rule="evenodd" d="M15.84 14.4c-.3.1-.58.1-1.13.1H5.29c-.55 0-.82 0-1.13-.1a2.42 2.42 0 0 1-.74-.45 2.3 2.3 0 0 1-.5-.73 8 8 0 1 1 14.17 0c-.18.33-.27.5-.5.73-.18.16-.52.37-.75.44Zm-.08-1.88a6.5 6.5 0 1 0-11.3.35 1.17 1.17 0 0 0 .19.1 8.26 8.26 0 0 0 .64.02H8.5a2.5 2.5 0 1 1 3 .01h3.2a8.26 8.26 0 0 0 .67-.03 1.14 1.14 0 0 0 .22-.15l.01-.02.05-.09.1-.2ZM10 12a1 1 0 1 0 0-2 1 1 0 0 0 0 2Z"/></svg>