<svg xmlns="http://www.w3.org/2000/svg" fill="currentColor" class="vi" viewBox="0 0 16 16"><path d="M8 5a3 3 0 1 0 0 6 3 3 0 0 0 0-6M6.5 8a1.5 1.5 0 1 1 3 0 1.5 1.5 0 0 1-3 0"/><path d="M8 0c-.764 0-1.505.107-2.206.308a.75.75 0 0 0-.544.721v1.357a6 6 0 0 0-.736.426L3.34 2.134a.75.75 0 0 0-.896.11A8 8 0 0 0 1.141 3.88l-.007.012-.131.228-.007.012a8 8 0 0 0-.76 1.934.75.75 0 0 0 .352.83l1.176.68a6 6 0 0 0 0 .849l-1.176.679a.75.75 0 0 0-.352.83 8 8 0 0 0 .76 1.934l.006.012.132.228.007.012a8 8 0 0 0 1.303 1.636.75.75 0 0 0 .896.11l1.174-.678q.351.237.736.426v1.357a.75.75 0 0 0 .544.72A8 8 0 0 0 8 16a8 8 0 0 0 2.207-.308.75.75 0 0 0 .543-.721v-1.357q.384-.189.736-.426l1.174.678a.75.75 0 0 0 .896-.11 8 8 0 0 0 1.302-1.635l.007-.011.133-.231.007-.012c.332-.601.59-1.25.76-1.933a.75.75 0 0 0-.353-.83l-1.176-.68a6 6 0 0 0 0-.849l1.176-.679a.75.75 0 0 0 .352-.83 8 8 0 0 0-.76-1.933l-.006-.012-.133-.23-.007-.012a8 8 0 0 0-1.302-1.635.75.75 0 0 0-.896-.11l-1.174.678q-.352-.237-.736-.426V1.03a.75.75 0 0 0-.543-.72A8 8 0 0 0 8 0M6.75 2.875V1.62a6.5 6.5 0 0 1 2.5 0v1.255c0 .309.19.586.477.699.451.176.869.419 1.241.717a.75.75 0 0 0 .844.065l1.087-.628q.376.43.67.919l.126.218q.27.49.456 1.027l-1.088.628a.75.75 0 0 0-.367.762 4.8 4.8 0 0 1 0 1.436.75.75 0 0 0 .367.762l1.088.628q-.185.536-.455 1.027l-.127.218a6.5 6.5 0 0 1-.67.919l-1.087-.628a.75.75 0 0 0-.844.065c-.372.298-.79.541-1.24.717a.75.75 0 0 0-.478.7v1.254a6.5 6.5 0 0 1-2.5 0v-1.255a.75.75 0 0 0-.477-.699 4.7 4.7 0 0 1-1.241-.717.75.75 0 0 0-.844-.065l-1.087.628a6.5 6.5 0 0 1-.671-.92l-.125-.216a6.5 6.5 0 0 1-.456-1.028l1.088-.628a.75.75 0 0 0 .367-.762 4.8 4.8 0 0 1 0-1.436.75.75 0 0 0-.367-.762L1.85 5.892a6.5 6.5 0 0 1 .456-1.028l.125-.216q.296-.49.67-.92l1.088.628a.75.75 0 0 0 .844-.065c.372-.298.79-.541 1.24-.717a.75.75 0 0 0 .478-.699"/></svg>