<svg xmlns="http://www.w3.org/2000/svg" viewBox="0 0 20 16" fill="currentColor">
  <path fill-rule="evenodd" d="M13 8a3 3 0 1 1-6 0 3 3 0 0 1 6 0zm-1.5 0a1.5 1.5 0 1 0-3 0 1.5 1.5 0 0 0 3 0z"/>
  <path fill-rule="evenodd" d="m5.296 2.397.756.437c.435-.332.92-.614 1.448-.834v-.878c0-.432.276-.821.697-.918A8.025 8.025 0 0 1 9.996 0h.008c.619 0 1.22.07 1.799.204.42.097.697.486.697.918V2a6.528 6.528 0 0 1 1.447.834l.757-.437c.374-.216.85-.171 1.144.144.382.409.72.857 1.01 1.338l.147.255c.267.482.485.994.649 1.53.125.413-.074.846-.448 1.062l-.758.438a6.462 6.462 0 0 1 0 1.672l.758.438c.374.216.573.649.448 1.062a7.953 7.953 0 0 1-.649 1.53l-.146.255c-.29.48-.63.93-1.01 1.338-.295.315-.77.36-1.145.144l-.756-.437c-.435.332-.92.614-1.448.834v.878c0 .432-.276.821-.697.918a8.022 8.022 0 0 1-3.606 0c-.42-.097-.697-.486-.697-.918V14a6.525 6.525 0 0 1-1.447-.834l-.757.437c-.374.216-.85.171-1.145-.144a8.033 8.033 0 0 1-1.01-1.34l-.146-.251a7.95 7.95 0 0 1-.649-1.532c-.125-.413.074-.846.447-1.062l.76-.438a6.46 6.46 0 0 1 0-1.672l-.76-.438c-.373-.216-.572-.649-.447-1.062.164-.536.382-1.05.65-1.531l.145-.253c.29-.481.629-.93 1.01-1.338.295-.316.77-.36 1.145-.145zM9 2.005v.662a.5.5 0 0 1-.308.461l-.615.257c-.409.17-.781.387-1.115.642l-.53.404a.5.5 0 0 1-.553.035l-.57-.33a.474.474 0 0 0-.629.128 6.51 6.51 0 0 0-.247.379l-.131.227a6.47 6.47 0 0 0-.198.39.474.474 0 0 0 .203.608l.574.331a.5.5 0 0 1 .246.498l-.087.662a4.96 4.96 0 0 0 0 1.283l.086.662a.5.5 0 0 1-.246.497l-.573.331a.474.474 0 0 0-.203.608c.061.133.127.263.198.39l.13.227c.079.13.161.256.248.379.142.201.415.25.628.127l.572-.33a.5.5 0 0 1 .553.036l.53.404c.342.261.717.477 1.114.642l.615.257a.5.5 0 0 1 .308.461v.662c0 .247.18.459.426.48a6.604 6.604 0 0 0 1.148 0 .474.474 0 0 0 .426-.48v-.662a.5.5 0 0 1 .308-.461l.615-.257a5.01 5.01 0 0 0 1.115-.642l.53-.404a.5.5 0 0 1 .553-.035l.57.33a.474.474 0 0 0 .629-.128c.086-.123.169-.249.247-.378l.132-.229c.07-.127.136-.257.197-.389a.474.474 0 0 0-.203-.608l-.574-.331a.5.5 0 0 1-.246-.498l.087-.662a4.958 4.958 0 0 0 0-1.283l-.086-.662a.5.5 0 0 1 .246-.497l.573-.331a.474.474 0 0 0 .203-.608 6.447 6.447 0 0 0-.197-.389l-.132-.23a6.532 6.532 0 0 0-.247-.377.474.474 0 0 0-.628-.128l-.572.33a.5.5 0 0 1-.553-.035l-.53-.404a5.023 5.023 0 0 0-1.114-.642l-.615-.257A.5.5 0 0 1 11 2.667v-.662a.474.474 0 0 0-.426-.48 6.602 6.602 0 0 0-.57-.025h-.007a6.61 6.61 0 0 0-.571.025.474.474 0 0 0-.426.48z"/>
</svg>
