<svg xmlns="http://www.w3.org/2000/svg" viewBox="0 0 16 16" fill="currentColor">
  <path d="M7.453.015c-.044.006-.206.024-.36.04C6.673.1 6.14.209 6.002.28a1.007 1.007 0 0 0-.42.453c-.073.156-.075.174-.084.712l-.01.551-.381.189c-.21.103-.535.29-.722.415l-.34.228-.442-.253c-.484-.276-.616-.322-.864-.302-.27.022-.416.102-.67.369C1.393 3.353.788 4.374.438 5.397c-.151.439-.16.635-.039.889.112.239.256.363.728.634l.419.24-.02.253a9.198 9.198 0 0 0 0 1.174l.02.253-.416.24c-.515.298-.596.365-.715.604-.139.278-.135.461.023.919.349 1.021.956 2.046 1.631 2.755.254.267.4.347.67.369.248.02.38-.026.864-.302l.442-.253.34.228c.187.125.513.312.724.417l.384.189v.462c0 .647.049.836.276 1.074.159.166.31.232.7.307.597.114.867.138 1.558.136.677-.002 1.002-.032 1.572-.146.324-.065.48-.139.632-.297.227-.237.276-.427.276-1.072v-.461l.386-.193c.212-.105.538-.294.724-.418l.339-.226.442.253c.485.277.615.322.867.302.337-.027.54-.179.989-.74a8.058 8.058 0 0 0 1.306-2.377c.153-.447.162-.641.041-.896-.112-.238-.256-.363-.728-.634l-.418-.24.019-.267a8.979 8.979 0 0 0 0-1.16l-.02-.253.419-.24c.625-.358.779-.543.8-.96.01-.199.003-.238-.112-.57a8.04 8.04 0 0 0-1.307-2.377c-.449-.561-.652-.713-.989-.74-.252-.02-.382.025-.867.302l-.442.253-.339-.226a7.914 7.914 0 0 0-.724-.418l-.386-.193V1.53c0-.495-.026-.675-.121-.863a1.048 1.048 0 0 0-.402-.396C9.862.21 9.481.128 9.03.065 8.751.027 7.632-.009 7.453.015m1.249 1.541c.1.042.252.206.27.291.007.033.017.258.022.5.008.388.016.453.067.551.076.145.135.183.579.368.73.305 1.023.473 1.622.932.563.431.59.432 1.233.053.266-.156.426-.2.583-.161.166.042.378.324.69.918.139.266.163.332.163.451 0 .224-.088.322-.507.565-.413.239-.426.249-.493.38-.065.128-.064.256.004.756a6.448 6.448 0 0 1 0 1.677c-.069.496-.069.631-.004.759.067.131.08.141.493.38.419.243.507.341.507.565 0 .119-.024.185-.163.451-.52.99-.697 1.095-1.273.757-.642-.379-.672-.377-1.224.047-.592.456-.902.634-1.631.938-.444.185-.503.223-.579.368-.051.098-.059.163-.067.551a6.778 6.778 0 0 1-.022.501c-.02.093-.191.266-.3.303-.137.047-1.207.047-1.344 0-.109-.037-.28-.21-.3-.303a7.038 7.038 0 0 1-.021-.501c-.008-.423-.011-.446-.08-.563-.09-.154-.108-.165-.594-.369-.73-.306-.937-.425-1.563-.897a4.309 4.309 0 0 0-.471-.322c-.159-.067-.293-.034-.626.154-.455.256-.474.264-.613.264a.424.424 0 0 1-.345-.151c-.098-.104-.336-.488-.505-.816-.116-.226-.141-.297-.141-.412-.001-.222.087-.32.508-.564.412-.24.425-.25.492-.381.065-.128.064-.257-.004-.756a6.362 6.362 0 0 1 0-1.677c.069-.495.069-.63.004-.759-.067-.131-.08-.141-.492-.381-.421-.244-.509-.342-.508-.564 0-.115.025-.186.141-.412.169-.328.407-.712.505-.816a.424.424 0 0 1 .345-.151c.139 0 .159.009.611.263.32.18.451.216.606.165.053-.018.231-.136.396-.262.65-.498.94-.668 1.664-.968.476-.198.499-.213.59-.368.069-.117.072-.14.08-.563.005-.242.014-.467.021-.5.015-.069.154-.235.236-.28.09-.049.421-.07.904-.058.289.008.479.024.534.047M7.43 5.055a3.021 3.021 0 0 0-2.391 2.47c-.047.297-.021.937.05 1.2a3.018 3.018 0 0 0 2.186 2.186c.263.071.904.097 1.2.05a3.031 3.031 0 0 0 2.31-1.849c.163-.413.186-.549.186-1.112 0-.563-.023-.699-.186-1.112a3.02 3.02 0 0 0-2.232-1.834c-.263-.05-.869-.05-1.123.001m.931 1.492c.53.135.957.562 1.092 1.092.2.786-.297 1.611-1.092 1.814-.786.2-1.611-.297-1.814-1.092-.198-.78.293-1.605 1.08-1.812.194-.051.537-.052.734-.002"/>
</svg>
