<svg xmlns="http://www.w3.org/2000/svg" viewBox="0 0 16 16" fill="currentColor">
  <g fill-rule="evenodd" clip-path="url(#a)">
    <path d="M8 11a3 3 0 1 0 0-6 3 3 0 0 0 0 6zm0-1.5a1.5 1.5 0 1 0 0-3 1.5 1.5 0 0 0 0 3z"/>
    <path d="m4.052 2.834-.756-.437c-.374-.216-.85-.171-1.145.145a8.03 8.03 0 0 0-1.01 1.338l-.146.253a7.952 7.952 0 0 0-.649 1.531c-.125.413.074.846.447 1.062l.76.438a6.46 6.46 0 0 0 0 1.672l-.76.438c-.373.216-.572.649-.447 1.062a7.95 7.95 0 0 0 .65 1.532l.145.251c.29.482.629.93 1.01 1.34.295.315.77.36 1.145.144l.757-.437c.446.34.933.62 1.447.834v.878c0 .432.276.821.697.918a8.023 8.023 0 0 0 3.606 0c.42-.097.697-.486.697-.918V14a6.507 6.507 0 0 0 1.448-.834l.756.437c.374.216.85.171 1.144-.144.382-.409.72-.857 1.01-1.338l.147-.255a7.94 7.94 0 0 0 .649-1.53c.125-.413-.074-.846-.447-1.062l-.76-.438a6.462 6.462 0 0 0 0-1.672l.76-.438c.373-.216.572-.649.447-1.062a7.952 7.952 0 0 0-.649-1.53l-.147-.255a8.033 8.033 0 0 0-1.01-1.338c-.294-.315-.77-.36-1.144-.144l-.757.437A6.525 6.525 0 0 0 10.5 2v-.878c0-.432-.276-.821-.697-.918A8.025 8.025 0 0 0 8.004 0h-.008c-.619 0-1.22.07-1.799.204-.42.097-.697.486-.697.918V2a6.508 6.508 0 0 0-1.448.834zm3.374-1.309a.474.474 0 0 0-.426.48v.662a.5.5 0 0 1-.308.461l-.615.257c-.409.17-.781.387-1.115.642l-.53.404a.5.5 0 0 1-.553.035l-.57-.33a.474.474 0 0 0-.629.128c-.087.123-.17.25-.247.379L2.3 4.87a6.48 6.48 0 0 0-.197.39.474.474 0 0 0 .203.608l.574.331a.5.5 0 0 1 .246.498l-.087.662a4.96 4.96 0 0 0 0 1.283l.086.662a.5.5 0 0 1-.246.497l-.573.331a.474.474 0 0 0-.203.608c.061.133.127.263.198.39l.13.227c.079.13.161.256.248.379.142.201.415.25.628.127l.572-.33a.5.5 0 0 1 .553.036l.53.404c.342.261.717.477 1.114.642l.615.257a.5.5 0 0 1 .308.461v.662c0 .247.18.459.426.48a6.604 6.604 0 0 0 1.148 0 .474.474 0 0 0 .426-.48v-.662a.5.5 0 0 1 .308-.461l.615-.257c.409-.17.781-.387 1.115-.642l.53-.404a.5.5 0 0 1 .553-.035l.57.33a.474.474 0 0 0 .629-.128 6.5 6.5 0 0 0 .247-.378l.132-.229c.07-.127.136-.257.197-.389a.474.474 0 0 0-.203-.608l-.574-.331a.5.5 0 0 1-.246-.498l.087-.662a4.963 4.963 0 0 0 0-1.283l-.086-.662a.5.5 0 0 1 .246-.497l.573-.331a.474.474 0 0 0 .203-.608 6.506 6.506 0 0 0-.197-.389l-.132-.23a6.532 6.532 0 0 0-.247-.377.474.474 0 0 0-.628-.128l-.572.33a.5.5 0 0 1-.553-.035l-.53-.404a5.025 5.025 0 0 0-1.114-.642l-.615-.257A.5.5 0 0 1 9 2.667v-.662a.474.474 0 0 0-.426-.48 6.602 6.602 0 0 0-.57-.025h-.007a6.61 6.61 0 0 0-.571.025z"/>
  </g>
  <defs>
    <clipPath id="a">
      <path d="M0 0h16v16H0z"/>
    </clipPath>
  </defs>
</svg>
