<svg xmlns="http://www.w3.org/2000/svg" fill="currentColor" class="vi" viewBox="0 0 16 16"><path d="m11.97 1.656.041.023a.973.973 0 0 1-.477 1.821H9.5l1.18-1.572a1 1 0 0 1 1.29-.272Zm1.818 1.897c.497-1.103.147-2.512-1.041-3.181l-.042-.023a2.5 2.5 0 0 0-3.226.679L8 3 6.52 1.028a2.5 2.5 0 0 0-3.225-.68l-.042.024c-1.188.669-1.538 2.078-1.041 3.18A2.75 2.75 0 0 0 0 6.25c0 .698.409 1.3 1 1.582v5.418A2.75 2.75 0 0 0 3.75 16h8.5A2.75 2.75 0 0 0 15 13.25V7.832c.591-.281 1-.884 1-1.582a2.75 2.75 0 0 0-2.212-2.697ZM13.5 8v5.25c0 .69-.56 1.25-1.25 1.25h-3.5V8h4.75Zm-6.25 6.5h-3.5c-.69 0-1.25-.56-1.25-1.25V8h4.75v6.5Zm-2.784-11a.973.973 0 0 1-.477-1.82l.041-.024a1 1 0 0 1 1.29.272L6.5 3.5H4.466ZM2.75 5h10.5c.69 0 1.25.56 1.25 1.25a.25.25 0 0 1-.25.25H1.75a.25.25 0 0 1-.25-.25C1.5 5.56 2.06 5 2.75 5Z"/></svg>