<svg xmlns="http://www.w3.org/2000/svg" fill="currentColor" class="vi" viewBox="0 0 16 16"><path d="m11.97 1.66.04.02a.97.97 0 0 1-.48 1.82H9.5l1.18-1.57a1 1 0 0 1 1.29-.27Zm1.84 1.84c.46-1.1.1-2.47-1.06-3.13L12.7.35a2.5 2.5 0 0 0-3.23.68L8 3 6.52 1.03A2.5 2.5 0 0 0 3.3.35l-.04.02A2.47 2.47 0 0 0 2.2 3.5h-.44C.78 3.5 0 4.28 0 5.25v2c0 .41.34.75.75.75H1v6.25c0 .97.78 1.75 1.75 1.75h10.5c.97 0 1.75-.78 1.75-1.75V8h.25c.41 0 .75-.34.75-.75v-2c0-.97-.78-1.75-1.75-1.75h-.44Zm.69 3h-13V5.25c0-.14.11-.25.25-.25h12.5c.14 0 .25.11.25.25V6.5ZM2.5 8h4.75v6.5h-4.5a.25.25 0 0 1-.25-.25V8Zm6.25 0h4.75v6.25c0 .14-.11.25-.25.25h-4.5V8ZM4.47 3.5a.97.97 0 0 1-.48-1.82l.04-.02a1 1 0 0 1 1.3.27L6.5 3.5H4.47Z"/></svg>