<svg xmlns="http://www.w3.org/2000/svg" fill="currentColor" class="vi" viewBox="0 0 16 16"><path d="m11.97 1.656.041.023a.973.973 0 0 1-.477 1.821H9.5l1.18-1.572a1 1 0 0 1 1.29-.272ZM13.81 3.5c.464-1.094.106-2.47-1.063-3.128l-.042-.023a2.5 2.5 0 0 0-3.226.679L8 3 6.52 1.028a2.5 2.5 0 0 0-3.225-.68l-.042.024C2.083 1.03 1.726 2.406 2.19 3.5h-.44A1.75 1.75 0 0 0 0 5.25v2c0 .414.336.75.75.75H1v6.25c0 .966.784 1.75 1.75 1.75h10.5A1.75 1.75 0 0 0 15 14.25V8h.25a.75.75 0 0 0 .75-.75v-2a1.75 1.75 0 0 0-1.75-1.75h-.44Zm.69 3h-13V5.25A.25.25 0 0 1 1.75 5h12.5a.25.25 0 0 1 .25.25V6.5ZM2.5 8h4.75v6.5h-4.5a.25.25 0 0 1-.25-.25V8Zm6.25 0h4.75v6.25a.25.25 0 0 1-.25.25h-4.5V8ZM4.466 3.5a.973.973 0 0 1-.477-1.82l.041-.024a1 1 0 0 1 1.29.272L6.5 3.5H4.466Z"/></svg>