<svg xmlns="http://www.w3.org/2000/svg" fill="currentColor" class="vi" viewBox="0 0 16 16"><path fill-rule="evenodd" d="M2.75 1A1.75 1.75 0 0 0 1 2.75v2.5C1 6.216 1.784 7 2.75 7h2.5A1.75 1.75 0 0 0 7 5.25v-2.5A1.75 1.75 0 0 0 5.25 1zM2.5 2.75a.25.25 0 0 1 .25-.25h2.5a.25.25 0 0 1 .25.25v2.5a.25.25 0 0 1-.25.25h-2.5a.25.25 0 0 1-.25-.25zM2.75 9A1.75 1.75 0 0 0 1 10.75v2.5c0 .966.784 1.75 1.75 1.75h2.5A1.75 1.75 0 0 0 7 13.25v-2.5A1.75 1.75 0 0 0 5.25 9zm-.25 1.75a.25.25 0 0 1 .25-.25h2.5a.25.25 0 0 1 .25.25v2.5a.25.25 0 0 1-.25.25h-2.5a.25.25 0 0 1-.25-.25zm6.5-8C9 1.784 9.784 1 10.75 1h2.5c.966 0 1.75.784 1.75 1.75v2.5A1.75 1.75 0 0 1 13.25 7h-2.5A1.75 1.75 0 0 1 9 5.25zm1.75-.25a.25.25 0 0 0-.25.25v2.5c0 .138.112.25.25.25h2.5a.25.25 0 0 0 .25-.25v-2.5a.25.25 0 0 0-.25-.25zm0 6.5A1.75 1.75 0 0 0 9 10.75v2.5c0 .966.784 1.75 1.75 1.75h2.5A1.75 1.75 0 0 0 15 13.25v-2.5A1.75 1.75 0 0 0 13.25 9zm-.25 1.75a.25.25 0 0 1 .25-.25h2.5a.25.25 0 0 1 .25.25v2.5a.25.25 0 0 1-.25.25h-2.5a.25.25 0 0 1-.25-.25z"/></svg>