<svg xmlns="http://www.w3.org/2000/svg" viewBox="0 0 16 16" fill="currentColor"><path d="M8 1.5A6.5 6.5 0 0 0 1.5 8v.25a.75.75 0 0 1-1.5 0V8a8 8 0 1 1 16 0v3.25A4.75 4.75 0 0 1 11.25 16h-4.5a.75.75 0 0 1-.75-.75v-.5c0-.97.78-1.75 1.75-1.75h.5c.88 0 1.61.65 1.73 1.5h1.27c1.8 0 3.25-1.46 3.25-3.25V8A6.5 6.5 0 0 0 8 1.5Z"/><path d="M2.5 7.75c0-1.24 1-2.25 2.25-2.25h1C6.44 5.5 7 6.06 7 6.75v3.5c0 .69-.56 1.25-1.25 1.25h-1c-1.24 0-2.25-1-2.25-2.25v-1.5ZM4.75 7a.75.75 0 0 0-.75.75v1.5c0 .41.34.75.75.75h.75V7h-.75Zm5.5-1.5C9.56 5.5 9 6.06 9 6.75v3.5c0 .69.56 1.25 1.25 1.25h1c1.24 0 2.25-1 2.25-2.25v-1.5c0-1.24-1-2.25-2.25-2.25h-1Zm.25 4.5V7h.75c.41 0 .75.34.75.75v1.5c0 .41-.34.75-.75.75h-.75Z"/></svg>