<svg xmlns="http://www.w3.org/2000/svg" viewBox="0 0 20 16" fill="currentColor"><path d="M1.25 2a.75.75 0 0 0-.75.75v10.5a.75.75 0 0 0 1.5 0V8.5h6.5v4.75a.75.75 0 0 0 1.5 0V2.75a.75.75 0 0 0-1.5 0V7H2V2.75A.75.75 0 0 0 1.25 2Zm12.23 1.64c.15-.1.32-.14.5-.14h2.3c.32 0 .63.1.9.27l.05.04c.82.54.94 1.71.24 2.41l-.78.78h-1.44a.75.75 0 0 0 0 1.5h1.44l.76.76.08.1a1.9 1.9 0 0 1-1.41 3.14h-2.14a.98.98 0 0 1-.98-.98.52.52 0 0 0-.52-.52h-.46a.52.52 0 0 0-.52.52A2.48 2.48 0 0 0 13.98 14h2.14a3.4 3.4 0 0 0 2.53-5.64l-.1-.12-.49-.49.47-.47a3.07 3.07 0 0 0-.47-4.72l-.05-.04A3.12 3.12 0 0 0 16.28 2h-2.3a2.48 2.48 0 0 0-2.48 2.48c0 .29.23.52.52.52h.46c.29 0 .52-.23.52-.52 0-.34.18-.66.48-.84Z"/></svg>