<svg xmlns="http://www.w3.org/2000/svg" fill="currentColor" class="vi" viewBox="0 0 16 16"><path d="M1.5 2.75a.75.75 0 0 0-1.5 0v10.5a.75.75 0 0 0 1.5 0V8.5h5v4.75a.75.75 0 0 0 1.5 0V2.75a.75.75 0 0 0-1.5 0V7h-5zM11.155 2c-.9 0-1.652.681-1.741 1.576l-.19 1.9A2.75 2.75 0 0 0 11.96 8.5h.54a2 2 0 1 1 0 4h-.75c-.69 0-1.25-.56-1.25-1.25V11A.75.75 0 0 0 9 11v.25A2.75 2.75 0 0 0 11.75 14h.75a3.5 3.5 0 1 0 0-7h-.54a1.25 1.25 0 0 1-1.244-1.374l.19-1.9a.25.25 0 0 1 .249-.226h4.095a.75.75 0 0 0 0-1.5z"/></svg>