<svg xmlns="http://www.w3.org/2000/svg" fill="currentColor" class="vi" viewBox="0 0 16 16"><path d="M8 1.5A6.5 6.5 0 0 0 1.5 8v.25a.75.75 0 0 1-1.5 0V8a8 8 0 1 1 16 0v3.25A4.75 4.75 0 0 1 11.25 16h-4.5a.75.75 0 0 1-.75-.75v-.5c0-.966.784-1.75 1.75-1.75h.5a1.75 1.75 0 0 1 1.732 1.5h1.268a3.25 3.25 0 0 0 3.25-3.25V8A6.5 6.5 0 0 0 8 1.5"/><path d="M2.5 7.75A2.25 2.25 0 0 1 4.75 5.5h1C6.44 5.5 7 6.06 7 6.75v3.5c0 .69-.56 1.25-1.25 1.25h-1A2.25 2.25 0 0 1 2.5 9.25zM4.75 7a.75.75 0 0 0-.75.75v1.5c0 .414.336.75.75.75h.75V7zm5.5-1.5C9.56 5.5 9 6.06 9 6.75v3.5c0 .69.56 1.25 1.25 1.25h1a2.25 2.25 0 0 0 2.25-2.25v-1.5a2.25 2.25 0 0 0-2.25-2.25zm.25 4.5V7h.75a.75.75 0 0 1 .75.75v1.5a.75.75 0 0 1-.75.75z"/></svg>