<svg xmlns="http://www.w3.org/2000/svg" viewBox="0 0 20 16" fill="currentColor"><path d="M1.25 2a.75.75 0 0 0-.75.75v10.5a.75.75 0 0 0 1.5 0V8.5h6.5v4.75a.75.75 0 0 0 1.5 0V2.75a.75.75 0 0 0-1.5 0V7H2V2.75A.75.75 0 0 0 1.25 2ZM13 3.75c0-.14.11-.25.25-.25h5a.75.75 0 0 0 0-1.5h-5c-.97 0-1.75.78-1.75 1.75v3c0 .97.78 1.75 1.75 1.75h2.68a2 2 0 1 1 0 4h-1.95a.98.98 0 0 1-.98-.98.52.52 0 0 0-.52-.52h-.46a.52.52 0 0 0-.52.52A2.48 2.48 0 0 0 13.98 14h1.95a3.5 3.5 0 1 0 0-7h-2.68a.25.25 0 0 1-.25-.25v-3Z"/></svg>