<svg xmlns="http://www.w3.org/2000/svg" fill="currentColor" class="vi" viewBox="0 0 16 16"><path d="M1.5 2.75a.75.75 0 0 0-1.5 0v10.5a.75.75 0 0 0 1.5 0V8.5h5v4.75a.75.75 0 0 0 1.5 0V2.75a.75.75 0 0 0-1.5 0V7h-5zm9 2.5c0-.39.132-.829.426-1.16.276-.311.75-.59 1.574-.59.818 0 1.291.283 1.57.603.297.34.43.79.43 1.181 0 .752-.217 1.19-.542 1.462-.35.293-.957.504-1.958.504h-.75a.75.75 0 0 0 0 1.5H12c1 0 1.608.211 1.958.504.325.271.542.71.542 1.462 0 .491-.147.927-.43 1.233-.27.293-.742.551-1.57.551-.802 0-1.28-.277-1.563-.593a1.77 1.77 0 0 1-.437-1.157.75.75 0 0 0-1.5 0c0 .704.243 1.515.82 2.158.593.662 1.49 1.092 2.68 1.092 1.163 0 2.066-.376 2.673-1.033.595-.645.827-1.476.827-2.251 0-1.059-.321-1.978-1.08-2.612A3 3 0 0 0 14.79 8q.066-.05.13-.104C15.68 7.262 16 6.343 16 5.284c0-.694-.228-1.512-.8-2.167C14.612 2.441 13.71 2 12.5 2c-1.204 0-2.104.428-2.696 1.095A3.27 3.27 0 0 0 9 5.25a.75.75 0 0 0 1.5 0"/></svg>