<svg xmlns="http://www.w3.org/2000/svg" fill="currentColor" class="vi" viewBox="0 0 16 16"><path d="M1.5 2.75a.75.75 0 0 0-1.5 0v10.5a.75.75 0 0 0 1.5 0V8.5h5v4.75a.75.75 0 0 0 1.5 0V2.75a.75.75 0 0 0-1.5 0V7h-5zm11.71-.606A3.436 3.436 0 0 0 9 5.491v.259a.75.75 0 1 0 1.5 0v-.259a1.936 1.936 0 0 1 2.373-1.885c1.709.394 2.16 2.61.76 3.632l-2.71 1.977A4.68 4.68 0 0 0 9 13c0 .414.336.75.75.75h5.5a.75.75 0 0 0 0-1.5h-4.66a3.2 3.2 0 0 1 1.218-1.823l2.71-1.977c2.454-1.792 1.633-5.627-1.308-6.306"/></svg>