<svg xmlns="http://www.w3.org/2000/svg" viewBox="0 0 20 16" fill="currentColor"><path fill-rule="evenodd" d="M2.75 2a.75.75 0 0 0-.75.75v10.5a.75.75 0 0 0 1.5 0V8.5h5v4.75a.75.75 0 0 0 1.5 0V2.75a.75.75 0 0 0-1.5 0V7h-5V2.75A.75.75 0 0 0 2.75 2Zm8.34 2.3A3.03 3.03 0 0 1 14.03 2h.72a3.25 3.25 0 0 1 2 5.82A3.5 3.5 0 0 1 14.5 14h-.47A3.03 3.03 0 0 1 11 10.97v-.22a.75.75 0 0 1 1.5 0v.22a1.53 1.53 0 0 0 1.53 1.53h.47a2 2 0 0 0 2-2c0-1.1-.65-2-1.75-2a.75.75 0 0 1 0-1.5 1.75 1.75 0 1 0 0-3.5h-.72a1.53 1.53 0 0 0-1.53 1.53v.22a.75.75 0 0 1-1.5 0v-.22c0-.25.03-.5.1-.73Z"/></svg>