<svg xmlns="http://www.w3.org/2000/svg" fill="currentColor" class="vi" viewBox="0 0 16 16"><path d="M1.5 2.75a.75.75 0 0 0-1.5 0v10.5a.75.75 0 0 0 1.5 0V8.5h5v4.75a.75.75 0 0 0 1.5 0V2.75a.75.75 0 0 0-1.5 0V7h-5zM10.25 2a.75.75 0 0 0-.747.685l-.487 5.594A2 2 0 0 0 9 8.5a.75.75 0 0 0 1.497.065l.009-.1a1 1 0 0 1 .057-.177 1.4 1.4 0 0 1 .284-.42c.263-.27.751-.566 1.653-.566.535 0 .89.12 1.13.271.243.152.42.366.551.63.278.557.319 1.264.319 1.797 0 .594-.044 1.233-.306 1.713a1.3 1.3 0 0 1-.53.542c-.245.136-.61.245-1.164.245-.968 0-1.355-.226-1.541-.401-.178-.166-.255-.333-.38-.601a12 12 0 0 0-.158-.333.75.75 0 1 0-1.342.67l.072.156c.136.302.367.814.783 1.203.554.52 1.362.806 2.566.806.75 0 1.38-.149 1.894-.435a2.8 2.8 0 0 0 1.117-1.134c.462-.847.489-1.834.489-2.431 0-.553-.03-1.57-.476-2.466a3 3 0 0 0-1.096-1.232c-.519-.325-1.16-.5-1.928-.5-.716 0-1.31.138-1.794.363l.232-2.665H15A.75.75 0 0 0 15 2z"/></svg>