<svg xmlns="http://www.w3.org/2000/svg" viewBox="0 0 20 16" fill="currentColor"><path fill-rule="evenodd" d="M2.75 2a.75.75 0 0 0-.75.75v10.5a.75.75 0 0 0 1.5 0V8.5h5v4.75a.75.75 0 0 0 1.5 0V2.75a.75.75 0 0 0-1.5 0V7h-5V2.75A.75.75 0 0 0 2.75 2Zm9.75 1.75c0-.14.11-.25.25-.25h4.5a.75.75 0 0 0 0-1.5h-4.5C11.78 2 11 2.78 11 3.75v2c0 .97.78 1.75 1.75 1.75h1.5c1.24 0 2.25 1 2.25 2.25v.73a2.02 2.02 0 0 1-4 .44v-.17a.75.75 0 0 0-1.5 0v.33l.02.08.02.08a3.52 3.52 0 0 0 6.96-.76v-.73A3.75 3.75 0 0 0 14.25 6h-1.5a.25.25 0 0 1-.25-.25v-2Z"/></svg>