<svg xmlns="http://www.w3.org/2000/svg" viewBox="0 0 20 16" fill="currentColor"><path d="M2.75 2a.75.75 0 0 0-.75.75v10.5a.75.75 0 0 0 1.5 0V8.5h5v4.75a.75.75 0 0 0 1.5 0V2.75a.75.75 0 0 0-1.5 0V7h-5V2.75A.75.75 0 0 0 2.75 2Zm9.75 1.75c0-.14.11-.25.25-.25h4.5a.75.75 0 0 0 0-1.5h-4.5C11.78 2 11 2.78 11 3.75v3c0 .97.78 1.75 1.75 1.75h1.75a2 2 0 1 1-.01 4c-.95 0-1.78-.66-1.99-1.58v-.17a.75.75 0 0 0-1.5 0v.33l.04.16A3.54 3.54 0 0 0 14.49 14a3.5 3.5 0 1 0 .01-7h-1.75a.25.25 0 0 1-.25-.25v-3Z"/></svg>