<svg xmlns="http://www.w3.org/2000/svg" fill="currentColor" class="vi" viewBox="0 0 16 16"><path d="M7.55 1.95A4.35 4.35 0 0 0 0 4.89v.59c0 1.36.53 2.67 1.48 3.65l5.98 6.2a.75.75 0 0 0 1.08 0l5.98-6.2A5.26 5.26 0 0 0 16 5.48v-.6a4.35 4.35 0 0 0-7.55-2.93L8 2.44l-.45-.49Zm-4.36.34a2.85 2.85 0 0 1 3.26.67l.33.37-1.55 2.33a.5.5 0 0 0 .06.63l1.29 1.29c.1.1.16.26.14.4l-.17 1.6c-.01.1.12.15.18.06l1.3-2.05a.5.5 0 0 0-.06-.62L7.3 6.3a.5.5 0 0 1-.05-.66l.77-1.02 1.52-1.67A2.85 2.85 0 0 1 14.5 4.9v.59c0 .97-.38 1.9-1.06 2.6L8 13.73 2.56 8.1A3.76 3.76 0 0 1 1.5 5.48v-.6c0-1.12.66-2.14 1.7-2.6Z"/></svg>