<svg xmlns="http://www.w3.org/2000/svg" fill="currentColor" class="vi" viewBox="0 0 16 16"><path d="M7.551 1.95A4.347 4.347 0 0 0 0 4.887v.591c0 1.363.53 2.673 1.477 3.653l5.984 6.19a.75.75 0 0 0 1.078 0l5.984-6.19A5.26 5.26 0 0 0 16 5.478v-.59A4.347 4.347 0 0 0 8.449 1.95L8 2.44zm-4.36.336a2.85 2.85 0 0 1 3.254.678l.335.365-1.553 2.33a.5.5 0 0 0 .063.63L6.58 7.58a.5.5 0 0 1 .143.409l-.175 1.583c-.012.105.126.154.183.064l1.304-2.048a.5.5 0 0 0-.069-.622l-.66-.66a.5.5 0 0 1-.046-.653l.768-1.024 1.527-1.665A2.847 2.847 0 0 1 14.5 4.887v.591c0 .974-.378 1.91-1.055 2.61L8 13.722 2.555 8.089A3.76 3.76 0 0 1 1.5 5.479v-.592c0-1.125.663-2.144 1.69-2.601"/></svg>