<svg xmlns="http://www.w3.org/2000/svg" viewBox="0 0 16 16" fill="currentColor">
  <path fill-rule="evenodd" d="M8 3.3 6.879 2.179A4.03 4.03 0 0 0 0 5.029v.373c0 1.215.483 2.38 1.342 3.24l5.95 5.95a1 1 0 0 0 1.415 0l5.951-5.95A4.582 4.582 0 0 0 16 5.402v-.374a4.03 4.03 0 0 0-6.879-2.85L8 3.3zm0 2.121 2.182-2.182A2.53 2.53 0 0 1 14.5 5.03v.373c0 .817-.325 1.601-.903 2.18L8 13.178 2.403 7.58A3.082 3.082 0 0 1 1.5 5.402v-.374A2.53 2.53 0 0 1 5.818 3.24l.524.524L5 6l3 1.5-1 2 4-2-3.4-1.7.4-.379z"/>
</svg>
