<svg xmlns="http://www.w3.org/2000/svg" viewBox="0 0 16 16" fill="currentColor">
  <path fill-rule="evenodd" d="m8.75 12.852.85.85-.893.892a.996.996 0 0 1-.398.245v-.002c-.2.065-.417.065-.618 0v.002a.996.996 0 0 1-.398-.245l-.013-.012v-.001l-.016-.017h-.001l-.013-.012v-.002L1.342 8.642A4.582 4.582 0 0 1 0 5.402v-.374a4.03 4.03 0 0 1 6.879-2.85L8 3.302l.335-.336 1.061 1.06-.561.562-.086.084v8.181zM3.09 2.68a2.53 2.53 0 0 1 2.728.56L7.25 4.67v7.758L2.403 7.58A3.082 3.082 0 0 1 1.5 5.402v-.374A2.53 2.53 0 0 1 3.09 2.68z"/>
  <path d="m10.79 12.512 1.785-1.786-1.06-1.06-1.786 1.785 1.06 1.06zm2.975-2.976.893-.892c.257-.257.48-.542.667-.846l-1.28-.784a3.075 3.075 0 0 1-.448.569l-.892.893 1.06 1.06zm2.108-3.063c.084-.347.127-.706.127-1.07V5.13h-1.5v.274c0 .244-.029.485-.085.72l1.458.35z"/>
  <path d="M16 5.142V5.03c0-.49-.089-.966-.254-1.409l-1.405.525c.103.277.159.575.159.884v.112H16zm-1.32-3.095a4.024 4.024 0 0 0-2.586-1.045l-.045 1.5a2.524 2.524 0 0 1 1.623.655l1.008-1.11zm-4.41-.671c-.42.196-.81.465-1.149.804l-.336.337 1.06 1.06.337-.336a2.55 2.55 0 0 1 .72-.505l-.632-1.36z"/>
</svg>
