<svg xmlns="http://www.w3.org/2000/svg" viewBox="0 0 16 16" fill="currentColor">
  <path fill-rule="evenodd" d="M3.693 1.014A4.03 4.03 0 0 0 .229 3.705C.07 4.16.025 4.429.008 5.017c-.016.569.013.973.102 1.37.156.703.495 1.397.945 1.933.218.26 6.378 6.411 6.464 6.454.282.144.747.133.994-.024.047-.029.311-.279.586-.555l.501-.502-.427-.427-.426-.427v-4.17c0-4.012.001-4.169.048-4.127.045.041.064.027.326-.236l.278-.28-.532-.533-.533-.533-.166.166-.167.165-.674-.667c-.68-.673-.868-.834-1.246-1.062a4.12 4.12 0 0 0-2.388-.548m8.402.033a14.47 14.47 0 0 0-.028.746l-.017.714h.093c.145 0 .464.068.684.147.248.089.475.212.679.371.151.117.158.12.208.075.077-.07.938-1.021.948-1.047.013-.035-.372-.331-.626-.481A4.407 4.407 0 0 0 13 1.139c-.462-.119-.884-.162-.905-.092m-2.081.462c-.334.19-.61.401-.931.709l-.296.285.532.534.533.535.267-.261c.266-.261.422-.381.658-.51l.123-.068-.31-.672c-.17-.37-.322-.673-.337-.673a1.495 1.495 0 0 0-.239.121M4.547 2.557c.132.027.334.088.448.136.404.168.564.298 1.438 1.169l.82.817v7.761L4.737 9.92C2.959 8.14 2.179 7.341 2.081 7.2A3.316 3.316 0 0 1 1.557 6c-.07-.325-.071-1.206-.002-1.499.193-.823.735-1.48 1.482-1.795.175-.073.361-.127.63-.182.154-.032.658-.013.88.033m10.494 1.326c-.374.139-.684.257-.689.263a.94.94 0 0 0 .048.191c.031.101.071.324.088.496l.03.314h1.49l-.017-.314a5.451 5.451 0 0 0-.056-.524c-.043-.232-.174-.683-.199-.681-.009.001-.322.115-.695.255m-.544 1.642a4.65 4.65 0 0 1-.047.415.84.84 0 0 0-.02.179c.006.005.328.086.717.18.484.117.712.162.724.142.038-.061.104-.52.12-.834l.017-.327h-1.493l-.018.245m-.577 1.669c-.065.099-.365.429-.665.734l-.546.554.525.526.526.525.522-.52c.287-.286.591-.604.676-.706.224-.273.363-.49.331-.522a54.03 54.03 0 0 0-1.246-.771 7.061 7.061 0 0 0-.123.18m-3.3 3.373-.887.887.527.526.527.527.893-.894.893-.893-.52-.52c-.285-.286-.525-.52-.533-.52-.007 0-.413.399-.9.887"/>
</svg>
