<svg xmlns="http://www.w3.org/2000/svg" viewBox="0 0 16 16" fill="currentColor">
  <path fill-rule="evenodd" d="M3.693 1.014A4.03 4.03 0 0 0 .229 3.705C.07 4.16.025 4.429.008 5.017c-.016.569.013.973.102 1.37.156.703.495 1.397.945 1.933.092.11 1.57 1.599 3.283 3.309 3.523 3.516 3.207 3.237 3.663 3.237.463.001.155.274 3.787-3.365 3.5-3.506 3.383-3.379 3.718-4.048.384-.766.515-1.426.486-2.436-.017-.588-.062-.855-.221-1.315a4.064 4.064 0 0 0-2.284-2.405 3.73 3.73 0 0 0-1.514-.288c-.913 0-1.7.262-2.443.813-.101.075-.486.436-.857.802L8 3.29l-.674-.666c-.679-.673-.868-.834-1.245-1.062a4.12 4.12 0 0 0-2.388-.548m.979 1.568c.242.065.543.2.76.34.093.061.632.576 1.361 1.302L8 5.426l1.193-1.191c.921-.918 1.241-1.22 1.399-1.323a2.533 2.533 0 0 1 3.328.508c.205.247.433.701.512 1.02.05.205.059.317.06.76.002.712-.077 1.094-.328 1.591-.227.448-.273.498-3.274 3.502L8 13.187l-2.89-2.894C2.119 7.298 2.061 7.237 1.841 6.8c-.264-.523-.333-.85-.333-1.573.001-.667.042-.871.265-1.32a2.507 2.507 0 0 1 1.772-1.362c.257-.054.862-.034 1.127.037"/>
</svg>
