<svg xmlns="http://www.w3.org/2000/svg" width="20" height="20" viewBox="0 0 20 20">
  <path d="M1.837 8.751a1 1 0 1 0 1.326 1.498L1.837 8.75zm15 1.498a1 1 0 1 0 1.326-1.498l-1.326 1.498zM5 7.286l-.65-.76-.007.006-.006.005.663.749zm5-2.969 4.35 3.728 1.3-1.519L11.303 2.8 10 4.317zm4.337 3.717 2.5 2.215 1.326-1.498-2.5-2.214-1.326 1.497zM14 7.286V15h2V7.286h-2zM13 16H7v2h6v-2zM8.698 2.799 4.35 6.526l1.302 1.519L10 4.317 8.698 2.8zM4.337 6.537l-2.5 2.214 1.326 1.498 2.5-2.215-1.326-1.497zM6 15V7.286H4V15h2zm10-7.714V3h-2v4.286h2zM14 15a1 1 0 0 1-1 1v2a3 3 0 0 0 3-3h-2zm-7 1a1 1 0 0 1-1-1H4a3 3 0 0 0 3 3v-2zm4.302-13.201a2 2 0 0 0-2.604 0L10 4.317 11.302 2.8z"/>
</svg>
