<svg width="16" height="16" viewBox="0 0 16 16" fill="none" xmlns="http://www.w3.org/2000/svg">
<path fill-rule="evenodd" clip-rule="evenodd" d="M6.76257 1.67678C7.44598 0.993362 8.55402 0.99336 9.23744 1.67678L15 7.43934C15.2929 7.73223 15.2929 8.20711 15 8.5V8.5C14.7071 8.7929 14.2322 8.79289 13.9393 8.5L13.75 8.31066V12C13.75 13.5188 12.5188 14.75 11 14.75H5C3.48122 14.75 2.25 13.5188 2.25 12V8.31066L2.06066 8.5C1.76777 8.7929 1.2929 8.7929 1 8.5V8.5C0.70711 8.20711 0.707109 7.73224 1 7.43934L6.76257 1.67678ZM3.75 6.81066V12C3.75 12.6904 4.30965 13.25 5 13.25H11C11.6904 13.25 12.25 12.6904 12.25 12V6.81066L8.17678 2.73744C8.07915 2.63981 7.92086 2.63981 7.82323 2.73744L3.75 6.81066Z" fill="black"/>
</svg>
