<svg xmlns="http://www.w3.org/2000/svg" fill="currentColor" class="vi" viewBox="0 0 16 16"><path fill-rule="evenodd" d="M8.16 1.61a.25.25 0 0 0-.32 0L2.59 6.02a.25.25 0 0 0-.09.2v8.03c0 .14.11.25.25.25H5V9.25C5 8.56 5.56 8 6.25 8h3.5c.69 0 1.25.56 1.25 1.25v5.25h2.25c.14 0 .25-.11.25-.25V6.22a.25.25 0 0 0-.09-.2l-5.25-4.4ZM6.87.47c.66-.55 1.6-.55 2.26 0l5.25 4.4c.4.34.62.83.62 1.35v8.03c0 .97-.78 1.75-1.75 1.75h-2.5c-.69 0-1.25-.56-1.25-1.25V9.5h-3v5.25c0 .69-.56 1.25-1.25 1.25h-2.5C1.78 16 1 15.22 1 14.25V6.22c0-.52.23-1.01.62-1.34L6.87.47Z"/></svg>