<svg xmlns="http://www.w3.org/2000/svg" fill="currentColor" class="vi" viewBox="0 0 16 16"><path d="M7.75 7.75a1.75 1.75 0 1 1-3.5 0 1.75 1.75 0 0 1 3.5 0m1.25-1A.75.75 0 0 1 9.75 6h3a.75.75 0 0 1 0 1.5h-3A.75.75 0 0 1 9 6.75m0 2.5a.75.75 0 0 1 .75-.75h2a.75.75 0 0 1 0 1.5h-2A.75.75 0 0 1 9 9.25"/><path d="M2.75 2A2.75 2.75 0 0 0 0 4.75v6.5A2.75 2.75 0 0 0 2.75 14h10.5A2.75 2.75 0 0 0 16 11.25v-6.5A2.75 2.75 0 0 0 13.25 2zm6.373 10.5c.05-.063.099-.127.145-.193.308-.436.322-1.11-.185-1.279a9.75 9.75 0 0 0-6.166 0c-.507.17-.493.843-.185 1.279.046.066.095.13.145.193H2.75c-.69 0-1.25-.56-1.25-1.25V5h13v6.25c0 .69-.56 1.25-1.25 1.25z"/></svg>