<svg xmlns="http://www.w3.org/2000/svg" viewBox="0 0 20 16" fill="currentColor">
  <path fill-rule="evenodd" d="M7.5 9.5a2.5 2.5 0 1 0 0-5 2.5 2.5 0 0 0 0 5zm0-1.5a1 1 0 1 1 0-2 1 1 0 0 1 0 2z"/>
  <path d="M15.25 5h-3a.75.75 0 0 0 0 1.5h3a.75.75 0 0 0 0-1.5zm-3 3h3a.75.75 0 0 1 0 1.5h-3a.75.75 0 0 1 0-1.5z"/>
  <path fill-rule="evenodd" d="M17 15a2 2 0 0 0 2-2V3a2 2 0 0 0-2-2H3a2 2 0 0 0-2 2v10a2 2 0 0 0 2 2h14zm.5-11.5V13a.5.5 0 0 1-.5.5h-5.087c.157-.584.112-1.22-.22-1.709-.383-.56-.93-.953-1.56-1.063a15.3 15.3 0 0 0-5.267 0c-.63.11-1.176.503-1.558 1.063-.333.489-.378 1.125-.221 1.709H3a.5.5 0 0 1-.5-.5V3.5h15zM4.715 13.484a1.108 1.108 0 0 1-.21-.534c-.02-.195.026-.29.043-.314.194-.286.412-.401.576-.43a13.799 13.799 0 0 1 4.752 0c.164.029.382.144.576.43.018.025.064.12.043.314a1.108 1.108 0 0 1-.21.534l-.012.016H4.727l-.012-.016z"/>
</svg>
