<svg xmlns="http://www.w3.org/2000/svg" width="16" height="16" fill="currentColor" class="vi" viewBox="0 0 16 16"><path d="M6 9.5A1.75 1.75 0 1 0 6 6a1.75 1.75 0 0 0 0 3.5ZM9.75 6a.75.75 0 0 0 0 1.5h3a.75.75 0 0 0 0-1.5h-3Zm0 2.5a.75.75 0 0 0 0 1.5h2a.75.75 0 0 0 0-1.5h-2Z"/><path d="M0 3.75C0 2.78.78 2 1.75 2h12.5c.97 0 1.75.78 1.75 1.75v8.5c0 .97-.78 1.75-1.75 1.75H1.75C.78 14 0 13.22 0 12.25v-8.5Zm14.25 8.75c.14 0 .25-.11.25-.25V5h-13v7.25c0 .14.11.25.25.25h1.13l-.15-.2c-.3-.43-.32-1.1.19-1.27 2-.67 4.16-.67 6.16 0 .51.17.5.84.19 1.28l-.15.19h5.13Z"/></svg>