<svg xmlns="http://www.w3.org/2000/svg" fill="currentColor" class="vi" viewBox="0 0 16 16"><path d="M6 9.5A1.75 1.75 0 1 0 6 6a1.75 1.75 0 0 0 0 3.5ZM9.75 6a.75.75 0 0 0 0 1.5h3a.75.75 0 0 0 0-1.5h-3Zm0 2.5a.75.75 0 0 0 0 1.5h2a.75.75 0 0 0 0-1.5h-2Z"/><path d="M0 3.75C0 2.784.784 2 1.75 2h12.5c.966 0 1.75.784 1.75 1.75v8.5A1.75 1.75 0 0 1 14.25 14H1.75A1.75 1.75 0 0 1 0 12.25v-8.5Zm14.25 8.75a.25.25 0 0 0 .25-.25V5h-13v7.25c0 .138.112.25.25.25h1.127a4.028 4.028 0 0 1-.145-.193c-.308-.436-.322-1.11.185-1.279a9.75 9.75 0 0 1 6.166 0c.507.17.493.843.185 1.279-.046.066-.095.13-.145.193h5.127Z"/></svg>