<svg xmlns="http://www.w3.org/2000/svg" viewBox="0 0 20 16" fill="currentColor">
  <path fill-rule="evenodd" d="M7.5 10a2.5 2.5 0 1 0 0-5 2.5 2.5 0 0 0 0 5Zm0-1.5a1 1 0 1 1 0-2 1 1 0 0 1 0 2Z"/>
  <path d="M15.25 5.5h-3a.75.75 0 0 0 0 1.5h3a.75.75 0 0 0 0-1.5Zm-3 2.5h3a.75.75 0 0 1 0 1.5h-3a.75.75 0 0 1 0-1.5Z"/>
  <path fill-rule="evenodd" d="M3 1.5a2 2 0 0 0-2 2v9c0 1.1.9 2 2 2h14a2 2 0 0 0 2-2v-9a2 2 0 0 0-2-2H3ZM17.5 4v8.5a.5.5 0 0 1-.5.5h-5.8c.1-.39.06-.8-.2-1.12a2.06 2.06 0 0 0-1.3-.72 15.44 15.44 0 0 0-4.4 0c-.52.07-.98.34-1.3.72A1.2 1.2 0 0 0 3.8 13H3a.5.5 0 0 1-.5-.5V4h15ZM5.69 13l-.35-.3a.57.57 0 0 1 .18-.06c1.31-.19 2.65-.19 3.96 0 .07.01.13.03.18.06-.1.1-.23.2-.35.3H5.69Z"/>
</svg>
