<svg xmlns="http://www.w3.org/2000/svg" viewBox="0 0 20 16" fill="currentColor">
  <path fill-rule="evenodd" d="M7.5 9.5a2.5 2.5 0 1 0 0-5 2.5 2.5 0 0 0 0 5zm0-1.5a1 1 0 1 1 0-2 1 1 0 0 1 0 2z"/>
  <path d="M15.25 5h-3a.75.75 0 0 0 0 1.5h3a.75.75 0 0 0 0-1.5zm-3 3h3a.75.75 0 0 1 0 1.5h-3a.75.75 0 0 1 0-1.5z"/>
  <path fill-rule="evenodd" d="M17 15a2 2 0 0 0 2-2V3a2 2 0 0 0-2-2H3a2 2 0 0 0-2 2v10a2 2 0 0 0 2 2h14zm.5-11.5V13a.5.5 0 0 1-.5.5h-5.09c.16-.58.12-1.22-.22-1.7a2.42 2.42 0 0 0-1.56-1.07 15.3 15.3 0 0 0-5.26 0c-.63.1-1.18.5-1.56 1.06a2.08 2.08 0 0 0-.22 1.71H3a.5.5 0 0 1-.5-.5V3.5h15zM4.71 13.48a1.1 1.1 0 0 1-.2-.53c-.02-.2.02-.29.04-.31.2-.29.41-.4.57-.43a13.8 13.8 0 0 1 4.76 0c.16.02.38.14.57.43.02.02.07.12.05.31a1.1 1.1 0 0 1-.22.53v.02H4.72l-.02-.02z"/>
</svg>
