<svg xmlns="http://www.w3.org/2000/svg" viewBox="0 0 16 16" fill="currentColor">
  <path fill-rule="evenodd" d="M2.507 1.068A1.991 1.991 0 0 0 1.215 2.12C.982 2.593 1 2.107 1 8s-.018 5.407.215 5.88c.259.526.713.895 1.305 1.06l.213.059 5.054.009c3.411.005 5.149-.001 5.349-.02.452-.043.787-.171 1.097-.42.347-.279.591-.659.707-1.101l.06-.227V2.76l-.06-.227c-.182-.694-.643-1.191-1.341-1.444l-.172-.062-5.36-.006c-5.224-.005-5.365-.004-5.56.047m10.714 1.489a.457.457 0 0 1 .229.235c.04.078.043.538.043 5.208s-.003 5.13-.043 5.208a.457.457 0 0 1-.229.235c-.096.049-.247.05-5.221.05-4.67 0-5.13-.003-5.208-.043a.457.457 0 0 1-.235-.229c-.049-.096-.05-.247-.05-5.221s.001-5.125.05-5.221a.464.464 0 0 1 .23-.228c.072-.038.58-.042 5.207-.043 4.981-.001 5.131 0 5.227.049m-2.454 1.47a1.082 1.082 0 0 0-.679.573c-.064.138-.074.193-.074.4.001.206.011.263.075.403.095.206.301.411.511.509.137.063.194.074.4.074.214 0 .259-.009.413-.082.22-.105.384-.27.49-.491.074-.154.083-.199.083-.413 0-.214-.009-.259-.083-.413a.979.979 0 0 0-.842-.575 1.317 1.317 0 0 0-.294.015"/>
</svg>
