<svg xmlns="http://www.w3.org/2000/svg" fill="currentColor" class="vi" viewBox="0 0 16 16"><path d="M10.5 7a1.5 1.5 0 1 0 0-3 1.5 1.5 0 0 0 0 3"/><path d="M3.75 1A2.75 2.75 0 0 0 1 3.75v8.5A2.75 2.75 0 0 0 3.75 15h8.5A2.75 2.75 0 0 0 15 12.25v-8.5A2.75 2.75 0 0 0 12.25 1zM2.5 3.75c0-.69.56-1.25 1.25-1.25h8.5c.69 0 1.25.56 1.25 1.25v8.5c0 .69-.56 1.25-1.25 1.25h-.19L6.738 8.177a1.75 1.75 0 0 0-2.474 0L2.5 9.939zm3.177 5.487L9.939 13.5H3.75c-.69 0-1.25-.56-1.25-1.25v-.19l2.823-2.823a.25.25 0 0 1 .354 0"/></svg>