<svg xmlns="http://www.w3.org/2000/svg" viewBox="0 0 16 16" fill="currentColor">
  <path d="M2.52 1.056a2.634 2.634 0 0 0-.4.156 1.924 1.924 0 0 0-.908.908C.981 2.594 1 2.059 1 8c0 5.905-.017 5.398.196 5.85.191.407.52.74.924.936.484.234-.068.214 5.88.214 5.05 0 5.274-.002 5.453-.05a2.067 2.067 0 0 0 1.497-1.497c.048-.179.05-.403.05-5.453 0-5.05-.002-5.274-.05-5.453a2.058 2.058 0 0 0-1.099-1.351c-.417-.196.03-.182-5.864-.18-4.532.002-5.33.007-5.467.04m10.701 1.501a.457.457 0 0 1 .229.235c.04.078.043.538.043 5.208s-.003 5.13-.043 5.208c-.116.228-.238.285-.615.285h-.288L9.84 10.79C8.02 8.972 7.078 8.05 6.963 7.973a2.742 2.742 0 0 0-3.046-.02c-.123.081-.488.382-.81.67l-.587.523-.007-3.134c-.006-3.032-.005-3.137.044-3.233a.464.464 0 0 1 .23-.228c.072-.038.58-.042 5.207-.043 4.981-.001 5.131 0 5.227.049m-3.05 1.481a1.53 1.53 0 0 0-1.115 1.073c-.055.212-.055.597 0 .784.148.504.545.901 1.049 1.049.165.049.564.056.748.014.234-.054.502-.206.692-.393a1.49 1.49 0 0 0-.248-2.329 1.58 1.58 0 0 0-1.126-.198M5.746 9.045c.325.083.3.06 2.561 2.318l2.133 2.13H6.659c-3.658 0-3.784-.001-3.88-.05a.457.457 0 0 1-.229-.235c-.038-.074-.043-.214-.043-1.067l.001-.981 1.08-.958a38.59 38.59 0 0 1 1.166-1.011c.294-.182.647-.234.992-.146"/>
</svg>
