<svg xmlns="http://www.w3.org/2000/svg" fill="currentColor" class="vi" viewBox="0 0 16 16"><path d="M11.5 5.5a1 1 0 1 0 0-2 1 1 0 0 0 0 2"/><path d="M10.5 0a5.5 5.5 0 0 0-5.431 6.37l-4.85 4.85a.75.75 0 0 0-.219.53v3.5c0 .414.336.75.75.75h3.5a.75.75 0 0 0 .75-.75V14h1.25a.75.75 0 0 0 .75-.75V12h1.25a.75.75 0 0 0 .53-.22l.85-.849A5.5 5.5 0 1 0 10.5 0m-4 5.5a4 4 0 1 1 3.058 3.889.75.75 0 0 0-.706.198l-.913.913H6.25a.75.75 0 0 0-.75.75v1.25H4.25a.75.75 0 0 0-.75.75v1.25h-2v-2.44l4.913-4.912a.75.75 0 0 0 .198-.706A4.012 4.012 0 0 1 6.5 5.5"/></svg>