<svg xmlns="http://www.w3.org/2000/svg" fill="currentColor" class="vi" viewBox="0 0 16 16"><path d="M3.75 5.75a.75.75 0 1 1-1.5 0 .75.75 0 0 1 1.5 0M5 6.5A.75.75 0 1 0 5 5a.75.75 0 0 0 0 1.5m2.75-.75a.75.75 0 1 1-1.5 0 .75.75 0 0 1 1.5 0M9 6.5A.75.75 0 1 0 9 5a.75.75 0 0 0 0 1.5m2.75-.75a.75.75 0 1 1-1.5 0 .75.75 0 0 1 1.5 0M13 6.5A.75.75 0 1 0 13 5a.75.75 0 0 0 0 1.5M4.75 7.75a.75.75 0 1 1-1.5 0 .75.75 0 0 1 1.5 0M6 8.5A.75.75 0 1 0 6 7a.75.75 0 0 0 0 1.5m2.75-.75a.75.75 0 1 1-1.5 0 .75.75 0 0 1 1.5 0M10 8.5A.75.75 0 1 0 10 7a.75.75 0 0 0 0 1.5m2.75-.75a.75.75 0 1 1-1.5 0 .75.75 0 0 1 1.5 0M5.25 9.5a.75.75 0 0 0 0 1.5h5.5a.75.75 0 0 0 0-1.5z"/><path d="M0 5.25A2.75 2.75 0 0 1 2.75 2.5h10.5A2.75 2.75 0 0 1 16 5.25v5.5a2.75 2.75 0 0 1-2.75 2.75H2.75A2.75 2.75 0 0 1 0 10.75zM2.75 4c-.69 0-1.25.56-1.25 1.25v5.5c0 .69.56 1.25 1.25 1.25h10.5c.69 0 1.25-.56 1.25-1.25v-5.5c0-.69-.56-1.25-1.25-1.25z"/></svg>