<svg xmlns="http://www.w3.org/2000/svg" viewBox="0 0 20 16" fill="currentColor">
  <path d="M13.5 10V6.25a.75.75 0 0 0-1.5 0V10H8.25a.75.75 0 0 0 0 1.5H12v3.75a.75.75 0 0 0 1.5 0V11.5h3.75a.75.75 0 0 0 0-1.5H13.5z"/>
  <path d="M9.12 1.94a.25.25 0 0 0-.24 0L3.89 4.78a.25.25 0 0 0 0 .44l4.99 2.85a.25.25 0 0 0 .24 0l1.38-.79V8.5H8.25a2.24 2.24 0 0 0-1.12.3L3.15 6.52a1.75 1.75 0 0 1 0-3.04L8.13.63a1.75 1.75 0 0 1 1.74 0l4.98 2.85A1.75 1.75 0 0 1 15 6.43v-.18A2.25 2.25 0 0 0 12.74 4L9.12 1.94zm-3.1 8.5L3.9 9.21a.25.25 0 0 1 0-.44l.1-.05-1.37-.79c-.6.8-.43 2.03.53 2.58l4.98 2.85a1.75 1.75 0 0 0 1.74 0l.63-.36H8.25a2.25 2.25 0 0 1-2.23-2.57zm9.64-1.94H15v-.34l.38-.22c.13.17.22.36.28.56z"/>
</svg>
