<svg xmlns="http://www.w3.org/2000/svg" viewBox="0 0 20 16" fill="currentColor">
  <path d="M13.5 10V6.25a.75.75 0 0 0-1.5 0V10H8.25a.75.75 0 0 0 0 1.5H12v3.75a.75.75 0 0 0 1.5 0V11.5h3.75a.75.75 0 0 0 0-1.5H13.5z"/>
  <path d="M9.124 1.935a.25.25 0 0 0-.248 0L3.892 4.783a.25.25 0 0 0 0 .434l4.984 2.848a.25.25 0 0 0 .248 0L10.5 7.28V8.5H8.25a2.24 2.24 0 0 0-1.117.297L3.147 6.519c-1.175-.671-1.175-2.367 0-3.038L8.132.632a1.75 1.75 0 0 1 1.736 0l4.985 2.849c1.124.642 1.173 2.22.147 2.945V6.25A2.25 2.25 0 0 0 12.738 4L9.124 1.935zm-3.102 8.499-2.13-1.217a.25.25 0 0 1 0-.434l.096-.055-1.371-.784c-.605.799-.428 2.028.53 2.575l4.985 2.849a1.75 1.75 0 0 0 1.736 0l.632-.361V13H8.25a2.25 2.25 0 0 1-2.228-2.566zM15.663 8.5H15v-.337l.383-.22c.129.17.222.36.28.557z"/>
</svg>
