<svg xmlns="http://www.w3.org/2000/svg" fill="currentColor" class="vi" viewBox="0 0 16 16"><path d="M7.863 1.737a.25.25 0 0 1 .274 0l6.178 4.054a.25.25 0 0 1 0 .418l-1.348.884a4.97 4.97 0 0 1 1.701.678l.47-.308a1.75 1.75 0 0 0 0-2.926L8.96.483a1.75 1.75 0 0 0-1.92 0L.862 4.537a1.75 1.75 0 0 0 0 2.926l6.162 4.044c.053-.54.192-1.055.402-1.53l-5.74-3.768a.25.25 0 0 1 0-.418l6.177-4.054Zm.762 13.952a5.01 5.01 0 0 1-1.227-1.731l-5.713-3.749a.25.25 0 0 1 0-.418l.69-.453-1.299-.941-.214.14a1.75 1.75 0 0 0 0 2.926l6.178 4.054a1.75 1.75 0 0 0 1.585.172Z"/><path d="M16 12a4 4 0 1 1-8 0 4 4 0 0 1 8 0Zm-4-2.5a.5.5 0 0 0-.5.5v1.5H10a.5.5 0 1 0 0 1h1.5V14a.5.5 0 0 0 1 0v-1.5H14a.5.5 0 1 0 0-1h-1.5V10a.5.5 0 0 0-.5-.5Z"/></svg>