<svg xmlns="http://www.w3.org/2000/svg" viewBox="0 0 20 16" fill="currentColor">
  <path d="M8.88 1.93a.25.25 0 0 1 .24 0l4.57 2.61c.8.16 1.45.74 1.7 1.5.6-.79.42-2.01-.54-2.56L9.87.63a1.8 1.8 0 0 0-1.74 0L3.15 3.48a1.75 1.75 0 0 0 0 3.04l4.55 2.6c.4-.38.95-.62 1.55-.62H11V7L9.12 8.06a.25.25 0 0 1-.24 0L3.89 5.22a.25.25 0 0 1 0-.44l4.99-2.85zM3.9 9.22 7 11c.13 1.13 1.08 2 2.24 2h1.26l-.64.37c-.54.3-1.2.3-1.74 0l-4.98-2.85a1.75 1.75 0 0 1-.53-2.58l1.37.79-.1.05a.25.25 0 0 0 0 .44zm11.6-.72h.16a1.8 1.8 0 0 0-.16-.38v.38z"/>
  <path d="M14 6.75V10h3.25a.75.75 0 0 1 0 1.5H14v3.25a.75.75 0 0 1-1.5 0V11.5H9.25a.75.75 0 0 1 0-1.5h3.25V6.75a.75.75 0 0 1 1.5 0z"/>
</svg>
