<svg xmlns="http://www.w3.org/2000/svg" fill="currentColor" class="vi" viewBox="0 0 16 16"><path d="M7.86 1.74c.09-.06.2-.06.28 0l6.17 4.05c.15.1.15.32 0 .42l-1.34.88c.61.12 1.19.36 1.7.68l.47-.3a1.75 1.75 0 0 0 0-2.93L8.96.48a1.75 1.75 0 0 0-1.92 0L.86 4.54a1.75 1.75 0 0 0 0 2.92l6.16 4.05c.06-.54.2-1.06.4-1.53L1.7 6.2a.25.25 0 0 1 0-.42l6.17-4.05Zm.76 13.95a5.01 5.01 0 0 1-1.22-1.73L1.69 10.2a.25.25 0 0 1 0-.42l.69-.45-1.3-.94-.22.14a1.75 1.75 0 0 0 0 2.92l6.18 4.06c.48.3 1.07.37 1.58.17Z"/><path d="M16 12a4 4 0 1 1-8 0 4 4 0 0 1 8 0Zm-4-2.5a.5.5 0 0 0-.5.5v1.5H10a.5.5 0 1 0 0 1h1.5V14a.5.5 0 0 0 1 0v-1.5H14a.5.5 0 1 0 0-1h-1.5V10a.5.5 0 0 0-.5-.5Z"/></svg>