<svg xmlns="http://www.w3.org/2000/svg" viewBox="0 0 20 16" fill="currentColor">
  <path fill-rule="evenodd" d="M10.868 1.632a1.75 1.75 0 0 0-1.736 0L4.147 4.481c-1.175.671-1.175 2.367 0 3.038l4.985 2.849a1.75 1.75 0 0 0 1.736 0l4.985-2.849c1.175-.671 1.175-2.367 0-3.038l-4.985-2.849zm-.992 1.303a.25.25 0 0 1 .248 0l4.984 2.848a.25.25 0 0 1 0 .434l-4.984 2.848a.25.25 0 0 1-.248 0L4.892 6.217a.25.25 0 0 1 0-.434l4.984-2.848z"/>
  <path d="M4.147 11.52c-.958-.548-1.135-1.777-.53-2.576l1.371.784-.096.055a.25.25 0 0 0 0 .434l4.984 2.848a.25.25 0 0 0 .248 0l4.985-2.848a.25.25 0 0 0 0-.434l-.097-.055 1.371-.784c.605.799.429 2.027-.53 2.575l-4.985 2.849a1.75 1.75 0 0 1-1.736 0l-4.985-2.849z"/>
</svg>
