<svg xmlns="http://www.w3.org/2000/svg" viewBox="0 0 20 16" fill="currentColor"><path d="M9.94 1.7a.25.25 0 0 1 .26 0l6.32 3.84c.16.1.16.33 0 .42l-1.9 1.15c.5.2.9.6 1.05 1.12l1.63-.98a1.75 1.75 0 0 0 0-3L10.98.42a1.75 1.75 0 0 0-1.82 0L2.84 4.25a1.75 1.75 0 0 0 0 3l6.32 3.83.08.04c.3-.52.86-.87 1.51-.87h1.5v-1.5l.01-.2-2.06 1.24a.25.25 0 0 1-.26 0L3.62 5.96a.25.25 0 0 1 0-.42L9.94 1.7Zm5.81 7.65v.22l.77.47c.08.04.12.13.12.21h.61c.32 0 .62.09.88.23a1.74 1.74 0 0 0-.83-1.73l-.28-.17-1.27.77ZM10.2 14.3l.9-.55h1.15v1.06l-1.27.77c-.56.34-1.26.34-1.82 0l-6.32-3.83a1.75 1.75 0 0 1 0-3l.28-.17 1.45.88-.95.58a.25.25 0 0 0 0 .42l6.32 3.83c.08.05.18.05.26 0Z"/><path d="M14.75 8.75v2.5h2.5a.75.75 0 0 1 0 1.5h-2.5v2.5a.75.75 0 0 1-1.5 0v-2.5h-2.5a.75.75 0 0 1 0-1.5h2.5v-2.5a.75.75 0 0 1 1.5 0Z"/></svg>