<svg xmlns="http://www.w3.org/2000/svg" viewBox="0 0 20 16" fill="currentColor">
  <path d="M9.876 1.935a.25.25 0 0 1 .248 0l4.984 2.848a.25.25 0 0 1 0 .434L14 5.851v1.727l1.853-1.059c1.175-.671 1.175-2.367 0-3.038L10.868.632a1.75 1.75 0 0 0-1.736 0L4.147 3.481c-1.175.671-1.175 2.367 0 3.038l2.666 1.523A2.26 2.26 0 0 1 7.25 8H9.5v-.15L4.892 5.217a.25.25 0 0 1 0-.434l4.984-2.848zM4.892 9.217l.283.162a2.243 2.243 0 0 0-.008 1.723l-1.02-.583c-.958-.547-1.135-1.776-.53-2.575l1.371.784-.096.055a.25.25 0 0 0 0 .434zm4.24 4.151L7.613 12.5H9.5v1.025a1.75 1.75 0 0 1-.368-.157z"/>
  <path d="M12.5 5.75V9.5h3.75a.75.75 0 0 1 0 1.5H12.5v4.25a.75.75 0 0 1-1.5 0V11H7.25a.75.75 0 0 1 0-1.5H11V5.75a.75.75 0 0 1 1.5 0z"/>
</svg>
