<svg xmlns="http://www.w3.org/2000/svg" viewBox="0 0 16 16" fill="currentColor"><path d="M8.44.14a.75.75 0 0 0-.88 0L.31 5.4a.75.75 0 0 0 0 1.22l6.72 4.86c.05-.54.2-1.07.42-1.54L2.03 6 8 1.68 13.97 6l-1.42 1.03c.64.07 1.25.26 1.8.55l1.34-.97a.75.75 0 0 0 0-1.22L8.44.14ZM2.03 10l5.33 3.86a5 5 0 0 0 1.29 1.85l-.21.15a.75.75 0 0 1-.88 0L.31 10.6a.75.75 0 0 1 0-1.22l1.07-.77 1.28.92-.63.46Z"/><path d="M16 12a4 4 0 1 1-8 0 4 4 0 0 1 8 0Zm-4-2.5a.5.5 0 0 0-.5.5v1.5H10a.5.5 0 1 0 0 1h1.5V14a.5.5 0 0 0 1 0v-1.5H14a.5.5 0 1 0 0-1h-1.5V10a.5.5 0 0 0-.5-.5Z"/></svg>