<svg xmlns="http://www.w3.org/2000/svg" fill="currentColor" class="vi" viewBox="0 0 16 16"><path d="M8.96.483a1.75 1.75 0 0 0-1.92 0L.862 4.537a1.75 1.75 0 0 0 0 2.926l6.178 4.054a1.75 1.75 0 0 0 1.92 0l6.177-4.054a1.75 1.75 0 0 0 0-2.926L8.96.483ZM7.863 1.737a.25.25 0 0 1 .274 0l6.178 4.054a.25.25 0 0 1 0 .418l-6.178 4.054a.25.25 0 0 1-.274 0L1.685 6.209a.25.25 0 0 1 0-.418l6.178-4.054Z"/><path d="m.862 8.537.214-.14 1.3.941-.69.453a.25.25 0 0 0 0 .418l6.177 4.054a.25.25 0 0 0 .274 0l6.178-4.054a.25.25 0 0 0 0-.418l-.69-.453 1.299-.941.213.14a1.75 1.75 0 0 1 0 2.926L8.96 15.517a1.75 1.75 0 0 1-1.92 0L.862 11.463a1.75 1.75 0 0 1 0-2.926Z"/></svg>