<svg xmlns="http://www.w3.org/2000/svg" viewBox="0 0 20 16" fill="currentColor">
  <path d="M8.63 1.68a.25.25 0 0 1 .24 0l6.03 3.35a2.27 2.27 0 0 1 2.43 1.35c.29-.77.03-1.7-.79-2.16L9.6.36a1.77 1.77 0 0 0-1.7 0L.96 4.22c-1.2.67-1.2 2.4 0 3.06l6.94 3.86c.34.18.73.25 1.1.2v-.09C9 10.01 10 9 11.25 9H13V7.53l-4.13 2.3a.25.25 0 0 1-.24 0L1.69 5.96a.25.25 0 0 1 0-.44l6.94-3.85Zm2.62 11.82c-.24 0-.48-.04-.7-.11l-1.68.93a.25.25 0 0 1-.24 0l-6.94-3.85a.25.25 0 0 1 0-.44l.47-.26-1.53-.81c-.86.77-.75 2.22.33 2.82l6.94 3.86c.53.29 1.17.29 1.7 0l3.4-1.9v-.24h-1.75Z"/>
  <path d="M16 7.25v3.25h3.25a.75.75 0 0 1 0 1.5H16v3.25a.75.75 0 0 1-1.5 0V12h-3.25a.75.75 0 0 1 0-1.5h3.25V7.25a.75.75 0 0 1 1.5 0Z"/>
</svg>
