<svg xmlns="http://www.w3.org/2000/svg" viewBox="0 0 20 16" fill="currentColor">
  <path d="M8.876 1.935a.25.25 0 0 1 .248 0l4.564 2.608c.802.158 1.45.742 1.7 1.506.6-.8.42-2.022-.535-2.568L9.868.632a1.75 1.75 0 0 0-1.736 0L3.147 3.481c-1.175.671-1.175 2.367 0 3.038L7.7 9.12c.403-.384.95-.62 1.551-.62H11V6.993L9.124 8.065a.25.25 0 0 1-.248 0L3.892 5.217a.25.25 0 0 1 0-.434l4.984-2.848zM3.892 9.217l3.122 1.784A2.25 2.25 0 0 0 9.25 13h1.262l-.644.368a1.75 1.75 0 0 1-1.736 0l-4.985-2.849c-.958-.547-1.135-1.776-.53-2.575l1.371.784-.096.055a.25.25 0 0 0 0 .434zM15.5 8.5h.163a1.728 1.728 0 0 0-.163-.38v.38z"/>
  <path d="M14 6.75V10h3.25a.75.75 0 0 1 0 1.5H14v3.25a.75.75 0 0 1-1.5 0V11.5H9.25a.75.75 0 0 1 0-1.5h3.25V6.75a.75.75 0 0 1 1.5 0z"/>
</svg>
