<svg xmlns="http://www.w3.org/2000/svg" viewBox="0 0 20 16" fill="currentColor">
  <path fill-rule="evenodd" d="M10.87 1.63a1.8 1.8 0 0 0-1.74 0L4.15 4.48a1.75 1.75 0 0 0 0 3.04l4.98 2.85c.54.3 1.2.3 1.74 0l4.98-2.85a1.75 1.75 0 0 0 0-3.04l-4.98-2.85Zm-1 1.3a.25.25 0 0 1 .25 0l4.99 2.85c.17.1.17.34 0 .44l-4.99 2.85a.25.25 0 0 1-.24 0L4.89 6.22a.25.25 0 0 1 0-.44l4.99-2.85Z"/>
  <path d="M4.15 11.52a1.75 1.75 0 0 1-.53-2.58l1.37.79-.1.05a.25.25 0 0 0 0 .44l4.99 2.85c.07.04.17.04.24 0l4.99-2.85a.25.25 0 0 0 0-.44l-.1-.05 1.37-.79c.6.8.43 2.03-.53 2.58l-4.98 2.85c-.54.3-1.2.3-1.74 0l-4.98-2.85Z"/>
</svg>
