<svg xmlns="http://www.w3.org/2000/svg" viewBox="0 0 20 16" fill="currentColor"><path fill-rule="evenodd" d="M10.9.42a1.75 1.75 0 0 0-1.8 0L2.76 4.25a1.75 1.75 0 0 0 0 3l6.32 3.83c.56.34 1.26.34 1.82 0l6.32-3.83a1.75 1.75 0 0 0 0-3L10.9.42ZM9.88 1.71a.25.25 0 0 1 .26 0l6.32 3.83c.16.1.16.33 0 .42L10.13 9.8a.25.25 0 0 1-.26 0L3.55 5.96a.25.25 0 0 1 0-.42L9.87 1.7Z"/><path d="m2.77 8.75.28-.17 1.45.88-.95.58a.25.25 0 0 0 0 .42l6.32 3.83c.08.05.18.05.26 0l6.32-3.83a.25.25 0 0 0 0-.42l-.95-.58 1.45-.88.28.17a1.75 1.75 0 0 1 0 3l-6.32 3.83c-.56.34-1.26.34-1.82 0l-6.32-3.83a1.75 1.75 0 0 1 0-3Z"/></svg>