<svg xmlns="http://www.w3.org/2000/svg" viewBox="0 0 16 16" fill="currentColor"><path fill-rule="evenodd" d="M8.44.14a.75.75 0 0 0-.88 0L.31 5.4a.75.75 0 0 0 0 1.22l7.25 5.25c.26.19.62.19.88 0l7.25-5.25a.75.75 0 0 0 0-1.22L8.44.14ZM8 10.32 2.03 6 8 1.68 13.97 6 8 10.32ZM.31 9.4l1.07-.77 1.28.92-.63.46L8 14.32 13.97 10l-.63-.46 1.28-.92 1.07.77a.75.75 0 0 1 0 1.22l-7.25 5.25a.75.75 0 0 1-.88 0L.31 10.6a.75.75 0 0 1 0-1.22Z"/><path fill-rule="evenodd" d="M8.44.14a.75.75 0 0 0-.88 0L.31 5.4a.75.75 0 0 0 0 1.22l7.25 5.25c.26.19.62.19.88 0l7.25-5.25a.75.75 0 0 0 0-1.22L8.44.14ZM8 10.32 2.03 6 8 1.68 13.97 6 8 10.32Z"/><path d="m.31 9.4 1.07-.78 1.28.92-.63.46L8 14.32 13.97 10l-.63-.46 1.28-.92 1.07.77a.75.75 0 0 1 0 1.22l-7.25 5.25a.75.75 0 0 1-.88 0L.31 10.6a.75.75 0 0 1 0-1.22Z"/></svg>