<svg xmlns="http://www.w3.org/2000/svg" fill="currentColor" class="vi" viewBox="0 0 16 16"><path d="M7.863 1.737a.25.25 0 0 1 .274 0l6.178 4.054a.25.25 0 0 1 0 .418l-2.95 1.935a4.508 4.508 0 0 1 2.589.096l1.183-.777a1.75 1.75 0 0 0 0-2.926L8.96.483a1.75 1.75 0 0 0-1.92 0L.862 4.537a1.75 1.75 0 0 0 0 2.926l6.178 4.054c.307.202.662.297 1.014.286.12-.776.44-1.487.904-2.079l-.82.539a.25.25 0 0 1-.275 0L1.685 6.209a.25.25 0 0 1 0-.418zm.274 12.526.175-.114a4.5 4.5 0 0 0 .775 1.285l-.127.083a1.75 1.75 0 0 1-1.92 0L.862 11.463a1.75 1.75 0 0 1 0-2.926l.214-.14 1.3.941-.69.453a.25.25 0 0 0 0 .418l6.177 4.054a.25.25 0 0 0 .274 0"/><path d="M16 12.5a3.5 3.5 0 1 1-7 0 3.5 3.5 0 0 1 7 0M12.5 10a.5.5 0 0 0-.5.5V12h-1.5a.5.5 0 1 0 0 1H12v1.5a.5.5 0 0 0 1 0V13h1.5a.5.5 0 1 0 0-1H13v-1.5a.5.5 0 0 0-.5-.5"/></svg>