<svg xmlns="http://www.w3.org/2000/svg" fill="currentColor" class="vi" viewBox="0 0 16 16"><path d="m13.102 14.162.555.555a.75.75 0 1 0 1.06-1.06l-.555-.555A7.968 7.968 0 0 0 16 8c0-1.94-.69-3.717-1.838-5.102l.555-.555a.75.75 0 0 0-1.06-1.06l-.555.555A7.968 7.968 0 0 0 8 0C6.06 0 4.283.69 2.898 1.838l-.555-.556a.75.75 0 1 0-1.06 1.061l.555.555A7.967 7.967 0 0 0 0 8c0 1.94.69 3.717 1.838 5.102l-.556.555a.75.75 0 1 0 1.061 1.06l.555-.555A7.967 7.967 0 0 0 8 16c1.94 0 3.717-.69 5.102-1.838m-.006-2.127-1.787-1.787A3.98 3.98 0 0 0 12 8a3.98 3.98 0 0 0-.691-2.248l1.787-1.787A6.473 6.473 0 0 1 14.5 8a6.472 6.472 0 0 1-1.404 4.035m-1.06 1.061A6.472 6.472 0 0 1 8 14.5a6.473 6.473 0 0 1-4.035-1.404l1.787-1.787A3.98 3.98 0 0 0 8 12a3.98 3.98 0 0 0 2.248-.691zm-9.132-1.06A6.472 6.472 0 0 1 1.5 8a6.47 6.47 0 0 1 1.404-4.035l1.787 1.787A3.982 3.982 0 0 0 4 8c0 .834.255 1.608.691 2.248zM5.752 4.69 3.965 2.904A6.472 6.472 0 0 1 8 1.5a6.47 6.47 0 0 1 4.035 1.404l-1.787 1.787A3.981 3.981 0 0 0 8 4a3.98 3.98 0 0 0-2.248.691M8 10.5a2.5 2.5 0 1 1 0-5 2.5 2.5 0 0 1 0 5"/></svg>