<svg xmlns="http://www.w3.org/2000/svg" viewBox="0 0 20 16" fill="currentColor">
  <path fill-rule="evenodd" d="M6.2 9.477c.71.678 1.3 1.541 1.3 2.523h5c0-.982.59-1.845 1.3-2.523a5.5 5.5 0 1 0-7.599 0zM14 5.5a3.984 3.984 0 0 1-1.237 2.892c-.54.517-1.134 1.228-1.476 2.108H8.713c-.342-.88-.935-1.59-1.476-2.108A4 4 0 1 1 14 5.5z"/>
  <path d="M8.28 15.125A2.08 2.08 0 0 1 7.5 13.5h5a2.08 2.08 0 0 1-.78 1.625l-.265.21a1.198 1.198 0 0 0-.323.4.479.479 0 0 1-.428.265H9.296a.479.479 0 0 1-.428-.265 1.198 1.198 0 0 0-.323-.4l-.264-.21zM3.5 6a.75.75 0 0 1-.75.75h-2a.75.75 0 0 1 0-1.5h2A.75.75 0 0 1 3.5 6zm15.75.75a.75.75 0 0 0 0-1.5h-2a.75.75 0 0 0 0 1.5h2zm-14.88-4a.75.75 0 0 1-1.024.275l-1.732-1a.75.75 0 1 1 .75-1.3l1.732 1a.75.75 0 0 1 .275 1.025zm13.266 8.524a.75.75 0 0 0 .75-1.299l-1.732-1a.75.75 0 0 0-.75 1.3l1.732 1zM4.37 9.25a.75.75 0 0 1-.274 1.024l-1.732 1a.75.75 0 0 1-.75-1.299l1.732-1a.75.75 0 0 1 1.025.275zm14.016-7.225a.75.75 0 0 0-.75-1.3l-1.732 1a.75.75 0 1 0 .75 1.3l1.732-1z"/>
</svg>
