<svg xmlns="http://www.w3.org/2000/svg" viewBox="0 0 20 16" fill="currentColor"><path fill-rule="evenodd" d="M7.5 12.25h5v-.72c0-.35.04-.7.13-1.05.22-.88.77-1.64 1.3-2.39l.14-.18a5 5 0 1 0-8.13 0l.12.18c.54.75 1.09 1.5 1.31 2.4.09.34.13.69.13 1.04v.72Zm6-7.25c0 .76-.24 1.46-.65 2.04l-.15.2c-.51.7-1.23 1.7-1.53 2.88-.05.2-.09.42-.12.63h-2.1a5.82 5.82 0 0 0-.12-.63A8.59 8.59 0 0 0 7.3 7.24l-.15-.2A3.5 3.5 0 1 1 13.5 5Z"/><path d="M8.28 15.12c-.5-.39-.78-.99-.78-1.62h5c0 .63-.29 1.23-.78 1.62l-.26.22c-.14.1-.25.24-.33.4a.48.48 0 0 1-.43.26H9.3a.48.48 0 0 1-.43-.26 1.2 1.2 0 0 0-.33-.4l-.26-.22ZM4 5c0 .41-.34.75-.75.75h-.5a.75.75 0 0 1 0-1.5h.5c.41 0 .75.34.75.75Zm13.25.75a.75.75 0 0 0 0-1.5h-.5a.75.75 0 0 0 0 1.5h.5ZM4.8 2a.75.75 0 0 1-1.02.27l-.43-.25A.75.75 0 1 1 4.1.72l.43.26c.36.2.48.66.27 1.02Zm11.1 7.27a.75.75 0 0 0 .75-1.3l-.43-.24a.75.75 0 0 0-.75 1.3l.43.24ZM4.8 8c.21.36.09.82-.27 1.02l-.43.25a.75.75 0 0 1-.75-1.3l.43-.24A.75.75 0 0 1 4.8 8Zm11.85-5.98a.75.75 0 0 0-.75-1.3l-.43.26a.75.75 0 1 0 .75 1.3l.43-.26Z"/></svg>