<svg xmlns="http://www.w3.org/2000/svg" fill="currentColor" class="vi" viewBox="0 0 16 16"><path d="M9.3.18a5 5 0 0 0-2.6 0L6.6.2a4.87 4.87 0 0 0-2.33 7.98l.18.2a4.06 4.06 0 0 1 1.05 2.73v1.39h5v-1.4c0-1 .38-1.97 1.05-2.72l.18-.2A4.87 4.87 0 0 0 9.4.2L9.3.18ZM7.1 1.62a3.5 3.5 0 0 1 1.82 0l.1.03a3.37 3.37 0 0 1 1.61 5.53l-.17.19A5.54 5.54 0 0 0 9 11H7a5.56 5.56 0 0 0-1.45-3.63l-.17-.2a3.37 3.37 0 0 1 1.61-5.52l.1-.03ZM7.25 16h1.5c.15 0 .28-.1.33-.24.11-.33.32-.62.6-.83l.04-.03c.34-.26.59-.63.7-1.05l.08-.35h-5l.09.35c.1.42.35.8.7 1.05l.03.03c.28.2.49.5.6.83.05.14.18.24.33.24Z"/></svg>