<svg xmlns="http://www.w3.org/2000/svg" fill="currentColor" class="vi" viewBox="0 0 16 16"><path d="M9.306.176a5 5 0 0 0-2.612 0L6.6.202a4.873 4.873 0 0 0-2.333 7.982l.178.196A4.057 4.057 0 0 1 5.5 11.107V12.5h5v-1.392c0-1.009.376-1.982 1.055-2.729l.178-.195A4.873 4.873 0 0 0 9.4.202zm-2.22 1.448a3.5 3.5 0 0 1 1.828 0l.094.026a3.373 3.373 0 0 1 1.615 5.525l-.178.195A5.557 5.557 0 0 0 9.001 11H6.999a5.557 5.557 0 0 0-1.444-3.63l-.178-.195A3.373 3.373 0 0 1 6.992 1.65zM7.25 16h1.5c.15 0 .282-.095.329-.237.111-.334.322-.626.604-.838l.035-.026c.344-.258.589-.627.693-1.044l.089-.355h-5l.089.355c.104.417.349.786.693 1.044l.035.026c.282.212.493.504.604.838.047.142.18.237.329.237"/></svg>