<svg xmlns="http://www.w3.org/2000/svg" viewBox="0 0 20 16" fill="currentColor">
  <path fill-rule="evenodd" d="M6.2 9.48c.71.67 1.3 1.54 1.3 2.52h5c0-.98.59-1.84 1.3-2.52a5.5 5.5 0 1 0-7.6 0zM14 5.5a3.98 3.98 0 0 1-1.24 2.9 6.01 6.01 0 0 0-1.47 2.1H8.7a6 6 0 0 0-1.47-2.1A4 4 0 1 1 14 5.5z"/>
  <path d="M8.28 15.13a2.08 2.08 0 0 1-.78-1.63h5a2.08 2.08 0 0 1-.78 1.63l-.27.2a1.2 1.2 0 0 0-.32.4.48.48 0 0 1-.43.27H9.3a.48.48 0 0 1-.43-.27 1.2 1.2 0 0 0-.33-.4l-.26-.2zM3.5 6a.75.75 0 0 1-.75.75h-2a.75.75 0 0 1 0-1.5h2A.75.75 0 0 1 3.5 6zm15.75.75a.75.75 0 0 0 0-1.5h-2a.75.75 0 0 0 0 1.5h2zm-14.88-4a.75.75 0 0 1-1.02.28l-1.74-1a.75.75 0 1 1 .75-1.3l1.74 1a.75.75 0 0 1 .27 1.02zm13.27 8.52a.75.75 0 0 0 .75-1.3l-1.74-1a.75.75 0 0 0-.75 1.3l1.74 1zM4.37 9.25a.75.75 0 0 1-.27 1.02l-1.74 1a.75.75 0 0 1-.75-1.3l1.74-1a.75.75 0 0 1 1.02.28zm14.02-7.22a.75.75 0 0 0-.75-1.3l-1.74 1a.75.75 0 1 0 .75 1.3l1.74-1z"/>
</svg>
