<svg xmlns="http://www.w3.org/2000/svg" fill="currentColor" class="vi" viewBox="0 0 16 16"><path d="M6.694.176a5 5 0 0 1 2.612 0L9.4.202a4.873 4.873 0 0 1 2.333 7.982l-.178.196a4.056 4.056 0 0 0-1.055 2.728V12.5h-5v-1.392a4.057 4.057 0 0 0-1.055-2.729l-.178-.195A4.873 4.873 0 0 1 6.6.202zm2.22 1.448a3.5 3.5 0 0 0-1.828 0l-.094.026a3.373 3.373 0 0 0-1.615 5.525l.178.195A5.557 5.557 0 0 1 6.999 11H9a5.557 5.557 0 0 1 1.444-3.63l.178-.195A3.373 3.373 0 0 0 9.008 1.65zM8.75 16h-1.5a.346.346 0 0 1-.329-.237 1.732 1.732 0 0 0-.604-.838l-.035-.026a1.873 1.873 0 0 1-.693-1.044L5.5 13.5h5l-.089.355a1.872 1.872 0 0 1-.693 1.044l-.035.026a1.732 1.732 0 0 0-.604.838.346.346 0 0 1-.329.237M1.072 9a.75.75 0 0 1 .274-1.025l.433-.25a.75.75 0 0 1 .75 1.3l-.433.25A.75.75 0 0 1 1.072 9m12.124-7a.75.75 0 0 1 .275-1.025l.433-.25a.75.75 0 1 1 .75 1.3l-.433.25A.75.75 0 0 1 13.196 2M2.096.725a.75.75 0 0 0-.75 1.3l.433.25a.75.75 0 1 0 .75-1.3zm12.124 7a.75.75 0 0 0-.75 1.3l.434.25a.75.75 0 1 0 .75-1.3zM.75 4.25a.75.75 0 0 0 0 1.5h.5a.75.75 0 1 0 0-1.5zm14 0a.75.75 0 0 0 0 1.5h.5a.75.75 0 0 0 0-1.5z"/></svg>