<svg xmlns="http://www.w3.org/2000/svg" viewBox="0 0 16 16" fill="currentColor"><path d="M6.7.18a5 5 0 0 1 2.6 0l.1.02a4.87 4.87 0 0 1 2.33 7.98l-.18.2a4.06 4.06 0 0 0-1.05 2.73v1.39h-5v-1.4c0-1-.38-1.97-1.05-2.72l-.18-.2A4.87 4.87 0 0 1 6.6.2l.1-.02Zm2.2 1.44a3.5 3.5 0 0 0-1.82 0l-.1.03a3.37 3.37 0 0 0-1.61 5.53l.17.19C6.46 8.37 6.97 9.66 7 11h2a5.56 5.56 0 0 1 1.45-3.63l.17-.2a3.37 3.37 0 0 0-1.61-5.52l-.1-.03ZM8.75 16h-1.5a.35.35 0 0 1-.33-.24 1.73 1.73 0 0 0-.6-.83l-.04-.03a1.87 1.87 0 0 1-.7-1.05l-.08-.35h5l-.09.35c-.1.42-.35.8-.7 1.05l-.03.03c-.28.2-.49.5-.6.83a.35.35 0 0 1-.33.24ZM1.07 9a.75.75 0 0 1 .28-1.02l.43-.25a.75.75 0 0 1 .75 1.3l-.43.24A.75.75 0 0 1 1.07 9ZM13.2 2a.75.75 0 0 1 .27-1.02l.43-.25a.75.75 0 1 1 .75 1.3l-.43.24A.75.75 0 0 1 13.2 2ZM2.1.73a.75.75 0 0 0-.75 1.3l.43.24a.75.75 0 1 0 .75-1.3L2.1.74Zm12.12 7a.75.75 0 0 0-.75 1.3l.43.24a.75.75 0 1 0 .75-1.3l-.43-.24ZM.75 4.25a.75.75 0 0 0 0 1.5h.5a.75.75 0 1 0 0-1.5h-.5Zm14 0a.75.75 0 0 0 0 1.5h.5a.75.75 0 0 0 0-1.5h-.5Z"/></svg>