<svg xmlns="http://www.w3.org/2000/svg" viewBox="0 0 20 16" fill="currentColor"><path fill-rule="evenodd" d="M7.5 12.25h5v-.72c0-.35.04-.7.13-1.05.22-.88.77-1.64 1.3-2.39l.14-.18a5 5 0 1 0-8 .18c.53.75 1.08 1.5 1.3 2.4.09.34.13.69.13 1.04v.72Zm6-7.25c0 .76-.24 1.46-.65 2.04l-.15.2c-.51.7-1.23 1.7-1.53 2.88-.05.2-.09.42-.12.63h-2.1a5.82 5.82 0 0 0-.12-.63 8.59 8.59 0 0 0-1.68-3.08A3.5 3.5 0 1 1 13.5 5Z"/><path d="M8.28 15.12c-.5-.39-.78-.99-.78-1.62h5c0 .63-.29 1.23-.78 1.62l-.26.22c-.14.1-.25.24-.33.4a.48.48 0 0 1-.43.26H9.3a.48.48 0 0 1-.43-.26 1.2 1.2 0 0 0-.33-.4l-.26-.22Z"/></svg>