<svg xmlns="http://www.w3.org/2000/svg" viewBox="0 0 16 16" fill="currentColor">
  <path d="M1.633 1.07a1.164 1.164 0 0 0-.526.492c-.038.079-.08.231-.094.338-.033.259-.033 11.941 0 12.2.015.112.056.257.098.342.095.194.333.414.535.496L1.8 15l6.04.008c4.04.005 6.109-.002 6.249-.02.269-.035.411-.1.586-.266a.994.994 0 0 0 .312-.622c.033-.259.033-11.941 0-12.2a1.297 1.297 0 0 0-.097-.341 1.204 1.204 0 0 0-.483-.474l-.127-.058-6.253-.006c-6.231-.005-6.254-.005-6.394.049m2.931 1.989c.078.026.215.095.303.155.759.516.67 1.681-.158 2.069a1.18 1.18 0 0 1-1.36-.235c-.635-.63-.38-1.69.477-1.987.18-.062.547-.063.738-.002m6.543 3.14c.544.089.855.239 1.187.573.189.189.249.271.352.481.334.684.373 1.093.362 3.814L13 13l-1.032.007-1.032.007-.009-2.007c-.009-1.956-.011-2.012-.067-2.212a2.225 2.225 0 0 0-.115-.32c-.175-.349-.548-.53-1.015-.491-.57.047-.882.314-1.044.891-.055.199-.058.263-.072 2.165L8.6 13l-1.033.007-1.034.007V6.32h2l.001.46c.001.368.008.451.034.416l.151-.209c.207-.287.624-.58 1.004-.704.384-.126.925-.159 1.384-.084m-5.88 3.468v3.347l-1.034-.007L3.16 13l-.007-3.34-.007-3.34h2.081v3.347"/>
</svg>
