<svg xmlns="http://www.w3.org/2000/svg" fill="currentColor" class="vi" viewBox="0 0 16 16"><path fill-rule="evenodd" d="M12 16a4 4 0 1 0 0-8 4 4 0 0 0 0 8Zm-1.146-5.854a.5.5 0 0 0-.708.708L11.293 12l-1.147 1.146a.5.5 0 0 0 .708.708L12 12.707l1.146 1.147a.5.5 0 0 0 .708-.708L12.707 12l1.147-1.146a.5.5 0 0 0-.708-.708L12 11.293l-1.146-1.147ZM4.28.97a.75.75 0 0 1 0 1.06l-2 2a.75.75 0 0 1-1.06 0l-1-1a.75.75 0 1 1 1.06-1.06l.47.47L3.22.97a.75.75 0 0 1 1.06 0ZM5.5 2.75A.75.75 0 0 1 6.25 2h9a.75.75 0 0 1 0 1.5h-9a.75.75 0 0 1-.75-.75ZM5.5 8a.75.75 0 0 1 .75-.75h4.184A5.006 5.006 0 0 0 8.2 8.75H6.25A.75.75 0 0 1 5.5 8Zm1.525 4.5a4.96 4.96 0 0 0 .391 1.5H6.25a.75.75 0 0 1 0-1.5h.775Zm8.655-3.885a5.003 5.003 0 0 0-2.114-1.365h1.684a.75.75 0 0 1 .43 1.365ZM4.28 7.28a.75.75 0 0 0-1.06-1.06L1.75 7.69l-.47-.47A.75.75 0 0 0 .22 8.28l1 1a.75.75 0 0 0 1.06 0l2-2Zm0 4.19a.75.75 0 0 1 0 1.06l-2 2a.75.75 0 0 1-1.06 0l-1-1a.75.75 0 1 1 1.06-1.06l.47.47 1.47-1.47a.75.75 0 0 1 1.06 0Z"/><path d="M12 16a4 4 0 1 0 0-8 4 4 0 0 0 0 8Zm-1.146-5.854L12 11.293l1.146-1.147a.5.5 0 0 1 .708.708L12.707 12l1.147 1.146a.5.5 0 0 1-.708.708L12 12.707l-1.146 1.147a.5.5 0 0 1-.708-.708L11.293 12l-1.147-1.146a.5.5 0 0 1 .708-.708ZM4.28.97a.75.75 0 0 1 0 1.06l-2 2a.75.75 0 0 1-1.06 0l-1-1a.75.75 0 1 1 1.06-1.06l.47.47L3.22.97a.75.75 0 0 1 1.06 0ZM5.5 2.75A.75.75 0 0 1 6.25 2h9a.75.75 0 0 1 0 1.5h-9a.75.75 0 0 1-.75-.75ZM5.5 8a.75.75 0 0 1 .75-.75h4.184A5.006 5.006 0 0 0 8.2 8.75H6.25A.75.75 0 0 1 5.5 8Zm1.525 4.5a4.96 4.96 0 0 0 .391 1.5H6.25a.75.75 0 0 1 0-1.5h.775Zm8.655-3.885a5.003 5.003 0 0 0-2.114-1.365h1.684a.75.75 0 0 1 .43 1.365ZM4.28 7.28a.75.75 0 0 0-1.06-1.06L1.75 7.69l-.47-.47A.75.75 0 0 0 .22 8.28l1 1a.75.75 0 0 0 1.06 0l2-2Zm0 4.19a.75.75 0 0 1 0 1.06l-2 2a.75.75 0 0 1-1.06 0l-1-1a.75.75 0 1 1 1.06-1.06l.47.47 1.47-1.47a.75.75 0 0 1 1.06 0Z"/></svg>