<svg xmlns="http://www.w3.org/2000/svg" viewBox="0 0 20 16" fill="currentColor"><path d="M6.25 2.56A.75.75 0 1 0 5.19 1.5L3.75 2.94l-.44-.44a.75.75 0 0 0-1.06 1.06l.97.97c.3.3.77.3 1.06 0l1.97-1.97ZM8 3c0-.41.34-.75.75-.75h8.5a.75.75 0 0 1 0 1.5h-8.5A.75.75 0 0 1 8 3Zm0 5c0-.41.34-.75.75-.75h8.5a.75.75 0 0 1 0 1.5h-8.5A.75.75 0 0 1 8 8Zm.75 4.25a.75.75 0 0 0 0 1.5h8.5a.75.75 0 0 0 0-1.5h-8.5ZM6.25 6.5c.3.3.3.77 0 1.06L4.28 9.53c-.3.3-.77.3-1.06 0l-.97-.97A.75.75 0 0 1 3.31 7.5l.44.44L5.19 6.5c.3-.3.77-.3 1.06 0Z"/></svg>