<svg xmlns="http://www.w3.org/2000/svg" fill="currentColor" class="vi" viewBox="0 0 16 16"><path d="M4.28 2.03A.75.75 0 0 0 3.22.97L1.75 2.44l-.47-.47A.75.75 0 0 0 .22 3.03l1 1a.75.75 0 0 0 1.06 0l2-2ZM6.25 2a.75.75 0 0 0 0 1.5h9a.75.75 0 0 0 0-1.5h-9Zm0 5.25a.75.75 0 0 0 0 1.5h9a.75.75 0 0 0 0-1.5h-9Zm-.75 6a.75.75 0 0 1 .75-.75h9a.75.75 0 0 1 0 1.5h-9a.75.75 0 0 1-.75-.75ZM4.28 6.22a.75.75 0 0 1 0 1.06l-2 2a.75.75 0 0 1-1.06 0l-1-1a.75.75 0 1 1 1.06-1.06l.47.47 1.47-1.47a.75.75 0 0 1 1.06 0Zm0 6.31a.75.75 0 1 0-1.06-1.06l-1.47 1.47-.47-.47a.75.75 0 0 0-1.06 1.06l1 1a.75.75 0 0 0 1.06 0l2-2Z"/></svg>