<svg xmlns="http://www.w3.org/2000/svg" viewBox="0 0 20 16" fill="currentColor">
  <path d="M4.823 5h-.86V2.015c-.1.067-.21.125-.33.172a6.649 6.649 0 0 1-.398.14L3 1.637c.25-.072.485-.163.707-.272.222-.11.42-.231.595-.366h.52v4zM3.08 9.704V10h2.617v-.719H4.075c0-.051.016-.105.047-.162a.699.699 0 0 1 .137-.175 1.75 1.75 0 0 1 .209-.176c.078-.057.159-.116.241-.178.13-.09.254-.185.373-.285a2.25 2.25 0 0 0 .313-.321c.093-.116.168-.244.225-.385.055-.14.082-.301.082-.482 0-.34-.113-.612-.34-.815C5.134 6.1 4.826 6 4.44 6c-.347 0-.64.083-.88.25a1.632 1.632 0 0 0-.56.68l.697.285c.075-.159.165-.284.271-.375a.536.536 0 0 1 .365-.138.53.53 0 0 1 .365.121c.09.08.135.191.135.332a.743.743 0 0 1-.05.283.96.96 0 0 1-.142.23c-.059.075-.131.15-.217.225-.088.075-.19.154-.305.236-.11.079-.225.166-.345.263a2.264 2.264 0 0 0-.338.338 1.834 1.834 0 0 0-.255.43 1.39 1.39 0 0 0-.101.544zm.573 4.212L3 14.299c.126.226.301.4.526.52.225.12.505.181.841.181.42 0 .758-.105 1.017-.316.257-.21.386-.496.386-.857a.88.88 0 0 0-.213-.594.975.975 0 0 0-.585-.31v-.013a.975.975 0 0 0 .512-.348.925.925 0 0 0 .17-.553c0-.315-.107-.562-.32-.742-.215-.178-.52-.267-.915-.267-.317 0-.59.07-.82.21a1.359 1.359 0 0 0-.513.529l.634.305a.72.72 0 0 1 .264-.294.66.66 0 0 1 .34-.092c.13 0 .24.037.33.11a.4.4 0 0 1 .132.322c0 .183-.063.317-.19.402-.125.084-.314.126-.566.126h-.288v.664h.315c.263.002.47.047.62.137a.44.44 0 0 1 .225.397c0 .167-.056.294-.168.38a.66.66 0 0 1-.418.132.69.69 0 0 1-.407-.116.744.744 0 0 1-.256-.296zM7.75 2.5a.75.75 0 0 0 0 1.5h8.5a.75.75 0 0 0 0-1.5h-8.5zM7 8.25a.75.75 0 0 1 .75-.75h8.5a.75.75 0 0 1 0 1.5h-8.5A.75.75 0 0 1 7 8.25zm.75 4.25a.75.75 0 0 0 0 1.5h8.5a.75.75 0 0 0 0-1.5h-8.5z"/>
</svg>
