<svg xmlns="http://www.w3.org/2000/svg" fill="currentColor" class="vi" viewBox="0 0 16 16"><path d="M2.072 4.5h.769V.92h-.466c-.157.121-.334.23-.533.328-.198.098-.41.18-.632.244l.21.615a5.48 5.48 0 0 0 .354-.124 1.51 1.51 0 0 0 .298-.154V4.5ZM5.25 2a.75.75 0 0 0 0 1.5h9a.75.75 0 0 0 0-1.5h-9Zm0 5.25a.75.75 0 0 0 0 1.5h9a.75.75 0 0 0 0-1.5h-9Zm-.75 6a.75.75 0 0 1 .75-.75h9a.75.75 0 0 1 0 1.5h-9a.75.75 0 0 1-.75-.75Zm-3.383-3.5v-.264c0-.179.03-.339.09-.48.06-.144.136-.272.228-.386.09-.113.19-.212.297-.298a6.93 6.93 0 0 1 .31-.237c.103-.073.193-.143.269-.21a1.4 1.4 0 0 0 .195-.2.796.796 0 0 0 .125-.205.63.63 0 0 0 .046-.252.373.373 0 0 0-.122-.295.464.464 0 0 0-.322-.108.486.486 0 0 0-.327.122 1.01 1.01 0 0 0-.24.335l-.62-.254a1.46 1.46 0 0 1 .496-.605c.215-.149.477-.223.786-.223.344 0 .616.09.818.271.203.18.305.42.305.723 0 .161-.025.304-.076.43a1.265 1.265 0 0 1-.197.342 2.034 2.034 0 0 1-.281.288 4.284 4.284 0 0 1-.33.251c-.073.055-.145.11-.217.161-.07.05-.13.102-.183.154a.678.678 0 0 0-.125.156.315.315 0 0 0-.039.144h1.443v.64H1.117Zm.471 4.335-.59.346c.113.205.272.362.476.471.203.11.457.164.761.164.38 0 .686-.095.918-.286.235-.19.352-.449.352-.776a.782.782 0 0 0-.195-.535.866.866 0 0 0-.528-.283v-.012a.88.88 0 0 0 .464-.315.837.837 0 0 0 .154-.5c0-.285-.097-.508-.29-.67-.194-.162-.47-.244-.828-.244-.287 0-.535.065-.745.193a1.217 1.217 0 0 0-.461.476l.573.276a.597.597 0 0 1 .547-.35.443.443 0 0 1 .296.104c.081.066.122.162.122.288 0 .166-.057.287-.171.363-.114.077-.285.115-.513.115h-.26v.6h.286c.237.002.424.045.559.128a.39.39 0 0 1 .205.356.413.413 0 0 1-.154.347.596.596 0 0 1-.376.117.647.647 0 0 1-.371-.103.7.7 0 0 1-.23-.27Z"/></svg>