<svg xmlns="http://www.w3.org/2000/svg" viewBox="0 0 20 16" fill="currentColor"><path d="M3 3a1.5 1.5 0 1 1 3 0 1.5 1.5 0 0 1-3 0Zm0 5a1.5 1.5 0 1 1 3 0 1.5 1.5 0 0 1-3 0Zm1.5 3.5a1.5 1.5 0 1 0 0 3 1.5 1.5 0 0 0 0-3ZM7 3c0-.41.34-.75.75-.75h8.5a.75.75 0 0 1 0 1.5h-8.5A.75.75 0 0 1 7 3Zm.75 4.25a.75.75 0 0 0 0 1.5h2.45a5 5 0 0 1 2.23-1.5H7.75Zm1.56 6.5a4.98 4.98 0 0 1-.3-1.5H7.75a.75.75 0 0 0 0 1.5h1.56Zm6.26-6.5A5 5 0 0 1 17 8a.75.75 0 0 0-.75-.75h-.68Z"/><path fill-rule="evenodd" d="M18 12a4 4 0 1 1-8 0 4 4 0 0 1 8 0Zm-3.25-.31v-1.44a.75.75 0 0 0-1.5 0v1.65c0 .26.1.52.3.7l.64.65a.75.75 0 0 0 1.06-1.06l-.5-.5Z"/></svg>