<svg xmlns="http://www.w3.org/2000/svg" fill="currentColor" class="vi" viewBox="0 0 16 16"><path d="M12.5 16a3.5 3.5 0 1 0 0-7 3.5 3.5 0 0 0 0 7Zm-1.146-5.354 1.146 1.147 1.146-1.147a.5.5 0 0 1 .708.708L13.207 12.5l1.147 1.146a.5.5 0 0 1-.708.708L12.5 13.207l-1.146 1.147a.5.5 0 0 1-.708-.708l1.147-1.146-1.147-1.146a.5.5 0 0 1 .708-.708ZM4.28.97a.75.75 0 0 1 0 1.06l-2 2a.75.75 0 0 1-1.06 0l-1-1a.75.75 0 1 1 1.06-1.06l.47.47L3.22.97a.75.75 0 0 1 1.06 0ZM5.5 2.75A.75.75 0 0 1 6.25 2h9a.75.75 0 0 1 0 1.5h-9a.75.75 0 0 1-.75-.75ZM5.5 8a.75.75 0 0 1 .75-.75h9a.75.75 0 0 1 0 1.5h-.262A4.479 4.479 0 0 0 12.5 8c-.92 0-1.776.276-2.488.75H6.25A.75.75 0 0 1 5.5 8ZM8 12.5H6.25a.75.75 0 0 0 0 1.5h2.006A4.493 4.493 0 0 1 8 12.5ZM4.28 7.28a.75.75 0 0 0-1.06-1.06L1.75 7.69l-.47-.47A.75.75 0 0 0 .22 8.28l1 1a.75.75 0 0 0 1.06 0l2-2Zm0 4.19a.75.75 0 0 1 0 1.06l-2 2a.75.75 0 0 1-1.06 0l-1-1a.75.75 0 1 1 1.06-1.06l.47.47 1.47-1.47a.75.75 0 0 1 1.06 0Z"/></svg>