<svg xmlns="http://www.w3.org/2000/svg" fill="currentColor" class="vi" viewBox="0 0 16 16"><path d="M1 1.75A.75.75 0 0 1 1.75 1h1.5a.75.75 0 0 1 .75.75V5.5h.75a.75.75 0 0 1 0 1.5h-3a.75.75 0 1 1 0-1.5h.75v-3h-.75A.75.75 0 0 1 1 1.75Zm5.5 1A.75.75 0 0 1 7.25 2h7a.75.75 0 0 1 0 1.5h-7a.75.75 0 0 1-.75-.75ZM6.5 8a.75.75 0 0 1 .75-.75h7a.75.75 0 0 1 0 1.5h-7A.75.75 0 0 1 6.5 8Zm.75 4.5a.75.75 0 0 0 0 1.5h7a.75.75 0 0 0 0-1.5h-7Zm-4.33-1.86a.55.55 0 1 1 .763.791l-2.443 2.27A.75.75 0 0 0 1.75 15h3a.75.75 0 0 0 0-1.5H3.66l1.044-.97A2.05 2.05 0 1 0 1.86 9.58l-.64.64a.75.75 0 1 0 1.06 1.06l.64-.64Z"/></svg>