<svg xmlns="http://www.w3.org/2000/svg" viewBox="0 0 20 16" fill="currentColor"><path d="M3 3a1.5 1.5 0 1 1 3 0 1.5 1.5 0 0 1-3 0Zm0 5a1.5 1.5 0 1 1 3 0 1.5 1.5 0 0 1-3 0Zm1.5 3.5a1.5 1.5 0 1 0 0 3 1.5 1.5 0 0 0 0-3ZM7 3c0-.41.34-.75.75-.75h8.5a.75.75 0 0 1 0 1.5h-8.5A.75.75 0 0 1 7 3Zm.75 4.25a.75.75 0 0 0 0 1.5h1.81a5.53 5.53 0 0 1 1.67-1.5H7.75Zm0 5h.76c.02.52.12 1.03.27 1.5H7.75a.75.75 0 0 1 0-1.5Z"/><path fill-rule="evenodd" d="M18 12a4 4 0 1 1-8 0 4 4 0 0 1 8 0Zm-3.25-.31v-1.44a.75.75 0 0 0-1.5 0v1.65c0 .26.1.52.3.7l.64.65a.75.75 0 0 0 1.06-1.06l-.5-.5Z"/></svg>