<svg xmlns="http://www.w3.org/2000/svg" viewBox="0 0 20 16" fill="currentColor"><path d="M4.82 5h-.86V2.02c-.1.06-.2.12-.33.17-.12.04-.25.1-.4.14L3 1.63A4.38 4.38 0 0 0 4.3 1h.52v4ZM3.08 9.7v.3H5.7v-.72H4.08c0-.05.01-.1.04-.16a.7.7 0 0 1 .14-.18l.2-.17a13.4 13.4 0 0 0 .62-.47c.12-.1.22-.2.32-.32a1.32 1.32 0 0 0 .3-.87 1 1 0 0 0-.34-.8c-.23-.2-.53-.31-.92-.31A1.5 1.5 0 0 0 3 6.93l.7.29a1 1 0 0 1 .27-.38c.1-.1.22-.14.36-.14.16 0 .28.04.37.12.09.08.13.2.13.34a.74.74 0 0 1-.19.5 4.48 4.48 0 0 1-.52.46l-.35.27a2.13 2.13 0 0 0-.59.77c-.07.16-.1.34-.1.54ZM3 14.3l.65-.38c.06.12.15.22.26.3.1.07.24.1.4.1a.7.7 0 0 0 .42-.12c.12-.09.17-.22.17-.38 0-.18-.07-.3-.22-.4a1.23 1.23 0 0 0-.62-.14h-.32v-.66h.29a1 1 0 0 0 .57-.13c.12-.08.19-.22.19-.4a.4.4 0 0 0-.14-.32.5.5 0 0 0-.33-.11.66.66 0 0 0-.34.09.71.71 0 0 0-.26.3l-.63-.31c.1-.21.28-.39.5-.53.24-.14.51-.21.83-.21.4 0 .7.09.91.27.22.18.32.42.32.74 0 .2-.05.4-.17.55a.97.97 0 0 1-.5.35v.01c.24.05.43.15.58.31.14.17.21.37.21.6 0 .36-.13.64-.39.85-.25.21-.6.32-1.01.32-.34 0-.62-.06-.84-.18-.23-.12-.4-.3-.53-.52ZM7.75 2.25a.75.75 0 0 0 0 1.5h8.5a.75.75 0 0 0 0-1.5h-8.5Zm0 5a.75.75 0 0 0 0 1.5h1.81a5.53 5.53 0 0 1 1.67-1.5H7.75Zm0 5h.76c.02.52.12 1.03.27 1.5H7.75a.75.75 0 0 1 0-1.5Z"/><path fill-rule="evenodd" d="M18 12a4 4 0 1 1-8 0 4 4 0 0 1 8 0Zm-3.25-.31v-1.44a.75.75 0 0 0-1.5 0v1.65c0 .26.1.52.3.7l.64.65a.75.75 0 0 0 1.06-1.06l-.5-.5Z"/></svg>