<svg xmlns="http://www.w3.org/2000/svg" viewBox="0 0 20 16" fill="currentColor">
  <path d="M4.82 5h-.86V2.02c-.1.06-.2.12-.33.17a6.65 6.65 0 0 1-.4.14L3 1.63A4.3 4.3 0 0 0 4.3 1h.52v4zM3.08 9.7v.3H5.7v-.72H4.07c0-.05.02-.1.05-.16a.7.7 0 0 1 .14-.18 1.75 1.75 0 0 1 .2-.17l.25-.18.37-.29a2.25 2.25 0 0 0 .31-.32c.1-.11.17-.24.23-.38.05-.14.08-.3.08-.48 0-.34-.11-.62-.34-.82-.23-.2-.53-.3-.92-.3-.35 0-.64.08-.88.25a1.63 1.63 0 0 0-.56.68l.7.28c.07-.15.16-.28.27-.37a.54.54 0 0 1 .36-.14.53.53 0 0 1 .37.12c.09.08.13.2.13.34a.74.74 0 0 1-.05.28.96.96 0 0 1-.14.23 4.5 4.5 0 0 1-.52.46 7.6 7.6 0 0 0-.35.26 2.26 2.26 0 0 0-.33.34 1.83 1.83 0 0 0-.26.43 1.39 1.39 0 0 0-.1.54zm.57 4.22L3 14.3c.13.22.3.4.53.52.22.12.5.18.84.18.42 0 .75-.1 1.01-.32.26-.2.39-.5.39-.85a.88.88 0 0 0-.21-.6.97.97 0 0 0-.59-.3v-.02a.97.97 0 0 0 .51-.35.93.93 0 0 0 .17-.55c0-.32-.1-.56-.32-.74a1.4 1.4 0 0 0-.91-.27c-.32 0-.6.07-.82.21a1.36 1.36 0 0 0-.51.53l.63.3a.72.72 0 0 1 .26-.29.66.66 0 0 1 .34-.1.5.5 0 0 1 .33.12.4.4 0 0 1 .14.32c0 .18-.07.32-.2.4-.12.09-.3.13-.56.13h-.29v.66h.32c.26 0 .47.05.62.14a.44.44 0 0 1 .22.4c0 .16-.05.29-.17.38a.66.66 0 0 1-.41.13.69.69 0 0 1-.41-.12.74.74 0 0 1-.26-.3zM7.75 2.5a.75.75 0 0 0 0 1.5h8.5a.75.75 0 0 0 0-1.5h-8.5zM7 8.25a.75.75 0 0 1 .75-.75h8.5a.75.75 0 0 1 0 1.5h-8.5A.75.75 0 0 1 7 8.25zm.75 4.25a.75.75 0 0 0 0 1.5h8.5a.75.75 0 0 0 0-1.5h-8.5z"/>
</svg>
