<svg xmlns="http://www.w3.org/2000/svg" viewBox="0 0 16 16" fill="currentColor"><path d="M2.25 4a1.25 1.25 0 1 0 0-2.5 1.25 1.25 0 0 0 0 2.5Zm3-2a.75.75 0 0 0 0 1.5h9a.75.75 0 0 0 0-1.5h-9Zm0 5.25a.75.75 0 0 0 0 1.5H8.2a5 5 0 0 1 2.23-1.5H5.25ZM7.42 14c-.2-.47-.34-.97-.4-1.5H5.25a.75.75 0 0 0 0 1.5h2.17Zm6.15-6.75A5 5 0 0 1 15 8a.75.75 0 0 0-.75-.75h-.68ZM3.5 8A1.25 1.25 0 1 1 1 8a1.25 1.25 0 0 1 2.5 0Zm-1.25 6.5a1.25 1.25 0 1 0 0-2.5 1.25 1.25 0 0 0 0 2.5ZM16 12a4 4 0 1 1-8 0 4 4 0 0 1 8 0Zm-4-3a.5.5 0 0 0-.5.5v2h-1a.5.5 0 1 0 0 1H12a.5.5 0 0 0 .5-.5V9.5A.5.5 0 0 0 12 9Z"/></svg>