<svg xmlns="http://www.w3.org/2000/svg" fill="currentColor" class="vi" viewBox="0 0 16 16"><path d="M1.75 1a.75.75 0 1 0 0 1.5h.75v3h-.75a.75.75 0 1 0 0 1.5h3a.75.75 0 0 0 0-1.5H4V1.75A.75.75 0 0 0 3.25 1zm5.5 1a.75.75 0 0 0 0 1.5h7a.75.75 0 0 0 0-1.5zM6.5 8a.75.75 0 0 1 .75-.75h7a.75.75 0 0 1 .47 1.335A4.48 4.48 0 0 0 12.5 8c-.92 0-1.776.276-2.488.75H7.25A.75.75 0 0 1 6.5 8m1.756 6A4.493 4.493 0 0 1 8 12.5h-.75a.75.75 0 0 0 0 1.5zM2.92 10.64a.55.55 0 1 1 .763.791l-2.443 2.27A.75.75 0 0 0 1.75 15h3a.75.75 0 0 0 0-1.5H3.66l1.044-.97A2.05 2.05 0 1 0 1.86 9.58l-.64.64a.75.75 0 1 0 1.06 1.06zM16 12.5a3.5 3.5 0 1 0-7 0 3.5 3.5 0 0 0 7 0M12.5 10a.5.5 0 0 1 .5.5v1.793l.854.853a.5.5 0 0 1-.707.708l-1-1A.5.5 0 0 1 12 12.5v-2a.5.5 0 0 1 .5-.5"/></svg>