<svg xmlns="http://www.w3.org/2000/svg" fill="currentColor" class="vi" viewBox="0 0 16 16"><path d="M2.25 4a1.25 1.25 0 1 0 0-2.5 1.25 1.25 0 0 0 0 2.5Zm3-2a.75.75 0 0 0 0 1.5h9a.75.75 0 0 0 0-1.5h-9Zm0 5.25a.75.75 0 0 0 0 1.5H8.2a5.006 5.006 0 0 1 2.234-1.5H5.25ZM7.416 14a4.969 4.969 0 0 1-.391-1.5H5.25a.75.75 0 0 0 0 1.5h2.166ZM3.5 8A1.25 1.25 0 1 1 1 8a1.25 1.25 0 0 1 2.5 0Zm-1.25 6.5a1.25 1.25 0 1 0 0-2.5 1.25 1.25 0 0 0 0 2.5ZM16 12a4 4 0 1 1-8 0 4 4 0 0 1 8 0Zm-4-2.5a.5.5 0 0 0-.5.5v2a.5.5 0 0 0 .146.354l1 1a.5.5 0 0 0 .708-.708l-.854-.853V10a.5.5 0 0 0-.5-.5Z"/></svg>