<svg xmlns="http://www.w3.org/2000/svg" fill="currentColor" class="vi" viewBox="0 0 16 16"><path d="M2.25 4a1.25 1.25 0 1 0 0-2.5 1.25 1.25 0 0 0 0 2.5Zm3-2a.75.75 0 0 0 0 1.5h9a.75.75 0 0 0 0-1.5h-9Zm0 5.25a.75.75 0 0 0 0 1.5h4.762A4.479 4.479 0 0 1 12.5 8a4.48 4.48 0 0 1 2.22.585.749.749 0 0 0-.47-1.335h-9Zm0 5.25H8c0 .526.09 1.03.256 1.5H5.25a.75.75 0 0 1 0-1.5ZM3.5 8A1.25 1.25 0 1 1 1 8a1.25 1.25 0 0 1 2.5 0Zm-1.25 6.5a1.25 1.25 0 1 0 0-2.5 1.25 1.25 0 0 0 0 2.5Zm13.75-2a3.5 3.5 0 1 1-7 0 3.5 3.5 0 0 1 7 0ZM12.5 10a.5.5 0 0 0-.5.5v2a.5.5 0 0 0 .146.354l1 1a.5.5 0 0 0 .708-.708L13 12.293V10.5a.5.5 0 0 0-.5-.5Z"/></svg>