<svg xmlns="http://www.w3.org/2000/svg" viewBox="0 0 16 16" fill="currentColor"><path d="M1.86 4.25h.61V1.39H2.1a3.13 3.13 0 0 1-.93.46l.17.49a4.39 4.39 0 0 0 .52-.23v2.14ZM5.25 2a.75.75 0 0 0 0 1.5h9a.75.75 0 0 0 0-1.5h-9Zm0 5.25a.75.75 0 0 0 0 1.5H8.2a5 5 0 0 1 2.23-1.5H5.25ZM7.42 14c-.2-.47-.34-.97-.4-1.5H5.25a.75.75 0 0 0 0 1.5h2.17Zm6.15-6.75A5 5 0 0 1 15 8a.75.75 0 0 0-.75-.75h-.68ZM1.1 9.5v-.21a1 1 0 0 1 .07-.39 1.3 1.3 0 0 1 .42-.54A5.55 5.55 0 0 1 2.05 8l.16-.16.1-.16a.5.5 0 0 0 .03-.2.3.3 0 0 0-.1-.24.37.37 0 0 0-.25-.09.4.4 0 0 0-.27.1.8.8 0 0 0-.19.27l-.5-.2c.1-.21.23-.37.4-.49.18-.12.39-.18.63-.18.28 0 .5.07.66.22.16.14.24.34.24.58a.9.9 0 0 1-.22.61c-.06.09-.14.16-.22.23a3.43 3.43 0 0 1-.44.34l-.15.12a.54.54 0 0 0-.1.12.25.25 0 0 0-.03.12h1.16v.51H1.09Zm.37 4.52-.47.27c.09.17.22.3.38.38.16.09.36.13.6.13.31 0 .56-.07.74-.23a.76.76 0 0 0 .28-.62c0-.16-.05-.3-.15-.42a.7.7 0 0 0-.42-.23v-.01a.7.7 0 0 0 .37-.25.67.67 0 0 0 .12-.4.68.68 0 0 0-.23-.54 1 1 0 0 0-.66-.2c-.23 0-.43.06-.6.16a.97.97 0 0 0-.37.38l.46.22c.05-.1.11-.16.19-.2a.48.48 0 0 1 .25-.08c.1 0 .17.03.23.08.07.06.1.14.1.24 0 .13-.04.23-.14.29a.72.72 0 0 1-.4.09h-.21v.48h.22c.2 0 .34.03.45.1.11.07.17.16.17.29 0 .12-.05.2-.13.27a.48.48 0 0 1-.3.1.52.52 0 0 1-.3-.09.56.56 0 0 1-.18-.21ZM16 12a4 4 0 1 1-8 0 4 4 0 0 1 8 0Zm-4-3a.5.5 0 0 0-.5.5v2h-1a.5.5 0 1 0 0 1H12a.5.5 0 0 0 .5-.5V9.5A.5.5 0 0 0 12 9Z"/></svg>