<svg xmlns="http://www.w3.org/2000/svg" fill="currentColor" class="vi" viewBox="0 0 16 16"><path d="M0 3.25a3.25 3.25 0 1 1 6.5 0v.07c0 .78-.27 1.53-.77 2.12L4.85 6.5H6a2.5 2.5 0 0 1 0 5H3a1.5 1.5 0 0 0 0 3h8.15l-.88-1.06a3.3 3.3 0 0 1-.77-2.12v-.07a3.25 3.25 0 0 1 6.5 0v.07c0 .78-.27 1.53-.77 2.12l-1.9 2.29a.75.75 0 0 1-.58.27H3a3 3 0 1 1 0-6h3a1 1 0 0 0 0-2H3.25a.75.75 0 0 1-.58-.27L.77 5.44A3.3 3.3 0 0 1 0 3.32v-.07ZM3.25 1.5c-.97 0-1.75.78-1.75 1.75v.07c0 .43.15.84.42 1.16l1.33 1.6 1.33-1.6c.27-.32.42-.73.42-1.16v-.07c0-.97-.78-1.75-1.75-1.75Zm9.5 8c-.97 0-1.75.78-1.75 1.75v.07c0 .43.15.84.42 1.16l1.33 1.6 1.33-1.6c.27-.32.42-.73.42-1.16v-.07c0-.97-.78-1.75-1.75-1.75Z"/></svg>