<svg xmlns="http://www.w3.org/2000/svg" fill="currentColor" class="vi" viewBox="0 0 16 16"><path d="M2.315 3.376.22 1.28A.75.75 0 1 1 1.28.22l14.5 14.5a.75.75 0 1 1-1.06 1.06l-3.283-3.283-2.875 3.25a.75.75 0 0 1-1.124 0l-4.293-4.854A6.6 6.6 0 0 1 1.5 6.538a6.5 6.5 0 0 1 .815-3.162m8.059 8.059L3.433 4.493A5 5 0 0 0 3 6.538c0 1.235.452 2.44 1.268 3.361L8 14.12zM13 6.538a5.1 5.1 0 0 1-.746 2.655l1.084 1.084a6.6 6.6 0 0 0 1.162-3.74C14.5 2.955 11.596 0 8 0a6.43 6.43 0 0 0-3.742 1.197l1.08 1.08A4.93 4.93 0 0 1 8 1.5c2.755 0 5 2.27 5 5.038"/></svg>