<svg xmlns="http://www.w3.org/2000/svg" fill="currentColor" class="vi" viewBox="0 0 16 16"><path d="M0 3.25a3.25 3.25 0 1 1 6.5 0v.07a3.32 3.32 0 0 1-.77 2.125L4.852 6.5H6a2.5 2.5 0 0 1 0 5H3a1.5 1.5 0 0 0 0 3h8.149l-.88-1.055A3.32 3.32 0 0 1 9.5 11.32v-.07a3.25 3.25 0 0 1 6.5 0v.07a3.32 3.32 0 0 1-.77 2.125l-1.904 2.285a.75.75 0 0 1-.576.27H3a3 3 0 1 1 0-6h3a1 1 0 0 0 0-2H3.25a.75.75 0 0 1-.576-.27L.769 5.445A3.32 3.32 0 0 1 0 3.32zM3.25 1.5A1.75 1.75 0 0 0 1.5 3.25v.07c0 .425.15.838.422 1.165L3.25 6.078l1.328-1.593A1.82 1.82 0 0 0 5 3.32v-.07A1.75 1.75 0 0 0 3.25 1.5m9.5 8A1.75 1.75 0 0 0 11 11.25v.07c0 .425.15.838.422 1.165l1.328 1.594 1.328-1.594a1.82 1.82 0 0 0 .422-1.165v-.07a1.75 1.75 0 0 0-1.75-1.75"/></svg>