<svg xmlns="http://www.w3.org/2000/svg" viewBox="0 0 16 16" fill="currentColor">
  <path d="M7.52.041A3.005 3.005 0 0 0 5.306 1.69c-.271.556-.318.909-.319 2.383v.94H3.858c-1.038 0-1.147.005-1.34.053A1.985 1.985 0 0 0 1.215 6.12C.986 6.586 1 6.299 1 10.507c0 4.039-.007 3.841.15 4.238a2 2 0 0 0 1.109 1.109c.381.153.107.146 5.738.146 5.601 0 5.369.006 5.736-.142a2.002 2.002 0 0 0 1.117-1.113c.157-.397.15-.197.15-4.265V6.733l-.06-.213c-.193-.693-.654-1.185-1.341-1.43-.169-.06-.198-.062-1.379-.071l-1.207-.009v-.938c-.001-1.43-.049-1.81-.289-2.324A3.007 3.007 0 0 0 7.52.041m.966 1.544c.482.168.852.574.967 1.061.032.133.04.391.04 1.267v1.1H6.507v-1.1c0-.876.008-1.134.04-1.267A1.526 1.526 0 0 1 7.74 1.521c.207-.037.538-.008.746.064m4.735 4.972a.457.457 0 0 1 .229.235c.039.077.043.42.043 3.701 0 2.976-.006 3.631-.036 3.702a.583.583 0 0 1-.33.283c-.14.039-10.114.039-10.254 0a.583.583 0 0 1-.33-.283c-.03-.071-.036-.726-.036-3.702 0-3.495.001-3.618.05-3.714a.464.464 0 0 1 .23-.228c.072-.038.58-.042 5.207-.043 4.981-.001 5.131 0 5.227.049M7.662 8.051a1.25 1.25 0 0 0-.894 1.009c-.063.376.069.784.342 1.057l.141.142.008 1.104c.008 1.087.009 1.105.068 1.216.077.144.21.277.342.343.147.072.515.072.662 0a.849.849 0 0 0 .342-.343c.059-.111.06-.129.068-1.214l.008-1.102.141-.143c.274-.279.405-.684.342-1.06a1.25 1.25 0 0 0-1.57-1.009"/>
</svg>
