<svg xmlns="http://www.w3.org/2000/svg" fill="currentColor" class="vi" viewBox="0 0 16 16"><path d="M310 610c-80.131 0-155.471-31.205-212.108-87.87C41.254 465.464 10 390.131 10 310S41.205 154.529 97.891 97.892C154.578 41.254 229.87 10 310 10s155.471 31.205 212.108 87.891C578.746 154.578 610 229.87 610 310s-31.205 155.471-87.892 212.108C465.422 578.746 390.131 610 310 610Zm0-589.535C150.35 20.465 20.465 150.35 20.465 310c0 159.65 129.885 289.535 289.535 289.535 159.65 0 289.535-129.885 289.535-289.535C599.535 150.35 469.65 20.465 310 20.465Z"/><path d="M310 493.411c-101.138 0-183.411-82.273-183.411-183.411S208.862 126.589 310 126.589 493.411 208.862 493.411 310 411.138 493.411 310 493.411Zm0-364.209c-99.691 0-180.798 81.107-180.798 180.798S210.309 490.798 310 490.798 490.798 409.691 490.798 310 409.691 129.202 310 129.202ZM52.64 352.843c-1.272-7.592 2.612-12.256 10.535-13.59l1.559-.26 1.236 7.374-2.058.345c-3.512.597-4.657 2.247-4.214 4.726.443 2.48 2.002 3.681 5.548 3.084 3.547-.597 6.055-2.62 9.672-8.478 4.65-7.494 8.428-10.24 14.103-11.188 7.943-1.334 13.148 1.875 14.433 9.545 1.285 7.669-2.592 12.396-10.535 13.724l-3.055.512-1.236-7.381 3.546-.59c3.554-.597 4.566-2.374 4.151-4.853-.414-2.48-1.952-3.835-5.506-3.238-3.554.597-6.047 2.62-9.664 8.477-4.657 7.494-8.428 10.24-14.103 11.188-7.944 1.356-13.141-1.783-14.413-9.397Zm28.915-59.889 6.693.155c8.056.182 12.572 4.312 12.397 12.08-.176 7.768-4.867 11.694-12.923 11.511l-26.19-.583c-8.057-.182-12.566-4.319-12.39-12.087.175-7.768 4.867-11.694 12.923-11.511l4.916.112-.168 7.48-5.394-.119c-3.596-.085-5.001 1.467-5.057 3.989-.056 2.521 1.278 4.13 4.874 4.214l27.188.611c3.603.084 4.916-1.468 4.987-3.989.07-2.522-1.201-4.13-4.797-4.214l-7.2-.162.141-7.487Zm-16.674-23.957c-7.873-1.721-11.469-6.855-9.833-14.447 1.637-7.593 7.066-10.753 14.946-9.032l25.587 5.618c7.873 1.721 11.469 6.855 9.833 14.448-1.637 7.592-7.087 10.703-14.967 9.004l-25.566-5.591Zm27.771-2.03c3.512.766 5.19-.491 5.731-2.95.541-2.458-.463-4.298-3.975-5.071L67.81 253.11c-3.512-.766-5.19.492-5.731 2.95-.54 2.458.463 4.298 3.975 5.071l26.598 5.836Zm-23.184-56.553 35.686 15.375c3.308 1.404 5.12.477 6.117-1.833.998-2.311.436-4.278-2.872-5.703l-35.686-15.375 2.963-6.869L110.9 211.18c7.403 3.189 10.037 8.709 6.96 15.852-3.076 7.143-8.898 9.011-16.294 5.822l-35.23-15.17 3.133-7.27Zm17.888-35.897 13.668-20.29 5.97 4.017-4.629 6.862 35.82 24.126-4.425 6.56-35.82-24.119-4.62 6.862-5.964-4.018Zm36.389-47.246c5.387-5.5 11.448-5.099 17.2.548l1.131 1.109-5.239 5.338-1.489-1.461c-2.571-2.521-4.559-2.451-6.321-.653-1.763 1.798-1.791 3.786.772 6.321 2.564 2.536 5.682 3.35 12.544 2.809 8.8-.639 13.239.794 17.348 4.826 5.752 5.618 6.216 11.743.773 17.291-5.444 5.549-11.554 5.198-17.306-.449l-2.206-2.17 5.24-5.338 2.57 2.521c2.564 2.522 4.601 2.297 6.364.499s1.945-3.835-.625-6.356c-2.571-2.522-5.675-3.351-12.537-2.81-8.801.639-13.239-.793-17.348-4.825-5.752-5.661-6.265-11.708-.871-17.2Zm67.144-24.575 9.475-5.317 3.512 6.279-9.475 5.31 7.213 12.867 11.94-6.68 3.512 6.272-18.823 10.535-24.639-43.903 18.83-10.535 3.512 6.278-11.94 6.68 6.883 12.214Zm37.147-25.137-.133.042 11.406 34.654-6.771 2.226-15.746-47.844 9.432-3.104 17.011 26.141.14-.05-9.425-28.634 6.693-2.205 15.747 47.844-7.726 2.542-20.628-31.612Zm78.206-5.577 11.076-.21.309 15.97c.148 8.057-3.792 12.734-11.56 12.882-7.768.147-11.884-4.376-12.038-12.432l-.499-26.19c-.155-8.056 3.793-12.734 11.561-12.881 7.768-.148 11.883 4.375 12.038 12.438l.091 4.917-7.48.14-.105-5.394c-.07-3.596-1.679-4.916-4.214-4.916-2.536 0-4.074 1.447-4.004 5.043l.513 27.194c.07 3.596 1.679 4.86 4.214 4.811 2.536-.049 4.081-1.37 4.01-4.965L310 79.104l-3.596.07-.162-7.192Zm34.661-20.522 7.838 1.06-6.763 49.916-7.881-1.033 6.806-49.944Zm32.203 5.696 11.996 3.589c7.585 2.268 10.05 7.592 7.726 15.31l-7.305 24.407c-2.31 7.726-7.29 10.809-14.875 8.541l-11.997-3.589 14.455-48.258Zm5.52 9.13-10.331 34.52 4.277 1.279c2.409.702 4.214-.092 5.261-3.512l7.508-25.095c1.032-3.448-.05-5.12-2.459-5.843l-4.256-1.349Zm52.107 12.439c6.834 3.511 8.218 9.46 4.495 16.61l-.702 1.405-6.637-3.456.962-1.847c1.664-3.196 1.018-5.07-1.215-6.23-2.234-1.159-4.144-.618-5.809 2.57-1.664 3.19-1.545 6.413.956 12.826 3.181 8.231 3.104 12.895.449 18.001-3.715 7.15-9.418 9.369-16.315 5.787-6.897-3.582-8.337-9.531-4.622-16.681l1.405-2.746 6.637 3.456-1.664 3.188c-1.658 3.196-.85 5.071 1.404 6.237 2.255 1.166 4.214.745 5.893-2.451 1.679-3.196 1.552-6.412-.948-12.825-3.182-8.19-3.126-12.888-.471-18.022 3.723-7.122 9.355-9.376 16.182-5.822Zm24.884 41.578 8.555 6.701-4.439 5.661-8.561-6.68-9.131 11.61 10.767 8.428-4.439 5.661-16.99-13.309 31.065-39.655 16.99 13.345-4.383 5.626-10.76-8.428-8.674 11.04Zm37.59 24.765-.098-.112-27.645 23.802-4.642-5.401 38.165-32.856 6.476 7.523-17.636 25.719.098.113 22.848-19.666 4.6 5.345-38.173 32.863-5.302-6.167 21.309-31.163Zm49.656 76.717-1.651.703c-4.755 2.072-8.358 1.91-11.279-.668l-.134.064c.176 4.551-2.592 7.557-7.48 9.685l-3.722 1.651c-7.129 3.097-12.593 1.004-15.747-6.258l-4.965-11.414 46.193-20.094 4.762 10.957c3.238 7.522 1.144 12.284-5.977 15.374Zm-21.071-8.02-14.187 6.166 1.812 4.158c1.061 2.444 2.753 3.273 6.188 1.784l4.024-1.749c4.284-1.868 5.008-3.828 3.568-7.129l-1.405-3.23Zm18.809-8.183-12.171 5.31 1.229 2.809c1.18 2.711 3.083 3.842 6.777 2.234l2.578-1.117c3.294-1.405 4.263-3.189 3.139-5.766l-1.552-3.47Zm-24.357 64.778c1.173-.703 1.889-1.152 5.892-2.023l7.726-1.686c4.573-.99 5.921-2.908 5.156-6.419l-.576-2.676-20.059 4.361-1.679-7.725 49.213-10.718 2.543 11.673c1.749 8.014-1.229 12.277-8.822 13.927l-3.87.843c-5.063 1.103-8.645.19-11.012-2.908l-.141.035c-.779 4.215-4.158 6.279-9.292 7.396l-7.592 1.651c-2.388.526-4.137.976-5.795 2.149l-1.692-7.88Zm40.35-17.622-15.115 3.287.66 3.027c.625 2.879 2.276 4.361 6.209 3.512l4.853-1.054c3.512-.766 4.804-2.297 4.214-5.043l-.821-3.729Zm-7.593 48.995.267 10.866-7.192.175-.267-10.865-14.749.365.337 13.668-7.192.175-.534-21.569 50.358-1.243.541 21.611-7.199.176-.337-13.668-14.033.309Zm-2.5 43.637-1.728 10.725-7.108-1.145 1.728-10.725-14.56-2.346-2.177 13.5-7.108-1.131 3.435-21.316 49.733 7.971-3.434 21.309-7.101-1.144 2.17-13.5-13.85-2.198ZM168.906 530.319l-5.619-3.996 3.603-7.15-6.876-4.854-5.534 5.781-5.17-3.61 30.904-31.606 8.196 5.794-19.504 39.641Zm-4.783-20.368 5.394 3.814 10.092-19.884-.105-.07-15.381 16.14Zm40.778 4.432-.112-.057-13.907 28.368-5.541-2.711 19.195-39.17 7.726 3.786-5.282 26.485.112.057 11.491-23.445 5.485 2.683-19.195 39.121-6.321-3.097 6.349-32.02Zm34.64 14.37-.12-.036-9.13 30.265-5.893-1.756 12.558-41.804 8.26 2.472-.906 27.006h.119l7.529-25.011 5.851 1.763-12.586 41.825-6.743-2.037 1.061-32.687Zm29.934 6.103c.92-6.918 5.092-10.388 11.764-9.496 6.672.892 9.798 5.324 8.871 12.249l-2.999 22.475c-.921 6.918-5.092 10.388-11.765 9.496-6.672-.892-9.79-5.331-8.891-12.235l3.02-22.489Zm3.743 23.831c-.414 3.09.787 4.438 2.95 4.733 2.163.295 3.68-.702 4.088-3.799l3.118-23.353c.407-3.091-.794-4.446-2.957-4.734-2.163-.288-3.673.702-4.088 3.793l-3.111 23.36Zm55.134-26.156c5.261-.576 6.167-3.245 6.897-6.272l4.587-.498 4.733 43.405-6.819.702-3.603-33.095-5.275.576-.52-4.818Zm56.434 16.786c1.896 7.108-.33 11.828-7.192 13.661-6.504 1.735-10.908-1.215-12.706-7.958l-.288-1.088 6.258-1.672.408 1.503c.8 3.013 2.43 3.8 4.537 3.238 2.353-.625 3.371-2.107 2.296-6.16l-2.079-7.662h-.119c-.499 2.711-2.107 4.495-5.036 5.281-4.916 1.3-8.266-1.468-9.924-7.669l-2.058-7.726c-1.798-6.743.703-11.547 7.227-13.281 6.525-1.735 11.09 1.166 12.888 7.908l5.788 21.625Zm-10.472-12.642-2.023-7.543c-.808-3.013-2.423-3.744-4.53-3.175-2.107.569-3.14 1.995-2.339 5.008l2.03 7.585c.801 3.013 2.437 3.807 4.537 3.245 2.1-.562 3.132-2.093 2.325-5.106v-.014Zm31.205-19.083c-1.587-3.596-3.266-4.01-5.268-3.125-2.001.885-2.809 2.514-1.51 5.366l1.131 2.563-5.935 2.62-.955-2.163c-2.809-6.391-1.236-11.448 4.917-14.166 6.152-2.719 10.963-.478 13.787 5.906l.449 1.026c1.889 4.277 1.679 7.508-.794 10.099l.05.113c3.743 0 6.279 2.339 8.07 6.391l1.404 3.133c2.81 6.391 1.236 11.448-4.916 14.166-6.153 2.718-10.964.478-13.787-5.914l-1.454-3.308 5.928-2.613 1.636 3.709c1.257 2.851 2.992 3.378 4.987 2.5 1.995-.878 2.809-2.409 1.264-5.942l-1.405-3.139c-1.636-3.702-3.511-4.523-6.321-3.266l-2.107.934-2.514-5.703 2.451-1.082c2.339-1.032 3.308-2.683 1.903-5.878l-1.011-2.227Zm19.083-9.924c-3.779-5.871-2.81-11.237 2.809-14.854 5.619-3.618 10.908-2.276 14.686 3.596l12.263 19.082c3.779 5.872 2.845 11.238-2.809 14.855-5.654 3.617-10.915 2.297-14.686-3.596l-12.263-19.083Zm18.261 15.74c1.685 2.626 3.511 2.879 5.309 1.699s2.353-2.914.703-5.541l-12.741-19.813c-1.685-2.627-3.476-2.88-5.309-1.7-1.834 1.18-2.353 2.915-.703 5.542l12.741 19.813Z"/><path fill-rule="evenodd" d="M133.957 310c0 97.071 78.972 176.036 176.043 176.036 97.071 0 176.036-78.965 176.036-176.036S407.071 133.964 310 133.964 133.957 212.929 133.957 310Zm20.937 0c0-85.525 69.581-155.106 155.106-155.106 85.525 0 155.106 69.581 155.106 155.106 0 85.525-69.581 155.106-155.106 155.106-85.525 0-155.106-69.581-155.106-155.106Zm163.014 163.917a3.897 3.897 0 0 0-.182 1.528 3.905 3.905 0 0 0 3.926 3.645h.288a3.923 3.923 0 0 0 3.454-2.688c.162-.491.224-1.01.184-1.526a3.912 3.912 0 0 0-1.346-2.702 3.918 3.918 0 0 0-2.868-.943 3.906 3.906 0 0 0-3.456 2.686Zm-48.982-.622a3.94 3.94 0 0 0 2.445 1.756c.291.062.588.092.885.092a3.927 3.927 0 0 0 3.821-3.028 3.9 3.9 0 0 0-.482-2.969 3.9 3.9 0 0 0-2.447-1.75 3.908 3.908 0 0 0-2.964.487 3.913 3.913 0 0 0-1.749 2.442 3.94 3.94 0 0 0 .491 2.97Zm97.422-10.51a3.924 3.924 0 0 0-.069 3.002l-.014.028a3.926 3.926 0 0 0 5.092 2.206 3.915 3.915 0 0 0 2.24-5.071 3.906 3.906 0 0 0-2.074-2.174 3.926 3.926 0 0 0-5.175 2.009Zm-143.18-7.551c.312.411.701.756 1.146 1.015a3.867 3.867 0 0 0 1.994.541 3.913 3.913 0 0 0 3.386-1.931 3.94 3.94 0 0 0-1.405-5.38 3.941 3.941 0 0 0-5.38 1.405 3.913 3.913 0 0 0-.41 2.974c.13.498.358.966.669 1.376Zm185.829-15.914a3.922 3.922 0 0 0 .827 2.883l-.028-.014a3.914 3.914 0 0 0 3.098 1.489 3.944 3.944 0 0 0 2.451-.85 3.928 3.928 0 0 0-.545-6.499 3.902 3.902 0 0 0-1.46-.467 3.92 3.92 0 0 0-2.89.834 3.92 3.92 0 0 0-1.453 2.624Zm-224.902-16.274c.176.485.447.93.796 1.31a3.895 3.895 0 0 0 2.894 1.271 3.984 3.984 0 0 0 2.655-1.025c.379-.349.686-.77.904-1.237a3.939 3.939 0 0 0 .125-3.003 3.91 3.91 0 0 0-.798-1.309 3.9 3.9 0 0 0-2.716-1.271 3.908 3.908 0 0 0-2.818 1.025 3.937 3.937 0 0 0-1.275 2.724 3.91 3.91 0 0 0 .233 1.515Zm258.691-18.763a3.924 3.924 0 0 0 1.636 2.514v-.028c.65.452 1.421.699 2.212.71a3.917 3.917 0 0 0 3.85-3.108 3.93 3.93 0 0 0-.551-2.954 3.932 3.932 0 0 0-4.014-1.716 3.924 3.924 0 0 0-3.133 4.582Zm-286.52-23.499a3.93 3.93 0 0 0 .37 1.487 3.938 3.938 0 0 0 3.554 2.248 3.94 3.94 0 0 0 2.909-1.289 3.92 3.92 0 0 0-.272-5.539 3.904 3.904 0 0 0-2.824-1.015 3.92 3.92 0 0 0-3.509 2.593c-.175.485-.252 1-.228 1.515Zm309.458-18.803c.397.33.855.578 1.349.73h-.014c.384.118.785.175 1.187.169a3.911 3.911 0 0 0 3.743-2.761 3.917 3.917 0 0 0-2.592-4.916 3.902 3.902 0 0 0-2.998.271 3.914 3.914 0 0 0-1.918 2.321 3.916 3.916 0 0 0 .276 2.995c.241.457.569.862.967 1.191Zm-322.831-31.195a3.934 3.934 0 0 0-.754 2.904 3.922 3.922 0 0 0 3.877 3.35c.183.014.366.014.548 0a3.932 3.932 0 0 0 3.35-4.431 3.935 3.935 0 0 0-4.438-3.351 3.936 3.936 0 0 0-2.583 1.528Zm329.902-23.562a3.927 3.927 0 1 0 5.554 5.553 3.927 3.927 0 0 0-5.554-5.553Zm-328.341-20.228c.439.269.927.449 1.436.529.208.037.42.054.632.049a3.923 3.923 0 0 0 3.87-3.308 3.93 3.93 0 0 0-6.184-3.79 3.917 3.917 0 0 0 .246 6.52Zm321.25-24.731a3.93 3.93 0 0 0-.338 2.982v-.014a3.929 3.929 0 0 0 3.772 2.851c.365.003.729-.045 1.081-.14a3.948 3.948 0 0 0 2.697-4.868 3.922 3.922 0 0 0-3.339-2.814 3.924 3.924 0 0 0-3.873 2.003ZM157.866 237.75a3.932 3.932 0 0 0 1.98 2.261l.021-.014c.533.274 1.121.42 1.72.429a3.948 3.948 0 0 0 3.512-2.185 3.911 3.911 0 0 0 .204-2.999 3.913 3.913 0 0 0-1.981-2.261 3.93 3.93 0 0 0-5.26 1.77 3.933 3.933 0 0 0-.196 2.999Zm286.721-19.362a3.942 3.942 0 0 0 .558 2.955l.022-.014a3.952 3.952 0 0 0 3.265 1.777c.768 0 1.518-.227 2.157-.653a3.929 3.929 0 0 0 1.13-5.43 3.929 3.929 0 0 0-7.132 1.365Zm-258.17-20.881c.209.47.51.894.883 1.248a3.902 3.902 0 0 0 2.732 1.089 3.91 3.91 0 0 0 2.81-1.229 3.923 3.923 0 0 0 1.084-2.803 3.913 3.913 0 0 0-1.225-2.746 3.926 3.926 0 0 0-6.623 2.949c.014.515.129 1.022.339 1.492Zm225.507-13.372c.242.455.571.857.97 1.185a3.924 3.924 0 0 0 2.5.885 3.908 3.908 0 0 0 2.5-6.926 3.905 3.905 0 0 0-5.52.52 3.91 3.91 0 0 0-.45 4.336Zm-186.621-19.691a3.931 3.931 0 0 0 .352 2.98 3.92 3.92 0 0 0 3.428 2.016 3.934 3.934 0 0 0 1.924-.513 3.93 3.93 0 0 0 1.503-5.338 3.917 3.917 0 0 0-2.364-1.862 3.93 3.93 0 0 0-4.843 2.717Zm144.029-6.132a3.928 3.928 0 0 0 2.116 2.131c.477.198.987.305 1.503.316a3.903 3.903 0 0 0 3.624-2.431 3.91 3.91 0 0 0-.837-4.274 3.934 3.934 0 0 0-1.27-.853 3.93 3.93 0 0 0-5.127 2.107 3.928 3.928 0 0 0-.009 3.004Zm-97.777-10.983a3.93 3.93 0 0 0 1.385 3.767c.699.567 1.57.876 2.47.876.276.005.552-.026.821-.091a3.942 3.942 0 0 0 3.027-4.657 3.938 3.938 0 0 0-4.656-3.02 3.932 3.932 0 0 0-2.479 1.701 3.926 3.926 0 0 0-.568 1.424Zm50.259.277a3.934 3.934 0 0 0 2.999 1.402 3.923 3.923 0 0 0 3.912-3.575 3.934 3.934 0 0 0-.897-2.869 3.93 3.93 0 0 0-2.664-1.394 3.947 3.947 0 0 0-4.257 3.568 3.938 3.938 0 0 0 .907 2.868Z"/><path d="M310 460.407c-82.933 0-150.407-67.474-150.407-150.407S227.067 159.593 310 159.593 460.407 227.067 460.407 310 392.94 460.407 310 460.407Zm0-298.202c-81.472 0-147.795 66.323-147.795 147.795S228.528 457.795 310 457.795 457.795 391.472 457.795 310 391.472 162.205 310 162.205Z"/><path d="m307.12 334.414-13.126.653c-.576-3.301-1.054-6.546-1.721-9.742-1.686-8.063-4.769-15.648-7.965-23.177-3.729-8.787-7.676-17.496-10.942-26.451-3.512-9.65-4.313-19.623-1.265-29.66a51.478 51.478 0 0 1 14.722-23.381c4.059-3.722 8.533-6.988 12.74-10.535 3.175-2.69 6.216-5.534 9.313-8.316.379-.337.738-.702 1.089-1.025 2.556 2.325 4.973 4.67 7.55 6.834 3.94 3.301 8.007 6.454 11.982 9.713 11.006 9.018 18.177 20.305 19.982 34.605a44.727 44.727 0 0 1-2.571 20.873c-2.669 7.375-5.724 14.63-8.814 21.85-4.144 9.587-8.33 19.146-10.535 29.422-.562 2.655-.927 5.345-1.293 8.035-.105.772-.316 1.067-1.102 1.018-3.969-.26-7.93-.492-12.179-.745.295-33.516-.52-67.074-2.957-100.597-2.5 33.474-3.273 67.011-2.908 100.626Zm-34.344 3.223a41.72 41.72 0 0 0-5.893-13.021c-2.739-3.884-6.096-7.024-10.781-8.337a16.018 16.018 0 0 0-13.166 1.834 16.013 16.013 0 0 0-7.244 11.145c-.52 3.168-.084 6.497-.084 9.868-2.346.794-4.812.436-7.214 0-9.481-1.77-16.336-7.318-20.944-15.522a36.141 36.141 0 0 1 4.102-41.473 33.63 33.63 0 0 1 23.107-12.165c10.114-.962 18.886 2.29 26.753 8.428 6.805 5.282 11.897 12.018 16.055 19.462a93.972 93.972 0 0 1 10.571 29c.456 2.48.639 5.008 1.025 7.501.162 1.061-.246 1.405-1.229 1.524-4.966.541-9.924 1.145-15.058 1.756Zm-35.448-47.373-.344-.302c-2.107 1.103-4.249 2.107-6.321 3.329a1.716 1.716 0 0 1-1.999.127 1.702 1.702 0 0 1-.508-.492c-1.236-1.342-2.557-2.613-3.863-3.891-.415-.407-.878-.766-1.328-1.138a32.02 32.02 0 0 0 .527 5.233c.569 3.589.562 3.582-2.732 5.253-1.475.745-2.936 1.531-4.404 2.297.368.35.838.571 1.342.632 1.903.295 3.792.646 5.703.829 1.229.126 1.77.583 1.917 1.868.274 2.339.752 4.657 1.138 6.981a2.229 2.229 0 0 0 1.011-1.067c.703-1.468 1.405-2.964 2.185-4.404 1.439-2.634.611-2.283 3.511-1.868.597.084 1.201.189 1.798.267l4.868.653-6.483-6.321 3.982-7.986Zm109.896 47.401c-3.42-.442-6.798-.899-10.177-1.313a92.769 92.769 0 0 0-4.916-.478c-.878-.056-1.187-.337-1.124-1.292a74.765 74.765 0 0 1 2.943-15.831 90.815 90.815 0 0 1 14.356-29.667c5.001-6.693 10.928-12.389 18.619-15.817 12.972-5.78 25.432-4.741 36.684 4.179 9.755 7.726 14.327 18.261 13.583 30.587-.794 13.071-7.023 23.108-18.963 29.085a24.1 24.1 0 0 1-11.849 2.416 18.1 18.1 0 0 1-2.058-.316c.766-4.559.829-8.934-.836-13.24a16.147 16.147 0 0 0-10.587-9.668 16.154 16.154 0 0 0-14.107 2.561c-4.614 3.441-7.515 8.14-9.636 13.344-.71 1.77-1.278 3.554-1.932 5.45Zm33.137-33.185c.426.025.853.025 1.278 0 2.107-.309 4.165-.612 6.237-.984a1.534 1.534 0 0 1 1.684.453c.134.158.235.34.297.538.857 1.924 1.847 3.792 2.809 5.667.176.345.414.647.815 1.265.175-.857.295-1.349.379-1.84.344-2.03.702-4.06.997-6.097a1.202 1.202 0 0 1 1.244-1.187c2.107-.274 4.263-.625 6.398-.955.407-.063.808-.211 1.215-.316a36.664 36.664 0 0 0-4.853-2.809c-2.929-1.51-2.908-1.503-2.325-4.804.323-1.791.569-3.596.85-5.401a35.148 35.148 0 0 0-5.261 4.775c-1.046 1.201-1.861 1.082-3.069.373-1.96-1.145-4.01-2.107-6.026-3.161a2.438 2.438 0 0 0 .295 1.454c.836 1.672 1.594 3.392 2.556 5.001.703 1.208.633 1.994-.449 2.964-1.763 1.51-3.315 3.251-5.092 5.064h.021Zm-70.01 90.096c.337-2.057.836-4.094.983-6.159.562-7.726 1.012-15.494 1.496-23.241.085-1.306.064-2.619.246-3.912.049-.379.618-.976.955-.983 4.067-.07 8.134-.042 12.404-.042.288 1.454.597 3.28 1.018 5.078a70.243 70.243 0 0 0 10.578 23.88 2.104 2.104 0 0 1 .161 2.535 57.11 57.11 0 0 1-12.832 15.824 61.968 61.968 0 0 1-14.201 9.46 2.856 2.856 0 0 1-2.177.057 62.71 62.71 0 0 1-26.022-23.227c-1.405-2.233-1.623-3.919 0-6.321a63.026 63.026 0 0 0 10.296-26.162c.183-1.152.534-1.539 1.784-1.461 3.456.231 6.918.33 10.381.351 1.144 0 1.573.344 1.615 1.475.155 4.67.225 9.355.604 14.047.492 5.998 1.243 11.975 1.896 17.966.067.299.163.591.288.871l.527-.036Zm-62.305-22.622c5.865 2.283 11.54 2.76 17.053-.372 5.513-3.133 7.88-8.267 9.131-14.188l14.938 2.107c-.309 1.56-.547 3.147-.934 4.699-1.601 6.419-4.144 12.439-8.252 17.657a29.169 29.169 0 0 1-5.261 5.183c-6.195 4.685-14.187 2.971-19.202-1.208a20.676 20.676 0 0 1-7.241-12.15c-.084-.471-.141-1.012-.232-1.728Zm82.561-12.46 15.044-2.107c1.285 5.851 3.793 10.985 9.264 14.047 5.471 3.062 11.048 2.606 17.06.204a42.913 42.913 0 0 1-1.068 4.375c-2.289 6.322-6.321 10.985-13 12.938-5.45 1.601-10.282.281-14.447-3.512-5.619-5.092-8.758-11.715-11.013-18.795-.737-2.296-1.215-4.67-1.84-7.15Zm-20.516-4.277c-11.293 0-22.566-.407-33.656-2.809a66.64 66.64 0 0 1-8.232-2.683 4.667 4.667 0 0 1-1.664-1.244c-.703-.702-.752-1.636.063-2.212 1.201-.857 2.458-1.833 3.842-2.191a132.972 132.972 0 0 1 13.394-2.985c9.966-1.51 20.038-1.749 30.102-1.573 10.865.189 21.696.793 32.308 3.511a26.573 26.573 0 0 1 5.38 1.988c.948.478 2.044 1.405 2.269 2.381.309 1.292-1.117 2.023-2.171 2.395a71.376 71.376 0 0 1-9.341 2.887c-8.927 1.805-17.987 2.366-27.075 2.521-1.756.042-3.484.014-5.219.014Zm38.11-7.48v-.646a13.464 13.464 0 0 0-2.199-.703c-3.378-.512-6.756-1.074-10.149-1.404a267.02 267.02 0 0 0-39.198-.773c-7.508.415-14.995 1.405-22.475 2.107-.834.172-1.648.428-2.43.766v.625c1.264.309 2.515.702 3.8.927 10.191 1.601 20.48 1.953 30.77 2.107 6.735.077 13.485-.084 20.213-.449 6.104-.331 12.193-1.054 18.261-1.679a22.597 22.597 0 0 0 3.407-.878ZM93.453 404.234l12.48 9.411 14.827-4.937-5.092 14.777 9.285 12.579-15.634-.288-9.089 12.72-4.565-14.953-14.904-4.72 12.811-8.955-.12-15.634Zm409.987 1.594 13.717 7.501 13.955-7.051-2.893 15.36 11.02 11.09-15.508 2.002-7.143 13.906-6.693-14.131-15.431-2.494 11.371-10.731-2.395-15.452Z"/></svg>