<svg xmlns="http://www.w3.org/2000/svg" viewBox="0 0 20 16" fill="currentColor">
  <path d="M10.3.3a1 1 0 0 0-.71-.3H4.5a1 1 0 0 0-1 1v11.5a1 1 0 0 0 1 1h4.38A2.24 2.24 0 0 1 8.5 12H5V1.5h4.25v1.25a1 1 0 0 0 1 1h1.25V7H13V3.41a1 1 0 0 0-.3-.7L10.3.29Z"/>
  <path d="M8.63 14.5a2.25 2.25 0 0 0 0 1.5H3a2 2 0 0 1-2-2V3.5a2 2 0 0 1 1.5-1.94V14c0 .28.22.5.5.5h5.63Zm2.12 0a.75.75 0 0 0 0 1.5h7.5a.75.75 0 0 0 0-1.5h-7.5ZM10 12.25c0-.41.34-.75.75-.75h7.5a.75.75 0 0 1 0 1.5h-7.5a.75.75 0 0 1-.75-.75Zm.75-3.75a.75.75 0 0 0 0 1.5h7.5a.75.75 0 0 0 0-1.5h-7.5Z"/>
</svg>
