<svg xmlns="http://www.w3.org/2000/svg" viewBox="0 0 20 16" fill="currentColor"><path d="M11.3.3a1 1 0 0 0-.71-.3H5.5a1 1 0 0 0-1 1v11.5a1 1 0 0 0 1 1h4.81a1.74 1.74 0 0 1-.24-1.5H6V1.5h4.25v1.25a1 1 0 0 0 1 1h1.25V8H14V3.41a1 1 0 0 0-.3-.7L11.3.29Z"/><path d="M5 14.5h5.17a1.74 1.74 0 0 0 0 1.5H5a3 3 0 0 1-3-3V3.5a2 2 0 0 1 1.5-1.94V13c0 .83.67 1.5 1.5 1.5ZM11.75 9a.75.75 0 0 0 0 1.5h5.5a.75.75 0 0 0 0-1.5h-5.5ZM11 12.5c0-.41.34-.75.75-.75h5.5a.75.75 0 0 1 0 1.5h-5.5a.75.75 0 0 1-.75-.75Zm.75 2a.75.75 0 0 0 0 1.5h5.5a.75.75 0 0 0 0-1.5h-5.5Z"/></svg>