<svg xmlns="http://www.w3.org/2000/svg" viewBox="0 0 20 16" fill="currentColor"><path d="M11.3.3a1 1 0 0 0-.71-.3H5.5a1 1 0 0 0-1 1v11.5a1 1 0 0 0 1 1h4.35C9.34 13.2 9 12.64 9 12H6V1.5h4.25v1.25a1 1 0 0 0 1 1h1.25V7H14V3.41a1 1 0 0 0-.3-.7L11.3.29Z"/><path d="M5 14.5h4.17a1.74 1.74 0 0 0 0 1.5H5a3 3 0 0 1-3-3V3.5a2 2 0 0 1 1.5-1.94V13c0 .83.67 1.5 1.5 1.5ZM10.75 8a.75.75 0 0 0 0 1.5h6.5a.75.75 0 0 0 0-1.5h-6.5ZM10 12c0-.41.34-.75.75-.75h6.5a.75.75 0 0 1 0 1.5h-6.5A.75.75 0 0 1 10 12Zm.75 2.5a.75.75 0 0 0 0 1.5h6.5a.75.75 0 0 0 0-1.5h-6.5Z"/></svg>