<svg xmlns="http://www.w3.org/2000/svg" viewBox="0 0 16 16" fill="currentColor">
  <path d="M7.48.217c-1.417.134-2.735.836-3.707 1.974a5.578 5.578 0 0 0-.891 5.921c.084.189.399.794.439.844.005.004.27-.21.591-.477l.582-.486-.149-.299a4.116 4.116 0 0 1-.227-3.15c.112-.338.371-.828.6-1.133.269-.358.755-.826 1.091-1.049a3.935 3.935 0 0 1 4.392.007c.132.088.305.22.386.292l.147.132.566-.472c.311-.259.573-.478.581-.487.023-.023-.472-.451-.741-.642A5.467 5.467 0 0 0 7.48.217m5.793 2.531a1.168 1.168 0 0 0-.2.076c-.092.048-10.806 8.958-11.025 9.169-.283.273-.283.779 0 1.055a.742.742 0 0 0 .832.147c.105-.049 1.701-1.365 5.56-4.581 2.977-2.482 5.453-4.55 5.501-4.596a.754.754 0 0 0 .022-1.051.771.771 0 0 0-.69-.219m-1.234 4.815-1.307 1.089-1.582 2.434c-.87 1.338-1.592 2.428-1.603 2.421-.012-.007-.18-.303-.374-.657l-.41-.744-.057-.099-.573.477c-.315.263-.576.487-.58.498-.015.043 1.226 2.261 1.318 2.355.052.054.156.132.232.174.125.069.16.076.404.076.312 0 .451-.053.628-.237.172-.18 4.514-6.881 4.719-7.283.1-.196.23-.509.298-.72.12-.367.221-.788.202-.844-.005-.015-.597.462-1.315 1.06"/>
</svg>
