<svg xmlns="http://www.w3.org/2000/svg" viewBox="0 0 16 16" fill="currentColor">
  <path fill-rule="evenodd" d="M14 3a.75.75 0 0 1-.096 1.056l-10.848 9.04a.75.75 0 1 1-.96-1.152l10.848-9.04A.75.75 0 0 1 14 3zm-7.291 9.005.845 1.536 3.177-4.888 2.645-2.204a5.425 5.425 0 0 1-.817 2.144L8.26 15.207a.894.894 0 0 1-1.533-.057l-1.192-2.167 1.174-.978zm4.024-9.21a3.938 3.938 0 0 0-5.517.05l-.112.112a4.096 4.096 0 0 0-.693 4.87l.088.161-1.173.978-.23-.416a5.596 5.596 0 0 1 .947-6.654l.112-.112a5.438 5.438 0 0 1 7.735.046l-1.158.964z"/>
  <path d="m7.554 13.541-.845-1.536-1.174.978 1.192 2.167a.894.894 0 0 0 1.533.057l4.3-6.614a5.425 5.425 0 0 0 .816-2.144l-2.645 2.204-3.177 4.888zM5.216 2.845a3.938 3.938 0 0 1 5.516-.05l1.158-.965a5.438 5.438 0 0 0-7.735-.045l-.112.111a5.596 5.596 0 0 0-.946 6.654l.229.416 1.173-.978-.088-.16a4.096 4.096 0 0 1 .693-4.871l.112-.112zm8.688 1.211a.75.75 0 1 0-.96-1.152l-10.848 9.04a.75.75 0 1 0 .96 1.152l10.848-9.04z"/>
</svg>
