<svg xmlns="http://www.w3.org/2000/svg" viewBox="0 0 16 16" fill="currentColor">
  <path fill-rule="evenodd" d="M7.493.215C6.294.329 5.22.813 4.291 1.657a5.67 5.67 0 0 0-1.863 3.688 5.65 5.65 0 0 0 .442 2.742c.053.121.949 1.774 1.993 3.673 2.088 3.801 2.004 3.665 2.323 3.784a.881.881 0 0 0 .933-.193c.199-.192 4.478-6.777 4.736-7.289a5.43 5.43 0 0 0-.421-5.576A5.455 5.455 0 0 0 7.493.215m.79 1.493c.992.08 1.794.448 2.492 1.144a3.89 3.89 0 0 1 .774 4.468c-.083.177-.779 1.272-2.055 3.235-1.533 2.359-1.935 2.961-1.961 2.933-.063-.07-3.224-5.849-3.309-6.05a4.15 4.15 0 0 1-.106-2.894c.112-.338.371-.828.6-1.133.269-.358.755-.826 1.091-1.049a3.927 3.927 0 0 1 1.879-.654c.135-.011.247-.022.248-.024.002-.002.158.008.347.024"/>
</svg>
