<svg xmlns="http://www.w3.org/2000/svg" viewBox="0 0 16 16" fill="currentColor">
  <path d="m7.554 13.541-.93-1.69-1.104 1.104 1.207 2.195a.894.894 0 0 0 1.533.057l4.3-6.614a5.428 5.428 0 0 0 .848-3.527L11.796 6.68c-.106.381-.27.75-.494 1.096l-3.748 5.766zM5.216 2.845a3.938 3.938 0 0 1 5.516-.052l.5-.5c.202-.202.44-.344.694-.426a5.438 5.438 0 0 0-7.77-.082l-.113.111a5.596 5.596 0 0 0-.946 6.654l.666 1.212 1.105-1.104-.457-.83a4.096 4.096 0 0 1 .693-4.871l.112-.112zM13 4.06A.75.75 0 1 0 11.94 3L3 11.94A.75.75 0 0 0 4.06 13L13 4.06z"/>
</svg>
