<svg xmlns="http://www.w3.org/2000/svg" viewBox="0 0 20 16" fill="currentColor"><path fill-rule="evenodd" d="M11.04 11.45A6.46 6.46 0 0 0 8.5 11v3.24c0 .97-.78 1.75-1.75 1.75h-1A1.73 1.73 0 0 1 4 14.25V11h-.25C2.78 11 2 10.22 2 9.25v-3.5C2 4.78 2.78 4 3.75 4h4c1.5 0 2.38-.06 3.29-.44.92-.4 1.93-1.16 3.58-2.75.78-.75 2.13-.23 2.13.9v3.35a3 3 0 0 1 0 4.88v3.35c0 1.13-1.35 1.65-2.13.9-1.65-1.59-2.66-2.35-3.58-2.74Zm.59-6.52a8 8 0 0 1-3.13.56v4.02a8 8 0 0 1 3.13.56c1.09.46 2.17 1.29 3.62 2.65V2.28c-1.45 1.36-2.53 2.19-3.62 2.65ZM7 5.5H3.75a.25.25 0 0 0-.25.25v3.5c0 .14.11.25.25.25H7v-4Zm0 8.75V11H5.5v3.25c0 .14.11.25.25.25h1c.14 0 .25-.11.25-.25Z"/></svg>