<svg xmlns="http://www.w3.org/2000/svg" fill="currentColor" class="vi" viewBox="0 0 16 16"><path d="M9.037 11.445c-.743-.317-1.47-.413-2.537-.438v2.743a1.75 1.75 0 0 1-1.75 1.75h-1A1.75 1.75 0 0 1 2 13.75V11h-.25A1.75 1.75 0 0 1 0 9.25v-3.5C0 4.783.784 4 1.75 4h4c1.5 0 2.382-.059 3.287-.445.923-.394 1.936-1.16 3.58-2.746.778-.752 2.133-.234 2.133.898v3.356A2.996 2.996 0 0 1 16 7.5a2.996 2.996 0 0 1-1.25 2.437v3.356c0 1.132-1.355 1.65-2.133.898-1.644-1.587-2.657-2.352-3.58-2.746m.589-6.51c-1.004.428-1.97.534-3.126.559v4.012c1.156.025 2.122.131 3.126.56 1.093.466 2.175 1.29 3.624 2.656V2.278c-1.45 1.366-2.53 2.19-3.624 2.657M5 5.5H1.75a.25.25 0 0 0-.25.25v3.5c0 .138.112.25.25.25H5zm0 8.25V11H3.5v2.75c0 .138.112.25.25.25h1a.25.25 0 0 0 .25-.25"/></svg>