<svg xmlns="http://www.w3.org/2000/svg" viewBox="0 0 20 16" fill="currentColor">
  <path d="M8 5a1 1 0 1 0 0-2 1 1 0 0 0 0 2zm5-1a1 1 0 1 1-2 0 1 1 0 0 1 2 0zM6.24 8.03l.71.45a5.75 5.75 0 0 0 6.1 0l.71-.45a.75.75 0 1 0-.8-1.27l-.7.45a4.25 4.25 0 0 1-4.51 0l-.72-.45a.75.75 0 1 0-.8 1.27z"/>
  <path fill-rule="evenodd" d="M17 12h-6.88l-3.2 3.2a2 2 0 0 1-3.42-1.4V12H3a2 2 0 0 1-2-2V2c0-1.1.9-2 2-2h14a2 2 0 0 1 2 2v8a2 2 0 0 1-2 2zM3 1.5a.5.5 0 0 0-.5.5v8c0 .28.22.5.5.5h2v3.3c0 .44.54.66.85.35L9.5 10.5H17a.5.5 0 0 0 .5-.5V2a.5.5 0 0 0-.5-.5H3z"/>
</svg>
