<svg xmlns="http://www.w3.org/2000/svg" width="16" height="16" fill="currentColor" class="vi" viewBox="0 0 16 16"><path d="M10 3a1 1 0 1 0 0 2 1 1 0 0 0 0-2ZM5.05 7.82a4.65 4.65 0 0 0 2.98 1.21c1.06 0 2.05-.44 2.98-1.21a.7.7 0 0 0 .02-1.04c-.3-.3-.76-.29-1.09-.03a3.1 3.1 0 0 1-1.91.78 3.1 3.1 0 0 1-1.91-.78c-.33-.26-.8-.26-1.09.03-.3.3-.3.77.02 1.04ZM5 4a1 1 0 1 1 2 0 1 1 0 0 1-2 0Z"/><path d="M1.75 0C.78 0 0 .78 0 1.75v8.5C0 11.22.78 12 1.75 12H3v2.36a1.65 1.65 0 0 0 2.77 1.2L9.55 12h4.7c.97 0 1.75-.78 1.75-1.75v-8.5C16 .78 15.22 0 14.25 0H1.75ZM1.5 1.75c0-.14.11-.25.25-.25h12.5c.14 0 .25.11.25.25v8.5c0 .14-.11.25-.25.25h-5c-.2 0-.37.07-.51.2l-4 3.76a.15.15 0 0 1-.24-.1v-3.11a.75.75 0 0 0-.75-.75h-2a.25.25 0 0 1-.25-.25v-8.5Z"/></svg>