<svg xmlns="http://www.w3.org/2000/svg" fill="currentColor" class="vi" viewBox="0 0 16 16"><path d="M15.707 1.707A1 1 0 0 0 14.293.293L9.018 5.568a1 1 0 0 0-.279.538L8.5 7.5l1.394-.24a1 1 0 0 0 .538-.278l5.275-5.275Z"/><path d="M14.5 10.25V4.328l1.5-1.5v7.422A1.75 1.75 0 0 1 14.25 12H9.547l-3.775 3.553A1.645 1.645 0 0 1 3 14.355V12H1.75A1.75 1.75 0 0 1 0 10.25v-8.5C0 .784.784 0 1.75 0h11.422l-1.5 1.5H1.75a.25.25 0 0 0-.25.25v8.5c0 .138.112.25.25.25h2a.75.75 0 0 1 .75.75v3.105a.145.145 0 0 0 .244.106l3.992-3.757a.75.75 0 0 1 .514-.204h5a.25.25 0 0 0 .25-.25Z"/><path d="M3.75 3h6.422l-1.5 1.5H3.75a.75.75 0 0 1 0-1.5Zm0 3h3.993l-.258 1.5H3.75a.75.75 0 0 1 0-1.5Z"/></svg>