<svg xmlns="http://www.w3.org/2000/svg" viewBox="0 0 20 16" fill="currentColor">
  <path d="M5.75 4.5h3.5a.75.75 0 1 0 0-1.5h-3.5a.75.75 0 0 0 0 1.5zm6 0h1.5a.75.75 0 0 0 0-1.5h-1.5a.75.75 0 0 0 0 1.5zm.5 3h-6.5a.75.75 0 0 1 0-1.5h6.5a.75.75 0 0 1 0 1.5z"/>
  <path fill-rule="evenodd" d="M9.73 12.22 5.4 15.68a.25.25 0 0 1-.41-.2V12H4a2 2 0 0 1-2-2V2c0-1.1.9-2 2-2h12a2 2 0 0 1 2 2v8a2 2 0 0 1-2 2h-5.65a1 1 0 0 0-.62.22zM6.5 10.5v2.38l2.29-1.83c.44-.36 1-.55 1.56-.55H16a.5.5 0 0 0 .5-.5V2a.5.5 0 0 0-.5-.5H4a.5.5 0 0 0-.5.5v8c0 .28.22.5.5.5h2.5z"/>
</svg>
