<svg xmlns="http://www.w3.org/2000/svg" fill="currentColor" class="vi" viewBox="0 0 16 16"><path d="M3.75 3a.75.75 0 0 0 0 1.5h8a.75.75 0 0 0 0-1.5zm0 3a.75.75 0 0 0 0 1.5h5a.75.75 0 0 0 0-1.5z"/><path d="M2.75 0A2.75 2.75 0 0 0 0 2.75v6.5A2.75 2.75 0 0 0 2.75 12H3v2.355a1.645 1.645 0 0 0 2.772 1.198l3.703-3.485A.25.25 0 0 1 9.647 12h3.603A2.75 2.75 0 0 0 16 9.25v-6.5A2.75 2.75 0 0 0 13.25 0zM1.5 2.75c0-.69.56-1.25 1.25-1.25h10.5c.69 0 1.25.56 1.25 1.25v6.5c0 .69-.56 1.25-1.25 1.25H9.647c-.446 0-.875.17-1.2.476L4.744 14.46a.145.145 0 0 1-.244-.106V11.75c0-.69-.56-1.25-1.25-1.25h-.5c-.69 0-1.25-.56-1.25-1.25z"/></svg>