<svg xmlns="http://www.w3.org/2000/svg" viewBox="0 0 16 16" fill="currentColor"><path stroke="#000" stroke-linecap="round" stroke-linejoin="round" stroke-width="1.5" d="M.75 10.25v-8.5a1 1 0 0 1 1-1h12.5a1 1 0 0 1 1 1v8.5a1 1 0 0 1-1 1h-6l-4.5 4v-4h-2a1 1 0 0 1-1-1Z"/><path d="M1.75 1.5a.25.25 0 0 0-.25.25v8.5c0 .14.11.25.25.25h2c.41 0 .75.34.75.75v2.33l3.25-2.9a.75.75 0 0 1 .5-.18h6c.14 0 .25-.11.25-.25v-8.5a.25.25 0 0 0-.25-.25H1.75ZM0 1.75C0 .78.78 0 1.75 0h12.5C15.22 0 16 .78 16 1.75v8.5c0 .97-.78 1.75-1.75 1.75H8.54l-4.3 3.81A.75.75 0 0 1 3 15.25V12H1.75C.78 12 0 11.22 0 10.25v-8.5Z"/></svg>