<svg xmlns="http://www.w3.org/2000/svg" fill="currentColor" class="vi" viewBox="0 0 16 16"><path fill-rule="evenodd" d="M15.707 1.707A1 1 0 0 0 14.293.293L9.018 5.568a1 1 0 0 0-.279.538L8.5 7.5l1.394-.24a1 1 0 0 0 .538-.278l5.275-5.275ZM14.5 9.25V4.328l1.5-1.5V9.25A2.75 2.75 0 0 1 13.25 12H9.647a.25.25 0 0 0-.172.068l-3.702 3.485A1.645 1.645 0 0 1 3 14.355V12h-.25A2.75 2.75 0 0 1 0 9.25v-6.5A2.75 2.75 0 0 1 2.75 0h10.422l-1.5 1.5H2.75c-.69 0-1.25.56-1.25 1.25v6.5c0 .69.56 1.25 1.25 1.25h.5c.69 0 1.25.56 1.25 1.25v2.605a.145.145 0 0 0 .244.106l3.703-3.485a1.75 1.75 0 0 1 1.2-.476h3.603c.69 0 1.25-.56 1.25-1.25ZM3.75 3h6.422l-1.5 1.5H3.75a.75.75 0 0 1 0-1.5Zm0 3h3.993l-.258 1.5H3.75a.75.75 0 0 1 0-1.5Z"/></svg>