<svg xmlns="http://www.w3.org/2000/svg" fill="currentColor" class="vi" viewBox="0 0 16 16"><path stroke="#000" stroke-linecap="round" stroke-linejoin="round" stroke-width="1.5" d="M.75 9.25v-6.5a2 2 0 0 1 2-2h10.5a2 2 0 0 1 2 2v6.5a2 2 0 0 1-2 2H9.647a1 1 0 0 0-.686.272l-3.703 3.485a.895.895 0 0 1-1.508-.652V11.75a.5.5 0 0 0-.5-.5h-.5a2 2 0 0 1-2-2Z"/><path d="M2.75 1.5c-.69 0-1.25.56-1.25 1.25v6.5c0 .69.56 1.25 1.25 1.25h.5c.69 0 1.25.56 1.25 1.25v2.605a.145.145 0 0 0 .244.106l3.703-3.485a1.75 1.75 0 0 1 1.2-.476h3.603c.69 0 1.25-.56 1.25-1.25v-6.5c0-.69-.56-1.25-1.25-1.25H2.75ZM0 2.75A2.75 2.75 0 0 1 2.75 0h10.5A2.75 2.75 0 0 1 16 2.75v6.5A2.75 2.75 0 0 1 13.25 12H9.647a.25.25 0 0 0-.172.068l-3.702 3.485A1.645 1.645 0 0 1 3 14.355V12h-.25A2.75 2.75 0 0 1 0 9.25v-6.5Z"/></svg>