<svg xmlns="http://www.w3.org/2000/svg" fill="currentColor" class="vi" viewBox="0 0 16 16"><path d="M10 3a1 1 0 1 0 0 2 1 1 0 0 0 0-2M5.053 7.817C5.98 8.59 6.974 9.03 8.03 9.03c1.056 0 2.05-.441 2.978-1.213.318-.265.315-.744.022-1.037-.293-.293-.764-.287-1.088-.03-.696.553-1.332.78-1.912.78-.58 0-1.215-.227-1.911-.78-.325-.257-.796-.263-1.089.03-.293.293-.295.772.023 1.037M5 4a1 1 0 1 1 2 0 1 1 0 0 1-2 0"/><path d="M2.75 0A2.75 2.75 0 0 0 0 2.75v6.5A2.75 2.75 0 0 0 2.75 12H3v2.355a1.645 1.645 0 0 0 2.772 1.198l3.703-3.485A.25.25 0 0 1 9.647 12h3.603A2.75 2.75 0 0 0 16 9.25v-6.5A2.75 2.75 0 0 0 13.25 0zM1.5 2.75c0-.69.56-1.25 1.25-1.25h10.5c.69 0 1.25.56 1.25 1.25v6.5c0 .69-.56 1.25-1.25 1.25H9.647c-.446 0-.875.17-1.2.476L4.744 14.46a.145.145 0 0 1-.244-.106V11.75c0-.69-.56-1.25-1.25-1.25h-.5c-.69 0-1.25-.56-1.25-1.25z"/></svg>