<svg xmlns="http://www.w3.org/2000/svg" viewBox="0 0 20 16" fill="currentColor"><path d="M17.84 2.5 16.5 3.86V10a.5.5 0 0 1-.5.5h-5.5l-3.65 3.65a.5.5 0 0 1-.85-.36V10.5H4a.5.5 0 0 1-.5-.5V2c0-.28.22-.5.5-.5h9.19l1.5-1.5H4a2 2 0 0 0-2 2v8c0 1.1.9 2 2 2h.5v1.8a2 2 0 0 0 3.41 1.4l3.21-3.2H16a2 2 0 0 0 2-2V2.33a2 2 0 0 1-.16.18Z"/><path d="M8.85 6.97 9.12 6H5.75a.75.75 0 0 0 0 1.5h3.07c-.02-.17-.02-.35.03-.53ZM5.75 4.5h4.44l1.5-1.5H5.75a.75.75 0 0 0 0 1.5Zm5.91 2.78 5.47-5.48A1 1 0 0 0 15.72.39l-5.5 5.48a.25.25 0 0 0-.06.11l-.34 1.26c-.05.18.1.34.27.32l1.42-.21c.06-.01.1-.04.15-.07Z"/></svg>