<svg xmlns="http://www.w3.org/2000/svg" fill="currentColor" class="vi" viewBox="0 0 16 16"><path d="M3.75 3a.75.75 0 0 0 0 1.5h8a.75.75 0 0 0 0-1.5h-8Zm0 3a.75.75 0 0 0 0 1.5h5a.75.75 0 0 0 0-1.5h-5Z"/><path d="M1.75 0C.78 0 0 .78 0 1.75v8.5C0 11.22.78 12 1.75 12H3v2.36a1.65 1.65 0 0 0 2.77 1.2L9.55 12h4.7c.97 0 1.75-.78 1.75-1.75v-8.5C16 .78 15.22 0 14.25 0H1.75ZM1.5 1.75c0-.14.11-.25.25-.25h12.5c.14 0 .25.11.25.25v8.5c0 .14-.11.25-.25.25h-5c-.2 0-.37.07-.51.2l-4 3.76a.15.15 0 0 1-.24-.1v-3.11a.75.75 0 0 0-.75-.75h-2a.25.25 0 0 1-.25-.25v-8.5Z"/></svg>