<svg xmlns="http://www.w3.org/2000/svg" fill="currentColor" class="vi" viewBox="0 0 16 16"><path d="M3.75 3a.75.75 0 0 0 0 1.5h8a.75.75 0 0 0 0-1.5h-8Zm0 3a.75.75 0 0 0 0 1.5h5a.75.75 0 0 0 0-1.5h-5Z"/><path d="M1.75 0A1.75 1.75 0 0 0 0 1.75v8.5C0 11.216.784 12 1.75 12H3v2.355a1.645 1.645 0 0 0 2.772 1.198L9.547 12h4.703A1.75 1.75 0 0 0 16 10.25v-8.5A1.75 1.75 0 0 0 14.25 0H1.75ZM1.5 1.75a.25.25 0 0 1 .25-.25h12.5a.25.25 0 0 1 .25.25v8.5a.25.25 0 0 1-.25.25h-5a.75.75 0 0 0-.514.204L4.744 14.46a.145.145 0 0 1-.244-.106V11.25a.75.75 0 0 0-.75-.75h-2a.25.25 0 0 1-.25-.25v-8.5Z"/></svg>