<svg xmlns="http://www.w3.org/2000/svg" fill="currentColor" class="vi" viewBox="0 0 16 16"><path d="M15.7 1.7A1 1 0 0 0 14.3.3L9.01 5.56a1 1 0 0 0-.28.54L8.5 7.5l1.4-.24a1 1 0 0 0 .53-.28l5.28-5.27Z"/><path d="M14.5 10.25V4.33l1.5-1.5v7.42c0 .97-.78 1.75-1.75 1.75h-4.7l-3.78 3.55A1.65 1.65 0 0 1 3 14.35V12H1.75C.78 12 0 11.22 0 10.25v-8.5C0 .78.78 0 1.75 0h11.42l-1.5 1.5H1.75a.25.25 0 0 0-.25.25v8.5c0 .14.11.25.25.25h2c.41 0 .75.34.75.75v3.1a.15.15 0 0 0 .24.11l4-3.76c.14-.13.32-.2.51-.2h5c.14 0 .25-.11.25-.25Z"/><path d="M3.75 3h6.42l-1.5 1.5H3.75a.75.75 0 0 1 0-1.5Zm0 3h4l-.26 1.5H3.75a.75.75 0 0 1 0-1.5Z"/></svg>