<svg xmlns="http://www.w3.org/2000/svg" fill="currentColor" class="vi" viewBox="0 0 16 16"><path d="M10 3a1 1 0 1 0 0 2 1 1 0 0 0 0-2ZM5.053 7.817C5.98 8.59 6.974 9.03 8.03 9.03c1.056 0 2.05-.441 2.978-1.213.318-.265.315-.744.022-1.037-.293-.293-.764-.287-1.088-.03-.696.553-1.332.78-1.912.78-.58 0-1.215-.227-1.911-.78-.325-.257-.796-.263-1.089.03-.293.293-.295.772.023 1.037ZM5 4a1 1 0 1 1 2 0 1 1 0 0 1-2 0Z"/><path d="M1.75 0A1.75 1.75 0 0 0 0 1.75v8.5C0 11.216.784 12 1.75 12H3v2.355a1.645 1.645 0 0 0 2.772 1.198L9.547 12h4.703A1.75 1.75 0 0 0 16 10.25v-8.5A1.75 1.75 0 0 0 14.25 0H1.75ZM1.5 1.75a.25.25 0 0 1 .25-.25h12.5a.25.25 0 0 1 .25.25v8.5a.25.25 0 0 1-.25.25h-5a.75.75 0 0 0-.514.204L4.744 14.46a.145.145 0 0 1-.244-.106V11.25a.75.75 0 0 0-.75-.75h-2a.25.25 0 0 1-.25-.25v-8.5Z"/></svg>