<svg xmlns="http://www.w3.org/2000/svg" viewBox="0 0 20 16" fill="currentColor">
  <path d="M5.75 4.5h3.5a.75.75 0 1 0 0-1.5h-3.5a.75.75 0 0 0 0 1.5zm6 0h1.5a.75.75 0 0 0 0-1.5h-1.5a.75.75 0 0 0 0 1.5zm.5 3h-6.5a.75.75 0 0 1 0-1.5h6.5a.75.75 0 0 1 0 1.5z"/>
  <path fill-rule="evenodd" d="m9.726 12.22-4.32 3.455A.25.25 0 0 1 5 15.48V12H4a2 2 0 0 1-2-2V2a2 2 0 0 1 2-2h12a2 2 0 0 1 2 2v8a2 2 0 0 1-2 2h-5.65a1 1 0 0 0-.624.22zM6.5 10.5v2.38l2.289-1.832a2.5 2.5 0 0 1 1.562-.548H16a.5.5 0 0 0 .5-.5V2a.5.5 0 0 0-.5-.5H4a.5.5 0 0 0-.5.5v8a.5.5 0 0 0 .5.5h2.5z"/>
</svg>
