<svg xmlns="http://www.w3.org/2000/svg" fill="currentColor" class="vi" viewBox="0 0 16 16"><path d="M7.75 2a.75.75 0 0 1 .75-.75h1.22a1.75 1.75 0 0 1 1.697 1.326l.277 1.108.337-.27A.75.75 0 0 1 13.25 4v1.5a.75.75 0 0 1-.92.73l.2.798a5 5 0 0 1 2.976 1.408c.296.29.225.766-.106 1.014-.332.249-.797.174-1.11-.097a3.5 3.5 0 0 0-5.755 2.149C8.496 11.775 8.276 12 8 12H7a3 3 0 1 1-6 0H.75a.75.75 0 0 1-.75-.75v-1.5A3.75 3.75 0 0 1 3.75 6h3a.75.75 0 0 1 .75.75v3.068A5 5 0 0 1 11.002 7.1l-1.04-4.16a.25.25 0 0 0-.243-.19H8.5A.75.75 0 0 1 7.75 2m-4 5.5A2.25 2.25 0 0 0 1.5 9.75v.75H6v-3zM2.5 12a1.5 1.5 0 0 0 3 0z"/><path d="M3 4.25a.75.75 0 0 1 .75-.75h3a.75.75 0 0 1 0 1.5h-3A.75.75 0 0 1 3 4.25M12 15a3 3 0 1 0 0-6 3 3 0 0 0 0 6m0-1.5a1.5 1.5 0 1 1 0-3 1.5 1.5 0 0 1 0 3"/></svg>