<svg xmlns="http://www.w3.org/2000/svg" fill="currentColor" class="vi" viewBox="0 0 16 16"><path d="M13.5 9.208V4.987L6 7.07v6.43a2.5 2.5 0 1 1-1.5-2.292V4.01a1.75 1.75 0 0 1 1.282-1.686l7-1.945A1.75 1.75 0 0 1 15 2.066v5.452a1.75 1.75 0 0 0-1.5 1.732v-.042Zm-.317-7.383-7 1.944A.25.25 0 0 0 6 4.01v1.503l7.5-2.083V2.066a.25.25 0 0 0-.317-.241ZM4.5 13.5a1 1 0 1 0-2 0 1 1 0 0 0 2 0Z"/><path d="M11.75 8.5a.75.75 0 0 1 .75.75v6a.75.75 0 0 1-1.5 0v-6a.75.75 0 0 1 .75-.75Zm3.5 0a.75.75 0 0 1 .75.75v6a.75.75 0 0 1-1.5 0v-6a.75.75 0 0 1 .75-.75Z"/></svg>