<svg xmlns="http://www.w3.org/2000/svg" viewBox="0 0 20 16" fill="currentColor"><path fill-rule="evenodd" d="M4 1a2 2 0 0 0-2 2v10c0 1.1.9 2 2 2h12a2 2 0 0 0 2-2V3a2 2 0 0 0-2-2H4Zm-.5 12V4.5h13V13a.5.5 0 0 1-.5.5H4a.5.5 0 0 1-.5-.5Zm8-10.25a.75.75 0 1 1-1.5 0 .75.75 0 0 1 1.5 0Zm1.75.75a.75.75 0 1 1 0-1.5.75.75 0 0 1 0 1.5Zm2.5 0a.75.75 0 1 1 0-1.5.75.75 0 0 1 0 1.5Z"/><path d="m10.73 7.67.47-.47a1 1 0 1 0-1.4-1.4L7.9 7.66h2.82Zm1.51 2.03-2.5 2.5a1 1 0 0 1-1.41-1.4l2.5-2.5a1 1 0 0 1 1.41 1.4ZM10.6 8.06 8.66 10H8a1 1 0 1 1 0-2h2.66a1.4 1.4 0 0 0-.06.06Z"/></svg>