<svg xmlns="http://www.w3.org/2000/svg" viewBox="0 0 20 16" fill="currentColor"><path d="M9 3a1.5 1.5 0 1 0 0-3 1.5 1.5 0 0 0 0 3Z"/><path fill-rule="evenodd" d="M18 3.5a2.5 2.5 0 0 1-3.66 2.22l-1.4 1.4a3.48 3.48 0 0 1-.09 3.9l1.83 2.01a1.5 1.5 0 0 1 1.82 1.47 1.5 1.5 0 1 1-2.93-.46l-1.82-2A3.5 3.5 0 0 1 6.72 7.8l-.62-.4a2.5 2.5 0 1 1 .8-1.27l.6.4a3.49 3.49 0 0 1 4.38-.49l1.4-1.4.01.04A2.5 2.5 0 1 1 18 3.5Zm-1.5 0a1 1 0 1 0-2 0 1 1 0 0 0 2 0ZM12 9a2 2 0 1 0-4 0 2 2 0 0 0 4 0ZM4.5 6.5a1 1 0 1 0 0-2 1 1 0 0 0 0 2Z"/></svg>