<svg xmlns="http://www.w3.org/2000/svg" viewBox="0 0 20 16" fill="currentColor">
  <path d="M4.34 7.19a2.49 2.49 0 0 0 .64-1.36l2.24 1.04a3.48 3.48 0 0 0-.64 1.36L4.34 7.2zM16.02 5.5a2.51 2.51 0 0 1-.89-1.2l-2.82 2.06c.38.34.68.75.9 1.21l2.81-2.07zm-3.73 6.14c.38-.33.69-.74.9-1.2l2.22 1.67a1.5 1.5 0 0 0-.9 1.2l-2.23-1.67z"/>
  <path fill-rule="evenodd" d="M10 11a2 2 0 1 1 0-4 2 2 0 0 1 0 4zm0 1.5a3.5 3.5 0 1 0 0-7 3.5 3.5 0 0 0 0 7zm7.5-8a1 1 0 1 1 0-2 1 1 0 0 1 0 2zm0 1.5a2.5 2.5 0 1 0 0-5 2.5 2.5 0 0 0 0 5zm-15 .5a1 1 0 1 1 0-2 1 1 0 0 1 0 2zm0 1.5a2.5 2.5 0 1 0 0-5 2.5 2.5 0 0 0 0 5z"/>
  <path d="M17.5 13.5a1.5 1.5 0 1 1-3 0 1.5 1.5 0 0 1 3 0zm-7-11a1.5 1.5 0 1 1-3 0 1.5 1.5 0 0 1 3 0z"/>
</svg>
