<svg xmlns="http://www.w3.org/2000/svg" fill="currentColor" class="vi" viewBox="0 0 16 16"><path d="M8 1.5a1.5 1.5 0 1 1-3 0 1.5 1.5 0 0 1 3 0Z"/><path d="M13.5 6a2.5 2.5 0 1 0-2.217-1.344L9.887 6.052A3.484 3.484 0 0 0 8 5.5a3.49 3.49 0 0 0-2.482 1.032l-.603-.384A2.504 2.504 0 0 0 2.5 3a2.5 2.5 0 1 0 1.61 4.413l.602.384a3.5 3.5 0 0 0 4.873 4.325l1.512 1.847a1.5 1.5 0 1 0 1.161-.95l-1.513-1.848c.473-.596.755-1.35.755-2.171 0-.695-.203-1.343-.552-1.887l1.396-1.396c.345.18.739.283 1.156.283Zm0-1.5a1 1 0 1 1 0-2 1 1 0 0 1 0 2Zm-10 1a1 1 0 1 1-2 0 1 1 0 0 1 2 0ZM10 9a2 2 0 1 1-4 0 2 2 0 0 1 4 0Z"/></svg>