<svg xmlns="http://www.w3.org/2000/svg" viewBox="0 0 21 16" fill="currentColor">
  <path d="M4.844 7.188a2.49 2.49 0 0 0 .635-1.359l2.24 1.046a3.485 3.485 0 0 0-.635 1.359l-2.24-1.046zM16.52 5.515a2.51 2.51 0 0 1-.887-1.21l-2.82 2.068c.377.333.682.744.888 1.21l2.82-2.068zm-3.735 6.136c.38-.328.69-.737.9-1.2l2.225 1.67a1.503 1.503 0 0 0-.9 1.2l-2.225-1.67z"/>
  <path fill-rule="evenodd" d="M10.5 11a2 2 0 1 1 0-4 2 2 0 0 1 0 4zm0 1.5a3.5 3.5 0 1 0 0-7 3.5 3.5 0 0 0 0 7zm7.5-8a1 1 0 1 1 0-2 1 1 0 0 1 0 2zM18 6a2.5 2.5 0 1 0 0-5 2.5 2.5 0 0 0 0 5zM3 6.5a1 1 0 1 1 0-2 1 1 0 0 1 0 2zM3 8a2.5 2.5 0 1 0 0-5 2.5 2.5 0 0 0 0 5z"/>
  <path d="M18 13.5a1.5 1.5 0 1 1-3 0 1.5 1.5 0 0 1 3 0zm-7-11a1.5 1.5 0 1 1-3 0 1.5 1.5 0 0 1 3 0z"/>
</svg>
