<svg xmlns="http://www.w3.org/2000/svg" fill="currentColor" class="vi" viewBox="0 0 16 16"><path d="M5.5 2a1.5 1.5 0 1 1-3 0 1.5 1.5 0 0 1 3 0Zm4 0a1.5 1.5 0 1 1-3 0 1.5 1.5 0 0 1 3 0Zm4 0a1.5 1.5 0 1 1-3 0 1.5 1.5 0 0 1 3 0Zm-8 4a1.5 1.5 0 1 1-3 0 1.5 1.5 0 0 1 3 0Zm4 0a1.5 1.5 0 1 1-3 0 1.5 1.5 0 0 1 3 0Zm4 0a1.5 1.5 0 1 1-3 0 1.5 1.5 0 0 1 3 0Zm-8 4a1.5 1.5 0 1 1-3 0 1.5 1.5 0 0 1 3 0Zm4 0a1.5 1.5 0 1 1-3 0 1.5 1.5 0 0 1 3 0Zm4 0a1.5 1.5 0 1 1-3 0 1.5 1.5 0 0 1 3 0Zm-4 4a1.5 1.5 0 1 1-3 0 1.5 1.5 0 0 1 3 0Z"/></svg>