<svg xmlns="http://www.w3.org/2000/svg" fill="currentColor" class="vi" viewBox="0 0 16 16"><path d="M10.5 1.75a.75.75 0 0 1 .75-.75h1.5a.75.75 0 0 1 .75.75V5.5h.75a.75.75 0 0 1 0 1.5h-3a.75.75 0 0 1 0-1.5H12v-3h-.75a.75.75 0 0 1-.75-.75m4.5 8.508v-.008a2.25 2.25 0 1 0-1.506 2.124A1.25 1.25 0 0 1 12.25 13.5h-1a.75.75 0 0 0 0 1.5h1A2.75 2.75 0 0 0 15 12.25zM12.75 9.5a.75.75 0 0 1 .75.75v.005a.75.75 0 1 1-.75-.755M7.72 5.53a.75.75 0 0 0 1.06-1.06L5.53 1.22a.75.75 0 0 0-1.06 0L1.22 4.47a.75.75 0 0 0 1.06 1.06l1.97-1.97v10.69a.75.75 0 0 0 1.5 0V3.56z"/></svg>