<svg xmlns="http://www.w3.org/2000/svg" fill="currentColor" class="vi" viewBox="0 0 16 16"><path d="M12.5 1c.31 0 .587.19.699.478l1.75 4.5a.75.75 0 0 1-1.398.544l-.106-.272h-1.89l-.106.272a.75.75 0 1 1-1.398-.544l1.75-4.5A.75.75 0 0 1 12.5 1m.362 3.75-.362-.93-.362.93zM10 9.75a.75.75 0 0 1 .75-.75h3.5a.75.75 0 0 1 .592 1.21l-2.559 3.29h1.967a.75.75 0 0 1 0 1.5h-3.5a.75.75 0 0 1-.592-1.21l2.559-3.29H10.75a.75.75 0 0 1-.75-.75M7.72 5.53a.75.75 0 0 0 1.06-1.06L5.53 1.22a.75.75 0 0 0-1.06 0L1.22 4.47a.75.75 0 0 0 1.06 1.06l1.97-1.97v10.69a.75.75 0 0 0 1.5 0V3.56z"/></svg>