<svg xmlns="http://www.w3.org/2000/svg" fill="currentColor" class="vi" viewBox="0 0 16 16"><path d="M3 9h10a.5.5 0 0 0 .5-.5V5a.5.5 0 0 0-.5-.5H3a.5.5 0 0 0-.5.5v3.5A.5.5 0 0 0 3 9Zm9-1.5H4V6h8v1.5ZM3.25 10a.75.75 0 0 0 0 1.5h.5a.75.75 0 0 0 0-1.5h-.5Zm2.25.75a.75.75 0 0 1 .75-.75h.5a.75.75 0 0 1 0 1.5h-.5a.75.75 0 0 1-.75-.75Zm6.25-.75a.75.75 0 0 0 0 1.5h1a.75.75 0 0 0 0-1.5h-1Z"/><path d="M2 2a2 2 0 0 0-2 2v8a2 2 0 0 0 2 2h12a2 2 0 0 0 2-2V4a2 2 0 0 0-2-2H2Zm12 1.5a.5.5 0 0 1 .5.5v8a.5.5 0 0 1-.5.5H2a.5.5 0 0 1-.5-.5V4a.5.5 0 0 1 .5-.5h12Z"/></svg>