<svg xmlns="http://www.w3.org/2000/svg" viewBox="0 0 20 16" fill="currentColor">
  <path fill-rule="evenodd" d="M13 12c0-.3-.066-.583-.184-.838l3.874-5.165c.643-.049 1.11-.7.914-1.326C16.96 2.613 15.658 0 10 0 4.343 0 3.04 2.613 2.396 4.67c-.196.627.271 1.278.914 1.327l3.874 5.165A1.992 1.992 0 0 0 7 12v2a2 2 0 0 0 2 2h2a2 2 0 0 0 2-2v-2zm2.957-7.5h-2.783c-.125-1.174-.402-2.091-.777-2.786 1.127.23 1.851.615 2.336 1.01.597.49.957 1.095 1.224 1.776zM10.75 6h4.063l-3.099 4.131A1.995 1.995 0 0 0 11 10h-.25V6zm-1.5 4H9a1.99 1.99 0 0 0-.714.131L5.188 6H9.25v4zM10 1.5c.176 0 .586.117.986.768.285.462.548 1.177.679 2.232h-3.33c.13-1.055.395-1.77.679-2.232.4-.651.81-.768.986-.768zm-3.174 3H4.043c.267-.68.627-1.287 1.225-1.775.484-.396 1.208-.782 2.335-1.011-.375.695-.651 1.612-.777 2.786zM9 11.5h2a.5.5 0 0 1 .5.5v2a.5.5 0 0 1-.5.5H9a.5.5 0 0 1-.5-.5v-2a.5.5 0 0 1 .5-.5z"/>
</svg>
