<svg xmlns="http://www.w3.org/2000/svg" fill="currentColor" class="vi" viewBox="0 0 16 16"><path d="m11.472 10.438 3.231-4.442c.636-.057 1.095-.703.9-1.325C14.96 2.613 13.658 0 8 0S1.04 2.613.396 4.67c-.194.623.265 1.27.901 1.326l3.23 4.442a1.76 1.76 0 0 0-.027.312v3.5c0 .966.784 1.75 1.75 1.75h3.5a1.75 1.75 0 0 0 1.75-1.75v-3.5c0-.106-.01-.21-.028-.312ZM13.957 4.5h-2.783c-.125-1.174-.402-2.091-.777-2.786 1.127.23 1.851.615 2.335 1.01.598.49.958 1.095 1.225 1.776ZM8.75 6h4.095L10.53 9.183A1.743 1.743 0 0 0 9.75 9h-1V6ZM5.47 9.183 3.155 6H7.25v3h-1c-.28 0-.545.066-.78.183ZM8 1.5c.176 0 .586.117.986.768.285.462.548 1.177.679 2.232h-3.33c.13-1.055.394-1.77.679-2.232.4-.651.81-.768.986-.768Zm-3.174 3H2.043c.267-.68.627-1.287 1.224-1.775.485-.396 1.21-.782 2.336-1.011-.375.695-.651 1.612-.777 2.786ZM6 10.75a.25.25 0 0 1 .25-.25h3.5a.25.25 0 0 1 .25.25v3.5a.25.25 0 0 1-.25.25h-3.5a.25.25 0 0 1-.25-.25v-3.5Z"/></svg>