<svg xmlns="http://www.w3.org/2000/svg" viewBox="0 0 20 16" fill="currentColor"><path fill-rule="evenodd" d="M13.5 11a2 2 0 0 0-.07-.51l3.27-4.5c.64-.05 1.1-.7.9-1.32C16.96 2.61 15.66 0 10 0S3.04 2.61 2.4 4.67c-.2.62.26 1.27.9 1.33l3.27 4.49a2 2 0 0 0-.07.51v3c0 1.1.9 2 2 2h3a2 2 0 0 0 2-2v-3Zm2.46-6.5h-2.79a7.57 7.57 0 0 0-.77-2.79 5.3 5.3 0 0 1 2.33 1.01c.6.5.96 1.1 1.23 1.78ZM10.75 6h4.1l-2.37 3.26A2 2 0 0 0 11.5 9h-.75V6ZM8.5 10.5h3c.28 0 .5.22.5.5v3a.5.5 0 0 1-.5.5h-3A.5.5 0 0 1 8 14v-3c0-.28.22-.5.5-.5ZM9.25 9H8.5a2 2 0 0 0-.98.26L5.15 6h4.1v3ZM10 1.5c.18 0 .59.12.99.77.28.46.54 1.17.67 2.23H8.34a5.6 5.6 0 0 1 .67-2.23c.4-.65.81-.77.99-.77Zm-3.17 3H4.04c.27-.68.63-1.29 1.23-1.78.48-.4 1.2-.78 2.33-1-.37.69-.65 1.6-.77 2.78Z"/></svg>