<svg xmlns="http://www.w3.org/2000/svg" fill="currentColor" class="vi" viewBox="0 0 16 16"><path d="M11.47 10.44 14.7 6c.64-.06 1.1-.7.9-1.33C14.96 2.61 13.66 0 8 0S1.04 2.61.4 4.67C.2 5.3.66 5.94 1.3 6l3.23 4.44c-.02.1-.03.2-.03.31v3.5c0 .97.78 1.75 1.75 1.75h3.5c.97 0 1.75-.78 1.75-1.75v-3.5c0-.1 0-.21-.03-.31Zm2.49-5.94h-2.79a7.56 7.56 0 0 0-.77-2.79 5.3 5.3 0 0 1 2.33 1.01c.6.5.96 1.1 1.23 1.78ZM8.75 6h4.1l-2.32 3.18c-.23-.11-.5-.18-.78-.18h-1V6ZM5.47 9.18 3.15 6h4.1v3h-1c-.28 0-.55.07-.78.18ZM8 1.5c.18 0 .59.12.99.77.28.46.54 1.17.67 2.23H6.34a5.6 5.6 0 0 1 .67-2.23c.4-.65.81-.77.99-.77Zm-3.17 3H2.04c.27-.68.63-1.29 1.23-1.78.48-.4 1.2-.78 2.33-1-.37.69-.65 1.6-.77 2.78ZM6 10.75c0-.14.11-.25.25-.25h3.5c.14 0 .25.11.25.25v3.5c0 .14-.11.25-.25.25h-3.5a.25.25 0 0 1-.25-.25v-3.5Z"/></svg>