<svg xmlns="http://www.w3.org/2000/svg" fill="currentColor" class="vi" viewBox="0 0 16 16"><path d="m11.289 10.69 3.414-4.694c.636-.057 1.095-.703.9-1.325C14.96 2.613 13.658 0 8 0S1.04 2.613.396 4.67c-.194.623.265 1.27.901 1.326l3.414 4.695A2.7 2.7 0 0 0 4.5 11.75v1.5A2.75 2.75 0 0 0 7.25 16h1.5a2.75 2.75 0 0 0 2.75-2.75v-1.5c0-.375-.075-.733-.211-1.06m2.668-6.19h-2.783c-.125-1.174-.402-2.091-.777-2.786 1.127.23 1.851.615 2.335 1.01.598.49.958 1.095 1.225 1.776M8.75 6h4.095l-2.534 3.485A2.74 2.74 0 0 0 8.75 9zM5.69 9.485 3.154 6H7.25v3c-.58 0-1.117.18-1.56.485M8 1.5c.176 0 .586.117.986.768.285.462.548 1.177.679 2.232h-3.33c.13-1.055.394-1.77.679-2.232.4-.651.81-.768.986-.768m-3.174 3H2.043c.267-.68.627-1.287 1.224-1.775.485-.396 1.21-.782 2.336-1.011-.375.695-.651 1.612-.777 2.786M6 11.75c0-.69.56-1.25 1.25-1.25h1.5c.69 0 1.25.56 1.25 1.25v1.5c0 .69-.56 1.25-1.25 1.25h-1.5c-.69 0-1.25-.56-1.25-1.25z"/></svg>