<svg xmlns="http://www.w3.org/2000/svg" viewBox="0 0 20 16" fill="currentColor">
  <path fill-rule="evenodd" d="M13 12c0-.3-.07-.58-.18-.84L16.69 6c.64-.05 1.11-.7.91-1.33C16.96 2.61 15.66 0 10 0S3.04 2.61 2.4 4.67c-.2.63.27 1.28.91 1.33l3.87 5.16A2 2 0 0 0 7 12v2a2 2 0 0 0 2 2h2a2 2 0 0 0 2-2v-2zm2.96-7.5h-2.79a7.54 7.54 0 0 0-.77-2.79 5.3 5.3 0 0 1 2.33 1.01c.6.5.96 1.1 1.23 1.78zM10.75 6h4.06l-3.1 4.13A2 2 0 0 0 11 10h-.25V6zm-1.5 4H9a1.99 1.99 0 0 0-.71.13L5.19 6h4.06v4zM10 1.5c.18 0 .59.12.99.77.28.46.54 1.17.68 2.23H8.34c.13-1.05.39-1.77.67-2.23.4-.65.81-.77.99-.77zm-3.17 3H4.04a4.1 4.1 0 0 1 1.23-1.77c.48-.4 1.2-.79 2.33-1.02-.37.7-.65 1.62-.77 2.79zm2.17 7h2a.5.5 0 0 1 .5.5v2a.5.5 0 0 1-.5.5H9a.5.5 0 0 1-.5-.5v-2a.5.5 0 0 1 .5-.5z"/>
</svg>
