<svg xmlns="http://www.w3.org/2000/svg" viewBox="0 0 16 16" fill="currentColor">
  <path fill-rule="evenodd" d="M12.245.349a1.95 1.95 0 0 0-.685.219c-.208.107-.329.225-4.77 4.644a1200.144 1200.144 0 0 0-5.218 5.214c-.618.634-.659.683-.62.727.039.043.038.063-.015.24-.058.197-.943 4.583-.928 4.598.018.018 4.52-.898 4.668-.949.424-.148.118.143 5.579-5.318 5.027-5.028 5.07-5.073 5.181-5.29a2.029 2.029 0 0 0 .029-1.808c-.126-.265-.306-.472-1.043-1.202-.757-.749-.893-.853-1.274-.983-.18-.062-.553-.126-.682-.118a6.38 6.38 0 0 0-.222.026M12.013 4l.933.933-4.306 4.31c-3.075 3.077-4.337 4.323-4.413 4.358-.111.049-2.275.493-2.298.47-.015-.014.373-1.981.434-2.204.04-.146.077-.184 4.365-4.474a972.195 972.195 0 0 1 4.339-4.326c.007 0 .433.42.946.933"/>
</svg>
