<svg xmlns="http://www.w3.org/2000/svg" fill="currentColor" class="vi" viewBox="0 0 16 16"><path d="M11.5 4.5a3.5 3.5 0 1 1-7 0 3.5 3.5 0 0 1 7 0m-1.5 0a2 2 0 1 0-4 0 2 2 0 0 0 4 0m-5.95 9.162c-1.598-1.225-1.743-4 .218-4.458.107-.025.217-.044.329-.057a29.37 29.37 0 0 1 6.806 0c.112.013.222.032.33.057 1.96.458 1.815 3.234.218 4.458-.876.671-2.015.838-3.118.838H7.167c-1.103 0-2.242-.167-3.118-.838Zm.558-2.997c-.134.031-.17.078-.191.108-.036.052-.09.173-.093.388-.004.46.235 1.002.638 1.31.477.366 1.203.529 2.205.529h1.666c1.002 0 1.728-.163 2.205-.528.403-.31.643-.851.638-1.311-.002-.215-.057-.336-.092-.387-.021-.031-.058-.077-.192-.109a1.476 1.476 0 0 0-.162-.028 27.863 27.863 0 0 0-6.46 0c-.055.006-.11.016-.162.028"/><path d="M3.968 6.5H2.75A2.75 2.75 0 0 0 0 9.25v3a.75.75 0 0 0 1.5 0v-3C1.5 8.56 2.06 8 2.75 8h2.421a4.518 4.518 0 0 1-1.203-1.5M3.5 3.75a1.75 1.75 0 1 1-3.5 0 1.75 1.75 0 0 1 3.5 0M13.25 8h-2.421a4.518 4.518 0 0 0 1.203-1.5h1.218A2.75 2.75 0 0 1 16 9.25v3a.75.75 0 0 1-1.5 0v-3c0-.69-.56-1.25-1.25-1.25m1-2.5a1.75 1.75 0 1 0 0-3.5 1.75 1.75 0 0 0 0 3.5"/></svg>