<svg xmlns="http://www.w3.org/2000/svg" fill="currentColor" class="vi" viewBox="0 0 16 16"><path d="M10.56 3.7a2.75 2.75 0 0 1-5.15.02c-.33.2-.64.44-.92.72-.3.29-.76.36-1.09.11-.33-.25-.4-.72-.12-1.02a6.8 6.8 0 0 1 2.03-1.45 2.75 2.75 0 0 1 5.33-.02c.79.35 1.5.85 2.08 1.47.28.3.21.77-.12 1.02-.33.25-.8.18-1.1-.11-.28-.28-.6-.53-.94-.73Zm-1.33-.95a1.25 1.25 0 1 0-2.5 0 1.25 1.25 0 0 0 2.5 0Zm-7.7 5.93c-.09-.86 0-1.71.24-2.53.12-.4.56-.57.94-.4.38.15.55.6.45 1-.1.38-.15.78-.16 1.18a2.75 2.75 0 0 1 2.6 4.45c.33.19.7.34 1.07.44.4.1.7.48.64.89a.69.69 0 0 1-.83.61 6.52 6.52 0 0 1-2.27-1.03 2.75 2.75 0 0 1-2.68-4.61Zm3.01 1.34a1.25 1.25 0 1 0-2.16 1.25 1.25 1.25 0 0 0 2.16-1.25Zm5.9 2.35A2.75 2.75 0 0 1 13 7.89c0-.38-.06-.77-.16-1.15-.1-.4.07-.84.45-1 .38-.16.82.01.94.41.24.8.32 1.64.24 2.48a2.75 2.75 0 0 1-2.65 4.63c-.7.5-1.48.86-2.3 1.06-.4.1-.78-.2-.83-.61-.05-.41.24-.78.64-.9.39-.1.76-.25 1.1-.44Zm1.03-2.39a1.25 1.25 0 1 0 2.17 1.25 1.25 1.25 0 0 0-2.17-1.25Z"/></svg>