<svg xmlns="http://www.w3.org/2000/svg" fill="currentColor" class="vi" viewBox="0 0 16 16"><path d="M11.5 4.5a3.5 3.5 0 1 1-7 0 3.5 3.5 0 0 1 7 0m-1.5 0a2 2 0 1 0-4 0 2 2 0 0 0 4 0m-5.392 6.165q.08-.018.162-.028a28 28 0 0 1 3.721-.184 4.5 4.5 0 0 1 1.184-1.456 29.4 29.4 0 0 0-5.078.15 3 3 0 0 0-.33.057c-1.96.457-1.815 3.233-.218 4.458.876.671 2.015.838 3.118.838h1.3a4.5 4.5 0 0 1-.44-1.5h-.86c-1.002 0-1.728-.163-2.205-.528a1.72 1.72 0 0 1-.638-1.311c.002-.215.057-.336.093-.388.02-.03.057-.077.191-.108M13.25 8c.288 0 .554.098.765.261A4.5 4.5 0 0 1 16 9.671V9.25a2.75 2.75 0 0 0-2.75-2.75h-1.218A4.5 4.5 0 0 1 10.83 8z"/><path d="M3.968 6.5H2.75A2.75 2.75 0 0 0 0 9.25v3a.75.75 0 0 0 1.5 0v-3C1.5 8.56 2.06 8 2.75 8h2.421a4.5 4.5 0 0 1-1.203-1.5M3.5 3.75a1.75 1.75 0 1 1-3.5 0 1.75 1.75 0 0 1 3.5 0M14.25 5.5a1.75 1.75 0 1 0 0-3.5 1.75 1.75 0 0 0 0 3.5m1.75 7a3.5 3.5 0 1 1-7 0 3.5 3.5 0 0 1 7 0m-5.354-1.854a.5.5 0 0 0 0 .708l1.147 1.146-1.147 1.146a.5.5 0 0 0 .708.708l1.146-1.147 1.146 1.147a.5.5 0 0 0 .708-.708L13.207 12.5l1.147-1.146a.5.5 0 0 0-.708-.708L12.5 11.793l-1.146-1.147a.5.5 0 0 0-.708 0"/></svg>