<svg xmlns="http://www.w3.org/2000/svg" fill="currentColor" class="vi" viewBox="0 0 16 16"><path d="M10.562 3.705a2.751 2.751 0 0 1-5.153.018 5.02 5.02 0 0 0-.916.713c-.295.29-.762.363-1.093.114-.331-.248-.401-.722-.116-1.023a6.516 6.516 0 0 1 2.03-1.448 2.751 2.751 0 0 1 5.331-.018c.785.35 1.487.85 2.071 1.466.285.3.215.774-.116 1.023-.331.249-.798.177-1.093-.114a5.022 5.022 0 0 0-.945-.73m-1.33-.955a1.25 1.25 0 1 0-2.5 0 1.25 1.25 0 0 0 2.5 0M1.534 8.679a6.516 6.516 0 0 1 .234-2.527c.118-.397.563-.573.944-.41.381.162.552.602.448 1.003A5.02 5.02 0 0 0 3 7.929a2.751 2.751 0 0 1 2.591 4.453 4.99 4.99 0 0 0 1.076.437c.4.11.695.478.645.89-.05.41-.425.709-.828.612a6.517 6.517 0 0 1-2.27-1.035 2.751 2.751 0 0 1-2.68-4.607m3.01 1.336a1.25 1.25 0 1 0-2.164 1.25 1.25 1.25 0 0 0 2.165-1.25m5.894 2.351a2.75 2.75 0 0 1 2.56-4.471 5.026 5.026 0 0 0-.16-1.15c-.103-.401.068-.841.448-1.004.382-.162.827.014.945.411.237.8.32 1.643.239 2.483a2.751 2.751 0 0 1-2.65 4.625 6.516 6.516 0 0 1-2.305 1.06c-.403.098-.779-.2-.828-.611-.05-.412.246-.78.645-.89a5.019 5.019 0 0 0 1.106-.453m1.034-2.381a1.25 1.25 0 1 0 2.165 1.25 1.25 1.25 0 0 0-2.165-1.25"/></svg>