<svg xmlns="http://www.w3.org/2000/svg" fill="currentColor" class="vi" viewBox="0 0 16 16"><path d="M12 4a3.996 3.996 0 0 1-1.774 3.324c-.317.12-.62.272-.902.452A4 4 0 1 1 12 4Zm-1.5 0a2.5 2.5 0 1 0-5 0 2.5 2.5 0 0 0 5 0ZM2.455 9.54a30.09 30.09 0 0 1 5.526-.516 5.001 5.001 0 0 0-.763 1.511 28.591 28.591 0 0 0-4.522.488l-.006.003a.324.324 0 0 0-.05.134c-.043.225.018.56.219.818a6.487 6.487 0 0 0 4.805 2.514 5.025 5.025 0 0 0 1.266 1.455 8.081 8.081 0 0 1-.927.053h-.006a7.987 7.987 0 0 1-6.323-3.103c-.919-1.185-.693-3.08.78-3.357Z"/><path d="M16 12a4 4 0 1 1-8 0 4 4 0 0 1 8 0Zm-4-2.5a.5.5 0 0 0-.5.5v2a.5.5 0 0 0 .146.354l1 1a.5.5 0 0 0 .708-.708l-.854-.853V10a.5.5 0 0 0-.5-.5Z"/></svg>