<svg xmlns="http://www.w3.org/2000/svg" width="16" height="16" fill="currentColor" class="vi" viewBox="0 0 16 16"><path d="M12 4a4 4 0 0 1-1.77 3.32c-.32.12-.62.28-.9.46A4 4 0 1 1 12 4Zm-1.5 0a2.5 2.5 0 1 0-5 0 2.5 2.5 0 0 0 5 0ZM2.45 9.54a30.1 30.1 0 0 1 5.53-.52c-.33.46-.6.97-.76 1.52a28.6 28.6 0 0 0-4.52.48h-.01c0 .01-.03.05-.05.14-.04.23.02.56.22.82a6.49 6.49 0 0 0 4.8 2.51c.33.56.76 1.06 1.27 1.46a7.99 7.99 0 0 1-7.26-3.05c-.91-1.19-.69-3.08.78-3.36Z"/><path d="M14.86 11.5a.27.27 0 0 0-.13.25 2.77 2.77 0 0 1 0 .5c0 .1.04.2.13.25l.65.38c.2.11.3.35.22.56l-.23.5-.08.12c-.1.16-.2.31-.32.45-.14.18-.4.21-.59.1l-.65-.38a.27.27 0 0 0-.29.02c-.13.1-.27.18-.42.25a.27.27 0 0 0-.16.23v.76c0 .22-.15.43-.38.46a4.03 4.03 0 0 1-1.24 0 .46.46 0 0 1-.38-.46v-.76c0-.1-.06-.2-.15-.23-.15-.07-.3-.16-.43-.25a.27.27 0 0 0-.28-.02l-.66.38a.46.46 0 0 1-.59-.1c-.12-.14-.22-.3-.32-.45l-.07-.13a3.99 3.99 0 0 1-.23-.5.46.46 0 0 1 .21-.55l.66-.38a.26.26 0 0 0 .12-.25 2.78 2.78 0 0 1 0-.5.25.25 0 0 0-.12-.25l-.66-.38a.46.46 0 0 1-.21-.56c.06-.17.14-.33.23-.5l.07-.12c.1-.16.2-.31.32-.45.14-.18.4-.21.6-.1l.65.38c.09.05.2.04.28-.02.13-.1.28-.18.43-.25a.25.25 0 0 0 .15-.23V8.5c0-.22.16-.43.38-.46a4.03 4.03 0 0 1 1.24 0c.23.03.38.24.38.46v.76c0 .1.07.2.16.23.15.07.3.16.42.25.09.06.2.07.29.02l.65-.38c.2-.11.45-.08.6.1.11.14.22.3.31.45l.08.13c.08.16.16.32.23.5a.46.46 0 0 1-.22.55l-.65.38Zm-1.87.5a1 1 0 1 0-2 0 1 1 0 0 0 2 0Z"/></svg>