<svg xmlns="http://www.w3.org/2000/svg" fill="currentColor" class="vi" viewBox="0 0 16 16"><path d="M12 4a4 4 0 1 1-8 0 4 4 0 0 1 8 0m-1.5 0a2.5 2.5 0 1 0-5 0 2.5 2.5 0 0 0 5 0m-7.769 7.014a28.6 28.6 0 0 1 5.723-.486 4.5 4.5 0 0 1 1.137-1.462 30 30 0 0 0-7.136.474c-1.474.276-1.7 2.172-.781 3.357A7.99 7.99 0 0 0 7.997 16h.006q.77-.002 1.502-.141a4.5 4.5 0 0 1-1.045-1.375q-.227.015-.457.016h-.005a6.49 6.49 0 0 1-5.139-2.522c-.2-.259-.262-.593-.219-.818a.3.3 0 0 1 .05-.134l.006-.003z"/><path d="M16 12.5a3.5 3.5 0 1 1-7 0 3.5 3.5 0 0 1 7 0m-5.354-1.854a.5.5 0 0 0 0 .708l1.147 1.146-1.147 1.146a.5.5 0 0 0 .708.708l1.146-1.147 1.146 1.147a.5.5 0 0 0 .708-.708L13.207 12.5l1.147-1.146a.5.5 0 0 0-.708-.708L12.5 11.793l-1.146-1.147a.5.5 0 0 0-.708 0"/></svg>