<svg xmlns="http://www.w3.org/2000/svg" fill="currentColor" class="vi" viewBox="0 0 16 16"><path d="M12 4a4 4 0 0 1-1.77 3.32c-.32.12-.62.28-.9.46A4 4 0 1 1 12 4Zm-1.5 0a2.5 2.5 0 1 0-5 0 2.5 2.5 0 0 0 5 0ZM2.45 9.54a30.1 30.1 0 0 1 5.53-.52c-.33.46-.6.97-.76 1.52a28.6 28.6 0 0 0-4.53.49s-.03.04-.05.13c-.04.23.02.56.22.82a6.49 6.49 0 0 0 4.8 2.51c.33.56.76 1.06 1.27 1.46a7.99 7.99 0 0 1-7.26-3.05c-.91-1.19-.69-3.08.78-3.36Z"/><path d="M16 12a4 4 0 1 1-8 0 4 4 0 0 1 8 0Zm-4-2.5a.5.5 0 0 0-.5.5v1.5H10a.5.5 0 1 0 0 1h1.5V14a.5.5 0 0 0 1 0v-1.5H14a.5.5 0 1 0 0-1h-1.5V10a.5.5 0 0 0-.5-.5Z"/></svg>