<svg xmlns="http://www.w3.org/2000/svg" fill="currentColor" class="vi" viewBox="0 0 16 16"><path d="M12 4a4 4 0 1 1-8 0 4 4 0 0 1 8 0Zm-1.5 0a2.5 2.5 0 1 0-5 0 2.5 2.5 0 0 0 5 0Zm-7.769 7.014a28.592 28.592 0 0 1 5.911-.482c.111-.103.234-.193.366-.269a3.48 3.48 0 0 1 .304-1.21 30.09 30.09 0 0 0-6.857.487c-1.474.276-1.7 2.172-.781 3.357A7.987 7.987 0 0 0 7.997 16h.006c.088 0 .175-.002.262-.004A1.99 1.99 0 0 1 8 15v-.5h-.002a6.488 6.488 0 0 1-5.139-2.522c-.2-.259-.262-.593-.219-.818a.324.324 0 0 1 .05-.134.227.227 0 0 1 .041-.012ZM15 10.5v.5a1 1 0 0 1 1 1v3a1 1 0 0 1-1 1h-5a1 1 0 0 1-1-1v-3a1 1 0 0 1 1-1v-.5a2.5 2.5 0 0 1 5 0Zm-2.5-1a1 1 0 0 0-1 1v.5h2v-.5a1 1 0 0 0-1-1Zm0 5a1 1 0 1 0 0-2 1 1 0 0 0 0 2Z"/></svg>