<svg xmlns="http://www.w3.org/2000/svg" fill="currentColor" class="vi" viewBox="0 0 16 16"><path d="M12 4a4 4 0 1 1-8 0 4 4 0 0 1 8 0Zm-1.5 0a2.5 2.5 0 1 0-5 0 2.5 2.5 0 0 0 5 0Zm-7.77 7.01a28.6 28.6 0 0 1 5.3-.49 1.76 1.76 0 0 1 .47-1.5 30.1 30.1 0 0 0-6.05.52c-1.47.28-1.7 2.17-.78 3.36A7.99 7.99 0 0 0 8 16h.17a1.74 1.74 0 0 1 0-1.5H8a6.49 6.49 0 0 1-5.14-2.52c-.2-.26-.26-.6-.22-.82a.32.32 0 0 1 .05-.13l.04-.02ZM9 10.25c0-.41.34-.75.75-.75h5.5a.75.75 0 0 1 0 1.5h-5.5a.75.75 0 0 1-.75-.75ZM9.75 12a.75.75 0 0 0 0 1.5h5.5a.75.75 0 0 0 0-1.5h-5.5Zm0 2.5a.75.75 0 0 0 0 1.5h5.5a.75.75 0 0 0 0-1.5h-5.5Z"/></svg>