<svg xmlns="http://www.w3.org/2000/svg" fill="currentColor" class="vi" viewBox="0 0 16 16"><path d="M12 4a4 4 0 1 1-8 0 4 4 0 0 1 8 0m-1.5 0a2.5 2.5 0 1 0-5 0 2.5 2.5 0 0 0 5 0m-7.769 7.014a28.59 28.59 0 0 1 5.723-.486 4.516 4.516 0 0 1 1.137-1.462 30.091 30.091 0 0 0-7.136.474c-1.474.276-1.7 2.172-.781 3.357A7.987 7.987 0 0 0 7.997 16h.006c.513 0 1.015-.049 1.502-.141a4.516 4.516 0 0 1-1.045-1.375c-.151.01-.304.016-.457.016h-.005a6.488 6.488 0 0 1-5.139-2.522c-.2-.259-.262-.593-.219-.818a.324.324 0 0 1 .05-.134.227.227 0 0 1 .041-.012"/><path d="M13.133 9.058a3.521 3.521 0 0 0-1.275 0 .457.457 0 0 0-.363.46v.406a.483.483 0 0 1-.252.41.48.48 0 0 1-.479.012l-.35-.203a.457.457 0 0 0-.58.084 3.51 3.51 0 0 0-.34.47l-.063.111a3.483 3.483 0 0 0-.236.524.457.457 0 0 0 .217.543l.35.201c.148.086.228.252.228.424s-.08.338-.229.424l-.349.201a.457.457 0 0 0-.217.543c.065.182.144.357.236.524l.064.11c.1.167.213.324.339.471a.457.457 0 0 0 .58.084l.35-.203a.48.48 0 0 1 .479.013.483.483 0 0 1 .252.41v.405c0 .221.145.42.363.46a3.526 3.526 0 0 0 1.275 0 .457.457 0 0 0 .363-.46v-.414c0-.169.102-.32.248-.405a.475.475 0 0 1 .475-.013l.358.207c.192.11.436.084.58-.084a3.49 3.49 0 0 0 .34-.47l.063-.111c.092-.167.171-.342.236-.524a.457.457 0 0 0-.218-.543l-.362-.21a.474.474 0 0 1-.226-.415c0-.169.08-.332.226-.416l.362-.21a.457.457 0 0 0 .218-.543 3.493 3.493 0 0 0-.236-.523l-.064-.11a3.517 3.517 0 0 0-.34-.471.457.457 0 0 0-.579-.084l-.358.207a.475.475 0 0 1-.475-.013.477.477 0 0 1-.248-.405v-.414a.457.457 0 0 0-.363-.46m.358 3.442a1 1 0 1 1-2 0 1 1 0 0 1 2 0"/></svg>