<svg xmlns="http://www.w3.org/2000/svg" fill="currentColor" class="vi" viewBox="0 0 16 16"><path d="M12 4a4 4 0 1 1-8 0 4 4 0 0 1 8 0m-1.5 0a2.5 2.5 0 1 0-5 0 2.5 2.5 0 0 0 5 0m-7.769 7.014a28.592 28.592 0 0 1 5.29-.49 1.744 1.744 0 0 1 .475-1.496 30.09 30.09 0 0 0-6.041.512c-1.474.276-1.7 2.172-.781 3.357A7.987 7.987 0 0 0 7.997 16h.006c.055 0 .11 0 .165-.002a1.743 1.743 0 0 1 .001-1.5l-.166.002h-.005a6.488 6.488 0 0 1-5.139-2.522c-.2-.259-.262-.593-.219-.818a.324.324 0 0 1 .05-.134.227.227 0 0 1 .041-.012M9 10.25a.75.75 0 0 1 .75-.75h5.5a.75.75 0 0 1 0 1.5h-5.5a.75.75 0 0 1-.75-.75M9.75 12a.75.75 0 0 0 0 1.5h5.5a.75.75 0 0 0 0-1.5zm0 2.5a.75.75 0 0 0 0 1.5h5.5a.75.75 0 0 0 0-1.5z"/></svg>