<svg xmlns="http://www.w3.org/2000/svg" fill="currentColor" class="vi" viewBox="0 0 16 16"><path d="M12 4a4 4 0 1 1-8 0 4 4 0 0 1 8 0m-1.5 0a2.5 2.5 0 1 0-5 0 2.5 2.5 0 0 0 5 0m-7.769 7.014a28.6 28.6 0 0 1 5.723-.486 4.5 4.5 0 0 1 1.137-1.462 30 30 0 0 0-7.136.474c-1.474.276-1.7 2.172-.781 3.357A7.99 7.99 0 0 0 7.997 16h.006q.77-.002 1.502-.141a4.5 4.5 0 0 1-1.045-1.375q-.227.015-.457.016h-.005a6.49 6.49 0 0 1-5.139-2.522c-.2-.259-.262-.593-.219-.818a.3.3 0 0 1 .05-.134l.006-.003z"/><path d="M13.133 9.058a3.5 3.5 0 0 0-1.275 0 .46.46 0 0 0-.363.46v.406a.48.48 0 0 1-.252.41.48.48 0 0 1-.479.012l-.35-.203a.46.46 0 0 0-.58.084 3.5 3.5 0 0 0-.34.47l-.063.111a3.5 3.5 0 0 0-.236.524.46.46 0 0 0 .217.543l.35.201c.148.086.228.252.228.424s-.08.338-.229.424l-.349.201a.46.46 0 0 0-.217.543q.098.273.236.524l.064.11q.15.25.339.471a.46.46 0 0 0 .58.084l.35-.203a.48.48 0 0 1 .479.013.48.48 0 0 1 .252.41v.405c0 .221.145.42.363.46a3.5 3.5 0 0 0 1.275 0 .46.46 0 0 0 .363-.46v-.414c0-.169.102-.32.248-.405a.48.48 0 0 1 .475-.013l.358.207c.192.11.436.084.58-.084q.19-.22.34-.47l.063-.111q.138-.25.236-.524a.46.46 0 0 0-.218-.543l-.362-.21a.47.47 0 0 1-.226-.415c0-.169.08-.332.226-.416l.362-.21a.46.46 0 0 0 .218-.543 3.5 3.5 0 0 0-.236-.523l-.064-.11a3.5 3.5 0 0 0-.34-.471.46.46 0 0 0-.579-.084l-.358.207a.48.48 0 0 1-.475-.013.48.48 0 0 1-.248-.405v-.414a.46.46 0 0 0-.363-.46m.358 3.442a1 1 0 1 1-2 0 1 1 0 0 1 2 0"/></svg>