<svg xmlns="http://www.w3.org/2000/svg" fill="currentColor" class="vi" viewBox="0 0 16 16"><path d="M10.5 4c0 .56-.19 1.08-.5 1.5h1.25c.22 0 .4-.1.55-.24a4 4 0 1 0-5.51 2.36 1.76 1.76 0 0 1 .38-1.5A2.5 2.5 0 1 1 10.5 4ZM8 16a7.99 7.99 0 0 1-6.33-3.1c-.91-1.19-.69-3.08.78-3.36a30.1 30.1 0 0 1 11.1 0c1.47.28 1.7 2.17.78 3.36A7.99 7.99 0 0 1 8 16Zm-5.27-4.99a.23.23 0 0 0-.04.02s-.03.04-.05.13c-.04.23.02.56.22.82a6.49 6.49 0 0 0 10.28 0c.2-.26.26-.6.22-.82a.32.32 0 0 0-.05-.13l-.04-.02a28.59 28.59 0 0 0-10.54 0ZM2.25 2.5c.41 0 .75.34.75.75v1.5a.75.75 0 0 1-1.5 0v-1.5c0-.41.34-.75.75-.75Z"/><path d="M13.75 2.5c.41 0 .75.34.75.75v1.5c0 1.8-1.46 3.25-3.25 3.25H8a.75.75 0 0 1 0-1.5h3.25c.97 0 1.75-.78 1.75-1.75v-1.5c0-.41.34-.75.75-.75Z"/></svg>