<svg xmlns="http://www.w3.org/2000/svg" fill="currentColor" class="vi" viewBox="0 0 16 16"><path d="M12 4a4 4 0 1 1-8 0 4 4 0 0 1 8 0m-1.5 0a2.5 2.5 0 1 0-5 0 2.5 2.5 0 0 0 5 0M7.997 16a7.987 7.987 0 0 1-6.323-3.103c-.919-1.185-.693-3.08.78-3.357a30.091 30.091 0 0 1 11.091 0c1.474.276 1.7 2.172.781 3.357A7.986 7.986 0 0 1 8.003 16zm-5.266-4.986a.227.227 0 0 0-.041.012.324.324 0 0 0-.05.134c-.043.225.018.56.219.818A6.488 6.488 0 0 0 7.998 14.5h.005a6.486 6.486 0 0 0 5.138-2.522c.2-.259.262-.593.219-.818a.324.324 0 0 0-.05-.134 28.588 28.588 0 0 0-10.58-.012Z"/></svg>