<svg xmlns="http://www.w3.org/2000/svg" fill="currentColor" class="vi" viewBox="0 0 16 16"><path d="M12 4a4 4 0 1 1-8 0 4 4 0 0 1 8 0Zm-1.5 0a2.5 2.5 0 1 0-5 0 2.5 2.5 0 0 0 5 0Zm-7.77 7.01a28.6 28.6 0 0 1 5.91-.48 2 2 0 0 1 .37-.27c.03-.43.13-.83.3-1.2-2.29-.1-4.6.06-6.86.48-1.47.28-1.7 2.17-.78 3.36A7.99 7.99 0 0 0 8 16h.27A2 2 0 0 1 8 15v-.5a6.49 6.49 0 0 1-5.14-2.52c-.2-.26-.26-.6-.22-.82a.32.32 0 0 1 .05-.13l.04-.02ZM15 10.5v.5a1 1 0 0 1 1 1v3a1 1 0 0 1-1 1h-5a1 1 0 0 1-1-1v-3a1 1 0 0 1 1-1v-.5a2.5 2.5 0 0 1 5 0Zm-2.5-1a1 1 0 0 0-1 1v.5h2v-.5a1 1 0 0 0-1-1Zm0 5a1 1 0 1 0 0-2 1 1 0 0 0 0 2Z"/></svg>