<svg xmlns="http://www.w3.org/2000/svg" fill="currentColor" class="vi" viewBox="0 0 16 16"><path d="M12 4a3.996 3.996 0 0 1-1.774 3.324c-.317.12-.62.272-.902.452A4 4 0 1 1 12 4Zm-1.5 0a2.5 2.5 0 1 0-5 0 2.5 2.5 0 0 0 5 0ZM2.455 9.54a30.09 30.09 0 0 1 5.526-.516 5.001 5.001 0 0 0-.763 1.511 28.591 28.591 0 0 0-4.522.488l-.006.003a.324.324 0 0 0-.05.134c-.043.225.018.56.219.818a6.487 6.487 0 0 0 4.805 2.514 5.025 5.025 0 0 0 1.266 1.455 8.081 8.081 0 0 1-.927.053h-.006a7.987 7.987 0 0 1-6.323-3.103c-.919-1.185-.693-3.08.78-3.357Z"/><path d="M14.86 11.5a.265.265 0 0 0-.128.254 2.772 2.772 0 0 1 0 .492.265.265 0 0 0 .127.254l.653.377a.461.461 0 0 1 .214.561 3.984 3.984 0 0 1-.23.495l-.074.127c-.096.159-.202.31-.318.454a.462.462 0 0 1-.593.095l-.652-.377a.265.265 0 0 0-.284.018 2.748 2.748 0 0 1-.425.245.265.265 0 0 0-.157.238v.753a.462.462 0 0 1-.38.466 4.03 4.03 0 0 1-1.241 0 .461.461 0 0 1-.38-.466v-.753a.265.265 0 0 0-.157-.238 2.748 2.748 0 0 1-.425-.245.265.265 0 0 0-.284-.018l-.652.377a.462.462 0 0 1-.593-.095 4.016 4.016 0 0 1-.318-.454l-.073-.126a3.987 3.987 0 0 1-.231-.496.461.461 0 0 1 .214-.56l.653-.378a.265.265 0 0 0 .127-.254 2.784 2.784 0 0 1 0-.492.265.265 0 0 0-.127-.254l-.653-.377a.461.461 0 0 1-.214-.561c.066-.171.143-.337.231-.496l.073-.126a4.01 4.01 0 0 1 .318-.454.462.462 0 0 1 .593-.095l.652.377c.09.051.2.042.285-.018.133-.094.275-.176.425-.245a.265.265 0 0 0 .157-.238v-.753a.46.46 0 0 1 .379-.466 4.032 4.032 0 0 1 1.241 0 .46.46 0 0 1 .38.466v.753c0 .103.063.194.157.238.149.069.291.151.425.245.084.06.195.07.284.018l.652-.377a.462.462 0 0 1 .593.095c.116.144.222.295.318.454l.073.127c.088.158.165.324.231.495a.461.461 0 0 1-.214.56l-.653.378Zm-1.867.5a1 1 0 1 0-2 0 1 1 0 0 0 2 0Z"/></svg>