<svg xmlns="http://www.w3.org/2000/svg" fill="currentColor" class="vi" viewBox="0 0 16 16"><path d="M12 4a4 4 0 1 1-8 0 4 4 0 0 1 8 0m-1.5 0a2.5 2.5 0 1 0-5 0 2.5 2.5 0 0 0 5 0m-7.769 7.014a28.6 28.6 0 0 1 6.4-.467 3.5 3.5 0 0 1 .832-1.459 30 30 0 0 0-7.508.452c-1.474.276-1.7 2.172-.781 3.357A7.99 7.99 0 0 0 7.997 16h.006q.132 0 .262-.004A2 2 0 0 1 8 15v-.5h-.002a6.49 6.49 0 0 1-5.139-2.522c-.2-.259-.262-.593-.219-.818a.3.3 0 0 1 .05-.134l.006-.003z"/><path d="M15 11.5v.5a1 1 0 0 1 1 1v2a1 1 0 0 1-1 1h-5a1 1 0 0 1-1-1v-2a1 1 0 0 1 1-1v-.5a2.5 2.5 0 0 1 5 0m-2.5-1a1 1 0 0 0-1 1v.5h2v-.5a1 1 0 0 0-1-1m0 4.5a1 1 0 1 0 0-2 1 1 0 0 0 0 2"/></svg>