<svg xmlns="http://www.w3.org/2000/svg" fill="currentColor" class="vi" viewBox="0 0 16 16"><path d="M10.5 4a2.5 2.5 0 0 1-.5 1.5h1.25c.215 0 .41-.09.546-.236a4 4 0 1 0-5.508 2.352 1.76 1.76 0 0 1 .38-1.5A2.5 2.5 0 1 1 10.5 4M7.997 16a7.99 7.99 0 0 1-6.323-3.103c-.919-1.185-.693-3.08.78-3.357a30.1 30.1 0 0 1 11.091 0c1.474.276 1.7 2.172.781 3.357A7.99 7.99 0 0 1 8.003 16zm-5.266-4.986a.2.2 0 0 0-.041.012.3.3 0 0 0-.05.134c-.043.225.018.56.219.818A6.49 6.49 0 0 0 7.998 14.5h.005a6.49 6.49 0 0 0 5.138-2.522c.2-.259.262-.593.219-.818a.3.3 0 0 0-.05-.134l-.006-.003-.035-.009a28.6 28.6 0 0 0-10.538 0M2.25 2.5a.75.75 0 0 1 .75.75v1.5a.75.75 0 0 1-1.5 0v-1.5a.75.75 0 0 1 .75-.75"/><path d="M13.75 2.5a.75.75 0 0 1 .75.75v1.5A3.25 3.25 0 0 1 11.25 8H8a.75.75 0 0 1 0-1.5h3.25A1.75 1.75 0 0 0 13 4.75v-1.5a.75.75 0 0 1 .75-.75"/></svg>