<svg xmlns="http://www.w3.org/2000/svg" fill="currentColor" class="vi" viewBox="0 0 16 16"><path d="M12 4a4 4 0 1 1-8 0 4 4 0 0 1 8 0m-1.5 0a2.5 2.5 0 1 0-5 0 2.5 2.5 0 0 0 5 0M7.997 16a7.99 7.99 0 0 1-6.323-3.103c-.919-1.185-.693-3.08.78-3.357a30.1 30.1 0 0 1 11.091 0c1.474.276 1.7 2.172.781 3.357A7.99 7.99 0 0 1 8.003 16zm-5.266-4.986a.2.2 0 0 0-.041.012.3.3 0 0 0-.05.134c-.043.225.018.56.219.818A6.49 6.49 0 0 0 7.998 14.5h.005a6.49 6.49 0 0 0 5.138-2.522c.2-.259.262-.593.219-.818a.3.3 0 0 0-.05-.134l-.006-.003-.035-.009a28.6 28.6 0 0 0-10.538 0"/></svg>