<svg xmlns="http://www.w3.org/2000/svg" fill="currentColor" class="vi" viewBox="0 0 16 16"><path d="M10.5 4a2.49 2.49 0 0 1-.5 1.5h1.25c.215 0 .41-.09.546-.236a4 4 0 1 0-5.508 2.352 1.757 1.757 0 0 1 .38-1.5A2.5 2.5 0 1 1 10.5 4ZM7.997 16a7.987 7.987 0 0 1-6.323-3.103c-.919-1.185-.693-3.08.78-3.357a30.091 30.091 0 0 1 11.091 0c1.474.276 1.7 2.172.781 3.357A7.986 7.986 0 0 1 8.003 16h-.006Zm-5.266-4.986a.227.227 0 0 0-.041.012.324.324 0 0 0-.05.134c-.043.225.018.56.219.818A6.488 6.488 0 0 0 7.998 14.5h.005a6.486 6.486 0 0 0 5.138-2.522c.2-.259.262-.593.219-.818a.324.324 0 0 0-.05-.134 28.588 28.588 0 0 0-10.58-.012ZM2.25 2.5a.75.75 0 0 1 .75.75v1.5a.75.75 0 0 1-1.5 0v-1.5a.75.75 0 0 1 .75-.75Z"/><path d="M13.75 2.5a.75.75 0 0 1 .75.75v1.5A3.25 3.25 0 0 1 11.25 8H8a.75.75 0 0 1 0-1.5h3.25A1.75 1.75 0 0 0 13 4.75v-1.5a.75.75 0 0 1 .75-.75Z"/></svg>