<svg xmlns="http://www.w3.org/2000/svg" fill="currentColor" class="vi" viewBox="0 0 16 16"><path d="M12 4a4 4 0 1 1-8 0 4 4 0 0 1 8 0m-1.5 0a2.5 2.5 0 1 0-5 0 2.5 2.5 0 0 0 5 0m-7.769 7.014a28.6 28.6 0 0 1 5.29-.49 1.74 1.74 0 0 1 .475-1.496 30 30 0 0 0-6.041.512c-1.474.276-1.7 2.172-.781 3.357A7.99 7.99 0 0 0 7.997 16h.006l.165-.002a1.74 1.74 0 0 1 .001-1.5l-.166.002h-.005a6.49 6.49 0 0 1-5.139-2.522c-.2-.259-.262-.593-.219-.818a.3.3 0 0 1 .05-.134l.006-.003zM9 10.25a.75.75 0 0 1 .75-.75h5.5a.75.75 0 0 1 0 1.5h-5.5a.75.75 0 0 1-.75-.75M9.75 12a.75.75 0 0 0 0 1.5h5.5a.75.75 0 0 0 0-1.5zm0 2.5a.75.75 0 0 0 0 1.5h5.5a.75.75 0 0 0 0-1.5z"/></svg>