<svg xmlns="http://www.w3.org/2000/svg" fill="currentColor" class="vi" viewBox="0 0 16 16"><path d="M12 4a4 4 0 1 1-8 0 4 4 0 0 1 8 0m-1.5 0a2.5 2.5 0 1 0-5 0 2.5 2.5 0 0 0 5 0m-7.769 7.014a28.59 28.59 0 0 1 5.723-.486 4.516 4.516 0 0 1 1.137-1.462 30.091 30.091 0 0 0-7.136.474c-1.474.276-1.7 2.172-.781 3.357A7.987 7.987 0 0 0 7.997 16h.006c.513 0 1.015-.049 1.502-.141a4.516 4.516 0 0 1-1.045-1.375c-.151.01-.304.016-.457.016h-.005a6.488 6.488 0 0 1-5.139-2.522c-.2-.259-.262-.593-.219-.818a.324.324 0 0 1 .05-.134.227.227 0 0 1 .041-.012"/><path d="M16 12.5a3.5 3.5 0 1 1-7 0 3.5 3.5 0 0 1 7 0m-5.354-1.854a.5.5 0 0 0 0 .708l1.147 1.146-1.147 1.146a.5.5 0 0 0 .708.708l1.146-1.147 1.146 1.147a.5.5 0 0 0 .708-.708L13.207 12.5l1.147-1.146a.5.5 0 0 0-.708-.708L12.5 11.793l-1.146-1.147a.5.5 0 0 0-.708 0"/></svg>