<svg xmlns="http://www.w3.org/2000/svg" fill="currentColor" class="vi" viewBox="0 0 16 16"><path d="M9.5 7a.5.5 0 0 1 .5.5v1a.5.5 0 0 1-.5.5h-1a.5.5 0 0 1-.5-.5v-1a.5.5 0 0 1 .5-.5h1Zm3 0a.5.5 0 0 1 .5.5v1a.5.5 0 0 1-.5.5h-1a.5.5 0 0 1-.5-.5v-1a.5.5 0 0 1 .5-.5h1Zm-4 3a.5.5 0 0 0-.5.5v1a.5.5 0 0 0 .5.5h1a.5.5 0 0 0 .5-.5v-1a.5.5 0 0 0-.5-.5h-1Zm4 0a.5.5 0 0 1 .5.5v1a.5.5 0 0 1-.5.5h-1a.5.5 0 0 1-.5-.5v-1a.5.5 0 0 1 .5-.5h1Z"/><path d="M2.75 1.5A2.75 2.75 0 0 0 0 4.25v7.5a2.75 2.75 0 0 0 2.75 2.75h10.5A2.75 2.75 0 0 0 16 11.75v-7.5a2.75 2.75 0 0 0-2.75-2.75H2.75ZM1.5 4.25C1.5 3.56 2.06 3 2.75 3H5v10H2.75c-.69 0-1.25-.56-1.25-1.25v-7.5Zm5 8.75V3h1v1.25C7.5 5.216 8.284 6 9.25 6h2.5a1.75 1.75 0 0 0 1.75-1.75V3.025c.57.116 1 .62 1 1.225v7.5c0 .69-.56 1.25-1.25 1.25H6.5ZM9 4.25V3h3v1.25a.25.25 0 0 1-.25.25h-2.5A.25.25 0 0 1 9 4.25Z"/></svg>