<svg xmlns="http://www.w3.org/2000/svg" fill="currentColor" class="vi" viewBox="0 0 16 16"><path d="M4.7.04a1 1 0 0 1 1.04.5l1.74 3.1c.43.75.23 1.7-.45 2.23l-1.07.83a.22.22 0 0 0-.07.1v.04A6.04 6.04 0 0 0 9.2 10.1a.22.22 0 0 0 .1-.07l.82-1.06a1.75 1.75 0 0 1 2.24-.45l3.1 1.74a1 1 0 0 1 .49 1.04l-.69 3.87a1 1 0 0 1-.98.83H13c-3.25 0-6.5-1.68-8.9-4.1C1.67 9.5 0 6.26 0 3V1.71A1 1 0 0 1 .83.72L4.7.04Zm-.1 1.54-3.1.55V3c0 2.75 1.44 5.63 3.66 7.84 2.2 2.22 5.1 3.66 7.84 3.66h.87l.55-3.1-2.79-1.57a.25.25 0 0 0-.32.06l-.82 1.06c-.41.53-1.15.84-1.88.55a7.53 7.53 0 0 1-4.13-4.13c-.27-.72.04-1.45.56-1.85l1.07-.83c.1-.08.12-.22.06-.32L4.61 1.58ZM9.74 4.1c-.4-.11-.74-.44-.74-.85s.34-.76.75-.69a4.5 4.5 0 0 1 3.69 3.7c.07.4-.28.74-.69.74-.41 0-.74-.34-.84-.74a3 3 0 0 0-2.17-2.17Z"/><path d="M15.25 7c-.41 0-.74-.34-.8-.75a5.5 5.5 0 0 0-4.7-4.7C9.34 1.49 9 1.16 9 .75a.7.7 0 0 1 .75-.71 7 7 0 0 1 6.21 6.21.7.7 0 0 1-.71.75Z"/></svg>