<svg xmlns="http://www.w3.org/2000/svg" fill="currentColor" class="vi" viewBox="0 0 16 16"><path d="M4.7.04a1 1 0 0 1 1.04.5l1.74 3.1c.43.75.23 1.7-.45 2.23l-1.07.83a.22.22 0 0 0-.07.1v.04a5.96 5.96 0 0 0 2.25 2.73 1.74 1.74 0 0 0 .33 1.87 7.54 7.54 0 0 1-3.99-4.07c-.27-.72.04-1.45.56-1.85l1.07-.83c.1-.08.12-.22.06-.32L4.61 1.58l-3.11.55V3c0 2.75 1.44 5.63 3.66 7.84a13.8 13.8 0 0 0 2.87 2.22c.06.36.24.69.5.94-.22.21-.38.48-.47.78a15.46 15.46 0 0 1-3.97-2.87C1.7 9.49 0 6.25 0 3V1.71A1 1 0 0 1 .83.72L4.7.04ZM9 10.25c0-.41.34-.75.75-.75h5.5a.75.75 0 0 1 0 1.5h-5.5a.75.75 0 0 1-.75-.75ZM9.75 12a.75.75 0 0 0 0 1.5h5.5a.75.75 0 0 0 0-1.5h-5.5Zm0 2.5a.75.75 0 0 0 0 1.5h5.5a.75.75 0 0 0 0-1.5h-5.5Z"/></svg>