<svg xmlns="http://www.w3.org/2000/svg" viewBox="0 0 20 17" fill="currentColor">
  <path d="m5.82 8 .1.18a6.5 6.5 0 0 0 1.02 1.49l.08-.23c.09-.2.18-.4.29-.58v-.02l.11-.18.28-.42a5 5 0 0 1-.44-.73l-.1-.19a.5.5 0 0 1 .1-.58l.82-.82a1 1 0 0 0 .25-1l-.75-2.5a2 2 0 0 0-2.5-1.35l-1.7.52c-.83.24-1.41.99-1.37 1.84.14 3.17 1.2 7.25 5 9.62a2.03 2.03 0 0 1 .5-.71 5.56 5.56 0 0 1 0-.68 2.03 2.03 0 0 1-.2-.22 8.23 8.23 0 0 1-1.73-1.7A11.44 11.44 0 0 1 3.5 3.37c0-.1.06-.27.3-.34l1.7-.5a.5.5 0 0 1 .63.33l.67 2.22-.61.61A2 2 0 0 0 5.82 8z"/>
  <path fill-rule="evenodd" d="M8.62 14.42a4.98 4.98 0 0 1-.22-.45.47.47 0 0 1 .21-.59l.37-.21a.26.26 0 0 0 .12-.29 4.01 4.01 0 0 1 0-1.76.26.26 0 0 0-.12-.29l-.37-.21a.47.47 0 0 1-.2-.59 4.98 4.98 0 0 1 .21-.45l.1-.16c.08-.14.18-.28.28-.42a.47.47 0 0 1 .61-.11l.37.21a.26.26 0 0 0 .3-.04 3.99 3.99 0 0 1 1.53-.88.26.26 0 0 0 .19-.25v-.42c0-.24.17-.45.4-.47a5.05 5.05 0 0 1 1.2 0 .47.47 0 0 1 .4.47v.42a.26.26 0 0 0 .19.25 4 4 0 0 1 1.53.88.26.26 0 0 0 .3.04l.37-.21A.47.47 0 0 1 17 9l.29.43.09.15.22.46a.47.47 0 0 1-.21.58l-.37.21a.26.26 0 0 0-.12.29 4.01 4.01 0 0 1 0 1.76.26.26 0 0 0 .12.29l.37.21a.47.47 0 0 1 .2.59l-.21.45-.1.16A5.01 5.01 0 0 1 17 15a.47.47 0 0 1-.61.11l-.37-.21a.26.26 0 0 0-.3.04 3.99 3.99 0 0 1-1.54.88.26.26 0 0 0-.18.25v.42a.47.47 0 0 1-.4.48 5.06 5.06 0 0 1-1.2 0 .47.47 0 0 1-.4-.48v-.42a.26.26 0 0 0-.19-.25 4 4 0 0 1-1.53-.88.26.26 0 0 0-.3-.04l-.37.21A.47.47 0 0 1 9 15a5 5 0 0 1-.29-.43l-.09-.15zM13 9.5a2.5 2.5 0 1 0 0 5 2.5 2.5 0 0 0 0-5z"/>
</svg>
