<svg xmlns="http://www.w3.org/2000/svg" fill="currentColor" class="vi" viewBox="0 0 16 16"><path d="M4.695.042a1 1 0 0 1 1.046.495l1.74 3.095a1.75 1.75 0 0 1-.45 2.239l-1.07.831a.22.22 0 0 0-.074.098c-.008.025-.005.037-.002.044.482 1.284 1.643 2.482 2.91 3.1a4.49 4.49 0 0 0-.634 1.36c-1.6-.774-3.052-2.258-3.68-3.933-.272-.724.043-1.451.56-1.853l1.069-.831a.25.25 0 0 0 .064-.32L4.607 1.58 1.5 2.129V3c0 2.75 1.442 5.631 3.655 7.845a13.848 13.848 0 0 0 2.88 2.216c.095.767.383 1.473.814 2.07-1.752-.725-3.387-1.858-4.754-3.226C1.683 9.494 0 6.251 0 3V1.71A1 1 0 0 1 .826.725l3.87-.683ZM16 12.5a3.5 3.5 0 1 1-7 0 3.5 3.5 0 0 1 7 0ZM12.5 10a.5.5 0 0 0-.5.5v2a.5.5 0 0 0 .146.354l1 1a.5.5 0 0 0 .708-.708L13 12.293V10.5a.5.5 0 0 0-.5-.5Z"/></svg>