<svg xmlns="http://www.w3.org/2000/svg" viewBox="0 0 20 17" fill="currentColor">
  <path d="m5.91 8.18-.09-.19a2 2 0 0 1 .38-2.3l.6-.62-.66-2.22a.5.5 0 0 0-.62-.34l-1.72.51c-.23.08-.3.25-.3.34.1 2.1.63 4.48 2.08 6.39a8.4 8.4 0 0 0 2.89 2.4c.08.12.18.22.29.31v.08a2 2 0 0 0-.66 1.1C3.4 11.43 2.17 6.89 2 3.45c-.03-.86.55-1.6 1.37-1.85l1.72-.52a2 2 0 0 1 2.49 1.35l.75 2.5a1 1 0 0 1-.25 1l-.82.83a.5.5 0 0 0-.1.57l.1.19-1.35.67z"/>
  <path d="M7.26 7.5A5 5 0 0 0 8.7 9.27l-.1.15v.01l-.1.17c-.12.21-.22.42-.3.64-.07.14-.1.28-.13.42A6.5 6.5 0 0 1 5.9 8.19l1.35-.67z"/>
  <path fill-rule="evenodd" d="M9.59 14.2c.07.17.14.32.23.48l.08.14c.09.15.19.3.3.44.14.18.4.22.6.1l.23-.13a.55.55 0 0 1 .6.05c.24.18.5.33.78.45.2.09.35.28.35.5v.26c0 .23.16.44.39.47a4.54 4.54 0 0 0 1.21 0c.23-.03.4-.24.4-.47v-.26c0-.22.14-.41.35-.5.27-.12.53-.27.77-.45a.55.55 0 0 1 .6-.05l.23.13c.2.12.46.08.6-.1.11-.14.21-.29.3-.44l.09-.14c.08-.16.16-.31.22-.48a.46.46 0 0 0-.2-.57l-.24-.13a.55.55 0 0 1-.25-.55 3.54 3.54 0 0 0 0-.9.55.55 0 0 1 .25-.55l.23-.13c.2-.12.3-.36.21-.57a4.48 4.48 0 0 0-.22-.48l-.09-.14c-.09-.15-.19-.3-.3-.44a.47.47 0 0 0-.6-.1l-.23.13a.55.55 0 0 1-.6-.05 3.5 3.5 0 0 0-.77-.45.55.55 0 0 1-.35-.5v-.26a.46.46 0 0 0-.4-.47 4.54 4.54 0 0 0-1.21 0 .46.46 0 0 0-.4.47v.26c0 .22-.14.41-.34.5a3.5 3.5 0 0 0-.77.45.55.55 0 0 1-.61.05l-.23-.13a.46.46 0 0 0-.6.1c-.11.14-.21.29-.3.44l-.08.14c-.09.16-.16.31-.23.48-.09.21 0 .45.21.57l.23.13c.19.11.28.34.25.55a3.54 3.54 0 0 0 0 .9.55.55 0 0 1-.25.55l-.23.13c-.2.12-.3.36-.21.57zm2.17-1.7a2 2 0 1 1 4 0 2 2 0 0 1-4 0z"/>
</svg>
