<svg xmlns="http://www.w3.org/2000/svg" viewBox="0 0 20 17" fill="currentColor">
  <path d="m5.82 7.993.094.187a6.5 6.5 0 0 0 1.027 1.49c.022-.075.049-.15.081-.226.086-.201.182-.397.287-.587l.007-.012.105-.182.007-.012c.086-.142.177-.28.272-.415a5 5 0 0 1-.444-.727l-.094-.187a.5.5 0 0 1 .094-.577l.823-.823a1 1 0 0 0 .25-.994l-.753-2.512a2 2 0 0 0-2.49-1.341l-1.712.513c-.82.246-1.405.988-1.366 1.844.146 3.168 1.21 7.249 5.003 9.62a2.03 2.03 0 0 1 .5-.714 5.563 5.563 0 0 1 0-.676 2.032 2.032 0 0 1-.206-.22 8.232 8.232 0 0 1-1.73-1.693C4.13 7.843 3.603 5.457 3.507 3.364c-.005-.096.064-.269.298-.34l1.711-.513a.5.5 0 0 1 .623.336l.668 2.226-.612.611a2 2 0 0 0-.374 2.31z"/>
  <path fill-rule="evenodd" d="M8.622 14.417a4.978 4.978 0 0 1-.22-.451.467.467 0 0 1 .208-.586l.367-.212a.26.26 0 0 0 .12-.285 4.014 4.014 0 0 1 0-1.766.26.26 0 0 0-.12-.285l-.367-.212a.468.468 0 0 1-.209-.586 4.98 4.98 0 0 1 .22-.45l.092-.16c.089-.146.184-.287.286-.424a.468.468 0 0 1 .612-.111l.367.212a.26.26 0 0 0 .307-.038 3.99 3.99 0 0 1 1.529-.884.26.26 0 0 0 .186-.247V7.51c0-.238.167-.446.403-.474a5.053 5.053 0 0 1 1.194 0A.468.468 0 0 1 14 7.51v.423a.26.26 0 0 0 .186.247 3.996 3.996 0 0 1 1.53.884.26.26 0 0 0 .306.038l.367-.212a.468.468 0 0 1 .612.111c.102.137.198.278.286.425l.091.158c.08.146.155.297.22.451a.468.468 0 0 1-.208.586l-.367.212a.261.261 0 0 0-.12.285 4.01 4.01 0 0 1 0 1.766.26.26 0 0 0 .12.285l.367.212a.467.467 0 0 1 .209.586c-.066.154-.14.305-.221.451l-.091.158A5.012 5.012 0 0 1 17 15a.468.468 0 0 1-.612.111l-.367-.212a.26.26 0 0 0-.307.038 3.99 3.99 0 0 1-1.529.884.26.26 0 0 0-.186.247v.423a.468.468 0 0 1-.403.474 5.064 5.064 0 0 1-1.194 0A.468.468 0 0 1 12 16.49v-.423a.26.26 0 0 0-.186-.247 3.996 3.996 0 0 1-1.53-.884.26.26 0 0 0-.306-.038l-.367.213a.468.468 0 0 1-.612-.113 4.994 4.994 0 0 1-.286-.424l-.091-.158zM13 9.5a2.5 2.5 0 1 0 0 5 2.5 2.5 0 0 0 0-5z"/>
</svg>
