<svg xmlns="http://www.w3.org/2000/svg" fill="currentColor" class="vi" viewBox="0 0 16 16"><path d="M9.22 6.78a.75.75 0 0 1 0-1.06l4.22-4.22h-1.69a.75.75 0 0 1 0-1.5h3.5a.75.75 0 0 1 .75.75v3.5a.75.75 0 0 1-1.5 0V2.56l-4.22 4.22a.75.75 0 0 1-1.06 0M4.695.042a1 1 0 0 1 1.046.495l1.74 3.095a1.75 1.75 0 0 1-.45 2.239l-1.07.831a.22.22 0 0 0-.074.098c-.008.025-.005.037-.002.044.35.93 1.054 1.815 1.899 2.467a4.973 4.973 0 0 0-.618 1.407C5.98 9.89 4.976 8.69 4.48 7.371c-.272-.724.043-1.451.56-1.853l1.069-.831a.25.25 0 0 0 .064-.32L4.607 1.58 1.5 2.129V3c0 2.75 1.442 5.631 3.655 7.845.58.58 1.205 1.106 1.862 1.567.065.8.318 1.546.715 2.194a15.24 15.24 0 0 1-3.637-2.7C1.683 9.493 0 6.25 0 3V1.71A1 1 0 0 1 .826.725zM12 16a4 4 0 1 0 0-8 4 4 0 0 0 0 8m0-1.5a2.5 2.5 0 0 1-2.217-3.656l3.373 3.373A2.49 2.49 0 0 1 12 14.5m-1.156-4.717a2.5 2.5 0 0 1 3.374 3.373z"/></svg>