<svg xmlns="http://www.w3.org/2000/svg" fill="currentColor" class="vi" viewBox="0 0 16 16"><path d="M9.5 7a.5.5 0 0 1 .5.5v1a.5.5 0 0 1-.5.5h-1a.5.5 0 0 1-.5-.5v-1a.5.5 0 0 1 .5-.5h1Zm3 0a.5.5 0 0 1 .5.5v1a.5.5 0 0 1-.5.5h-1a.5.5 0 0 1-.5-.5v-1a.5.5 0 0 1 .5-.5h1Zm-4 3a.5.5 0 0 0-.5.5v1a.5.5 0 0 0 .5.5h1a.5.5 0 0 0 .5-.5v-1a.5.5 0 0 0-.5-.5h-1Zm4 0a.5.5 0 0 1 .5.5v1a.5.5 0 0 1-.5.5h-1a.5.5 0 0 1-.5-.5v-1a.5.5 0 0 1 .5-.5h1Z"/><path d="M1.75 1.5A1.75 1.75 0 0 0 0 3.25v9.5c0 .966.784 1.75 1.75 1.75h12.5A1.75 1.75 0 0 0 16 12.75v-9.5a1.75 1.75 0 0 0-1.75-1.75H1.75ZM1.5 3.25A.25.25 0 0 1 1.75 3H5v10H1.75a.25.25 0 0 1-.25-.25v-9.5Zm5 9.75V3h1v1.25C7.5 5.216 8.284 6 9.25 6h2.5a1.75 1.75 0 0 0 1.75-1.75V3h.75a.25.25 0 0 1 .25.25v9.5a.25.25 0 0 1-.25.25H6.5ZM9 4.25V3h3v1.25a.25.25 0 0 1-.25.25h-2.5A.25.25 0 0 1 9 4.25Z"/></svg>