<svg xmlns="http://www.w3.org/2000/svg" viewBox="0 0 20 16" fill="currentColor">
  <path fill-rule="evenodd" d="m10.45 9.83-.63 1.26.19.1a2 2 0 0 0 2.3-.38l.53-.53 3.33 1.45c.22.1.34.33.3.56l-.37 1.8a.46.46 0 0 1-.16.28.28.28 0 0 1-.2.07C7.4 13.7 4.03 6.85 3.55 2.52c0-.03 0-.06.03-.1a.43.43 0 0 1 .22-.15l1.93-.57a.5.5 0 0 1 .6.28l1.39 3.18-.53.52A2 2 0 0 0 6.82 8l.1.19a6.5 6.5 0 0 0 2.9 2.9l.63-1.25zm7.12 4.56.36-1.8a2 2 0 0 0-1.16-2.23l-3.65-1.59a1 1 0 0 0-1.1.21l-.77.77a.5.5 0 0 1-.57.09l-.19-.1a5 5 0 0 1-2.24-2.23l-.09-.19a.5.5 0 0 1 .1-.57l.76-.77a1 1 0 0 0 .2-1.1l-1.51-3.5A2 2 0 0 0 5.3.26L3.37.84c-.82.24-1.4.99-1.31 1.84.52 4.76 4.24 12.44 13.55 13.25.95.08 1.77-.6 1.96-1.54z"/>
</svg>
