<svg xmlns="http://www.w3.org/2000/svg" fill="currentColor" class="vi" viewBox="0 0 16 16"><path d="M4.695.042a1 1 0 0 1 1.046.495l1.74 3.095a1.75 1.75 0 0 1-.45 2.239l-1.07.831a.22.22 0 0 0-.074.098c-.008.025-.005.037-.002.044.397 1.058 1.255 2.058 2.254 2.722a1.744 1.744 0 0 0 .33 1.877c-1.72-.724-3.32-2.29-3.988-4.072-.272-.724.043-1.451.56-1.853l1.069-.831a.25.25 0 0 0 .064-.32L4.607 1.58 1.5 2.129V3c0 2.75 1.442 5.631 3.655 7.845.87.87 1.844 1.62 2.872 2.211.064.367.243.694.498.944a1.749 1.749 0 0 0-.46.776 15.133 15.133 0 0 1-3.97-2.87C1.683 9.493 0 6.25 0 3V1.71A1 1 0 0 1 .826.725l3.87-.683ZM9 10.25a.75.75 0 0 1 .75-.75h5.5a.75.75 0 0 1 0 1.5h-5.5a.75.75 0 0 1-.75-.75ZM9.75 12a.75.75 0 0 0 0 1.5h5.5a.75.75 0 0 0 0-1.5h-5.5Zm0 2.5a.75.75 0 0 0 0 1.5h5.5a.75.75 0 0 0 0-1.5h-5.5Z"/></svg>