<svg xmlns="http://www.w3.org/2000/svg" viewBox="0 0 20 16" fill="currentColor">
  <path d="M1.06 2.68c.43 3.96 3.08 9.94 9.32 12.3l-.1-.15-.09-.16v-.01c-.17-.3-.3-.6-.41-.93-.08-.23-.1-.47-.09-.69C5 10.65 2.92 5.84 2.55 2.52c0-.03 0-.06.03-.1a.43.43 0 0 1 .22-.15l1.93-.57a.5.5 0 0 1 .6.28l1.39 3.18-.53.52A2 2 0 0 0 5.82 8l.1.19a6.5 6.5 0 0 0 2.9 2.9l.19.1a2 2 0 0 0 .78.2 1.71 1.71 0 0 1-.01-1.1l.14-.39a.5.5 0 0 1-.24-.05l-.19-.1a5 5 0 0 1-2.24-2.23l-.09-.19a.5.5 0 0 1 .1-.57l.76-.77a1 1 0 0 0 .2-1.1l-1.51-3.5A2 2 0 0 0 4.3.26L2.37.84c-.82.24-1.4.99-1.31 1.84Z"/>
  <path fill-rule="evenodd" d="m18.1 11.36.59-.33c.1-.06.14-.18.1-.29a3.98 3.98 0 0 0-.29-.67l-.07-.13a4.02 4.02 0 0 0-.44-.6.24.24 0 0 0-.3-.05l-.59.34a.28.28 0 0 1-.29-.02 3 3 0 0 0-.65-.38A.26.26 0 0 1 16 9v-.67a.24.24 0 0 0-.19-.24 4.02 4.02 0 0 0-1.62 0 .24.24 0 0 0-.19.24V9c0 .11-.07.2-.16.24a3 3 0 0 0-.65.38.26.26 0 0 1-.3.02l-.58-.34a.24.24 0 0 0-.3.05 4.4 4.4 0 0 0-.44.6l-.07.13c-.12.21-.22.44-.3.67-.03.11.01.23.11.29l.59.33c.09.06.14.16.12.27a3.04 3.04 0 0 0 0 .74c.02.1-.03.21-.12.27l-.59.33a.24.24 0 0 0-.1.29c.07.23.17.46.29.67l.07.13c.13.21.28.42.44.6.08.09.2.1.3.05l.59-.34c.09-.05.2-.04.29.02a3 3 0 0 0 .65.38c.1.04.16.13.16.24v.67c0 .11.08.21.19.24a4.02 4.02 0 0 0 1.62 0 .24.24 0 0 0 .19-.24v-.67c0-.11.07-.2.16-.24a3 3 0 0 0 .65-.38.3.3 0 0 1 .3-.02l.58.34c.1.05.22.04.3-.05.16-.18.31-.39.44-.6l.07-.13c.12-.21.22-.44.3-.67a.24.24 0 0 0-.11-.29l-.59-.33a.26.26 0 0 1-.12-.27 3.04 3.04 0 0 0 0-.74.26.26 0 0 1 .12-.27Zm-4.6.64a1.5 1.5 0 1 1 3 0 1.5 1.5 0 0 1-3 0Z"/>
</svg>
