<svg xmlns="http://www.w3.org/2000/svg" viewBox="0 0 16 16" fill="currentColor"><path d="M15.78.22c.3.3.3.77 0 1.06L11.56 5.5h1.69a.75.75 0 0 1 0 1.5h-3.5A.75.75 0 0 1 9 6.25v-3.5a.75.75 0 0 1 1.5 0v1.69L14.72.22c.3-.3.77-.3 1.06 0ZM4.7.04a1 1 0 0 1 1.04.5l1.74 3.1c.43.75.23 1.7-.45 2.23l-1.07.83a.22.22 0 0 0-.07.1v.04a5.85 5.85 0 0 0 1.9 2.47c-.28.43-.5.9-.62 1.4a7.42 7.42 0 0 1-2.69-3.34c-.27-.72.04-1.45.56-1.85l1.07-.83c.1-.08.12-.22.06-.32L4.61 1.58l-3.11.55V3c0 2.75 1.44 5.63 3.66 7.84.57.58 1.2 1.11 1.86 1.57.06.8.32 1.55.71 2.2a15.24 15.24 0 0 1-3.64-2.7C1.7 9.49 0 6.25 0 3V1.71A1 1 0 0 1 .83.72L4.7.04ZM12 16a4 4 0 1 0 0-8 4 4 0 0 0 0 8Zm0-1.5a2.5 2.5 0 0 1-2.22-3.66l3.38 3.38c-.35.18-.74.28-1.16.28Zm-1.16-4.72a2.5 2.5 0 0 1 3.37 3.37l-3.37-3.37Z"/></svg>