<svg xmlns="http://www.w3.org/2000/svg" viewBox="0 0 20 17" fill="currentColor">
  <path d="m5.914 8.18-.093-.187a2 2 0 0 1 .374-2.309l.612-.611-.668-2.226a.5.5 0 0 0-.623-.336l-1.711.514c-.234.07-.303.243-.298.339.096 2.093.623 4.48 2.068 6.385.29.381.622.751 1.004 1.1.036.438.222.84.502 1.151a2 2 0 0 0-.442.808c-3.492-2.4-4.49-6.314-4.63-9.376-.04-.856.544-1.598 1.365-1.844l1.711-.513a2 2 0 0 1 2.49 1.34l.754 2.513a1 1 0 0 1-.25.994l-.823.823a.5.5 0 0 0-.094.577l.094.187-1.342.671z"/>
  <path d="M7.256 7.51a5 5 0 0 0 .385.644 6.7 6.7 0 0 0-.331.497l-.007.012-.105.182-.007.012c-.127.23-.24.468-.34.714a6.5 6.5 0 0 1-.937-1.39l1.342-.672z"/>
  <path fill-rule="evenodd" d="m17.26 9.583-.091-.158a5.02 5.02 0 0 0-.646-.851.47.47 0 0 0-.578-.074l-.31.178a.542.542 0 0 1-.566-.028 3.997 3.997 0 0 0-.38-.22.542.542 0 0 1-.307-.476v-.358a.47.47 0 0 0-.354-.464 5.014 5.014 0 0 0-2.292 0 .47.47 0 0 0-.354.464v.358a.542.542 0 0 1-.307.476 4.08 4.08 0 0 0-.38.22.542.542 0 0 1-.567.028l-.31-.178a.47.47 0 0 0-.578.074c-.244.26-.46.544-.645.85l-.092.16a4.97 4.97 0 0 0-.41.975.47.47 0 0 0 .225.538l.31.18c.177.101.27.3.26.503a4.065 4.065 0 0 0 0 .44.542.542 0 0 1-.26.504l-.31.18a.47.47 0 0 0-.226.537c.103.342.242.669.412.976l.09.158c.186.307.402.592.646.851a.47.47 0 0 0 .579.074l.31-.178a.541.541 0 0 1 .565.028c.123.08.25.153.381.22a.542.542 0 0 1 .307.476v.358a.47.47 0 0 0 .354.464 5.016 5.016 0 0 0 2.292 0 .47.47 0 0 0 .354-.464v-.358c0-.203.125-.384.306-.476.132-.067.259-.14.381-.22a.54.54 0 0 1 .566-.028l.31.178c.189.11.429.085.578-.074a5.06 5.06 0 0 0 .646-.851l.09-.158c.17-.307.31-.634.412-.976a.47.47 0 0 0-.225-.538l-.311-.18a.542.542 0 0 1-.26-.503 4.022 4.022 0 0 0 0-.44.542.542 0 0 1 .26-.504l.31-.18a.47.47 0 0 0 .226-.537 4.97 4.97 0 0 0-.411-.976zM12.882 9.5a2.5 2.5 0 1 1 0 5 2.5 2.5 0 0 1 0-5z"/>
</svg>
