<svg xmlns="http://www.w3.org/2000/svg" viewBox="0 0 20 17" fill="currentColor">
  <path d="m5.914 8.18-.093-.187a2 2 0 0 1 .374-2.309l.612-.611-.668-2.226a.5.5 0 0 0-.623-.336l-1.711.514c-.234.07-.303.243-.298.339.096 2.093.623 4.48 2.068 6.385a8.399 8.399 0 0 0 2.891 2.406c.087.113.184.215.29.306v.078c-.327.28-.569.67-.66 1.107-4.682-2.228-5.93-6.763-6.088-10.214-.04-.856.545-1.598 1.366-1.844l1.711-.513a2 2 0 0 1 2.49 1.34l.754 2.513a1 1 0 0 1-.25.994l-.823.823a.5.5 0 0 0-.094.577l.094.187-1.342.671z"/>
  <path d="M7.256 7.51a5 5 0 0 0 1.451 1.748l-.094.151-.007.012-.096.166-.007.011a5.975 5.975 0 0 0-.301.63 1.975 1.975 0 0 0-.122.425A6.5 6.5 0 0 1 5.914 8.18l1.342-.67z"/>
  <path fill-rule="evenodd" d="M9.59 14.204c.066.162.142.32.226.471l.082.143a4.5 4.5 0 0 0 .3.438.465.465 0 0 0 .604.104l.227-.13a.55.55 0 0 1 .606.054c.235.18.494.33.77.446a.551.551 0 0 1 .351.498v.261c0 .234.162.44.393.47a4.539 4.539 0 0 0 1.214 0 .465.465 0 0 0 .393-.47v-.261a.55.55 0 0 1 .351-.498c.277-.116.535-.266.77-.446a.55.55 0 0 1 .607-.055l.226.131c.203.117.46.08.604-.104a4.52 4.52 0 0 0 .3-.438l.082-.143c.085-.152.16-.31.226-.471a.465.465 0 0 0-.21-.575l-.228-.131a.55.55 0 0 1-.256-.553 3.536 3.536 0 0 0 0-.89.55.55 0 0 1 .256-.553l.227-.131a.465.465 0 0 0 .212-.575 4.48 4.48 0 0 0-.227-.471l-.082-.143a4.531 4.531 0 0 0-.3-.438.465.465 0 0 0-.604-.104l-.226.13a.55.55 0 0 1-.607-.054 3.493 3.493 0 0 0-.77-.446.551.551 0 0 1-.35-.498v-.261a.465.465 0 0 0-.394-.47 4.54 4.54 0 0 0-1.214 0 .465.465 0 0 0-.393.47v.261a.551.551 0 0 1-.35.498 3.498 3.498 0 0 0-.77.446.55.55 0 0 1-.607.055l-.227-.131a.465.465 0 0 0-.604.104 4.5 4.5 0 0 0-.3.439l-.082.142c-.084.152-.16.31-.226.471a.465.465 0 0 0 .21.575l.228.131a.55.55 0 0 1 .256.553 3.536 3.536 0 0 0 0 .89.551.551 0 0 1-.256.553l-.227.13a.465.465 0 0 0-.211.576zm2.166-1.704a2 2 0 1 1 4 0 2 2 0 0 1-4 0z"/>
</svg>
