<svg xmlns="http://www.w3.org/2000/svg" viewBox="0 0 20 16" fill="currentColor"><path d="M3.5 2.2V3c0 2.76 1.4 5.65 3.62 7.88.7.7 1.48 1.33 2.3 1.85-.1.25-.13.55-.03.84.1.3.22.58.37.85l.09.15a5 5 0 0 0 .12.19C5.52 12.56 2 7.78 2 3V1.8a1 1 0 0 1 .78-.98L5.9.12a2 2 0 0 1 2.26 1.11l1.48 3.25a1 1 0 0 1-.36 1.24l-1.38.92a.2.2 0 0 0-.07.28A8.35 8.35 0 0 0 9.9 9.35c0 .03-.02.05-.04.07v.01l-.08.14v.01c-.16.27-.28.55-.38.85a1.3 1.3 0 0 0-.06.38 9.86 9.86 0 0 1-2.8-3.16 1.7 1.7 0 0 1 .55-2.25l1.03-.7-1.3-2.85a.5.5 0 0 0-.57-.28L3.5 2.2Z"/><path fill-rule="evenodd" d="M17.83 11.03c.1-.06.14-.18.1-.29a3.98 3.98 0 0 0-.29-.67l-.07-.13a4.02 4.02 0 0 0-.45-.6.24.24 0 0 0-.3-.05l-.58.34c-.1.05-.2.04-.29-.02a3 3 0 0 0-.65-.38.26.26 0 0 1-.16-.24v-.67a.24.24 0 0 0-.2-.24 4.02 4.02 0 0 0-1.61 0 .24.24 0 0 0-.2.24v.67c0 .11-.06.2-.16.24a3 3 0 0 0-.64.38.26.26 0 0 1-.3.02l-.58-.34a.24.24 0 0 0-.3.05 4 4 0 0 0-.44.6l-.07.13c-.12.21-.22.44-.3.67-.04.11.01.23.11.29l.58.33c.1.06.14.16.13.27a3.04 3.04 0 0 0 0 .74c.01.1-.03.21-.13.27l-.58.33a.24.24 0 0 0-.11.29c.08.23.18.46.3.67l.07.13c.13.21.28.42.44.6.08.09.2.1.3.05l.59-.34c.09-.05.2-.04.29.02a3 3 0 0 0 .64.38c.1.04.17.13.17.24v.67c0 .11.07.21.19.24a4.02 4.02 0 0 0 1.62 0 .24.24 0 0 0 .19-.24v-.67c0-.11.06-.2.16-.24a3 3 0 0 0 .65-.38.3.3 0 0 1 .3-.02l.57.34c.1.05.23.04.3-.05.17-.18.32-.39.45-.6l.07-.13c.12-.21.22-.44.3-.67a.24.24 0 0 0-.11-.29l-.59-.33a.26.26 0 0 1-.13-.27 3.02 3.02 0 0 0 0-.74.26.26 0 0 1 .13-.27l.59-.33Zm-3.7-.53a1.5 1.5 0 1 1 0 3 1.5 1.5 0 0 1 0-3Z"/></svg>