<svg xmlns="http://www.w3.org/2000/svg" fill="currentColor" class="vi" viewBox="0 0 16 16"><path d="M4.695.042a1 1 0 0 1 1.046.495l1.74 3.095a1.75 1.75 0 0 1-.45 2.239l-1.07.831a.22.22 0 0 0-.074.098c-.008.025-.005.037-.002.044.482 1.284 1.643 2.482 2.91 3.1a4.49 4.49 0 0 0-.634 1.36c-1.6-.774-3.052-2.258-3.68-3.933-.272-.724.043-1.451.56-1.853l1.069-.831a.25.25 0 0 0 .064-.32L4.607 1.58 1.5 2.129V3c0 2.75 1.442 5.631 3.655 7.845a13.848 13.848 0 0 0 2.88 2.216c.095.767.383 1.473.814 2.07-1.752-.725-3.387-1.858-4.754-3.226C1.683 9.494 0 6.251 0 3V1.71A1 1 0 0 1 .826.725zm8.438 9.016a3.521 3.521 0 0 0-1.275 0 .457.457 0 0 0-.363.46v.406a.483.483 0 0 1-.252.41.48.48 0 0 1-.479.012l-.35-.203a.457.457 0 0 0-.58.084 3.51 3.51 0 0 0-.34.47l-.063.111a3.483 3.483 0 0 0-.236.524.457.457 0 0 0 .217.543l.35.201c.148.086.228.252.228.424s-.08.338-.229.424l-.349.201a.457.457 0 0 0-.217.543c.065.182.144.357.236.524l.064.11c.1.167.213.324.339.471a.457.457 0 0 0 .58.084l.35-.203a.48.48 0 0 1 .479.013.483.483 0 0 1 .252.41v.405c0 .221.145.42.363.46a3.526 3.526 0 0 0 1.275 0 .457.457 0 0 0 .363-.46v-.414c0-.169.102-.32.248-.405a.475.475 0 0 1 .475-.013l.358.207c.192.11.436.084.58-.084a3.49 3.49 0 0 0 .34-.47l.063-.111c.092-.167.171-.342.236-.524a.457.457 0 0 0-.218-.543l-.362-.21a.474.474 0 0 1-.226-.415c0-.169.08-.332.226-.416l.362-.21a.457.457 0 0 0 .218-.543 3.493 3.493 0 0 0-.236-.523l-.064-.11a3.517 3.517 0 0 0-.34-.471.457.457 0 0 0-.579-.084l-.358.207a.475.475 0 0 1-.475-.013.477.477 0 0 1-.248-.405v-.414a.457.457 0 0 0-.363-.46m.358 3.442a1 1 0 1 1-2 0 1 1 0 0 1 2 0"/></svg>