<svg xmlns="http://www.w3.org/2000/svg" viewBox="0 0 20 16" fill="currentColor"><path d="M3.5 2.2V3c0 2.76 1.4 5.65 3.62 7.88.6.59 1.23 1.12 1.9 1.58.07.8.34 1.55.74 2.2C5.41 12.42 2 7.7 2 3V1.8a1 1 0 0 1 .78-.98L5.9.12a2 2 0 0 1 2.26 1.11l1.48 3.25a1 1 0 0 1-.36 1.24l-1.38.92a.2.2 0 0 0-.07.28c.5.9 1.17 1.7 1.96 2.36-.28.43-.5.9-.63 1.41a9.86 9.86 0 0 1-2.64-3.04 1.7 1.7 0 0 1 .55-2.25l1.03-.7-1.3-2.85a.5.5 0 0 0-.57-.28L3.5 2.2ZM14 7h-2a1 1 0 0 1-1-1V3a.75.75 0 0 1 1.5 0v1.44L16.19.75a.75.75 0 0 1 1.06 1.06L13.56 5.5H15A.75.75 0 0 1 15 7h-1Z"/><path fill-rule="evenodd" d="M18 12a4 4 0 1 1-8 0 4 4 0 0 1 8 0Zm-2.84 2.22-3.38-3.38a2.5 2.5 0 0 0 3.37 3.37Zm1.06-1.06a2.5 2.5 0 0 0-3.37-3.37l3.37 3.37Z"/></svg>