<svg xmlns="http://www.w3.org/2000/svg" viewBox="0 0 20 16" fill="currentColor">
  <path fill-rule="evenodd" d="M6.91 8.18a6.5 6.5 0 0 0 2.91 2.9l.19.1a2 2 0 0 0 2.3-.37l.62-.62 2.22.67a.5.5 0 0 1 .34.62l-.5 1.66c-.07.23-.26.32-.38.31-4.24-.28-6.63-1.85-8.04-3.7a11.45 11.45 0 0 1-2.06-6.39c0-.1.06-.27.3-.34l1.7-.5a.5.5 0 0 1 .63.33l.67 2.22-.62.62a2 2 0 0 0-.37 2.3l.1.19zm1.35-.67-.1-.19a.5.5 0 0 1 .1-.58l.82-.82a1 1 0 0 0 .25-1l-.75-2.5a2 2 0 0 0-2.5-1.34l-1.7.5c-.83.25-1.41 1-1.37 1.85.2 4.52 2.28 10.9 11.5 11.52a1.9 1.9 0 0 0 1.92-1.37l.5-1.66a2 2 0 0 0-1.34-2.5l-2.52-.75a1 1 0 0 0-1 .25l-.81.83a.5.5 0 0 1-.58.09l-.19-.1a5 5 0 0 1-2.23-2.23z"/>
</svg>
