<svg xmlns="http://www.w3.org/2000/svg" viewBox="0 0 20 16" fill="currentColor"><path d="M3.5 2.14v.8c0 2.76 1.4 5.65 3.62 7.88a13.8 13.8 0 0 0 1.9 1.58c.06.79.3 1.52.69 2.17C5.38 12.32 2 7.63 2 2.94v-1.2a1 1 0 0 1 .78-.98L5.9.05a2 2 0 0 1 2.26 1.12l1.48 3.24a1 1 0 0 1-.36 1.25l-1.38.92a.2.2 0 0 0-.07.28 8.45 8.45 0 0 0 1.99 2.38c-.28.43-.5.9-.64 1.4A9.86 9.86 0 0 1 6.53 7.6a1.7 1.7 0 0 1 .55-2.26l1.03-.68-1.3-2.86a.5.5 0 0 0-.57-.28l-2.74.63Z"/><path fill-rule="evenodd" d="M18 12a4 4 0 1 1-8 0 4 4 0 0 1 8 0Zm-3.25-.31v-1.44a.75.75 0 0 0-1.5 0v1.65c0 .26.1.52.3.7l.64.65a.75.75 0 0 0 1.06-1.06l-.5-.5Z"/></svg>