<svg xmlns="http://www.w3.org/2000/svg" fill="currentColor" class="vi" viewBox="0 0 16 16"><path d="M4.7.04a1 1 0 0 1 1.04.5l1.74 3.1c.43.75.23 1.7-.45 2.23l-1.07.83a.22.22 0 0 0-.07.1v.04a5.85 5.85 0 0 0 1.9 2.47c-.28.43-.5.9-.62 1.4a7.42 7.42 0 0 1-2.69-3.34c-.27-.72.04-1.45.56-1.85l1.07-.83c.1-.08.12-.22.06-.32L4.61 1.58l-3.11.55V3c0 2.75 1.44 5.63 3.66 7.84.57.58 1.2 1.11 1.86 1.57.06.8.32 1.55.71 2.2a15.24 15.24 0 0 1-3.64-2.7C1.7 9.49 0 6.25 0 3V1.71A1 1 0 0 1 .83.72L4.7.04ZM14.86 11.5a.27.27 0 0 0-.13.25 2.77 2.77 0 0 1 0 .5c0 .1.04.2.13.25l.65.38c.2.11.3.35.22.56l-.23.5-.08.12c-.1.16-.2.31-.32.45-.14.18-.4.21-.59.1l-.65-.38a.27.27 0 0 0-.29.02c-.13.1-.27.18-.42.25a.26.26 0 0 0-.16.23v.76c0 .22-.15.43-.38.46a4.03 4.03 0 0 1-1.24 0 .46.46 0 0 1-.38-.46v-.76c0-.1-.06-.2-.15-.23-.15-.07-.3-.16-.43-.25a.27.27 0 0 0-.28-.02l-.66.38a.46.46 0 0 1-.59-.1c-.12-.14-.22-.3-.32-.45l-.07-.13a3.98 3.98 0 0 1-.23-.5.46.46 0 0 1 .21-.55l.66-.38a.26.26 0 0 0 .12-.25 2.78 2.78 0 0 1 0-.5.25.25 0 0 0-.12-.25l-.66-.38a.46.46 0 0 1-.21-.56c.06-.17.14-.33.23-.5l.07-.12c.1-.16.2-.31.32-.45.14-.18.4-.21.6-.1l.65.38c.09.05.2.04.28-.02.13-.1.28-.18.43-.25a.25.25 0 0 0 .15-.23V8.5c0-.22.16-.43.38-.46a4.03 4.03 0 0 1 1.24 0c.23.03.38.24.38.46v.76c0 .1.07.2.16.23.15.07.3.16.42.25.09.06.2.07.29.02l.65-.38c.2-.11.45-.08.6.1.11.14.22.3.31.45l.08.13c.08.16.16.32.23.5a.46.46 0 0 1-.22.55l-.65.38Zm-1.87.5a1 1 0 1 0-2 0 1 1 0 0 0 2 0Z"/></svg>