<svg xmlns="http://www.w3.org/2000/svg" viewBox="0 0 16 16" fill="currentColor">
  <path fill-rule="evenodd" d="m4.913 8.18-.093-.187a2 2 0 0 1 .374-2.308l.612-.612-.668-2.226a.5.5 0 0 0-.623-.336l-1.711.514c-.234.07-.303.243-.298.339.096 2.093.623 4.48 2.068 6.385 1.401 1.847 3.8 3.421 8.033 3.706.128.008.315-.081.384-.311l.498-1.66a.5.5 0 0 0-.336-.622l-2.226-.668-.611.612a2 2 0 0 1-2.31.375l-.186-.094A6.5 6.5 0 0 1 4.913 8.18zm1.342-.67-.094-.188a.5.5 0 0 1 .094-.577l.823-.823a1 1 0 0 0 .25-.994l-.753-2.512a2 2 0 0 0-2.49-1.341l-1.712.513c-.82.246-1.405.988-1.366 1.844.208 4.521 2.284 10.9 11.5 11.52.88.059 1.667-.531 1.92-1.377l.498-1.66a2 2 0 0 0-1.34-2.49l-2.513-.753a1 1 0 0 0-.994.25l-.823.823a.5.5 0 0 1-.577.094l-.187-.094A5 5 0 0 1 6.255 7.51z"/>
</svg>
