<svg xmlns="http://www.w3.org/2000/svg" fill="currentColor" class="vi" viewBox="0 0 16 16"><path d="M15.78.22a.75.75 0 0 1 0 1.06L11.56 5.5h1.69a.75.75 0 0 1 0 1.5h-3.5A.75.75 0 0 1 9 6.25v-3.5a.75.75 0 0 1 1.5 0v1.69L14.72.22a.75.75 0 0 1 1.06 0M4.695.042a1 1 0 0 1 1.046.495l1.74 3.095a1.75 1.75 0 0 1-.45 2.239l-1.07.831a.2.2 0 0 0-.074.098c-.008.025-.005.037-.002.044.482 1.284 1.643 2.482 2.91 3.1a4.5 4.5 0 0 0-.634 1.36c-1.6-.774-3.052-2.258-3.68-3.933-.272-.724.043-1.451.56-1.853l1.069-.831a.25.25 0 0 0 .064-.32L4.607 1.58 1.5 2.129V3c0 2.75 1.442 5.631 3.655 7.845a14 14 0 0 0 2.88 2.216c.095.767.383 1.473.814 2.07-1.752-.725-3.387-1.858-4.754-3.226C1.683 9.494 0 6.251 0 3V1.71A1 1 0 0 1 .826.725z"/><path d="M12.5 16a3.5 3.5 0 1 0 0-7 3.5 3.5 0 0 0 0 7m0-1.5a2 2 0 0 1-1.842-2.781l2.623 2.623c-.24.102-.504.158-.781.158m-.781-3.842a2 2 0 0 1 2.623 2.623z"/></svg>