<svg xmlns="http://www.w3.org/2000/svg" viewBox="0 0 20 16" fill="currentColor"><path d="M3.5 2.14v.8c0 2.76 1.4 5.65 3.62 7.88.9.9 1.91 1.66 2.98 2.25.1.32.3.6.57.8-.28.23-.5.53-.6.88C5.57 12.58 2 7.75 2 2.94v-1.2a1 1 0 0 1 .78-.98L5.9.05a2 2 0 0 1 2.26 1.12l1.48 3.24a1 1 0 0 1-.36 1.25l-1.38.92a.2.2 0 0 0-.07.28c.55.99 1.3 1.85 2.2 2.54a1.76 1.76 0 0 0 .63 1.72c-.11.1-.21.19-.3.3a9.88 9.88 0 0 1-3.84-3.83 1.7 1.7 0 0 1 .55-2.26l1.03-.68-1.3-2.86a.5.5 0 0 0-.57-.28l-2.74.63ZM11.75 9a.75.75 0 0 0 0 1.5h5.5a.75.75 0 0 0 0-1.5h-5.5ZM11 12.5c0-.41.34-.75.75-.75h5.5a.75.75 0 0 1 0 1.5h-5.5a.75.75 0 0 1-.75-.75Zm.75 2a.75.75 0 0 0 0 1.5h5.5a.75.75 0 0 0 0-1.5h-5.5Z"/></svg>