<svg xmlns="http://www.w3.org/2000/svg" fill="currentColor" class="vi" viewBox="0 0 16 16"><path d="M9.742 4.057C9.341 3.955 9 3.628 9 3.214s.338-.756.747-.688a4.504 4.504 0 0 1 3.691 3.691c.069.409-.274.747-.688.747-.414 0-.74-.34-.843-.742a3.005 3.005 0 0 0-2.165-2.165"/><path d="M15.25 6.964c-.414 0-.745-.337-.8-.748a5.503 5.503 0 0 0-4.702-4.701C9.338 1.459 9 1.128 9 .715c0-.415.337-.755.749-.711a7.003 7.003 0 0 1 6.211 6.211c.044.412-.296.75-.71.75M4.695.042a1 1 0 0 1 1.046.495l1.74 3.095a1.75 1.75 0 0 1-.45 2.239l-1.07.831a.22.22 0 0 0-.074.098c-.008.025-.005.037-.002.044.527 1.405 1.867 2.706 3.27 3.258.01.005.025.008.051 0a.221.221 0 0 0 .102-.077l.821-1.056a1.75 1.75 0 0 1 2.24-.45l3.094 1.74a1 1 0 0 1 .495 1.046l-.683 3.869a1 1 0 0 1-.985.826H13c-3.25 0-6.494-1.683-8.905-4.095C1.683 9.494 0 6.251 0 3V1.71A1 1 0 0 1 .826.725zm-.088 1.539L1.5 2.129V3c0 2.75 1.442 5.631 3.655 7.845C7.37 13.058 10.251 14.5 13 14.5h.87l.549-3.107-2.786-1.567a.25.25 0 0 0-.32.064l-.821 1.056c-.412.53-1.157.84-1.886.552-1.771-.696-3.439-2.297-4.125-4.127-.272-.724.043-1.451.56-1.853l1.069-.831a.25.25 0 0 0 .064-.32z"/></svg>