<svg xmlns="http://www.w3.org/2000/svg" viewBox="0 0 20 16" fill="currentColor">
  <path d="M16.3 15.81a2 2 0 0 0 .06.02l-.14.05v-.03l.07-.04ZM8.61 8.4a6 6 0 0 1 .1-.15 5 5 0 0 1-.46-.74l-.09-.19a.5.5 0 0 1 .1-.57l.76-.77a1 1 0 0 0 .2-1.1l-1.51-3.5A2 2 0 0 0 5.3.26L3.37.84c-.82.24-1.4.99-1.31 1.84a15.61 15.61 0 0 0 6 10.5c-.04-.57.17-1.1.53-1.49a14.07 14.07 0 0 1-5.04-9.17c0-.03 0-.06.03-.1a.43.43 0 0 1 .22-.15l1.93-.57a.5.5 0 0 1 .6.28l1.39 3.18-.53.52A2 2 0 0 0 6.82 8l.1.19c.3.6.68 1.14 1.14 1.62.02-.19.06-.38.14-.57.09-.22.2-.43.3-.63l.01-.01.1-.17v-.01Z"/>
  <path fill-rule="evenodd" d="M9.59 13.2c.07.17.14.32.23.48l.08.14c.09.15.19.3.3.44.14.18.4.22.6.1l.23-.13a.55.55 0 0 1 .6.05c.24.18.5.33.78.45.2.09.35.28.35.5v.26c0 .23.16.44.39.47a4.54 4.54 0 0 0 1.21 0c.23-.03.4-.24.4-.47v-.26c0-.22.14-.41.35-.5.27-.12.53-.27.77-.45a.55.55 0 0 1 .6-.05l.23.13c.2.12.46.08.6-.1.11-.14.21-.29.3-.44l.09-.14c.08-.16.16-.31.22-.48a.46.46 0 0 0-.2-.57l-.24-.13a.55.55 0 0 1-.25-.55 3.54 3.54 0 0 0 0-.9.55.55 0 0 1 .25-.55l.23-.13c.2-.12.3-.36.21-.57a4.49 4.49 0 0 0-.22-.48l-.09-.14c-.09-.15-.19-.3-.3-.44a.47.47 0 0 0-.6-.1l-.23.13a.55.55 0 0 1-.6-.05 3.5 3.5 0 0 0-.77-.45.55.55 0 0 1-.35-.5v-.26a.46.46 0 0 0-.4-.47 4.54 4.54 0 0 0-1.21 0 .46.46 0 0 0-.4.47v.26c0 .22-.14.41-.34.5a3.5 3.5 0 0 0-.77.45.55.55 0 0 1-.61.05l-.23-.13a.47.47 0 0 0-.6.1c-.11.14-.21.29-.3.44l-.08.14c-.09.16-.16.31-.23.48-.09.21 0 .45.21.57l.23.13c.19.11.28.34.25.55a3.54 3.54 0 0 0 0 .9.55.55 0 0 1-.25.55l-.23.13c-.2.12-.3.36-.21.57Zm2.17-1.7a2 2 0 1 1 4 0 2 2 0 0 1-4 0Z"/>
</svg>
