<svg xmlns="http://www.w3.org/2000/svg" viewBox="0 0 16 16" fill="currentColor">
  <path fill-rule="evenodd" d="M4.253 1.036c-.482.111-2.029.597-2.228.7a1.817 1.817 0 0 0-1.012 1.648c.001.575.138 1.738.295 2.504.861 4.179 3.297 7.009 7.145 8.299 1.269.425 3.065.752 4.147.754.304 0 .373-.008.56-.07a1.966 1.966 0 0 0 1.207-1.138c.107-.272.591-1.931.622-2.133.113-.737-.253-1.521-.91-1.945-.222-.144-.28-.164-1.746-.609-1.272-.387-1.281-.389-1.546-.391-.411-.003-.472.033-1.094.652-.517.514-.615.586-.797.586-.109 0-.622-.25-.923-.45-.739-.491-1.282-1.104-1.719-1.941-.249-.475-.235-.513.428-1.183.632-.638.666-.695.663-1.106-.002-.265-.004-.274-.391-1.546-.445-1.468-.465-1.523-.61-1.747a2.038 2.038 0 0 0-.815-.729 2.082 2.082 0 0 0-1.276-.155m.669 1.538c.069.04.131.105.168.178.053.103.697 2.221.697 2.292 0 .017-.161.195-.358.397-.516.531-.682.802-.779 1.27a2.23 2.23 0 0 0 .043.956c.075.241.4.87.613 1.19a6.524 6.524 0 0 0 2.499 2.217c.438.223.645.287.983.305.45.025.873-.09 1.235-.336.093-.063.334-.276.536-.472.202-.197.383-.358.402-.358.071 0 2.178.643 2.287.698a.48.48 0 0 1 .254.42c-.001.145-.495 1.81-.576 1.946-.091.151-.22.189-.553.161-4.845-.408-7.877-2.512-9.199-6.385-.368-1.076-.637-2.545-.65-3.552l-.004-.28.098-.085c.083-.072.225-.123.933-.336 1.108-.332 1.062-.32 1.169-.304a.714.714 0 0 1 .202.078"/>
</svg>
