<svg xmlns="http://www.w3.org/2000/svg" viewBox="0 0 20 16" fill="currentColor">
  <path fill-rule="evenodd" d="M6.913 8.18a6.5 6.5 0 0 0 2.907 2.907l.187.094a2 2 0 0 0 2.309-.375l.611-.612 2.226.668a.5.5 0 0 1 .336.623l-.498 1.659c-.07.23-.256.32-.384.31-4.233-.284-6.632-1.858-8.033-3.705C5.13 7.843 4.602 5.457 4.506 3.364c-.005-.096.064-.269.298-.34l1.711-.513a.5.5 0 0 1 .623.336l.668 2.226-.612.612a2 2 0 0 0-.374 2.308l.093.187zm1.342-.67-.094-.188a.5.5 0 0 1 .094-.577l.823-.823a1 1 0 0 0 .25-.994l-.753-2.512a2 2 0 0 0-2.49-1.341l-1.712.513c-.82.246-1.405.988-1.366 1.844.208 4.521 2.284 10.9 11.5 11.52.88.059 1.667-.531 1.92-1.377l.498-1.66a2 2 0 0 0-1.34-2.49l-2.513-.753a1 1 0 0 0-.994.25l-.823.823a.5.5 0 0 1-.577.094l-.187-.094A5 5 0 0 1 8.255 7.51z"/>
</svg>
