<svg xmlns="http://www.w3.org/2000/svg" fill="currentColor" class="vi" viewBox="0 0 16 16"><path d="M1.28.22A.75.75 0 1 0 .22 1.28l3.753 3.753-1.5.563A1.5 1.5 0 0 0 1.94 8.06l2.47 2.47-4.19 4.189a.75.75 0 1 0 1.061 1.06l4.19-4.189 2.47 2.47a1.5 1.5 0 0 0 2.465-.534l.562-1.5 3.753 3.753a.75.75 0 1 0 1.06-1.06L1.28.22Zm8.522 10.642L9 13 3 7l2.138-.802 4.664 4.664ZM14.01 5.88l-2.684 2.386 1.063 1.062 2.617-2.326a2.75 2.75 0 0 0 .117-4L12.998.877a2.75 2.75 0 0 0-4 .117L6.672 3.611l1.062 1.063L10.12 1.99a1.25 1.25 0 0 1 1.818-.054l2.126 2.126a1.25 1.25 0 0 1-.054 1.818Z"/></svg>