<svg xmlns="http://www.w3.org/2000/svg" fill="currentColor" class="vi" viewBox="0 0 16 16"><path d="M7.94 14.06a1.5 1.5 0 0 0 2.465-.533L11.73 9.99a.501.501 0 0 1 .136-.198l3.139-2.79a2.75 2.75 0 0 0 .117-4L12.998.877a2.75 2.75 0 0 0-4 .117l-2.79 3.14a.5.5 0 0 1-.198.135L2.473 5.596A1.5 1.5 0 0 0 1.94 8.06l2.47 2.47-4.19 4.189a.75.75 0 1 0 1.061 1.06l4.19-4.189 2.47 2.47ZM9 13 3 7l3.536-1.326a2 2 0 0 0 .793-.544l2.79-3.14a1.25 1.25 0 0 1 1.818-.053l2.126 2.126a1.25 1.25 0 0 1-.054 1.818L10.87 8.67a2 2 0 0 0-.544.793L9 13Z"/></svg>