<svg xmlns="http://www.w3.org/2000/svg" fill="currentColor" class="vi" viewBox="0 0 16 16"><path d="M.75 1a.75.75 0 0 1 .75.75v3.5c0 .138.112.25.25.25h.5a.25.25 0 0 0 .25-.25v-3.5a.75.75 0 0 1 1.5 0v3.5a1.75 1.75 0 0 1-1.25 1.677v7.323a.75.75 0 1 1-1.5 0V6.927A1.75 1.75 0 0 1 0 5.25v-3.5A.75.75 0 0 1 .75 1m13.381.713c.186-.315.541-.713 1.119-.713a.75.75 0 0 1 .75.75v12.5a.75.75 0 1 1-1.5 0V9h-.25a.75.75 0 0 1-.75-.75v-2.5c0-1.02.063-2.079.235-2.903.084-.405.206-.811.396-1.134M8 15a6.97 6.97 0 0 1-4.25-1.437V11.49a5.502 5.502 0 0 0 9.49-1.813q.122.088.26.154v2.499A6.99 6.99 0 0 1 8 15"/><path d="M4.998 5.356a2.74 2.74 0 0 1-.94 1.967Q4 7.653 4 8a4 4 0 1 0 .998-2.644M10.5 8a2.5 2.5 0 1 1-5 0 2.5 2.5 0 0 1 5 0"/><path d="M5 1.75v1.64a5.47 5.47 0 0 1 3-.89c1.87 0 3.523.934 4.516 2.36a14.5 14.5 0 0 1 .203-2.03A6.98 6.98 0 0 0 8 1a7 7 0 0 0-3.002.674z"/></svg>