<svg xmlns="http://www.w3.org/2000/svg" viewBox="0 0 20 16" fill="currentColor">
  <path fill-rule="evenodd" d="M10 4 8.683 1.367A2.472 2.472 0 0 0 4 2.472v.278c0 .45.108.875.3 1.25H4a2 2 0 0 0-2 2v2a1 1 0 0 0 1 1h.5v5a2 2 0 0 0 2 2h9a2 2 0 0 0 2-2V9h.5a1 1 0 0 0 1-1V6a2 2 0 0 0-2-2h-.3c.192-.375.3-.8.3-1.25v-.278a2.472 2.472 0 0 0-4.683-1.105L10 4zM5.5 2.75v-.278a.972.972 0 0 1 1.842-.435L8.323 4H6.75C6.06 4 5.5 3.44 5.5 2.75zM11.677 4l.981-1.963a.972.972 0 0 1 1.842.435v.278c0 .69-.56 1.25-1.25 1.25h-1.573zM4 5.5h12a.5.5 0 0 1 .5.5v1.5h-13V6a.5.5 0 0 1 .5-.5zM10.75 9H15v5a.5.5 0 0 1-.5.5h-3.75V9zm-1.5 5.5H5.5A.5.5 0 0 1 5 14V9h4.25v5.5z"/>
</svg>
