<svg xmlns="http://www.w3.org/2000/svg" width="16" height="16" fill="currentColor" class="vi" viewBox="0 0 16 16"><path d="M12.19 2.78a1.69 1.69 0 0 0-2.5 2.03l.26.66a.75.75 0 0 1-.7 1.03H6.5v2.48c0 .54-.55.9-1.05.7l-.64-.25a1.69 1.69 0 1 0 0 3.14l.64-.26a.77.77 0 0 1 1.05.71v2.48h7.75c.69 0 1.25-.56 1.25-1.25V6.5h-2.25a.75.75 0 0 1-.7-1.03l.27-.66c.3-.74.03-1.6-.63-2.03Zm-2.7-1.25A3.19 3.19 0 0 1 14.32 5h1.42c.69 0 1.25.56 1.25 1.25v8A2.75 2.75 0 0 1 14.25 17h-8C5.56 17 5 16.44 5 15.75v-1.67a3.19 3.19 0 1 1 0-6.16V6.25C5 5.56 5.56 5 6.25 5h1.92c-.35-1.3.16-2.7 1.31-3.47Z"/></svg>