<svg xmlns="http://www.w3.org/2000/svg" fill="currentColor" class="vi" viewBox="0 0 16 16"><path d="M11.19 1.783a1.689 1.689 0 0 0-2.505 2.032l.264.66a.751.751 0 0 1-.698 1.03H5.505V7.98a.766.766 0 0 1-1.05.71l-.64-.255a1.689 1.689 0 1 0 0 3.136l.64-.256a.766.766 0 0 1 1.05.711v2.475h7.746c.69 0 1.25-.56 1.25-1.25V5.505h-2.247a.751.751 0 0 1-.697-1.03l.263-.66a1.689 1.689 0 0 0-.63-2.032M8.483.535a3.188 3.188 0 0 1 4.85 3.47h1.417c.69 0 1.249.56 1.249 1.25v7.996A2.749 2.749 0 0 1 13.251 16H5.255c-.69 0-1.25-.56-1.25-1.25v-1.666a3.188 3.188 0 1 1 0-6.162V5.255c0-.69.56-1.25 1.25-1.25h1.916A3.188 3.188 0 0 1 8.484.536Z"/></svg>