<svg xmlns="http://www.w3.org/2000/svg" fill="currentColor" class="vi" viewBox="0 0 16 16"><path d="M12.187 2.776A1.69 1.69 0 0 0 9.681 4.81l.264.66a.752.752 0 0 1-.697 1.03H6.5v2.476a.766.766 0 0 1-1.051.711l-.64-.256a1.69 1.69 0 1 0 0 3.138l.64-.256a.766.766 0 0 1 1.051.711V15.5h7.75c.69 0 1.25-.56 1.25-1.25V6.5h-2.248a.752.752 0 0 1-.697-1.03l.264-.66a1.69 1.69 0 0 0-.632-2.034ZM9.481 1.528A3.19 3.19 0 0 1 14.333 5h1.417c.69 0 1.25.56 1.25 1.25v8A2.75 2.75 0 0 1 14.25 17h-8C5.56 17 5 16.44 5 15.75v-1.667a3.19 3.19 0 1 1 0-6.166V6.25C5 5.56 5.56 5 6.25 5h1.917a3.19 3.19 0 0 1 1.314-3.472Z"/></svg>