<svg xmlns="http://www.w3.org/2000/svg" fill="currentColor" class="vi" viewBox="0 0 16 16"><path d="M4.5 9c.356 0 .694-.074 1-.208v.458a2.25 2.25 0 0 1-2.25 2.25h-.5a.75.75 0 0 0 0 1.5h.5A3.75 3.75 0 0 0 7 9.25V5.5a2.5 2.5 0 0 0-5 0v1A2.5 2.5 0 0 0 4.5 9Zm1-3.5v1a1 1 0 0 1-2 0v-1a1 1 0 0 1 2 0Zm6 3.5c.356 0 .694-.074 1-.208v.458a2.25 2.25 0 0 1-2.25 2.25h-.5a.75.75 0 0 0 0 1.5h.5A3.75 3.75 0 0 0 14 9.25V5.5a2.5 2.5 0 0 0-5 0v1A2.5 2.5 0 0 0 11.5 9Zm1-3.5v1a1 1 0 1 1-2 0v-1a1 1 0 1 1 2 0Z"/></svg>