<svg xmlns="http://www.w3.org/2000/svg" fill="currentColor" class="vi" viewBox="0 0 16 16"><path d="M5.75 5.5a.75.75 0 0 0 0 1.5h4.5a.75.75 0 0 0 0-1.5zm0 3.5a.75.75 0 0 0 0 1.5h4.5a.75.75 0 0 0 0-1.5z"/><path d="M3.314.256A.75.75 0 0 0 2 .75v14.5a.75.75 0 0 0 1.314.494L4.5 14.389l1.186 1.355a.75.75 0 0 0 1.128 0L8 14.389l1.186 1.355a.75.75 0 0 0 1.128 0l1.186-1.355 1.186 1.355A.75.75 0 0 0 14 15.25V.75a.75.75 0 0 0-1.314-.494L11.5 1.611 10.314.256a.75.75 0 0 0-1.128 0L8 1.611 6.814.256a.75.75 0 0 0-1.128 0L4.5 1.611zm1.75 2.988L6.25 1.889l1.186 1.355a.75.75 0 0 0 1.128 0L9.75 1.889l1.186 1.355a.75.75 0 0 0 1.128 0l.436-.498v10.508l-.436-.498a.75.75 0 0 0-1.128 0L9.75 14.111l-1.186-1.355a.75.75 0 0 0-1.128 0L6.25 14.111l-1.186-1.355a.75.75 0 0 0-1.128 0l-.436.498V2.746l.436.498a.75.75 0 0 0 1.128 0"/></svg>