<svg xmlns="http://www.w3.org/2000/svg" viewBox="0 0 16 16" fill="currentColor">
  <path d="M15.061.277a.808.808 0 0 0-.405.264c-.151.198-.149.173-.149 2.014V4.25l-.238-.358a6.499 6.499 0 0 0-.987-1.2A7.062 7.062 0 0 0 11.32 1.28 7.269 7.269 0 0 0 9.028.57C8.595.505 7.659.492 7.2.545c-1.426.163-2.643.654-3.8 1.531-.343.26-1.064.981-1.324 1.324C1.029 4.781.507 6.312.507 8c0 1.687.522 3.218 1.569 4.6.26.343.979 1.061 1.332 1.329a7.611 7.611 0 0 0 3.485 1.49c.312.048.491.058 1.08.059.76.002.953-.016 1.59-.147a7.465 7.465 0 0 0 2.973-1.36c.367-.279.474-.461.443-.755a.685.685 0 0 0-.223-.446.66.66 0 0 0-.479-.204c-.258-.017-.397.034-.718.263-.519.37-1.048.65-1.574.832a6 6 0 0 1-6.66-9.415 6.026 6.026 0 0 1 5.25-2.218 6.052 6.052 0 0 1 4.663 3.045l.1.18h-3.249l-.164.082a.682.682 0 0 0-.356.363.736.736 0 0 0 .324.953l.147.082 2.553.008c2.536.007 2.553.006 2.719-.05.294-.099.473-.265.613-.571l.062-.133.007-2.551c.007-2.522.007-2.552-.048-2.698a.75.75 0 0 0-.885-.461"/>
</svg>
