<svg xmlns="http://www.w3.org/2000/svg" viewBox="0 0 16 16" fill="currentColor">
  <path d="M12.773 12.773c-.293-.293-.765-.289-1.092-.034A6 6 0 1 1 13.456 5.5h1.617a7.5 7.5 0 1 0-2.326 8.306c.321-.262.319-.74.026-1.033z"/>
  <path d="M14.5 5.25V1A.75.75 0 0 1 16 1v4.75a1 1 0 0 1-1 1h-4.75a.75.75 0 0 1 0-1.5h4.25z"/>
  <path d="M13.334 5.25a6 6 0 1 0-1.653 7.489c.327-.255.8-.259 1.092.034.293.293.295.771-.025 1.033a7.5 7.5 0 1 1 1.752-9.55V1A.75.75 0 0 1 16 1v4.75a1 1 0 0 1-1 1h-4.75a.75.75 0 0 1 0-1.5h3.084z"/>
</svg>
