<svg xmlns="http://www.w3.org/2000/svg" fill="currentColor" class="vi" viewBox="0 0 16 16"><path d="M9.22.22a.75.75 0 0 1 1.06 0l3.5 3.5A.75.75 0 0 1 13.25 5h-8A3.75 3.75 0 0 0 1.5 8.75v.5a.75.75 0 0 1-1.5 0v-.5C0 5.85 2.35 3.5 5.25 3.5h6.19L9.22 1.28a.75.75 0 0 1 0-1.06M15.25 6a.75.75 0 0 1 .75.75V7a5.5 5.5 0 0 1-5.5 5.5H4.56l2.22 2.22a.75.75 0 1 1-1.06 1.06l-3.5-3.5A.75.75 0 0 1 2.75 11h7.75a4 4 0 0 0 4-4v-.25a.75.75 0 0 1 .75-.75"/><path d="M8.75 6.75a.75.75 0 0 0-1.085-.67l-1 .5a.75.75 0 0 0 .585 1.377V9.25a.75.75 0 0 0 1.5 0z"/></svg>