<svg xmlns="http://www.w3.org/2000/svg" fill="currentColor" class="vi" viewBox="0 0 16 16"><path d="M8.603 8.603 7.397 7.397l-2.3 3.506 3.506-2.3ZM8 0C3.58 0 0 3.58 0 8s3.58 8 8 8 8-3.58 8-8-3.58-8-8-8Zm5.027 5.638.477-.197a.258.258 0 0 1 .337.14.258.258 0 0 1-.14.337l-.475.197a.258.258 0 0 1-.337-.14.258.258 0 0 1 .138-.337ZM9.885 2.774l.197-.477a.258.258 0 0 1 .337-.138.258.258 0 0 1 .14.337l-.198.477a.258.258 0 0 1-.337.14.258.258 0 0 1-.14-.339ZM8 1.677a.258.258 0 0 1 .258.258v.517a.258.258 0 1 1-.516 0v-.517A.258.258 0 0 1 8 1.677Zm-2.42.482a.258.258 0 0 1 .338.14l.197.475a.258.258 0 1 1-.477.198l-.197-.477a.258.258 0 0 1 .14-.336Zm-2.05 1.37a.258.258 0 0 1 .365 0l.363.365a.258.258 0 0 1-.365.364l-.365-.365a.258.258 0 0 1 .001-.364ZM1.677 8a.258.258 0 0 1 .258-.258h.517a.258.258 0 1 1 0 .516h-.517A.258.258 0 0 1 1.677 8Zm1.296 2.362-.477.197a.258.258 0 0 1-.337-.337.259.259 0 0 1 .14-.14l.475-.197a.258.258 0 0 1 .337.14.258.258 0 0 1-.138.337Zm.14-4.387a.258.258 0 0 1-.339.14l-.477-.197a.258.258 0 0 1 .199-.477l.477.198a.258.258 0 0 1 .14.336Zm3.002 7.25-.197.478a.259.259 0 0 1-.477-.198l.197-.477a.257.257 0 0 1 .48-.002.258.258 0 0 1-.003.2Zm2.143.84a.258.258 0 1 1-.516 0v-.517a.258.258 0 1 1 .516 0v.517Zm2.161-.224a.258.258 0 0 1-.337-.14l-.197-.475a.258.258 0 0 1 .14-.337.258.258 0 0 1 .337.14l.197.476a.258.258 0 0 1-.14.336Zm2.051-1.37a.258.258 0 0 1-.365 0l-.363-.365a.258.258 0 0 1 .365-.364l.365.365a.258.258 0 0 1-.001.364ZM8.976 8.976 3.3 12.699l3.723-5.675L12.7 3.301 8.976 8.976Zm4.865 1.443a.258.258 0 0 1-.337.14l-.477-.198a.258.258 0 0 1-.14-.337.259.259 0 0 1 .339-.14l.477.198a.258.258 0 0 1 .138.337Zm.224-2.16h-.517a.258.258 0 1 1 0-.517h.517a.258.258 0 1 1 0 .516Z"/></svg>