<svg xmlns="http://www.w3.org/2000/svg" fill="currentColor" class="vi" viewBox="0 0 16 16"><path d="M8.6 8.6 7.4 7.4l-2.3 3.5 3.5-2.3ZM8 0a8 8 0 1 0 0 16A8 8 0 0 0 8 0Zm5.03 5.64.47-.2a.26.26 0 0 1 .2.48l-.47.2a.26.26 0 0 1-.2-.48ZM9.88 2.77l.2-.47a.26.26 0 0 1 .48.2l-.2.47a.26.26 0 1 1-.48-.2ZM8 1.67a.26.26 0 0 1 .26.27v.51a.26.26 0 1 1-.52 0v-.51A.26.26 0 0 1 8 1.68Zm-2.42.49a.26.26 0 0 1 .34.14l.2.47a.26.26 0 1 1-.48.2l-.2-.48a.26.26 0 0 1 .14-.33ZM3.53 3.53a.26.26 0 0 1 .36 0l.37.36a.26.26 0 0 1-.37.37l-.36-.37a.26.26 0 0 1 0-.36ZM1.68 8a.26.26 0 0 1 .26-.26h.51a.26.26 0 1 1 0 .52h-.51A.26.26 0 0 1 1.68 8Zm1.3 2.36-.48.2a.26.26 0 0 1-.34-.14.26.26 0 0 1 .14-.34l.47-.2a.26.26 0 0 1 .2.48Zm.13-4.39a.26.26 0 0 1-.34.15l-.47-.2a.26.26 0 0 1 .2-.48l.47.2a.26.26 0 0 1 .14.34Zm3 7.26-.2.47a.26.26 0 0 1-.47-.2l.2-.47a.26.26 0 0 1 .48 0 .26.26 0 0 1 0 .2Zm2.15.83a.26.26 0 1 1-.52 0v-.51a.26.26 0 1 1 .52 0v.51Zm2.16-.22a.26.26 0 0 1-.34-.14l-.2-.47a.26.26 0 0 1 .48-.2l.2.48a.26.26 0 0 1-.14.33Zm2.05-1.37a.26.26 0 0 1-.36 0l-.37-.36a.26.26 0 0 1 .37-.37l.36.37a.26.26 0 0 1 0 .36Zm-3.5-3.5L3.3 12.7l3.72-5.68L12.7 3.3 8.98 8.98Zm4.87 1.45a.26.26 0 0 1-.34.14l-.47-.2a.26.26 0 1 1 .2-.48l.47.2a.26.26 0 0 1 .14.34Zm.22-2.16h-.51a.26.26 0 1 1 0-.52h.51a.26.26 0 1 1 0 .52Z"/></svg>