<svg xmlns="http://www.w3.org/2000/svg" fill="currentColor" class="vi" viewBox="0 0 16 16"><path fill-rule="evenodd" d="M8 15.25A7.25 7.25 0 1 0 8 .75a7.25 7.25 0 0 0 0 14.5M8 16A8 8 0 1 0 8 0a8 8 0 0 0 0 16M8 1a.1.1 0 0 1 .1.1v1.3a.1.1 0 1 1-.2 0V1.1A.1.1 0 0 1 8 1M1 8a.1.1 0 0 1 .1-.1h1.3a.1.1 0 0 1 0 .2H1.1A.1.1 0 0 1 1 8m12.5 0a.1.1 0 0 1 .1-.1h1.3a.1.1 0 0 1 0 .2h-1.3a.1.1 0 0 1-.1-.1M8 13.5a.1.1 0 0 1 .1.1v1.3a.1.1 0 1 1-.2 0v-1.3a.1.1 0 0 1 .1-.1M3.05 3.05a.1.1 0 0 1 .142 0l.919.92a.1.1 0 1 1-.141.141l-.92-.92a.1.1 0 0 1 0-.14m-.01 9.889a.1.1 0 0 1 .01-.13l.233-.233L7 7l5.576-3.717.232-.233a.1.1 0 0 1 .13-.01L13 3l-.04.061a.1.1 0 0 1-.01.13l-.233.233L9 9l-5.576 3.717-.232.233a.1.1 0 0 1-.13.01L3 13zm8.85-1.05a.1.1 0 0 1 .14 0l.92.92a.1.1 0 0 1-.142.14l-.919-.918a.1.1 0 0 1 0-.142M5.451 1.587a.1.1 0 0 0-.185.077l.498 1.2a.1.1 0 1 0 .184-.076zm-3.865 8.961a.1.1 0 1 0 .077.185l1.2-.498a.1.1 0 0 0-.076-.184zm11.548-4.783a.1.1 0 1 0 .077.184l1.201-.497a.1.1 0 1 0-.077-.185zm-2.9 7.37a.1.1 0 1 0-.184.077l.497 1.201a.1.1 0 0 0 .185-.076zM1.533 5.322a.1.1 0 0 1 .13-.054l1.202.498a.1.1 0 0 1-.077.184l-1.201-.497a.1.1 0 0 1-.054-.13m3.788 9.146a.1.1 0 0 1-.054-.13l.498-1.201a.1.1 0 1 1 .184.076l-.497 1.201a.1.1 0 0 1-.13.054M10.105 2.92a.1.1 0 0 1-.054-.13l.497-1.202a.1.1 0 0 1 .185.077l-.498 1.2a.1.1 0 0 1-.13.055m2.976 7.186a.1.1 0 0 1 .131-.054l1.201.497a.1.1 0 1 1-.077.185l-1.2-.498a.1.1 0 0 1-.055-.13m-6.447-8.97a.1.1 0 0 1 .118.078l.254 1.275a.1.1 0 0 1-.197.04l-.253-1.276a.1.1 0 0 1 .078-.118m-5.5 8.23a.1.1 0 0 1 .08-.117l1.274-.254a.1.1 0 1 1 .04.197l-1.276.253a.1.1 0 0 1-.117-.078m12.26-2.438a.1.1 0 0 1 .079-.118l1.275-.253a.1.1 0 1 1 .039.196l-1.275.254a.1.1 0 0 1-.118-.079m-4.321 6.467a.1.1 0 0 1 .118.079l.253 1.275a.1.1 0 1 1-.196.039l-.254-1.275a.1.1 0 0 1 .079-.118M2.18 4.111a.1.1 0 0 1 .138-.028l1.081.723a.1.1 0 0 1-.11.166L2.206 4.25a.1.1 0 0 1-.027-.139m1.931 9.71a.1.1 0 0 1-.028-.14l.723-1.08a.1.1 0 1 1 .166.11l-.722 1.082a.1.1 0 0 1-.139.027m6.945-10.394a.1.1 0 0 1-.028-.139l.722-1.08a.1.1 0 0 1 .167.11L11.194 3.4a.1.1 0 0 1-.138.028m1.517 7.629a.1.1 0 0 1 .139-.028l1.08.722a.1.1 0 0 1-.11.167l-1.081-.723a.1.1 0 0 1-.028-.138M4.25 2.207a.1.1 0 1 0-.167.111L4.806 3.4a.1.1 0 0 0 .166-.11zM2.207 11.75a.1.1 0 0 0 .111.167l1.081-.723a.1.1 0 0 0-.11-.166zm10.394-6.944a.1.1 0 0 0 .11.166l1.082-.722a.1.1 0 0 0-.111-.167zM11.194 12.6a.1.1 0 0 0-.166.11l.722 1.082a.1.1 0 1 0 .167-.111zM1.134 6.634a.1.1 0 0 1 .118-.078l1.275.253a.1.1 0 0 1-.039.197l-1.275-.254a.1.1 0 0 1-.079-.118m5.5 8.232a.1.1 0 0 1-.078-.118l.253-1.275a.1.1 0 0 1 .197.039l-.254 1.275a.1.1 0 0 1-.118.079m2.439-12.26a.1.1 0 0 1-.079-.118l.254-1.275a.1.1 0 0 1 .196.04l-.253 1.274a.1.1 0 0 1-.118.079m4.321 6.467a.1.1 0 0 1 .118-.079l1.275.254a.1.1 0 1 1-.04.196l-1.274-.253a.1.1 0 0 1-.079-.118"/><path d="M8 1a.1.1 0 0 1 .1.1v1.3a.1.1 0 1 1-.2 0V1.1A.1.1 0 0 1 8 1M1 8a.1.1 0 0 1 .1-.1h1.3a.1.1 0 0 1 0 .2H1.1A.1.1 0 0 1 1 8m12.5 0a.1.1 0 0 1 .1-.1h1.3a.1.1 0 0 1 0 .2h-1.3a.1.1 0 0 1-.1-.1M8 13.5a.1.1 0 0 1 .1.1v1.3a.1.1 0 1 1-.2 0v-1.3a.1.1 0 0 1 .1-.1M3.05 3.05a.1.1 0 0 1 .142 0l.919.92a.1.1 0 1 1-.141.141l-.92-.92a.1.1 0 0 1 0-.14m-.01 9.888a.1.1 0 0 1 .01-.13l.233-.233L7 7l5.576-3.717.232-.233a.1.1 0 0 1 .13-.01L13 3l-.04.061a.1.1 0 0 1-.01.13l-.233.233L9 9l-5.576 3.717-.232.233a.1.1 0 0 1-.13.01L3 13zm8.85-1.049a.1.1 0 0 1 .14 0l.92.918a.1.1 0 0 1-.142.142l-.919-.92a.1.1 0 0 1 0-.14M5.452 1.587a.1.1 0 0 0-.185.077l.498 1.2a.1.1 0 1 0 .184-.076zm-3.865 8.961a.1.1 0 1 0 .077.185l1.2-.498a.1.1 0 0 0-.076-.184zm11.549-4.783a.1.1 0 1 0 .076.184l1.201-.497a.1.1 0 1 0-.077-.185zm-2.901 7.371a.1.1 0 1 0-.184.076l.497 1.201a.1.1 0 0 0 .185-.076zM1.533 5.321a.1.1 0 0 1 .13-.054l1.202.498a.1.1 0 0 1-.077.184l-1.201-.497a.1.1 0 0 1-.054-.13m3.788 9.145a.1.1 0 0 1-.054-.13l.498-1.201a.1.1 0 1 1 .184.076l-.497 1.201a.1.1 0 0 1-.13.054m4.783-11.548a.1.1 0 0 1-.054-.13l.497-1.202a.1.1 0 0 1 .185.077l-.498 1.2a.1.1 0 0 1-.13.055m2.976 7.186a.1.1 0 0 1 .131-.054l1.201.497a.1.1 0 1 1-.077.185l-1.2-.498a.1.1 0 0 1-.055-.13M6.634 1.134a.1.1 0 0 1 .118.08l.254 1.274a.1.1 0 0 1-.197.04l-.253-1.276a.1.1 0 0 1 .078-.118M1.135 9.366a.1.1 0 0 1 .078-.118l1.275-.254a.1.1 0 1 1 .04.197l-1.276.253a.1.1 0 0 1-.117-.078m12.259-2.439a.1.1 0 0 1 .079-.118l1.275-.253a.1.1 0 1 1 .039.196l-1.275.254a.1.1 0 0 1-.118-.079m-4.321 6.467a.1.1 0 0 1 .118.079l.253 1.275a.1.1 0 1 1-.196.039l-.254-1.275a.1.1 0 0 1 .079-.118M2.18 4.111a.1.1 0 0 1 .138-.028l1.081.723a.1.1 0 0 1-.11.166L2.206 4.25a.1.1 0 0 1-.027-.139m1.932 9.709a.1.1 0 0 1-.028-.138l.723-1.081a.1.1 0 1 1 .166.11l-.722 1.082a.1.1 0 0 1-.139.027m6.945-10.393a.1.1 0 0 1-.028-.139l.722-1.08a.1.1 0 0 1 .167.11L11.194 3.4a.1.1 0 0 1-.138.028m1.517 7.628a.1.1 0 0 1 .139-.028l1.08.722a.1.1 0 0 1-.11.167l-1.081-.723a.1.1 0 0 1-.028-.138M4.25 2.207a.1.1 0 1 0-.167.111L4.806 3.4a.1.1 0 0 0 .166-.11zM2.207 11.75a.1.1 0 0 0 .111.167l1.081-.723a.1.1 0 0 0-.11-.166zM12.6 4.806a.1.1 0 0 0 .112.166l1.08-.722a.1.1 0 0 0-.11-.167zM11.194 12.6a.1.1 0 0 0-.166.112l.722 1.08a.1.1 0 1 0 .167-.11zM1.135 6.634a.1.1 0 0 1 .117-.078l1.275.253a.1.1 0 0 1-.039.197l-1.275-.254a.1.1 0 0 1-.079-.118m5.5 8.232a.1.1 0 0 1-.078-.118l.253-1.275a.1.1 0 0 1 .197.039l-.254 1.275a.1.1 0 0 1-.118.079m2.439-12.26a.1.1 0 0 1-.079-.118l.254-1.275a.1.1 0 0 1 .196.04l-.253 1.274a.1.1 0 0 1-.118.079m4.321 6.467a.1.1 0 0 1 .118-.079l1.275.254a.1.1 0 1 1-.04.196l-1.274-.253a.1.1 0 0 1-.079-.118"/><path d="M8 16A8 8 0 1 0 8 0a8 8 0 0 0 0 16m0-.75A7.25 7.25 0 1 1 8 .75a7.25 7.25 0 0 1 0 14.5"/></svg>