<svg xmlns="http://www.w3.org/2000/svg" viewBox="0 0 16 16" fill="currentColor">
  <path fill-rule="evenodd" d="M9.267 1.055a5.022 5.022 0 0 0-4.119 3.742 5.398 5.398 0 0 0 0 2.406c.135.533.393 1.118.685 1.556l.142.212-2.747 2.748L.48 14.467l.527.526.526.527 2.749-2.749 2.749-2.749.173.121c.4.28 1.061.575 1.588.708.54.136 1.353.177 1.926.095 2.175-.309 3.906-2.04 4.227-4.229a5.614 5.614 0 0 0-.093-1.92 5.025 5.025 0 0 0-2.61-3.263c-.489-.245-1-.406-1.524-.48-.347-.05-1.125-.049-1.451.001m1.453 1.518a3.562 3.562 0 0 1 2.069 1.317c.225.297.497.845.582 1.177.104.397.131.658.114 1.076a3.171 3.171 0 0 1-.381 1.457c-.482.943-1.352 1.602-2.419 1.833-.31.067-1.064.066-1.377-.002a3.49 3.49 0 0 1-1.788-.976 3.436 3.436 0 0 1-.951-1.762c-.069-.318-.069-1.068 0-1.386a3.42 3.42 0 0 1 .964-1.774c.299-.298.552-.482.907-.661.354-.178.585-.249 1.133-.349.151-.028.953.008 1.147.05"/>
</svg>
