<svg xmlns="http://www.w3.org/2000/svg" viewBox="0 0 16 16" fill="currentColor"><path d="M10 4.25a.75.75 0 1 1-1.5 0 .75.75 0 0 1 1.5 0Zm2.5 0a.75.75 0 1 1-1.5 0 .75.75 0 0 1 1.5 0ZM9.25 10a.75.75 0 1 0 0-1.5.75.75 0 0 0 0 1.5Zm2.5 0a.75.75 0 1 0 0-1.5.75.75 0 0 0 0 1.5Z"/><path d="M1 2.75C1 1.78 1.78 1 2.75 1h10.5c.97 0 1.75.78 1.75 1.75v10.5c0 .97-.78 1.75-1.75 1.75H2.75C1.78 15 1 14.22 1 13.25V2.75Zm1.75-.25a.25.25 0 0 0-.25.25V6h11V2.75a.25.25 0 0 0-.25-.25H2.75Zm10.75 5h-11v5.75c0 .14.11.25.25.25h10.5c.14 0 .25-.11.25-.25V7.5Z"/></svg>