<svg xmlns="http://www.w3.org/2000/svg" fill="currentColor" class="vi" viewBox="0 0 16 16"><path d="M10 4.25a.75.75 0 1 1-1.5 0 .75.75 0 0 1 1.5 0Zm2.5 0a.75.75 0 1 1-1.5 0 .75.75 0 0 1 1.5 0Z"/><path d="M1 3.75A2.75 2.75 0 0 1 3.75 1h8.5A2.75 2.75 0 0 1 15 3.75v1a2.75 2.75 0 0 1-2.75 2.75h-8.5A2.75 2.75 0 0 1 1 4.75v-1ZM3.75 2.5c-.69 0-1.25.56-1.25 1.25v1C2.5 5.44 3.06 6 3.75 6h8.5c.69 0 1.25-.56 1.25-1.25v-1c0-.69-.56-1.25-1.25-1.25h-8.5Zm5.5 10a.75.75 0 1 0 0-1.5.75.75 0 0 0 0 1.5Zm2.5 0a.75.75 0 1 0 0-1.5.75.75 0 0 0 0 1.5Z"/><path d="M1 11.25A2.75 2.75 0 0 1 3.75 8.5h8.5A2.75 2.75 0 0 1 15 11.25v1A2.75 2.75 0 0 1 12.25 15h-8.5A2.75 2.75 0 0 1 1 12.25v-1ZM3.75 10c-.69 0-1.25.56-1.25 1.25v1c0 .69.56 1.25 1.25 1.25h8.5c.69 0 1.25-.56 1.25-1.25v-1c0-.69-.56-1.25-1.25-1.25h-8.5Z"/></svg>