<svg xmlns="http://www.w3.org/2000/svg" fill="currentColor" class="vi" viewBox="0 0 16 16"><path d="M9.971 1.054a.75.75 0 0 1 .822.179l5 5.25a.75.75 0 0 1 .001 1.033l-5 5.269a.75.75 0 0 1-1.294-.517V10h-4a1.75 1.75 0 1 0 .07 3.5h.18a.75.75 0 0 1 0 1.5H5.5c-.08 0-.16-.003-.239-.009-2.93-.164-5.233-2.65-5.19-5.608C.115 6.423 2.526 4 5.5 4h4V1.75a.75.75 0 0 1 .471-.696Zm-7.72 10.653A3.25 3.25 0 0 1 5.5 8.5h4.75a.75.75 0 0 1 .75.75v1.139L14.215 7 11 3.625V4.75a.75.75 0 0 1-.75.75H5.5c-2.14 0-3.897 1.751-3.929 3.905a4.03 4.03 0 0 0 .68 2.302Z"/></svg>