<svg xmlns="http://www.w3.org/2000/svg" viewBox="0 0 16 16" fill="currentColor">
  <path d="M8.75 8.3v1.45a.75.75 0 0 1-1.5 0V8.3a1.5 1.5 0 1 1 1.5 0z"/>
  <path fill-rule="evenodd" d="m1.03 2.356 1.1-.687A10 10 0 0 1 6.188.226l.57-.071a10 10 0 0 1 2.481 0l.571.071a10 10 0 0 1 4.06 1.443l1.098.687c.634.396 1 1.11.892 1.85C15.21 8.66 12.741 16 8 16 3.26 16 .791 8.66.139 4.206c-.108-.74.258-1.454.892-1.85zm1.894.585-1.098.687c-.175.11-.217.263-.203.36.31 2.112 1.05 4.88 2.233 7.073C5.082 13.33 6.498 14.5 8 14.5c1.502 0 2.918-1.169 4.144-3.44 1.184-2.193 1.924-4.96 2.233-7.072.014-.097-.028-.25-.203-.36l-1.098-.687a8.5 8.5 0 0 0-3.451-1.226l-.57-.072a8.5 8.5 0 0 0-2.11 0l-.57.072a8.5 8.5 0 0 0-3.45 1.226z"/>
</svg>
