<svg xmlns="http://www.w3.org/2000/svg" viewBox="0 0 20 16" fill="currentColor">
  <path d="M7.348 9.591 8.94 8 7.35 6.409a.75.75 0 1 1 1.06-1.06L10 6.938l1.59-1.59a.75.75 0 0 1 1.062 1.06L11.06 8l1.59 1.591a.75.75 0 0 1-1.06 1.06L10 9.062l-1.591 1.59a.75.75 0 0 1-1.06-1.06z"/>
  <path fill-rule="evenodd" d="M9.298.263a2 2 0 0 1 1.404 0l5.886 2.208c.836.313 1.37 1.141 1.229 2.023C17.103 8.969 14.639 16 10 16 5.36 16 2.897 8.969 2.183 4.494c-.14-.882.393-1.71 1.229-2.023L9.298.263zm-5.36 3.612c-.233.088-.291.272-.274.382.34 2.127 1.093 4.822 2.267 6.94C7.144 13.384 8.531 14.5 10 14.5c1.47 0 2.856-1.116 4.069-3.303 1.174-2.118 1.927-4.813 2.267-6.94.017-.11-.04-.294-.274-.382l-5.886-2.207a.5.5 0 0 0-.352 0L3.938 3.875z"/>
</svg>
