<svg xmlns="http://www.w3.org/2000/svg" viewBox="0 0 16 16" fill="currentColor">
  <path fill-rule="evenodd" d="M7.213.109c-1.23.1-2.367.332-3.258.666-.783.294-1.216.518-2.328 1.208-.629.39-.764.485-.947.669-.527.53-.638 1.009-.468 2.01.554 3.262 1.716 6.4 3.103 8.383.508.727 1.119 1.399 1.658 1.825 1.456 1.149 3.129 1.431 4.712.795 1.082-.435 2.088-1.311 2.99-2.605 1.39-1.994 2.545-5.097 3.103-8.339.081-.471.092-.591.082-.854-.019-.507-.167-.839-.54-1.215-.182-.182-.321-.281-.947-.67-.864-.538-1.25-.753-1.736-.966-.992-.435-1.845-.664-3.024-.814-.96-.122-1.695-.15-2.4-.093m1.92 1.544c1.434.172 2.269.406 3.28.919.55.279 1.838 1.09 1.906 1.2.07.113.068.178-.014.662-.375 2.221-1.094 4.507-1.96 6.237-.559 1.116-1.188 2.016-1.869 2.676-.811.785-1.575 1.139-2.463 1.142-.524.001-.896-.087-1.386-.33-.411-.204-.726-.444-1.189-.905-.548-.547-.984-1.135-1.444-1.947-1.02-1.8-1.872-4.348-2.299-6.873a5.459 5.459 0 0 1-.068-.488c0-.178.069-.237.834-.713 1.079-.672 1.512-.888 2.315-1.154.676-.224 1.602-.395 2.597-.479.397-.034 1.247-.008 1.76.053M7.808 4.276a.773.773 0 0 0-.528.523c-.015.055-.026.584-.027 1.273v1.179l-1.233.008c-1.213.008-1.235.009-1.343.066-.281.151-.422.377-.42.673a.72.72 0 0 0 .388.657l.142.078 1.232.008 1.232.008.008 1.232.008 1.232.078.142A.71.71 0 0 0 8 11.74a.71.71 0 0 0 .655-.385l.078-.142.008-1.232.008-1.232 1.232-.008 1.232-.008.142-.078A.71.71 0 0 0 11.74 8a.71.71 0 0 0-.385-.655l-.142-.078-1.232-.008-1.232-.008-.008-1.232-.008-1.232-.078-.142a.748.748 0 0 0-.847-.369"/>
</svg>
