<svg xmlns="http://www.w3.org/2000/svg" viewBox="0 0 16 16" fill="currentColor">
  <path d="M5.348 9.591 6.94 8 5.35 6.409a.75.75 0 1 1 1.06-1.06L8 6.938l1.591-1.59a.75.75 0 1 1 1.06 1.06L9.062 8l1.59 1.591a.75.75 0 1 1-1.06 1.06L8 9.062l-1.591 1.59a.75.75 0 0 1-1.06-1.06z"/>
  <path fill-rule="evenodd" d="m2.13 1.67-1.1.686c-.633.396-1 1.11-.891 1.85C.79 8.66 3.259 16 8 16c4.74 0 7.209-7.34 7.861-11.794.108-.74-.258-1.454-.892-1.85l-1.098-.687A10 10 0 0 0 9.81.226L9.24.155a10 10 0 0 0-2.481 0l-.571.071a10 10 0 0 0-4.06 1.443zm-.304 1.958 1.098-.687a8.5 8.5 0 0 1 3.451-1.226l.57-.072a8.5 8.5 0 0 1 2.11 0l.57.072a8.5 8.5 0 0 1 3.45 1.226l1.1.687c.174.11.216.263.202.36-.31 2.112-1.05 4.88-2.233 7.073C10.918 13.33 9.502 14.5 8 14.5c-1.502 0-2.918-1.169-4.144-3.44C2.672 8.868 1.932 6.1 1.623 3.989c-.014-.097.028-.25.203-.36z"/>
</svg>
