<svg xmlns="http://www.w3.org/2000/svg" fill="currentColor" class="vi" viewBox="0 0 16 16"><path d="M8.75 4a.75.75 0 0 0-1.5 0v2.5h-2.5a.75.75 0 0 0 0 1.5h2.5v2.5a.75.75 0 0 0 1.5 0V8h2.5a.75.75 0 0 0 0-1.5h-2.5V4Z"/><path d="M8 0C6.85 0 5.564.39 4.478.82A23.2 23.2 0 0 0 1.85 2.077c-.533.296-.85.849-.866 1.44-.016.659-.035 1.822.018 2.538a.746.746 0 0 0 .008.066c.374 2.285 1.49 4.7 2.762 6.543.638.924 1.333 1.732 2.021 2.317C6.453 15.542 7.224 16 8 16c.766 0 1.557-.445 2.245-1 .717-.58 1.45-1.382 2.114-2.307 1.322-1.84 2.459-4.283 2.639-6.636.055-.718.035-1.883.018-2.541a1.691 1.691 0 0 0-.865-1.439A23.057 23.057 0 0 0 11.523.821C10.436.389 9.15 0 8 0ZM2.58 3.387a21.58 21.58 0 0 1 2.45-1.173C6.067 1.804 7.14 1.5 8 1.5c.861 0 1.933.304 2.97.715 1.02.404 1.932.883 2.451 1.173a.19.19 0 0 1 .096.167c.017.67.033 1.759-.015 2.388-.152 1.994-1.141 4.177-2.36 5.875-.607.843-1.25 1.539-1.84 2.014-.62.5-1.068.668-1.302.668-.224 0-.646-.16-1.235-.662-.561-.476-1.171-1.175-1.758-2.026-1.17-1.696-2.175-3.891-2.511-5.9-.044-.635-.028-1.698-.012-2.357a.192.192 0 0 1 .096-.168Z"/></svg>