<svg xmlns="http://www.w3.org/2000/svg" fill="currentColor" class="vi" viewBox="0 0 16 16"><path d="M5.031 2.214A21.58 21.58 0 0 0 2.58 3.387a.192.192 0 0 0-.096.168c-.016.66-.032 1.722.012 2.357.336 2.009 1.34 4.204 2.51 5.9.588.851 1.198 1.55 1.759 2.026.59.502 1.011.662 1.235.662.234 0 .683-.167 1.302-.668.59-.476 1.233-1.17 1.84-2.014 1.219-1.698 2.208-3.881 2.36-5.875.048-.629.032-1.717.015-2.388a.191.191 0 0 0-.096-.167c-.52-.29-1.432-.769-2.452-1.173C9.933 1.804 8.861 1.5 8 1.5c-.86 0-1.933.303-2.969.714ZM4.478.82C5.564.39 6.85 0 8 0s2.436.39 3.523.82c1.103.438 2.077.95 2.628 1.257.532.296.85.847.865 1.439.017.658.037 1.823-.018 2.541-.18 2.353-1.317 4.795-2.639 6.636-.665.925-1.397 1.727-2.114 2.307-.688.555-1.479 1-2.245 1-.776 0-1.547-.458-2.207-1.019-.688-.585-1.383-1.393-2.021-2.317C2.5 10.821 1.384 8.406 1.01 6.121a.746.746 0 0 1-.008-.066C.949 5.339.968 4.175.984 3.518a1.692 1.692 0 0 1 .866-1.441C2.4 1.77 3.376 1.257 4.478.82Z"/></svg>