<svg xmlns="http://www.w3.org/2000/svg" fill="currentColor" class="vi" viewBox="0 0 16 16"><path d="M0 1.75A.75.75 0 0 1 .75 1h.68c.78 0 1.459.515 1.677 1.25h11.154a1.75 1.75 0 0 1 1.71 2.12l-.856 3.961a2.75 2.75 0 0 1-2.688 2.169H4.889l.174.803a.25.25 0 0 0 .244.197H13.5a.75.75 0 0 1 0 1.5H5.307a1.75 1.75 0 0 1-1.71-1.38L1.763 3.147l-.089-.446A.25.25 0 0 0 1.43 2.5H.75A.75.75 0 0 1 0 1.75M4.565 9h7.862a1.25 1.25 0 0 0 1.222-.986l.856-3.961a.25.25 0 0 0-.244-.303H3.429zM6 15a1 1 0 1 1-2 0 1 1 0 0 1 2 0m7 1a1 1 0 1 0 0-2 1 1 0 0 0 0 2"/></svg>