<svg xmlns="http://www.w3.org/2000/svg" viewBox="0 0 16 16" fill="currentColor"><path d="M11.72.22c.3-.3.77-.3 1.06 0l3 3c.3.3.3.77 0 1.06l-3 3a.75.75 0 1 1-1.06-1.06l1.72-1.72H10.4L8.62 7.26 7.7 5.94l1.68-2.6A.75.75 0 0 1 10 3h3.44l-1.72-1.72a.75.75 0 0 1 0-1.06ZM5.64 9.1l.93 1.33-1.44 2.23a.75.75 0 0 1-.63.34H.75a.75.75 0 0 1 0-1.5h3.34l1.55-2.4Z"/><path d="M.75 3a.75.75 0 0 0 0 1.5h2.86l5.78 8.18c.14.2.37.32.61.32h3.44l-1.72 1.72a.75.75 0 1 0 1.06 1.06l3-3c.3-.3.3-.77 0-1.06l-3-3a.75.75 0 1 0-1.06 1.06l1.72 1.72h-3.05L4.6 3.32A.75.75 0 0 0 4 3H.75Z"/></svg>