<svg xmlns="http://www.w3.org/2000/svg" fill="currentColor" class="vi" viewBox="0 0 16 16"><path d="M11.72.22a.75.75 0 0 1 1.06 0l3 3a.75.75 0 0 1 0 1.06l-3 3a.75.75 0 1 1-1.06-1.06l1.72-1.72h-3.032L8.621 7.262l-.932-1.32 1.681-2.6A.75.75 0 0 1 10 3h3.44l-1.72-1.72a.75.75 0 0 1 0-1.06ZM5.64 9.108l.932 1.32-1.442 2.23A.75.75 0 0 1 4.5 13H.75a.75.75 0 0 1 0-1.5h3.342L5.64 9.108Z"/><path d="M.75 3a.75.75 0 0 0 0 1.5h2.861l5.776 8.182c.14.2.37.318.613.318h3.44l-1.72 1.72a.75.75 0 1 0 1.06 1.06l3-3a.75.75 0 0 0 0-1.06l-3-3a.75.75 0 1 0-1.06 1.06l1.72 1.72h-3.051L4.613 3.317A.75.75 0 0 0 4 3H.75Z"/></svg>