<svg xmlns="http://www.w3.org/2000/svg" fill="currentColor" class="vi" viewBox="0 0 16 16"><path d="M11.72.22a.75.75 0 0 1 1.06 0l3 3a.75.75 0 0 1 0 1.06l-3 3a.75.75 0 1 1-1.06-1.06l1.72-1.72h-2.352c-.424 0-.82.215-1.05.57L8.622 7.263l-.932-1.32 1.09-1.686A2.75 2.75 0 0 1 11.09 3h2.35l-1.72-1.72a.75.75 0 0 1 0-1.06M5.64 9.108l.932 1.32-.851 1.316A2.75 2.75 0 0 1 3.412 13H.75a.75.75 0 0 1 0-1.5h2.662c.424 0 .82-.215 1.05-.57z"/><path d="M.75 3a.75.75 0 0 0 0 1.5h2.214c.406 0 .787.197 1.02.53l4.806 6.806A2.75 2.75 0 0 0 11.036 13h2.403l-1.72 1.72a.75.75 0 1 0 1.061 1.06l3-3a.75.75 0 0 0 0-1.06l-3-3a.75.75 0 1 0-1.06 1.06l1.72 1.72h-2.404a1.25 1.25 0 0 1-1.02-.53L5.21 4.165A2.75 2.75 0 0 0 2.964 3z"/></svg>