<svg xmlns="http://www.w3.org/2000/svg" width="16" height="16" fill="currentColor" class="vi" viewBox="0 0 16 16"><path d="M6 8a1 1 0 0 0-1 1v1h2V8H6Zm4 0H8v2h3V9a1 1 0 0 0-1-1Zm-5 3h3v2H6a1 1 0 0 1-1-1v-1Zm6 1v-1H9v2h1a1 1 0 0 0 1-1Z"/><path d="M3.75 0C2.78 0 2 .78 2 1.75v12.5c0 .97.78 1.75 1.75 1.75h8.5c.97 0 1.75-.78 1.75-1.75V4.91c0-.46-.18-.9-.51-1.23L10.32.5A1.75 1.75 0 0 0 9.1 0H3.75ZM3.5 1.75c0-.14.11-.25.25-.25h5.34c.06 0 .13.03.17.07l3.17 3.17c.04.04.07.1.07.17v9.34c0 .14-.11.25-.25.25h-8.5a.25.25 0 0 1-.25-.25V1.75Z"/></svg>