<svg xmlns="http://www.w3.org/2000/svg" fill="currentColor" class="vi" viewBox="0 0 16 16"><path d="M6 8a1 1 0 0 0-1 1v1h2V8zm4 0H8v2h3V9a1 1 0 0 0-1-1m-5 3h3v2H6a1 1 0 0 1-1-1zm6 1v-1H9v2h1a1 1 0 0 0 1-1"/><path d="M4.75 0A2.75 2.75 0 0 0 2 2.75v10.5A2.75 2.75 0 0 0 4.75 16h6.5A2.75 2.75 0 0 0 14 13.25V5.328a2.75 2.75 0 0 0-.806-1.944L10.617.805A2.75 2.75 0 0 0 8.672 0zM3.5 2.75c0-.69.56-1.25 1.25-1.25h3.922c.331 0 .649.132.883.366l2.579 2.579c.234.234.366.552.366.883v7.922c0 .69-.56 1.25-1.25 1.25h-6.5c-.69 0-1.25-.56-1.25-1.25z"/></svg>