<svg xmlns="http://www.w3.org/2000/svg" viewBox="0 0 16 16" fill="currentColor">
  <path fill-rule="evenodd" d="m3.747.016-.194.04c-.587.118-1.156.595-1.391 1.166-.159.385-.149-.082-.149 6.778 0 5.303.006 6.33.037 6.451.188.733.695 1.252 1.457 1.492.118.038.6.043 4.373.05 2.871.006 4.299 0 4.422-.019a2.02 2.02 0 0 0 1.543-1.214c.15-.356.142-.052.142-5.36V4.493l-.063-.2a2.302 2.302 0 0 0-.295-.619c-.042-.057-.777-.809-1.633-1.671C10.284.28 10.275.272 9.787.102L9.533.013 6.667.009a204.33 204.33 0 0 0-2.92.007M9.32 1.522c.091.025.323.245 1.618 1.54 1.295 1.295 1.515 1.527 1.54 1.618.041.152.04 9.318-.001 9.466a.553.553 0 0 1-.331.331c-.15.042-8.142.042-8.292 0a.553.553 0 0 1-.331-.331c-.041-.147-.042-12.141-.001-12.289a.534.534 0 0 1 .305-.324c.089-.031.541-.037 2.746-.038 1.804-.001 2.674.008 2.747.027M5.704 8.051a.982.982 0 0 0-.691.836c-.013.106-.025.4-.026.653V10h2.026V8l-.58.001c-.481.002-.605.01-.729.05M8 8.999V10h3.013v-.46a7.334 7.334 0 0 0-.027-.655 1.011 1.011 0 0 0-.607-.81c-.149-.06-.174-.062-1.266-.069L8 7.998v1.001m-3.007 2.608c.011.517.02.611.068.734.071.183.199.348.362.469.244.181.278.185 1.49.197L8 13.018v-2.005H4.98l.013.594m4 .4L9 13l.573-.001c.46-.001.603-.01.723-.046.286-.087.564-.36.654-.643.032-.102.047-.286.056-.717l.014-.58H8.986l.007.994"/>
</svg>
