<svg xmlns="http://www.w3.org/2000/svg" fill="currentColor" class="vi" viewBox="0 0 16 16"><path d="M6 8a1 1 0 0 0-1 1v1h2V8H6Zm4 0H8v2h3V9a1 1 0 0 0-1-1Zm-5 3h3v2H6a1 1 0 0 1-1-1v-1Zm6 1v-1H9v2h1a1 1 0 0 0 1-1Z"/><path d="M3.75 0A1.75 1.75 0 0 0 2 1.75v12.5c0 .966.784 1.75 1.75 1.75h8.5A1.75 1.75 0 0 0 14 14.25V4.914c0-.464-.184-.909-.513-1.237L10.323.513A1.75 1.75 0 0 0 9.086 0H3.75ZM3.5 1.75a.25.25 0 0 1 .25-.25h5.336a.25.25 0 0 1 .177.073l3.164 3.164a.25.25 0 0 1 .073.177v9.336a.25.25 0 0 1-.25.25h-8.5a.25.25 0 0 1-.25-.25V1.75Z"/></svg>