<svg xmlns="http://www.w3.org/2000/svg" fill="currentColor" class="vi" viewBox="0 0 16 16"><path d="M2.75 1a.75.75 0 0 1 .75.75v.864a2.501 2.501 0 0 1 0 4.772v6.864a.75.75 0 0 1-1.5 0V7.386a2.501 2.501 0 0 1 0-4.772V1.75A.75.75 0 0 1 2.75 1m1 4a1 1 0 1 0-2 0 1 1 0 0 0 2 0M8 1a.75.75 0 0 1 .75.75v6.864a2.501 2.501 0 0 1 0 4.772v.864a.75.75 0 0 1-1.5 0v-.864a2.501 2.501 0 0 1 0-4.772V1.75A.75.75 0 0 1 8 1m1 10a1 1 0 1 0-2 0 1 1 0 0 0 2 0m4.25-10a.75.75 0 0 1 .75.75v2.614a2.501 2.501 0 0 1 0 4.772v5.114a.75.75 0 0 1-1.5 0V9.136a2.501 2.501 0 0 1 0-4.772V1.75a.75.75 0 0 1 .75-.75m0 6.75a1 1 0 1 0 0-2 1 1 0 0 0 0 2"/></svg>