<svg xmlns="http://www.w3.org/2000/svg" fill="currentColor" class="vi" viewBox="0 0 16 16"><path d="M1.75 0C.78 0 0 .78 0 1.75v12.5C0 15.22.78 16 1.75 16h6.5c.97 0 1.75-.78 1.75-1.75v-4.5H8.5v4.5c0 .14-.11.25-.25.25h-6.5a.25.25 0 0 1-.25-.25V1.75c0-.14.11-.25.25-.25h6.5c.14 0 .25.11.25.25v4.5H10v-4.5C10 .78 9.22 0 8.25 0h-6.5Z"/><path d="M4.75 12.25a.75.75 0 0 0 0 1.5h.5a.75.75 0 0 0 0-1.5h-.5Zm6.49-1.55a.75.75 0 1 0 1.02 1.1l3.5-3.25a.75.75 0 0 0 0-1.1l-3.5-3.25a.75.75 0 1 0-1.02 1.1l2.1 1.95H5.75a.75.75 0 0 0 0 1.5h7.59l-2.1 1.95Z"/></svg>