<svg xmlns="http://www.w3.org/2000/svg" fill="currentColor" class="vi" viewBox="0 0 16 16"><path d="M1.75 0A1.75 1.75 0 0 0 0 1.75v12.5C0 15.216.784 16 1.75 16h6.5A1.75 1.75 0 0 0 10 14.25v-4.5H8.5v4.5a.25.25 0 0 1-.25.25h-6.5a.25.25 0 0 1-.25-.25V1.75a.25.25 0 0 1 .25-.25h6.5a.25.25 0 0 1 .25.25v4.5H10v-4.5A1.75 1.75 0 0 0 8.25 0h-6.5Z"/><path d="M4.75 12.25a.75.75 0 0 0 0 1.5h.5a.75.75 0 0 0 0-1.5h-.5Zm6.49-1.55a.75.75 0 1 0 1.02 1.1l3.5-3.25a.75.75 0 0 0 0-1.1l-3.5-3.25a.75.75 0 1 0-1.02 1.1l2.1 1.95H5.75a.75.75 0 0 0 0 1.5h7.59l-2.1 1.95Z"/></svg>