<svg xmlns="http://www.w3.org/2000/svg" viewBox="0 0 20 16" fill="currentColor">
  <path d="M10 16a.75.75 0 0 1-.75-.75V.75a.75.75 0 0 1 1.5 0v14.5A.75.75 0 0 1 10 16zm3-3a.75.75 0 0 1-.75-.75v-8.5a.75.75 0 0 1 1.5 0v8.5A.75.75 0 0 1 13 13zm2.25-3.75a.75.75 0 0 0 1.5 0v-2.5a.75.75 0 0 0-1.5 0v2.5zM19 9a.75.75 0 0 1-.75-.75v-.5a.75.75 0 0 1 1.5 0v.5A.75.75 0 0 1 19 9zM.25 8.25a.75.75 0 0 0 1.5 0v-.5a.75.75 0 0 0-1.5 0v.5zM4 14a.75.75 0 0 1-.75-.75V2.75a.75.75 0 0 1 1.5 0v10.5A.75.75 0 0 1 4 14zm2.25-2.75a.75.75 0 0 0 1.5 0v-6.5a.75.75 0 0 0-1.5 0v6.5z"/>
</svg>
