<svg xmlns="http://www.w3.org/2000/svg" fill="currentColor" class="vi" viewBox="0 0 16 16"><path d="M9.259 1.533a1.856 1.856 0 0 1 2.471.137l.113.112a3.96 3.96 0 0 1 1.083 2.024l.417 2.087a9 9 0 0 1 1.478.37c.251.093.503.21.706.364.187.143.473.43.473.873 0 .403-.239.678-.414.825a2.3 2.3 0 0 1-.623.356c-.44.18-1.032.325-1.709.442-1.366.235-3.223.377-5.254.377s-3.888-.142-5.254-.377c-.677-.117-1.269-.262-1.71-.442a2.3 2.3 0 0 1-.622-.356C.239 8.178 0 7.903 0 7.5c0-.443.286-.73.473-.873.203-.155.455-.271.706-.363.395-.145.9-.268 1.478-.371l.417-2.087a3.96 3.96 0 0 1 1.083-2.024l.113-.112a1.856 1.856 0 0 1 2.471-.137 2.015 2.015 0 0 0 2.518 0m1.41 1.197a.356.356 0 0 0-.473-.026 3.515 3.515 0 0 1-4.392 0 .356.356 0 0 0-.474.026l-.112.113A2.46 2.46 0 0 0 4.545 4.1l-.52 2.597a.75.75 0 0 1-.626.595 13 13 0 0 0-1.113.208q.313.075.715.145C4.259 7.862 6.027 8 8 8s3.74-.138 5-.355q.401-.07.714-.145-.466-.112-1.114-.208a.75.75 0 0 1-.625-.595l-.52-2.597a2.46 2.46 0 0 0-.673-1.257zm-8.956 9.497a1.75 1.75 0 0 1 1.97-2.207L8 10.74l4.316-.72a1.75 1.75 0 0 1 1.97 2.207l-.389 1.363a1.75 1.75 0 0 1-1.416 1.249l-1.796.276a1.75 1.75 0 0 1-1.917-1.152l-.532-1.518a.25.25 0 0 0-.472 0l-.532 1.518a1.75 1.75 0 0 1-1.917 1.152l-1.796-.276a1.75 1.75 0 0 1-1.416-1.25zm4.623-.244L3.437 11.5a.25.25 0 0 0-.281.315l.39 1.363a.25.25 0 0 0 .201.178l1.796.276a.25.25 0 0 0 .274-.164zm3.328 0 .52 1.485a.25.25 0 0 0 .273.164l1.795-.276a.25.25 0 0 0 .203-.178l.39-1.363a.25.25 0 0 0-.282-.315z"/></svg>