<svg xmlns="http://www.w3.org/2000/svg" viewBox="0 0 16 16" fill="currentColor"><path d="M9.26 1.53c.74-.59 1.8-.53 2.47.14l.11.11a4 4 0 0 1 1.09 2.03l.41 2.08c.58.1 1.09.23 1.48.37.25.1.5.21.7.37.2.14.48.43.48.87 0 .4-.24.68-.41.83a2.6 2.6 0 0 1-.63.35c-.44.18-1.03.33-1.7.44-1.37.24-3.23.38-5.26.38s-3.89-.14-5.25-.38a8.61 8.61 0 0 1-1.71-.44C.82 8.6.6 8.48.4 8.33A1.08 1.08 0 0 1 0 7.5c0-.44.29-.73.47-.87.2-.16.46-.27.7-.37.4-.14.9-.26 1.49-.37l.41-2.08a4 4 0 0 1 1.09-2.03l.11-.11a1.86 1.86 0 0 1 2.47-.14c.74.6 1.78.6 2.52 0Zm1.41 1.2a.36.36 0 0 0-.47-.03 3.51 3.51 0 0 1-4.4 0 .36.36 0 0 0-.47.03l-.11.11c-.35.35-.58.78-.68 1.26l-.51 2.6a.75.75 0 0 1-.63.6c-.43.06-.8.13-1.11.2A31.06 31.06 0 0 0 8 8a30.7 30.7 0 0 0 5.71-.5c-.3-.07-.68-.14-1.11-.2a.75.75 0 0 1-.63-.6l-.51-2.6c-.1-.48-.33-.91-.68-1.26l-.11-.11Zm-8.96 9.5a1.75 1.75 0 0 1 1.97-2.21l4.32.72 4.32-.72a1.75 1.75 0 0 1 1.97 2.2l-.4 1.37a1.75 1.75 0 0 1-1.4 1.25l-1.8.27a1.75 1.75 0 0 1-1.92-1.15l-.53-1.52a.25.25 0 0 0-.48 0l-.53 1.52a1.75 1.75 0 0 1-1.92 1.15l-1.8-.27c-.67-.1-1.22-.6-1.4-1.25l-.4-1.36Zm4.63-.25-2.9-.48a.25.25 0 0 0-.28.32l.39 1.36c.02.1.1.16.2.18l1.8.27c.11.02.23-.05.27-.16l.52-1.49Zm3.32 0 .52 1.49c.04.11.16.18.28.16l1.8-.27a.28.28 0 0 0 .2-.18l.38-1.36a.25.25 0 0 0-.28-.32l-2.9.48Z"/></svg>