<svg xmlns="http://www.w3.org/2000/svg" viewBox="0 0 20 16" fill="currentColor">
  <path fill-rule="evenodd" d="M14.76 3.366a3.585 3.585 0 0 0-.899-1.505l-.452-.452a1.437 1.437 0 0 0-1.913-.106c-.875.7-2.117.7-2.992 0a1.437 1.437 0 0 0-1.913.106l-.452.452c-.42.42-.728.936-.899 1.505L4.474 5.92C2.36 6.287 1 6.858 1 7.5c0 1.105 4.03 2 9 2s9-.895 9-2c0-.642-1.36-1.213-3.474-1.579l-.766-2.555zM4.73 7.399l.914-.158 1.033-3.444c.1-.33.279-.631.523-.875.235-.236.606-.253.897-.09a3.897 3.897 0 0 0 3.806 0c.29-.163.662-.146.897.09.244.244.424.544.523.875l1.033 3.444.915.158c.119.021.12.18 0 .202C13.852 7.846 12.023 8 10 8c-2.022 0-3.852-.154-5.27-.4a.101.101 0 0 1 0-.2zm6.809 7.371a1.585 1.585 0 0 1-.763-.83l-.544-1.36a.245.245 0 0 0-.133-.137.257.257 0 0 0-.201.001.245.245 0 0 0-.13.136l-.544 1.36a1.582 1.582 0 0 1-.763.83c-.3.15-.639.2-.97.145L6.08 14.68a2 2 0 0 1-1.51-1.185l-.43-1.002a1.723 1.723 0 0 1 1.958-2.36l3.442.765a2.005 2.005 0 0 0 .919-.012l2.915-.73a1.997 1.997 0 0 1 2.32 2.725l-.262.614a2 2 0 0 1-1.51 1.185l-1.413.235a1.59 1.59 0 0 1-.969-.145zm.67-1.342c.017.008.035.01.053.008l1.413-.236a.5.5 0 0 0 .377-.296l.263-.614a.497.497 0 0 0-.578-.678l-2.07.517.502 1.254c.008.02.022.036.04.045zm-6.437-1.831a.223.223 0 0 0-.253.305l.429 1.002a.5.5 0 0 0 .377.296l1.413.236a.086.086 0 0 0 .093-.053l.488-1.22-2.547-.566z"/>
</svg>
