<svg xmlns="http://www.w3.org/2000/svg" fill="currentColor" class="vi" viewBox="0 0 16 16"><path d="M1 3.75A2.75 2.75 0 0 1 3.75 1h8.5A2.75 2.75 0 0 1 15 3.75v4.296a2.752 2.752 0 0 0-1.5-.627V3.75c0-.69-.56-1.25-1.25-1.25h-8.5c-.69 0-1.25.56-1.25 1.25v8.5c0 .69.56 1.25 1.25 1.25h3.559c.07.184.163.363.277.534L8.23 15H3.75A2.75 2.75 0 0 1 1 12.25v-8.5Z"/><path d="M14.691 9.185a1.75 1.75 0 0 0-2.46-.463l-3.36 2.353a1.75 1.75 0 0 0-.453 2.404l.89 1.336a1.75 1.75 0 0 0 2.46.463l3.361-2.353a1.75 1.75 0 0 0 .453-2.404l-.89-1.336Zm-1.599.766a.25.25 0 0 1 .351.066l.89 1.336a.25.25 0 0 1-.064.343l-2.57 1.8-1.168-1.752 2.561-1.793Z"/></svg>