<svg xmlns="http://www.w3.org/2000/svg" viewBox="0 0 16 16" fill="currentColor"><path d="M1 2.75C1 1.78 1.78 1 2.75 1h10.5c.97 0 1.75.78 1.75 1.75v5.3a2.75 2.75 0 0 0-1.5-.63V2.75a.25.25 0 0 0-.25-.25H2.75a.25.25 0 0 0-.25.25v10.5c0 .14.11.25.25.25h4.56c.07.18.16.36.28.53l.64.97H2.75C1.78 15 1 14.22 1 13.25V2.75Z"/><path d="M14.7 9.19a1.75 1.75 0 0 0-2.47-.47l-3.36 2.35a1.75 1.75 0 0 0-.45 2.4l.89 1.34a1.75 1.75 0 0 0 2.46.47l3.36-2.35c.78-.55.98-1.62.45-2.4l-.89-1.34Zm-1.6.76a.25.25 0 0 1 .34.07l.9 1.33c.07.12.04.27-.07.35l-2.57 1.8-1.17-1.76 2.56-1.79Z"/></svg>