<svg xmlns="http://www.w3.org/2000/svg" fill="currentColor" class="vi" viewBox="0 0 16 16"><path d="M1 3.75A2.75 2.75 0 0 1 3.75 1h8.5A2.75 2.75 0 0 1 15 3.75v5.058a2.752 2.752 0 0 0-1.5-.613V3.75c0-.69-.56-1.25-1.25-1.25h-8.5c-.69 0-1.25.56-1.25 1.25v8.5c0 .69.56 1.25 1.25 1.25h4.465c.077.263.194.519.354.758l.494.742H3.75A2.75 2.75 0 0 1 1 12.25v-8.5Z"/><path d="M14.71 9.964a1.75 1.75 0 0 0-2.506-.43l-2.397 1.798a1.75 1.75 0 0 0-.406 2.371l.889 1.334a1.75 1.75 0 0 0 2.506.429l2.397-1.798a1.75 1.75 0 0 0 .406-2.371l-.889-1.333Zm-1.606.77a.25.25 0 0 1 .358.062l.89 1.333a.25.25 0 0 1-.059.339l-1.609 1.206-1.166-1.75 1.586-1.19Z"/></svg>