<svg xmlns="http://www.w3.org/2000/svg" fill="currentColor" class="vi" viewBox="0 0 16 16"><path d="M1 2.75C1 1.784 1.784 1 2.75 1h10.5c.966 0 1.75.784 1.75 1.75v5.296a2.752 2.752 0 0 0-1.5-.627V2.75a.25.25 0 0 0-.25-.25H2.75a.25.25 0 0 0-.25.25v10.5c0 .138.112.25.25.25h4.559c.07.184.163.363.277.534L8.23 15H2.75A1.75 1.75 0 0 1 1 13.25V2.75Z"/><path d="M14.691 9.185a1.75 1.75 0 0 0-2.46-.463l-3.36 2.353a1.75 1.75 0 0 0-.453 2.404l.89 1.336a1.75 1.75 0 0 0 2.46.463l3.361-2.353a1.75 1.75 0 0 0 .453-2.404l-.89-1.336Zm-1.599.766a.25.25 0 0 1 .351.066l.89 1.336a.25.25 0 0 1-.064.343l-2.57 1.8-1.168-1.752 2.561-1.793Z"/></svg>