<svg xmlns="http://www.w3.org/2000/svg" fill="currentColor" class="vi" viewBox="0 0 16 16"><path d="M8 0a.75.75 0 0 1 .646.37l2.344 3.983 4.45 1.172a.75.75 0 0 1 .41 1.175l-2.837 3.783.236 4.73a.75.75 0 0 1-1.054.722L8 14.071l-4.195 1.864a.75.75 0 0 1-1.054-.723l.236-4.729L.15 6.7a.75.75 0 0 1 .41-1.175l4.45-1.172L7.354.37A.75.75 0 0 1 8 0m0 2.23L6.146 5.38a.75.75 0 0 1-.455.345l-3.672.967L4.35 9.8a.75.75 0 0 1 .15.487l-.19 3.782 3.385-1.504a.75.75 0 0 1 .61 0l3.385 1.504-.19-3.782a.75.75 0 0 1 .15-.487l2.331-3.108-3.672-.967a.75.75 0 0 1-.455-.345z"/></svg>