<svg xmlns="http://www.w3.org/2000/svg" fill="currentColor" class="vi" viewBox="0 0 16 16"><path d="M3.5 8.75A.75.75 0 0 1 4.25 8h3.5a.75.75 0 0 1 .75.75v3.5a.75.75 0 0 1-.75.75h-3.5a.75.75 0 0 1-.75-.75v-3.5ZM5 9.5v2h2v-2H5Z"/><path d="M.25 4.5c0-.452.112-.898.327-1.296L1.807.92A1.75 1.75 0 0 1 3.346 0h9.306a1.75 1.75 0 0 1 1.54.92l1.23 2.284c.215.398.327.844.327 1.296 0 .7-.287 1.332-.75 1.785v7.965A1.75 1.75 0 0 1 13.25 16H2.75A1.75 1.75 0 0 1 1 14.25V6.285A2.492 2.492 0 0 1 .25 4.5Zm2.877-2.869-1.23 2.284c-.096.18-.147.38-.147.585a1 1 0 0 0 2 0 .75.75 0 0 1 1.5 0 1 1 0 0 0 2 0 .75.75 0 0 1 1.5 0 1 1 0 0 0 2 0 .75.75 0 0 1 1.5 0 1 1 0 1 0 2 0c0-.204-.05-.405-.147-.585l-1.23-2.284a.25.25 0 0 0-.22-.131H3.347a.25.25 0 0 0-.22.131ZM2.5 6.988v7.262c0 .138.112.25.25.25H9.5V8.75a.75.75 0 0 1 .75-.75h3.25V6.988a2.492 2.492 0 0 1-2-.702A2.492 2.492 0 0 1 9.75 7c-.681 0-1.3-.273-1.75-.715A2.492 2.492 0 0 1 6.25 7c-.681 0-1.3-.273-1.75-.715a2.492 2.492 0 0 1-2 .703ZM11 9.5v5h2.25a.25.25 0 0 0 .25-.25V9.5H11Z"/></svg>