<svg xmlns="http://www.w3.org/2000/svg" viewBox="0 0 20 16" fill="currentColor"><path fill-rule="evenodd" d="M19.5 4.5v-.2c0-.5-.13-.97-.37-1.4l-.9-1.54A2.75 2.75 0 0 0 15.85 0H4.15c-.98 0-1.88.52-2.38 1.36l-.9 1.55C.63 3.33.5 3.8.5 4.29v.21c0 .82.4 1.54 1 2V16H3V7c.68 0 1.3-.27 1.75-.71a2.5 2.5 0 0 0 3.5 0 2.5 2.5 0 0 0 3.5 0 2.5 2.5 0 0 0 3.5 0A2.5 2.5 0 0 0 17 7v1h-3.75c-.97 0-1.75.78-1.75 1.75V16H13V9.75c0-.14.11-.25.25-.25H17V16h1.5V6.5c.6-.46 1-1.18 1-2ZM3.07 2.12c.22-.38.63-.62 1.08-.62h11.7c.45 0 .86.24 1.08.62l.9 1.54c.11.2.17.4.17.63v.21a1 1 0 1 1-2 0 .75.75 0 0 0-1.5 0 1 1 0 1 1-2 0 .75.75 0 0 0-1.5 0 1 1 0 1 1-2 0 .75.75 0 0 0-1.5 0 1 1 0 0 1-2 0 .75.75 0 0 0-1.5 0 1 1 0 0 1-2 0v-.2c0-.23.06-.45.17-.64l.9-1.54Z"/><path fill-rule="evenodd" d="M4.5 10c0-1.1.9-2 2-2H8a2 2 0 0 1 2 2v1.5a2 2 0 0 1-2 2H6.5a2 2 0 0 1-2-2V10Zm2-.5H8c.28 0 .5.22.5.5v1.5a.5.5 0 0 1-.5.5H6.5a.5.5 0 0 1-.5-.5V10c0-.28.22-.5.5-.5Z"/></svg>