<svg xmlns="http://www.w3.org/2000/svg" fill="currentColor" class="vi" viewBox="0 0 16 16"><path d="M4.25 8a.75.75 0 0 0-.75.75v3.5c0 .414.336.75.75.75h3.5a.75.75 0 0 0 .75-.75v-3.5A.75.75 0 0 0 7.75 8h-3.5ZM5 11.5v-2h2v2H5Z"/><path d="M.75 6H1v8.25c0 .966.784 1.75 1.75 1.75h10.5A1.75 1.75 0 0 0 15 14.25V6h.25a.75.75 0 0 0 .685-1.055L14.2 1.04A1.75 1.75 0 0 0 12.6 0H3.4a1.75 1.75 0 0 0-1.6 1.04L.066 4.944A.75.75 0 0 0 .75 6Zm2.421-4.352A.25.25 0 0 1 3.4 1.5h9.2a.25.25 0 0 1 .229.148L14.096 4.5H1.904l1.267-2.852ZM2.5 6h11v2h-3.25a.75.75 0 0 0-.75.75v5.75H2.75a.25.25 0 0 1-.25-.25V6ZM11 9.5h2.5v4.75a.25.25 0 0 1-.25.25H11v-5Z"/></svg>