<svg xmlns="http://www.w3.org/2000/svg" fill="currentColor" class="vi" viewBox="0 0 16 16"><path fill-rule="evenodd" d="M3.347 1.5a.25.25 0 0 0-.22.131l-1.23 2.284c-.096.18-.147.38-.147.585H1h.75a1 1 0 0 0 2 0 .75.75 0 0 1 1.5 0 1 1 0 0 0 2 0 .75.75 0 0 1 1.5 0 1 1 0 0 0 2 0 .75.75 0 0 1 1.5 0 1 1 0 1 0 2 0c0-.204-.05-.405-.147-.585l-1.23-2.284a.25.25 0 0 0-.22-.131H3.347Zm12.403 3c0 .7-.287 1.332-.75 1.785v8.965a.75.75 0 0 1-1.5 0V6.988a2.492 2.492 0 0 1-2-.702 2.492 2.492 0 0 1-1.5.702v7.262A1.75 1.75 0 0 1 8.25 16h-5.5A1.75 1.75 0 0 1 1 14.25V6.285A2.492 2.492 0 0 1 .25 4.5c0-.452.112-.898.327-1.296L1.807.92A1.75 1.75 0 0 1 3.346 0h9.306a1.75 1.75 0 0 1 1.54.92l1.23 2.284c.215.398.327.844.327 1.296ZM2.5 6.988V10.5h6V6.666a2.51 2.51 0 0 1-.5-.38A2.492 2.492 0 0 1 6.25 7c-.681 0-1.3-.273-1.75-.715a2.492 2.492 0 0 1-2 .703ZM8.5 12h-6v2.25c0 .138.112.25.25.25h5.5a.25.25 0 0 0 .25-.25V12Z"/></svg>