<svg xmlns="http://www.w3.org/2000/svg" fill="currentColor" class="vi" viewBox="0 0 16 16"><path d="M4.25 8a.75.75 0 0 0-.75.75v3.5c0 .41.34.75.75.75h3.5c.41 0 .75-.34.75-.75v-3.5A.75.75 0 0 0 7.75 8h-3.5ZM5 11.5v-2h2v2H5Z"/><path d="M.75 6H1v8.25c0 .97.78 1.75 1.75 1.75h10.5c.97 0 1.75-.78 1.75-1.75V6h.25a.75.75 0 0 0 .69-1.05L14.2 1.04A1.75 1.75 0 0 0 12.6 0H3.4c-.7 0-1.32.4-1.6 1.04L.06 4.94A.75.75 0 0 0 .75 6Zm2.42-4.35a.25.25 0 0 1 .23-.15h9.2c.1 0 .19.06.23.15L14.1 4.5H1.9l1.27-2.85ZM2.5 6h11v2h-3.25a.75.75 0 0 0-.75.75v5.75H2.75a.25.25 0 0 1-.25-.25V6ZM11 9.5h2.5v4.75c0 .14-.11.25-.25.25H11v-5Z"/></svg>