<svg xmlns="http://www.w3.org/2000/svg" viewBox="0 0 20 16" fill="currentColor"><path fill-rule="evenodd" d="M17.75 4.3v.2c0 .7-.29 1.33-.75 1.79V16h-1.5v-6H13v6h-1.5v-6c0-.83.67-1.5 1.5-1.5h2.5V6.99a2.53 2.53 0 0 1-2-.7 2.5 2.5 0 0 1-3.5 0 2.5 2.5 0 0 1-3.5 0 2.5 2.5 0 0 1-2 .7V16H3V6.29a2.5 2.5 0 0 1-.75-1.79v-.2c0-.5.13-.97.37-1.4l.9-1.54C4.02.52 4.92 0 5.9 0h8.2c.98 0 1.88.52 2.38 1.36l.9 1.55c.24.42.37.9.37 1.38ZM5.9 1.5c-.45 0-.86.24-1.08.62l-.9 1.54c-.11.2-.17.4-.17.63v.21a1 1 0 0 0 2 0 .75.75 0 0 1 1.5 0 1 1 0 0 0 2 0 .75.75 0 0 1 1.5 0 1 1 0 1 0 2 0 .75.75 0 0 1 1.5 0 1 1 0 1 0 2 0v-.2c0-.23-.06-.45-.17-.64l-.9-1.54a1.25 1.25 0 0 0-1.08-.62H5.9Z"/><path fill-rule="evenodd" d="M5.5 10c0-.83.67-1.5 1.5-1.5h2c.83 0 1.5.67 1.5 1.5v2c0 .83-.67 1.5-1.5 1.5H7A1.5 1.5 0 0 1 5.5 12v-2ZM7 10v2h2v-2H7Z"/></svg>