<svg xmlns="http://www.w3.org/2000/svg" viewBox="0 0 20 16" fill="currentColor"><path fill-rule="evenodd" d="M10 0a.75.75 0 0 0-.75.75v.5a.75.75 0 0 0 1.5 0v-.5A.75.75 0 0 0 10 0ZM2 8c0 .41.34.75.75.75h.5a.75.75 0 0 0 0-1.5h-.5A.75.75 0 0 0 2 8Zm14 0c0 .41.34.75.75.75h.5a.75.75 0 0 0 0-1.5h-.5A.75.75 0 0 0 16 8Zm-6 8c.41 0 .75-.34.75-.75v-.5a.75.75 0 0 0-1.5 0v.5c0 .41.34.75.75.75ZM4.34 2.34a.75.75 0 0 0 0 1.06l.36.36A.75.75 0 0 0 5.76 2.7l-.36-.36a.75.75 0 0 0-1.06 0Zm0 11.32c.3.29.77.29 1.06 0l.36-.36a.75.75 0 0 0-1.06-1.06l-.36.36a.75.75 0 0 0 0 1.06Zm9.9-9.9c.3.29.77.29 1.06 0l.36-.36a.75.75 0 0 0-1.06-1.06l-.36.36a.75.75 0 0 0 0 1.06Zm1.42 9.9a.75.75 0 0 0 0-1.06l-.36-.36a.75.75 0 0 0-1.06 1.06l.36.36c.29.29.76.29 1.06 0ZM10 11.5a3.5 3.5 0 1 1 0-7 3.5 3.5 0 0 1 0 7Zm0 1.5a5 5 0 1 0 0-10 5 5 0 0 0 0 10Z"/></svg>