<svg xmlns="http://www.w3.org/2000/svg" fill="currentColor" class="vi" viewBox="0 0 16 16"><path d="M7.25.75a.75.75 0 0 1 1.5 0v.5a.75.75 0 0 1-1.5 0v-.5Zm-6.5 8a.75.75 0 0 1 0-1.5h.5a.75.75 0 0 1 0 1.5h-.5Zm14 0a.75.75 0 0 1 0-1.5h.5a.75.75 0 0 1 0 1.5h-.5Zm-6 6.5a.75.75 0 0 1-1.5 0v-.5a.75.75 0 0 1 1.5 0v.5ZM2.343 3.404a.75.75 0 1 1 1.06-1.06l.354.353a.75.75 0 0 1-1.06 1.06l-.354-.353Zm1.061 10.253a.75.75 0 0 1-1.06-1.06l.353-.354a.75.75 0 1 1 1.06 1.06l-.353.354Zm9.899-9.9a.75.75 0 0 1-1.06-1.06l.353-.354a.75.75 0 0 1 1.06 1.06l-.353.354Zm.354 8.839a.75.75 0 0 1-1.06 1.06l-.354-.353a.75.75 0 0 1 1.06-1.06l.354.353ZM13 8A5 5 0 1 1 3 8a5 5 0 0 1 10 0Zm-1.5 0a3.5 3.5 0 1 0-7 0 3.5 3.5 0 0 0 7 0Z"/></svg>