<svg xmlns="http://www.w3.org/2000/svg" fill="currentColor" class="vi" viewBox="0 0 16 16"><path d="M3.5 13.5a1 1 0 1 0 0-2 1 1 0 0 0 0 2"/><path d="M7 3.992V2a2 2 0 0 0-2-2H2a2 2 0 0 0-2 2v10.5A3.5 3.5 0 0 0 3.5 16H14a2 2 0 0 0 2-2v-3a2 2 0 0 0-2-2h-2.086l-1.493 1.5H14a.5.5 0 0 1 .5.5v3a.5.5 0 0 1-.5.5H6.44l-.322.323 7.281-7.315a2.016 2.016 0 0 0 0-2.842l-2.12-2.13a1.993 1.993 0 0 0-2.83 0zM1.5 5.5h4V8h-4zm0-1.5V2a.5.5 0 0 1 .5-.5h3a.5.5 0 0 1 .5.5v2zM7 11.81V6.119l2.513-2.525a.493.493 0 0 1 .702 0l2.121 2.132a.515.515 0 0 1 0 .725zM1.5 9.5h4v3a2 2 0 1 1-4 0z"/></svg>