<svg xmlns="http://www.w3.org/2000/svg" fill="currentColor" class="vi" viewBox="0 0 16 16"><path d="M13.5 6.5H8.75v3h.396A4.483 4.483 0 0 0 8 12.5c0 1.152.433 2.204 1.146 3H3.75A2.75 2.75 0 0 1 1 12.75v-9.5A2.75 2.75 0 0 1 3.75.5h8.5A2.75 2.75 0 0 1 15 3.25v5.508a4.468 4.468 0 0 0-1.5-.646V6.5ZM3.75 2c-.69 0-1.25.56-1.25 1.25V5h4.75V2h-3.5Zm5 0v3h4.75V3.25c0-.69-.56-1.25-1.25-1.25h-3.5Zm-1.5 12v-3H2.5v1.75c0 .69.56 1.25 1.25 1.25h3.5ZM2.5 9.5h4.75v-3H2.5v3Z"/><path d="M16 12.5a3.5 3.5 0 1 1-7 0 3.5 3.5 0 0 1 7 0ZM12.5 10a.5.5 0 0 0-.5.5v2a.5.5 0 0 0 .146.354l1 1a.5.5 0 0 0 .708-.708L13 12.293V10.5a.5.5 0 0 0-.5-.5Z"/></svg>