<svg xmlns="http://www.w3.org/2000/svg" fill="currentColor" class="vi" viewBox="0 0 16 16"><path d="M13.5 6.5H8.75v1.7A4.996 4.996 0 0 0 7.1 11H2.5v2.75c0 .138.112.25.25.25h4.5v-.434A5 5 0 0 0 8.43 15.5H2.75A1.75 1.75 0 0 1 1 13.75V2.25C1 1.284 1.784.5 2.75.5h10.5c.966 0 1.75.784 1.75 1.75V8a4.985 4.985 0 0 0-1.5-.771V6.5ZM2.75 2a.25.25 0 0 0-.25.25V5h4.75V2h-4.5Zm6 0v3h4.75V2.25a.25.25 0 0 0-.25-.25h-4.5ZM2.5 9.5h4.75v-3H2.5v3Z"/><path d="M16 12a4 4 0 1 1-8 0 4 4 0 0 1 8 0Zm-4-3a.5.5 0 0 0-.5.5v2h-1a.5.5 0 1 0 .001 1H12a.5.5 0 0 0 .5-.5V9.5A.5.5 0 0 0 12 9Z"/></svg>