<svg xmlns="http://www.w3.org/2000/svg" viewBox="0 0 20 16" fill="currentColor"><path fill-rule="evenodd" d="M16 1a2 2 0 0 1 2 2v6c-.4-.54-.91-1-1.5-1.33v-.92h-5.75V8.2a5 5 0 0 0-1.6 2.55H3.5V13c0 .28.22.5.5.5h5.23c.17.55.43 1.05.77 1.5H4a2 2 0 0 1-2-2V3c0-1.1.9-2 2-2h12Zm-5.25 1.5v2.75h5.75V3a.5.5 0 0 0-.5-.5h-5.25Zm-1.5 4.25H3.5v2.5h5.75v-2.5Zm0-1.5V2.5H4a.5.5 0 0 0-.5.5v2.25h5.75Z"/><path fill-rule="evenodd" d="M18 12a4 4 0 1 1-8 0 4 4 0 0 1 8 0Zm-3.25-.31v-1.44a.75.75 0 0 0-1.5 0v1.65c0 .26.1.52.3.7l.64.65a.75.75 0 0 0 1.06-1.06l-.5-.5Z"/></svg>