<svg xmlns="http://www.w3.org/2000/svg" fill="currentColor" class="vi" viewBox="0 0 16 16"><path d="M13.5 6.5H8.75v1.7A4.996 4.996 0 0 0 7.1 11H2.5v1.75c0 .69.56 1.25 1.25 1.25h3.5v-.434A5 5 0 0 0 8.43 15.5H3.75A2.75 2.75 0 0 1 1 12.75v-9.5A2.75 2.75 0 0 1 3.75.5h8.5A2.75 2.75 0 0 1 15 3.25V8a4.985 4.985 0 0 0-1.5-.771V6.5ZM3.75 2c-.69 0-1.25.56-1.25 1.25V5h4.75V2h-3.5Zm5 0v3h4.75V3.25c0-.69-.56-1.25-1.25-1.25h-3.5ZM2.5 9.5h4.75v-3H2.5v3Z"/><path d="M16 12a4 4 0 1 1-8 0 4 4 0 0 1 8 0Zm-4-3a.5.5 0 0 0-.5.5v2h-1a.5.5 0 1 0 .001 1H12a.5.5 0 0 0 .5-.5V9.5A.5.5 0 0 0 12 9Z"/></svg>