<svg xmlns="http://www.w3.org/2000/svg" viewBox="0 0 16 16" fill="currentColor"><path d="M13.5 6.5H8.75v1.7A5 5 0 0 0 7.1 11H2.5v2.75c0 .14.11.25.25.25h4.5v-.43a5 5 0 0 0 1.18 1.93H2.75c-.97 0-1.75-.78-1.75-1.75V2.25C1 1.28 1.78.5 2.75.5h10.5c.97 0 1.75.78 1.75 1.75V8c-.45-.34-.95-.6-1.5-.77V6.5ZM2.75 2a.25.25 0 0 0-.25.25V5h4.75V2h-4.5Zm6 0v3h4.75V2.25a.25.25 0 0 0-.25-.25h-4.5ZM2.5 9.5h4.75v-3H2.5v3Z"/><path d="M16 12a4 4 0 1 1-8 0 4 4 0 0 1 8 0Zm-4-3a.5.5 0 0 0-.5.5v2h-1a.5.5 0 1 0 0 1H12a.5.5 0 0 0 .5-.5V9.5A.5.5 0 0 0 12 9Z"/></svg>