<svg xmlns="http://www.w3.org/2000/svg" fill="currentColor" class="vi" viewBox="0 0 16 16"><path d="M13.5 7H7v6.5h1.112c.123.544.345 1.05.646 1.5H3.75A2.75 2.75 0 0 1 1 12.25v-8.5A2.75 2.75 0 0 1 3.75 1h8.5A2.75 2.75 0 0 1 15 3.75v5.008a4.5 4.5 0 0 0-1.5-.646zM3.75 2.5c-.69 0-1.25.56-1.25 1.25V5.5h3v-3zM7 2.5v3h6.5V3.75c0-.69-.56-1.25-1.25-1.25zm-1.5 11V7h-3v5.25c0 .69.56 1.25 1.25 1.25z"/><path d="M16 12.5a3.5 3.5 0 1 1-7 0 3.5 3.5 0 0 1 7 0M12.5 10a.5.5 0 0 0-.5.5v2a.5.5 0 0 0 .146.354l1 1a.5.5 0 0 0 .708-.708L13 12.293V10.5a.5.5 0 0 0-.5-.5"/></svg>