<svg xmlns="http://www.w3.org/2000/svg" fill="currentColor" class="vi" viewBox="0 0 16 16"><path d="M3.75 1A2.75 2.75 0 0 0 1 3.75v2.672c0 .729.29 1.428.805 1.944l5.75 5.75c.31.31.674.53 1.063.66A4.48 4.48 0 0 1 8 12.44L2.866 7.305a1.25 1.25 0 0 1-.366-.883V3.75c0-.69.56-1.25 1.25-1.25h2.902c.339 0 .663.137.899.38L12.505 8a4.47 4.47 0 0 1 2.31.64 2.737 2.737 0 0 0-.644-1.075L8.628 1.838A2.75 2.75 0 0 0 6.652 1H3.75Z"/><path d="M5 6a1 1 0 1 0 0-2 1 1 0 0 0 0 2Zm11 6.5a3.5 3.5 0 1 1-7 0 3.5 3.5 0 0 1 7 0ZM12.5 10a.5.5 0 0 0-.5.5V12h-1.5a.5.5 0 1 0 0 1H12v1.5a.5.5 0 0 0 1 0V13h1.5a.5.5 0 1 0 0-1H13v-1.5a.5.5 0 0 0-.5-.5Z"/></svg>