<svg xmlns="http://www.w3.org/2000/svg" fill="currentColor" class="vi" viewBox="0 0 16 16"><path d="M3.75 1A2.75 2.75 0 0 0 1 3.75v2.672c0 .729.29 1.428.805 1.944l5.75 5.75c.31.31.674.53 1.063.66A4.48 4.48 0 0 1 8 12.44L2.866 7.305a1.25 1.25 0 0 1-.366-.883V3.75c0-.69.56-1.25 1.25-1.25h2.902c.339 0 .663.137.899.38L12.505 8a4.47 4.47 0 0 1 2.31.64 2.737 2.737 0 0 0-.644-1.075L8.628 1.838A2.75 2.75 0 0 0 6.652 1H3.75Z"/><path d="M5 6a1 1 0 1 0 0-2 1 1 0 0 0 0 2Zm8.133 3.058a3.521 3.521 0 0 0-1.275 0 .457.457 0 0 0-.363.46v.406a.483.483 0 0 1-.252.41.48.48 0 0 1-.479.012l-.35-.203a.457.457 0 0 0-.58.084 3.51 3.51 0 0 0-.34.47l-.063.111a3.483 3.483 0 0 0-.236.524.457.457 0 0 0 .217.543l.35.201c.148.086.228.252.228.424s-.08.338-.229.424l-.349.201a.457.457 0 0 0-.217.543c.065.182.144.357.236.524l.064.11c.1.167.213.324.339.471a.457.457 0 0 0 .58.084l.35-.203a.48.48 0 0 1 .479.013.483.483 0 0 1 .252.41v.405c0 .221.145.42.363.46a3.526 3.526 0 0 0 1.275 0 .457.457 0 0 0 .363-.46v-.414c0-.169.102-.32.248-.405a.475.475 0 0 1 .475-.013l.358.207c.192.11.436.084.58-.084a3.49 3.49 0 0 0 .34-.47l.063-.111c.092-.167.171-.342.236-.524a.457.457 0 0 0-.218-.543l-.362-.21a.474.474 0 0 1-.226-.415c0-.169.08-.332.226-.416l.362-.21a.457.457 0 0 0 .218-.543 3.493 3.493 0 0 0-.236-.523l-.064-.11a3.517 3.517 0 0 0-.34-.471.457.457 0 0 0-.579-.084l-.358.207a.475.475 0 0 1-.475-.013.477.477 0 0 1-.248-.405v-.414a.457.457 0 0 0-.363-.46Zm.358 3.442a1 1 0 1 1-2 0 1 1 0 0 1 2 0Z"/></svg>