<svg xmlns="http://www.w3.org/2000/svg" viewBox="0 0 20 16" fill="currentColor">
  <path stroke="#000" stroke-width="1.5" d="M3.75 7.59V2c0-.14.11-.25.25-.25h5.59c.06 0 .13.03.17.07l7 7c.1.1.1.26 0 .36l-5.58 5.58c-.1.1-.26.1-.36 0l-7-7a.25.25 0 0 1-.07-.17Z"/>
  <path d="M6 5.9V4.5c0-.28.22-.5.5-.5h1.4c.22 0 .33.27.17.43L6.43 6.07A.25.25 0 0 1 6 5.9Z"/>
  <path d="M6 4.5v1.4c0 .22.27.33.43.17l1.64-1.64A.25.25 0 0 0 7.9 4H6.5a.5.5 0 0 0-.5.5Z"/>
  <path fill-rule="evenodd" d="M3 7.59V2a1 1 0 0 1 1-1h5.59a1 1 0 0 1 .7.3l7 7a1 1 0 0 1 0 1.4l-5.58 5.6a1 1 0 0 1-1.42 0l-7-7A1 1 0 0 1 3 7.58Zm8 6.29-6.5-6.5V2.5h4.88l6.5 6.5L11 13.88Z"/>
</svg>
