<svg xmlns="http://www.w3.org/2000/svg" fill="currentColor" class="vi" viewBox="0 0 16 16"><path d="M5 6a1 1 0 1 0 0-2 1 1 0 0 0 0 2Z"/><path d="M3.75 1A2.75 2.75 0 0 0 1 3.75v2.672c0 .729.29 1.428.805 1.944l5.75 5.75a2.75 2.75 0 0 0 3.89 0l2.694-2.694a2.75 2.75 0 0 0 .032-3.857L8.628 1.838A2.75 2.75 0 0 0 6.652 1H3.75ZM2.5 3.75c0-.69.56-1.25 1.25-1.25h2.902c.339 0 .663.137.899.38l5.542 5.728a1.25 1.25 0 0 1-.014 1.753l-2.695 2.694a1.25 1.25 0 0 1-1.768 0l-5.75-5.75a1.25 1.25 0 0 1-.366-.883V3.75Z"/></svg>