<svg xmlns="http://www.w3.org/2000/svg" fill="currentColor" class="vi" viewBox="0 0 16 16"><path fill-rule="evenodd" d="M9.5 4.5a1 1 0 1 0 0-2 1 1 0 0 0 0 2M9 5.95v.55h7V11a2.5 2.5 0 0 1-3.738 2.173A3 3 0 0 1 9.5 15H9a3 3 0 0 1-2.959-2.5H1.5A1.5 1.5 0 0 1 0 11V5a1.5 1.5 0 0 1 1.5-1.5H7a2.5 2.5 0 1 1 2 2.45m-1.415 6.548A1.5 1.5 0 0 0 9 13.5h.5A1.5 1.5 0 0 0 11 12V8H9v3a1.5 1.5 0 0 1-1.415 1.498M12.5 11a1 1 0 1 0 2 0V8h-2zM14 6a1.5 1.5 0 1 0 0-3 1.5 1.5 0 0 0 0 3M3.75 7H2V5.5h5V7H5.25v3.5h-1.5z"/></svg>