<svg xmlns="http://www.w3.org/2000/svg" fill="currentColor" class="vi" viewBox="0 0 16 16"><path d="M12.493.683A2 2 0 0 0 9.55.808L6.877 3.981a1.25 1.25 0 0 1-.71.42l-2.482.497c-1.37.274-1.882 1.965-.894 2.954L4.939 10 .22 14.72a.75.75 0 1 0 1.061 1.06L6 11.06l2.148 2.15c.989.987 2.68.475 2.954-.895l.496-2.481a1.25 1.25 0 0 1 .42-.711l3.173-2.672a2 2 0 0 0 .126-2.944L12.493.683Zm-1.796 1.092a.5.5 0 0 1 .736-.032l2.824 2.824a.5.5 0 0 1-.032.736l-3.172 2.672a2.75 2.75 0 0 0-.926 1.564l-.496 2.482a.25.25 0 0 1-.422.127L3.852 6.791a.25.25 0 0 1 .127-.422l2.482-.496a2.75 2.75 0 0 0 1.564-.925l2.671-3.173Z"/></svg>