<svg xmlns="http://www.w3.org/2000/svg" fill="currentColor" class="vi" viewBox="0 0 16 16"><path d="M1.28.22A.75.75 0 1 0 .22 1.28l3.592 3.593-.127.025c-1.37.274-1.882 1.965-.894 2.954L4.939 10 .22 14.72a.75.75 0 1 0 1.061 1.06L6 11.06l2.148 2.15c.989.987 2.68.475 2.954-.895l.025-.127 3.593 3.592a.75.75 0 1 0 1.06-1.06L1.28.22Zm8.573 10.693-.222 1.108a.25.25 0 0 1-.422.127L3.852 6.791a.25.25 0 0 1 .127-.422l1.108-.222 4.766 4.766Zm1.2-2.938-.01.008 1.065 1.064 3.083-2.596a2 2 0 0 0 .126-2.944L12.493.683A2 2 0 0 0 9.55.808L6.953 3.892l1.064 1.064.008-.008 2.671-3.173a.5.5 0 0 1 .737-.032l2.824 2.824a.5.5 0 0 1-.032.736l-3.172 2.672Z"/></svg>