<svg xmlns="http://www.w3.org/2000/svg" viewBox="0 0 20 16" fill="currentColor">
  <path fill-rule="evenodd" d="M9.75 1.5H15a.5.5 0 0 1 .5.5v1.79a6.96 6.96 0 0 1 1.5.646V2a2 2 0 0 0-2-2H3a2 2 0 0 0-2 2v12a2 2 0 0 0 2 2h6.17a7.04 7.04 0 0 1-1.415-1.5H3a.5.5 0 0 1-.5-.5v-2.75h4.04a7.078 7.078 0 0 1 0-1.5H2.5v-3.5h5.437A7.038 7.038 0 0 1 9.75 4.588V1.5zm-1.5 3.25H2.5V2a.5.5 0 0 1 .5-.5h5.25v3.25z"/>
  <path d="M12.75 10.293V8.75a.75.75 0 0 1 1.5 0v1.44l.25.25a.75.75 0 0 1-1.06 1.06l-.324-.323a1.25 1.25 0 0 1-.366-.884z"/>
  <path fill-rule="evenodd" d="M13.5 16a5.5 5.5 0 1 0 0-11 5.5 5.5 0 0 0 0 11zm0-1.5a4 4 0 1 1 0-8 4 4 0 0 1 0 8z"/>
</svg>
