<svg xmlns="http://www.w3.org/2000/svg" viewBox="0 0 20 16" fill="currentColor">
  <path fill-rule="evenodd" d="M9.75 1.5H15a.5.5 0 0 1 .5.5v2.674c.528.125 1.03.314 1.5.558V2a2 2 0 0 0-2-2H3a2 2 0 0 0-2 2v12a2 2 0 0 0 2 2h6.846a6.528 6.528 0 0 1-1.596-1.966v.466H3a.5.5 0 0 1-.5-.5v-2.75h5.005a6.607 6.607 0 0 1 .115-1.5H2.5v-3.5h5.75v1.716a6.516 6.516 0 0 1 3.959-3.216H9.75V1.5zm-1.5 3.25H2.5V2a.5.5 0 0 1 .5-.5h5.25v3.25z"/>
  <path d="M13.25 10.793V9.25a.75.75 0 0 1 1.5 0v1.44l.25.25A.75.75 0 0 1 13.94 12l-.324-.323a1.25 1.25 0 0 1-.366-.884z"/>
  <path fill-rule="evenodd" d="M14 16a5 5 0 1 0 0-10 5 5 0 0 0 0 10zm0-1.5a3.5 3.5 0 1 1 0-7 3.5 3.5 0 0 1 0 7z"/>
</svg>
