<svg xmlns="http://www.w3.org/2000/svg" viewBox="0 0 20 16" fill="currentColor">
  <path fill-rule="evenodd" d="M9.75 1.5H15c.28 0 .5.22.5.5v2.67c.53.13 1.03.32 1.5.56V2a2 2 0 0 0-2-2H3a2 2 0 0 0-2 2v12c0 1.1.9 2 2 2h6.85a6.53 6.53 0 0 1-1.6-1.97v.47H3a.5.5 0 0 1-.5-.5v-2.75h5a6.6 6.6 0 0 1 .12-1.5H2.5v-3.5h5.75v1.72a6.52 6.52 0 0 1 3.96-3.22H9.75V1.5Zm-1.5 3.25H2.5V2c0-.28.22-.5.5-.5h5.25v3.25Z"/>
  <path d="M13.25 10.8V9.24a.75.75 0 0 1 1.5 0v1.44l.25.25A.75.75 0 0 1 13.94 12l-.32-.32a1.25 1.25 0 0 1-.37-.89Z"/>
  <path fill-rule="evenodd" d="M14 16a5 5 0 1 0 0-10 5 5 0 0 0 0 10Zm0-1.5a3.5 3.5 0 1 1 0-7 3.5 3.5 0 0 1 0 7Z"/>
</svg>
