<svg xmlns="http://www.w3.org/2000/svg" viewBox="0 0 20 16" fill="currentColor">
  <path fill-rule="evenodd" d="M15 0a2 2 0 0 1 2 2v4.87c-.47-.18-.98-.3-1.5-.35v-.27H9.75v3.5h.23a5.48 5.48 0 0 0-.23 3.9v.85h.35c.29.56.67 1.07 1.13 1.5H3a2 2 0 0 1-2-2V2c0-1.1.9-2 2-2h12ZM9.75 1.5v3.25h5.75V2a.5.5 0 0 0-.5-.5H9.75Zm-1.5 9.75H2.5V14c0 .28.22.5.5.5h5.25v-3.25Zm0-5H2.5v3.5h5.75v-3.5Zm0-1.5V1.5H3a.5.5 0 0 0-.5.5v2.75h5.75Z"/>
  <path fill-rule="evenodd" d="M19 12a4 4 0 1 1-8 0 4 4 0 0 1 8 0Zm-3.25-.31v-1.44a.75.75 0 0 0-1.5 0v1.65c0 .26.1.52.3.7l.39.4A.75.75 0 0 0 16 11.94l-.25-.25Z"/>
</svg>
