<svg xmlns="http://www.w3.org/2000/svg" fill="currentColor" class="vi" viewBox="0 0 16 16"><path d="M13.95 6.75c.05.41.39.75.8.75a.7.7 0 0 0 .71-.75 7.5 7.5 0 0 0-14.92 0c-.04.41.3.75.71.75s.75-.34.8-.75a6 6 0 0 1 11.9 0Z"/><path d="M3.06 6.75c-.07.41.28.75.69.75.41 0 .74-.34.83-.74a3.5 3.5 0 0 1 6.84 0c.09.4.42.74.83.74s.76-.34.7-.75a5 5 0 0 0-9.9 0Z"/><path d="M10.5 7.5a2.5 2.5 0 0 1-1.75 2.39v4.61h1.5a.75.75 0 0 1 0 1.5h-4.5a.75.75 0 0 1 0-1.5h1.5V9.89A2.5 2.5 0 1 1 10.5 7.5ZM8 8.5a1 1 0 1 0 0-2 1 1 0 0 0 0 2Z"/></svg>