<svg xmlns="http://www.w3.org/2000/svg" fill="currentColor" class="vi" viewBox="0 0 16 16"><path d="M2 1.5h7a.5.5 0 0 1 .5.5v2H11V2a2 2 0 0 0-2-2H2a2 2 0 0 0-2 2v7a2 2 0 0 0 2 2h2V9.5H2a.5.5 0 0 1-.5-.5V2a.5.5 0 0 1 .5-.5Z"/><path d="M8.5 3.75a.749.749 0 0 1-.043.25H7c-.613 0-1.184.184-1.659.5h-.255l.075.13a3.008 3.008 0 0 0-.96 1.287 8.975 8.975 0 0 1-.526-.873 5.679 5.679 0 0 1-.251-.544H3.25a.75.75 0 0 1 0-1.5h1.543a.75.75 0 0 1 1.414 0H7.75a.75.75 0 0 1 .75.75ZM3.25 7c.197 0 .454-.08.763-.276C4.004 6.814 4 6.907 4 7v1.38c-.24.075-.49.12-.75.12a.75.75 0 0 1 0-1.5Zm7.92.915a.75.75 0 0 0-1.34 0l-2.25 4.5a.75.75 0 1 0 1.34.67l.294-.585h2.572l.293.585a.75.75 0 1 0 1.342-.67l-2.25-4.5ZM11.038 11H9.963l.536-1.073.537 1.073Z"/><path d="M7 5a2 2 0 0 0-2 2v7a2 2 0 0 0 2 2h7a2 2 0 0 0 2-2V7a2 2 0 0 0-2-2H7Zm7 1.5a.5.5 0 0 1 .5.5v7a.5.5 0 0 1-.5.5H7a.5.5 0 0 1-.5-.5V7a.5.5 0 0 1 .5-.5h7Z"/></svg>