<svg xmlns="http://www.w3.org/2000/svg" fill="currentColor" class="vi" viewBox="0 0 16 16"><g clip-path="url(#a)"><path d="M2.749 0a2.75 2.75 0 0 0-2.75 2.748l-.003 5.5A2.75 2.75 0 0 0 2.746 11h1.256l.001-1.5H2.746c-.69 0-1.25-.56-1.25-1.25l.003-5.5c0-.69.56-1.25 1.25-1.25H8.25c.69 0 1.25.56 1.25 1.25V4H11V2.75A2.75 2.75 0 0 0 8.25 0z"/><path d="M8.5 3.75a.8.8 0 0 1-.043.25H6.754c-.588 0-1.134.185-1.581.5h-.087l.026.045a2.76 2.76 0 0 0-.956 1.304 9 9 0 0 1-.48-.805 6 6 0 0 1-.253-.544H3.25a.75.75 0 1 1 0-1.5h1.543a.75.75 0 0 1 1.414 0H7.75a.75.75 0 0 1 .75.75M4.004 6.749v-.02C3.7 6.92 3.445 7 3.25 7a.75.75 0 1 0 0 1.5c.26 0 .513-.045.754-.122zm7.166 1.166a.75.75 0 0 0-1.34 0l-2.25 4.5a.75.75 0 1 0 1.34.67l.294-.585h2.573l.292.585a.75.75 0 1 0 1.342-.67zM11.038 11H9.964l.536-1.073z"/><path d="M4.999 7.748A2.75 2.75 0 0 1 7.749 5h5.501A2.75 2.75 0 0 1 16 7.75v5.5A2.75 2.75 0 0 1 13.25 16H7.746a2.75 2.75 0 0 1-2.75-2.752zM7.749 6.5c-.69 0-1.25.56-1.25 1.25l-.003 5.5c0 .69.56 1.25 1.25 1.25h5.504c.69 0 1.25-.56 1.25-1.25v-5.5c0-.69-.56-1.25-1.25-1.25z"/></g><defs><clipPath id="a"><path d="M0 0h16v16H0z"/></clipPath></defs></svg>