<svg xmlns="http://www.w3.org/2000/svg" viewBox="0 0 16 16" fill="currentColor">
  <path d="M5.5 12.5v-6A.5.5 0 0 1 6 6h.5a.5.5 0 0 1 .5.5v6a.5.5 0 0 1-.5.5H6a.5.5 0 0 1-.5-.5zm3.5-6v6a.5.5 0 0 0 .5.5h.5a.5.5 0 0 0 .5-.5v-6A.5.5 0 0 0 10 6h-.5a.5.5 0 0 0-.5.5z"/>
  <path fill-rule="evenodd" d="M5 3V2a2 2 0 0 1 2-2h2a2 2 0 0 1 2 2v1h3.25a.75.75 0 0 1 0 1.5H14V14a2 2 0 0 1-2 2H4a2 2 0 0 1-2-2V4.5h-.25a.75.75 0 0 1 0-1.5H5zm1.5 0h3v-.5a1 1 0 0 0-1-1h-1a1 1 0 0 0-1 1V3zm-3 11V4.5h9V14a.5.5 0 0 1-.5.5H4a.5.5 0 0 1-.5-.5z"/>
</svg>
