<svg xmlns="http://www.w3.org/2000/svg" fill="currentColor" class="vi" viewBox="0 0 16 16"><path d="M5 1.75C5 .784 5.784 0 6.75 0h2.5C10.216 0 11 .784 11 1.75v.75h3.25a.75.75 0 0 1 0 1.5h-.31l-.79 9.478A2.75 2.75 0 0 1 10.41 16H5.59a2.75 2.75 0 0 1-2.74-2.522L2.06 4h-.31a.75.75 0 0 1 0-1.5H5v-.75Zm1.5.75h3v-.75a.25.25 0 0 0-.25-.25h-2.5a.25.25 0 0 0-.25.25v.75ZM3.565 4l.78 9.354A1.25 1.25 0 0 0 5.59 14.5h4.82a1.25 1.25 0 0 0 1.245-1.146L12.435 4h-8.87ZM6.25 5.5a.75.75 0 0 1 .75.75v6a.75.75 0 0 1-1.5 0v-6a.75.75 0 0 1 .75-.75Zm3.5 0a.75.75 0 0 1 .75.75v6a.75.75 0 0 1-1.5 0v-6a.75.75 0 0 1 .75-.75Z"/></svg>