<svg xmlns="http://www.w3.org/2000/svg" viewBox="0 0 20 16" fill="currentColor">
  <path d="M7.5 12.5v-6c0-.28.22-.5.5-.5h.5c.28 0 .5.22.5.5v6a.5.5 0 0 1-.5.5H8a.5.5 0 0 1-.5-.5Zm3.5-6v6c0 .28.22.5.5.5h.5a.5.5 0 0 0 .5-.5v-6A.5.5 0 0 0 12 6h-.5a.5.5 0 0 0-.5.5Z"/>
  <path fill-rule="evenodd" d="M7 3V2c0-1.1.9-2 2-2h2a2 2 0 0 1 2 2v1h3.25a.75.75 0 0 1 0 1.5H16V14a2 2 0 0 1-2 2H6a2 2 0 0 1-2-2V4.5h-.25a.75.75 0 0 1 0-1.5H7Zm1.5 0h3V2a.5.5 0 0 0-.5-.5H9a.5.5 0 0 0-.5.5v1Zm-3 11c0 .28.22.5.5.5h8a.5.5 0 0 0 .5-.5V4.5h-9V14Z"/>
</svg>
