<svg xmlns="http://www.w3.org/2000/svg" viewBox="0 0 16 16" fill="currentColor">
  <path fill-rule="evenodd" d="M6.61.04a2.203 2.203 0 0 0-.656.257 2.403 2.403 0 0 0-.668.676c-.231.395-.297.744-.299 1.58v.46H1.999l.008 5.674c.007 5.126.012 5.686.05 5.806.244.758.699 1.213 1.45 1.45.118.038.6.043 4.373.05 2.871.006 4.299 0 4.422-.019a2.022 2.022 0 0 0 1.537-1.201c.158-.373.146.104.154-6.086l.008-5.674h-2.988v-.46a10.072 10.072 0 0 0-.026-.72 1.932 1.932 0 0 0-.586-1.246A1.91 1.91 0 0 0 9.37.039C9.094-.014 6.876-.013 6.61.04m2.124 1.495c.297.077.531.266.669.54.072.143.077.175.086.545l.009.393H6.502l.009-.393c.009-.362.016-.405.082-.54.129-.264.375-.467.661-.544.214-.057 1.261-.058 1.48-.001m3.773 7.738c-.001 3.396-.009 4.798-.03 4.873a.553.553 0 0 1-.331.331c-.15.042-8.142.042-8.292 0a.553.553 0 0 1-.331-.331c-.021-.075-.029-1.477-.03-4.873V4.507h9.014v4.766M5.799 6.05a.52.52 0 0 0-.278.317c-.041.148-.038 6.155.003 6.276a.489.489 0 0 0 .245.297c.099.053.15.059.484.06.342 0 .383-.005.481-.061a.532.532 0 0 0 .256-.374c.031-.192.028-5.971-.003-6.139a.5.5 0 0 0-.277-.375c-.158-.072-.754-.072-.911-.001m3.491.001a.5.5 0 0 0-.278.382c-.017.096-.024 1.194-.019 3.171.008 3.369-.008 3.095.193 3.272.128.112.184.124.587.123.305-.001.361-.008.458-.059a.489.489 0 0 0 .245-.297c.041-.121.044-6.128.003-6.276a.52.52 0 0 0-.278-.317c-.157-.071-.753-.071-.911.001"/>
</svg>
