<svg xmlns="http://www.w3.org/2000/svg" fill="currentColor" class="vi" viewBox="0 0 16 16"><path fill-rule="evenodd" d="M7.785 2.584a.25.25 0 0 1 .43 0l6.245 10.539a.25.25 0 0 1-.215.377H1.755a.25.25 0 0 1-.215-.377zm1.72-.765a1.75 1.75 0 0 0-3.01 0L.248 12.358C-.44 13.524.4 15 1.755 15h12.49c1.356 0 2.197-1.476 1.506-2.642zM8 5.5a.75.75 0 0 1 .75.75V9a.75.75 0 1 1-1.5 0V6.25A.75.75 0 0 1 8 5.5m1 6a1 1 0 1 1-2 0 1 1 0 0 1 2 0"/><path d="M8 5.5a.75.75 0 0 1 .75.75V9a.75.75 0 1 1-1.5 0V6.25A.75.75 0 0 1 8 5.5m1 6a1 1 0 1 1-2 0 1 1 0 0 1 2 0"/><path d="M9.506 1.82a1.75 1.75 0 0 0-3.012 0L.25 12.357C-.44 13.524.4 15 1.755 15h12.49c1.356 0 2.197-1.476 1.506-2.642zm-1.721.764a.25.25 0 0 1 .43 0l6.245 10.539a.25.25 0 0 1-.215.377H1.755a.25.25 0 0 1-.215-.377z"/></svg>