<svg xmlns="http://www.w3.org/2000/svg" viewBox="0 0 16 16" fill="currentColor">
  <path fill-rule="evenodd" d="M3.917 7.204C1.946 10.682.31 13.583.282 13.651A.88.88 0 0 0 .229 14c-.002.201.008.247.081.4.046.095.127.224.181.286.129.147.384.272.619.302.24.031 13.54.031 13.78 0a.99.99 0 0 0 .809-.605c.059-.129.071-.195.072-.383.001-.193-.01-.25-.073-.386-.041-.088-1.677-2.989-3.636-6.446L8.501.883l-.14.079c-.123.069-.164.078-.36.078-.197 0-.237-.009-.361-.08L7.501.88 3.917 7.204m7.047 1.069 2.95 5.207-2.957.007c-1.626.004-4.288.004-5.915 0l-2.957-.007 2.951-5.207A814.99 814.99 0 0 1 8 3.067c.007 0 1.341 2.343 2.964 5.206M7.707 5.815a.911.911 0 0 0-.383.358c-.057.106-.057.12-.057 1.574v1.466l.078.142A.71.71 0 0 0 8 9.74a.71.71 0 0 0 .655-.385l.078-.142V7.747c0-1.454 0-1.468-.057-1.574A.763.763 0 0 0 8 5.761a.71.71 0 0 0-.293.054m.115 4.956a.798.798 0 0 0-.532.492.745.745 0 0 0 .71.976.73.73 0 0 0 .74-.681.726.726 0 0 0-.396-.719.886.886 0 0 0-.522-.068"/>
</svg>
