<svg xmlns="http://www.w3.org/2000/svg" viewBox="0 0 20 16" fill="currentColor">
  <path fill-rule="evenodd" d="M11.687 3.75a3.75 3.75 0 1 1-7.5 0 3.75 3.75 0 0 1 7.5 0zm-1.5 0a2.25 2.25 0 1 0-4.5 0 2.25 2.25 0 0 0 4.5 0z"/>
  <path d="M2.933 11.291a2.14 2.14 0 0 1 1.348-.753 25.847 25.847 0 0 1 4.474-.247 2.24 2.24 0 0 1-.207-1.506 27.356 27.356 0 0 0-4.48.268 3.64 3.64 0 0 0-2.289 1.28c-.762.917-.496 2.266.32 3.136a7.978 7.978 0 0 0 6.52 2.502 2.247 2.247 0 0 1 .023-1.509 6.478 6.478 0 0 1-5.449-2.019 1.35 1.35 0 0 1-.359-.719c-.027-.211.023-.342.099-.433zM10.75 14.5a.75.75 0 0 0 0 1.5h7.5a.75.75 0 0 0 0-1.5h-7.5zM10 12.25a.75.75 0 0 1 .75-.75h7.5a.75.75 0 0 1 0 1.5h-7.5a.75.75 0 0 1-.75-.75zm.75-3.75a.75.75 0 0 0 0 1.5h7.5a.75.75 0 0 0 0-1.5h-7.5z"/>
</svg>
