<svg xmlns="http://www.w3.org/2000/svg" viewBox="0 0 20 16" fill="currentColor">
  <path fill-rule="evenodd" d="M11.44 3.75a3.75 3.75 0 1 1-7.5 0 3.75 3.75 0 0 1 7.5 0Zm-1.5 0a2.25 2.25 0 1 0-4.5 0 2.25 2.25 0 0 0 4.5 0Z"/>
  <path d="M2.68 11.3c.33-.4.8-.68 1.35-.76 2.04-.3 4.1-.34 6.14-.14.4-.4.96-.65 1.58-.65h1v-.3c-.36-.2-.77-.34-1.2-.4a27.35 27.35 0 0 0-7.73 0c-.93.13-1.73.6-2.3 1.28-.75.92-.49 2.27.33 3.14a7.98 7.98 0 0 0 10.83.78h-.93c-.47 0-.9-.14-1.26-.38a6.47 6.47 0 0 1-7.55-1.43 1.4 1.4 0 0 1-.36-.72.59.59 0 0 1 .1-.43Z"/>
  <path d="M15.75 8.75v2.5h2.5a.75.75 0 0 1 0 1.5h-2.5v2.5a.75.75 0 0 1-1.5 0v-2.5h-2.5a.75.75 0 0 1 0-1.5h2.5v-2.5a.75.75 0 0 1 1.5 0Z"/>
</svg>
