<svg xmlns="http://www.w3.org/2000/svg" viewBox="0 0 20 16" fill="currentColor">
  <path fill-rule="evenodd" d="M11.69 3.75a3.75 3.75 0 1 1-7.5 0 3.75 3.75 0 0 1 7.5 0Zm-1.5 0a2.25 2.25 0 1 0-4.5 0 2.25 2.25 0 0 0 4.5 0Z"/>
  <path d="M2.93 11.3c.33-.4.8-.68 1.35-.76 1.48-.21 2.98-.3 4.47-.25a2.24 2.24 0 0 1-.2-1.5c-1.5-.04-3 .05-4.48.26-.93.13-1.73.6-2.3 1.28-.75.92-.49 2.27.33 3.14a7.98 7.98 0 0 0 6.52 2.5 2.25 2.25 0 0 1 .02-1.5 6.58 6.58 0 0 1-5.45-2.03 1.4 1.4 0 0 1-.36-.72.59.59 0 0 1 .1-.43Zm7.82 3.2a.75.75 0 0 0 0 1.5h7.5a.75.75 0 0 0 0-1.5h-7.5ZM10 12.25c0-.41.34-.75.75-.75h7.5a.75.75 0 0 1 0 1.5h-7.5a.75.75 0 0 1-.75-.75Zm.75-3.75a.75.75 0 0 0 0 1.5h7.5a.75.75 0 0 0 0-1.5h-7.5Z"/>
</svg>
