<svg xmlns="http://www.w3.org/2000/svg" viewBox="0 0 20 16" fill="currentColor">
  <path fill-rule="evenodd" d="M11.687 3.75a3.75 3.75 0 1 1-7.5 0 3.75 3.75 0 0 1 7.5 0zm-1.5 0a2.25 2.25 0 1 0-4.5 0 2.25 2.25 0 0 0 4.5 0z"/>
  <path d="M2.933 11.291a2.14 2.14 0 0 1 1.348-.753 25.849 25.849 0 0 1 4.292-.252c.114-.55.357-1.053.696-1.476a27.355 27.355 0 0 0-5.2.243 3.64 3.64 0 0 0-2.29 1.28c-.762.917-.496 2.266.32 3.136A7.978 7.978 0 0 0 7.937 16c.386 0 .765-.027 1.136-.08a3.48 3.48 0 0 1-.541-1.447 6.478 6.478 0 0 1-5.339-2.03 1.35 1.35 0 0 1-.359-.719c-.027-.211.023-.342.099-.433zM15.25 12.5a.75.75 0 1 1-1.5 0 .75.75 0 0 1 1.5 0z"/>
  <path fill-rule="evenodd" d="M17 9a2 2 0 0 1 2 2v3a2 2 0 0 1-2 2h-5a2 2 0 0 1-2-2v-3a2 2 0 0 1 2-2v-.5a2.5 2.5 0 0 1 5 0V9zm-1.5 0v-.5a1 1 0 1 0-2 0V9h2zm-4 2v3a.5.5 0 0 0 .5.5h5a.5.5 0 0 0 .5-.5v-3a.5.5 0 0 0-.5-.5h-5a.5.5 0 0 0-.5.5z"/>
</svg>
