<svg xmlns="http://www.w3.org/2000/svg" viewBox="0 0 20 16" fill="currentColor">
  <path fill-rule="evenodd" d="M6.07 11.72a35.353 35.353 0 0 1 7.86 0c.69.076 1.228.347 1.562.662l.002.003c-.018.062-.085.204-.274.362-1.253 1.05-3.102 1.753-5.22 1.753s-3.967-.704-5.22-1.753c-.19-.158-.256-.3-.274-.362l.003-.003c.333-.315.87-.585 1.561-.663zm9.444.687zM3.48 11.291c-.808.763-.526 1.883.338 2.607C5.363 15.19 7.561 16 10 16c2.439 0 4.637-.809 6.183-2.102.864-.724 1.146-1.844.338-2.607-.594-.56-1.444-.953-2.424-1.063a36.855 36.855 0 0 0-8.194 0c-.98.11-1.83.503-2.424 1.063z"/>
  <path d="M14 6v-.5a4 4 0 0 0-7.93-.746c-.077.407-.406.746-.82.746-.414 0-.755-.338-.7-.748A5.501 5.501 0 0 1 15.5 5.5V6a3 3 0 0 1-3 3h-1.75a.756.756 0 0 1-.116-.009A1.006 1.006 0 0 1 10.5 9h-1a1 1 0 1 1 0-2h1a1 1 0 0 1 .866.5H12.5A1.5 1.5 0 0 0 14 6z"/>
  <path d="M11.336 6.183a1.5 1.5 0 1 0-2.672 0 2.007 2.007 0 0 0-1.047 1.14 3 3 0 1 1 5.27-1.008.5.5 0 0 1-.387.185h-.677a2.005 2.005 0 0 0-.487-.317z"/>
</svg>
