<svg xmlns="http://www.w3.org/2000/svg" viewBox="0 0 20 16" fill="currentColor">
  <path fill-rule="evenodd" d="M11.69 3.75a3.75 3.75 0 1 1-7.5 0 3.75 3.75 0 0 1 7.5 0Zm-1.5 0a2.25 2.25 0 1 0-4.5 0 2.25 2.25 0 0 0 4.5 0Z"/>
  <path d="M2.93 11.3c.33-.4.8-.68 1.35-.76 1.43-.2 2.87-.29 4.3-.25-.06-.34-.03-.7.12-1.06l.2-.44a27.9 27.9 0 0 0-4.83.26c-.93.13-1.73.6-2.3 1.28-.75.92-.49 2.27.33 3.14a7.98 7.98 0 0 0 8.03 2.23c-.23-.13-.44-.3-.62-.52a6.02 6.02 0 0 1-.4-.59v-.01L9 14.4a6.55 6.55 0 0 1-5.82-1.97 1.4 1.4 0 0 1-.36-.72.59.59 0 0 1 .1-.43Z"/>
  <path fill-rule="evenodd" d="M10.09 13.2c.07.17.14.32.23.48l.08.14c.09.15.19.3.3.44.14.18.4.22.6.1l.23-.13a.55.55 0 0 1 .6.05c.24.18.5.33.78.45.2.09.35.28.35.5v.26c0 .23.16.44.39.47a4.54 4.54 0 0 0 1.21 0c.23-.03.4-.24.4-.47v-.26c0-.22.14-.41.35-.5.27-.12.53-.27.77-.45a.55.55 0 0 1 .6-.05l.23.13c.2.12.46.08.6-.1.11-.14.21-.29.3-.44l.09-.14c.08-.16.16-.31.22-.48a.46.46 0 0 0-.2-.57l-.24-.13a.55.55 0 0 1-.25-.55 3.54 3.54 0 0 0 0-.9.55.55 0 0 1 .25-.55l.23-.13c.2-.12.3-.36.21-.57a4.49 4.49 0 0 0-.22-.48l-.09-.14c-.09-.15-.19-.3-.3-.44a.47.47 0 0 0-.6-.1l-.23.13a.55.55 0 0 1-.6-.05 3.5 3.5 0 0 0-.77-.45.55.55 0 0 1-.35-.5v-.26a.46.46 0 0 0-.4-.47 4.54 4.54 0 0 0-1.21 0 .46.46 0 0 0-.4.47v.26c0 .22-.14.41-.34.5a3.5 3.5 0 0 0-.77.45.55.55 0 0 1-.61.05l-.23-.13a.47.47 0 0 0-.6.1c-.11.14-.21.29-.3.44l-.08.14c-.09.16-.16.31-.23.48-.09.21 0 .45.21.57l.23.13c.19.11.28.34.25.55a3.54 3.54 0 0 0 0 .9.55.55 0 0 1-.25.55l-.23.13c-.2.12-.3.36-.21.57Zm2.17-1.7a2 2 0 1 1 4 0 2 2 0 0 1-4 0Z"/>
</svg>
