<svg xmlns="http://www.w3.org/2000/svg" viewBox="0 0 20 16" fill="currentColor">
  <path fill-rule="evenodd" d="M11.44 3.75a3.75 3.75 0 1 1-7.5 0 3.75 3.75 0 0 1 7.5 0Zm-1.5 0a2.25 2.25 0 1 0-4.5 0 2.25 2.25 0 0 0 4.5 0Z"/>
  <path d="M2.68 11.3c.33-.4.8-.68 1.35-.76 2.04-.3 4.1-.34 6.14-.14l.02-.03c-.4-.39-.67-.93-.69-1.53-1.9-.13-3.8-.06-5.68.21-.93.13-1.73.6-2.3 1.28-.75.92-.49 2.27.33 3.14a7.98 7.98 0 0 0 7.71 2.3 2.26 2.26 0 0 1 .22-1.62 6.5 6.5 0 0 1-6.84-1.7c-.2-.23-.33-.5-.36-.73a.59.59 0 0 1 .1-.43ZM11.75 8a.75.75 0 0 0 0 1.5h6.5a.75.75 0 0 0 0-1.5h-6.5ZM11 12c0-.41.34-.75.75-.75h6.5a.75.75 0 0 1 0 1.5h-6.5A.75.75 0 0 1 11 12Zm.75 2.5a.75.75 0 0 0 0 1.5h6.5a.75.75 0 0 0 0-1.5h-6.5Z"/>
</svg>
