<svg xmlns="http://www.w3.org/2000/svg" viewBox="0 0 20 16" fill="currentColor">
  <path fill-rule="evenodd" d="M11.69 3.75c0 .37-.06.73-.16 1.07a4 4 0 0 0-.85 1.49 3.75 3.75 0 1 1 1-2.56zm-1.5 0a2.25 2.25 0 1 0-4.5 0 2.25 2.25 0 0 0 4.5 0z"/>
  <path d="M4.07 9.05a27.36 27.36 0 0 1 5.2-.24 3.49 3.49 0 0 0-.7 1.48 25.85 25.85 0 0 0-4.29.25 2.14 2.14 0 0 0-1.35.75.59.59 0 0 0-.1.43c.03.23.15.5.36.72a6.48 6.48 0 0 0 5.34 2.03 3.48 3.48 0 0 0 .54 1.45c-.37.05-.75.08-1.13.08a7.98 7.98 0 0 1-5.84-2.53c-.82-.87-1.08-2.22-.32-3.14a3.64 3.64 0 0 1 2.29-1.28zm10.43 4.2a.75.75 0 1 0 0-1.5.75.75 0 0 0 0 1.5z"/>
  <path fill-rule="evenodd" d="M10 11a2 2 0 0 1 2-2V7.5a2.5 2.5 0 0 1 5 0V9a2 2 0 0 1 2 2v3a2 2 0 0 1-2 2h-5a2 2 0 0 1-2-2v-3zm7-.5h-5a.5.5 0 0 0-.5.5v3a.5.5 0 0 0 .5.5h5a.5.5 0 0 0 .5-.5v-3a.5.5 0 0 0-.5-.5zm-1.5-3a1 1 0 1 0-2 0V9h2V7.5z"/>
</svg>
