<svg xmlns="http://www.w3.org/2000/svg" viewBox="0 0 20 16" fill="currentColor">
  <path fill-rule="evenodd" d="M11.687 3.75c0 .37-.054.729-.154 1.067-.383.424-.677.93-.852 1.489a3.75 3.75 0 1 1 1.006-2.556zm-1.5 0a2.25 2.25 0 1 0-4.5 0 2.25 2.25 0 0 0 4.5 0z"/>
  <path d="M4.069 9.053a27.355 27.355 0 0 1 5.2-.243 3.487 3.487 0 0 0-.696 1.476 25.848 25.848 0 0 0-4.292.252 2.14 2.14 0 0 0-1.348.753c-.076.09-.126.222-.099.433.03.228.15.497.36.72a6.478 6.478 0 0 0 5.338 2.03 3.48 3.48 0 0 0 .541 1.446c-.37.053-.75.08-1.136.08A7.978 7.978 0 0 1 2.1 13.47c-.816-.871-1.082-2.22-.32-3.138a3.64 3.64 0 0 1 2.29-1.28zM14.5 13.25a.75.75 0 1 0 0-1.5.75.75 0 0 0 0 1.5z"/>
  <path fill-rule="evenodd" d="M10 11a2 2 0 0 1 2-2V7.5a2.5 2.5 0 0 1 5 0V9a2 2 0 0 1 2 2v3a2 2 0 0 1-2 2h-5a2 2 0 0 1-2-2v-3zm7-.5h-5a.5.5 0 0 0-.5.5v3a.5.5 0 0 0 .5.5h5a.5.5 0 0 0 .5-.5v-3a.5.5 0 0 0-.5-.5zm-1.5-3a1 1 0 1 0-2 0V9h2V7.5z"/>
</svg>
