<svg xmlns="http://www.w3.org/2000/svg" viewBox="0 0 20 16" fill="currentColor">
  <path fill-rule="evenodd" d="M11.69 3.75a3.75 3.75 0 1 1-7.5 0 3.75 3.75 0 0 1 7.5 0Zm-1.5 0a2.25 2.25 0 1 0-4.5 0 2.25 2.25 0 0 0 4.5 0Z"/>
  <path d="M2.93 11.3c.33-.4.8-.68 1.35-.76 1.3-.19 2.62-.28 3.94-.26A2.25 2.25 0 0 1 10.25 9h1.17c-2.44-.31-4.91-.3-7.35.05-.93.13-1.73.6-2.3 1.28-.75.92-.49 2.27.33 3.14a7.98 7.98 0 0 0 9.9 1.42V13.5h-.6a6.47 6.47 0 0 1-8.2-1.06 1.28 1.28 0 0 1-.37-.72.59.59 0 0 1 .1-.43Z"/>
  <path d="M15 7.25v3.25h3.25a.75.75 0 0 1 0 1.5H15v3.25a.75.75 0 0 1-1.5 0V12h-3.25a.75.75 0 0 1 0-1.5h3.25V7.25a.75.75 0 0 1 1.5 0Z"/>
</svg>
