<svg xmlns="http://www.w3.org/2000/svg" viewBox="0 0 20 16" fill="currentColor"><path fill-rule="evenodd" d="M12.6 3.75a3.75 3.75 0 1 1-7.5 0 3.75 3.75 0 0 1 7.5 0Zm-1.5 0a2.25 2.25 0 1 0-4.5 0 2.25 2.25 0 0 0 4.5 0Z"/><path d="M10 15.25c0 .23.04.45.12.65-.4.06-.82.1-1.24.1h-.04a7.98 7.98 0 0 1-6.21-2.98c-.72-.9-.92-2.22-.07-2.99.39-.35.88-.6 1.43-.69a29.3 29.3 0 0 1 6.2-.39 1.74 1.74 0 0 0-.04 1.5c-1.98-.09-3.96.03-5.9.37-.27.04-.5.16-.69.33-.02.02-.07.06-.06.23.01.2.11.47.3.7a6.5 6.5 0 0 0 5.04 2.42h.03c.48 0 .94-.05 1.38-.15-.16.26-.25.57-.25.9ZM11.75 9a.75.75 0 0 0 0 1.5h5.5a.75.75 0 0 0 0-1.5h-5.5ZM11 12.5c0-.41.34-.75.75-.75h5.5a.75.75 0 0 1 0 1.5h-5.5a.75.75 0 0 1-.75-.75Zm.75 2a.75.75 0 0 0 0 1.5h5.5a.75.75 0 0 0 0-1.5h-5.5Z"/></svg>