<svg xmlns="http://www.w3.org/2000/svg" viewBox="0 0 20 16" fill="currentColor"><path fill-rule="evenodd" d="M8.86 7.5a3.75 3.75 0 1 0 0-7.5 3.75 3.75 0 0 0 0 7.5Zm0-6a2.25 2.25 0 1 1 0 4.5 2.25 2.25 0 0 1 0-4.5Z"/><path d="M10.2 15.89A2 2 0 0 1 10 15v-.6c-.37.06-.74.1-1.13.1h-.03a6.48 6.48 0 0 1-5.05-2.42 1.3 1.3 0 0 1-.29-.7c0-.17.04-.21.06-.23.19-.17.42-.29.68-.33 2.13-.37 4.3-.48 6.45-.33a2 2 0 0 1 .32-.23c.03-.44.14-.85.31-1.23-2.44-.21-4.9-.1-7.33.31-.55.1-1.04.34-1.43.7-.85.76-.65 2.09.07 2.98A7.98 7.98 0 0 0 8.83 16h.05c.45 0 .9-.04 1.33-.11Z"/><path fill-rule="evenodd" d="M17 11v-.5a2.5 2.5 0 0 0-5 0v.5a1 1 0 0 0-1 1v3a1 1 0 0 0 1 1h5a1 1 0 0 0 1-1v-3a1 1 0 0 0-1-1Zm-1.5 0h-2v-.5a1 1 0 1 1 2 0v.5Zm-.25 2.5a.75.75 0 1 1-1.5 0 .75.75 0 0 1 1.5 0Z"/></svg>