<svg xmlns="http://www.w3.org/2000/svg" viewBox="0 0 20 16" fill="currentColor">
  <path fill-rule="evenodd" d="M13.69 3.75a3.75 3.75 0 1 1-7.5 0 3.75 3.75 0 0 1 7.5 0zm-1.5 0a2.25 2.25 0 1 0-4.5 0 2.25 2.25 0 0 0 4.5 0zm-8.1 9.72c-.8-.87-1.07-2.22-.31-3.14a3.64 3.64 0 0 1 2.29-1.28 27.35 27.35 0 0 1 7.74 0 3.64 3.64 0 0 1 2.29 1.28c.76.92.5 2.27-.32 3.14A7.98 7.98 0 0 1 9.94 16a7.98 7.98 0 0 1-5.84-2.53zm.84-2.18a.59.59 0 0 0-.1.43c.03.23.15.5.36.72a6.48 6.48 0 0 0 4.75 2.06 6.48 6.48 0 0 0 4.74-2.06 1.35 1.35 0 0 0 .36-.72c.03-.2-.02-.34-.1-.43a2.14 2.14 0 0 0-1.35-.75 25.85 25.85 0 0 0-7.31 0 2.14 2.14 0 0 0-1.35.75z"/>
</svg>
