<svg xmlns="http://www.w3.org/2000/svg" viewBox="0 0 20 16" fill="currentColor">
  <path fill-rule="evenodd" d="M11.44 3.75a3.75 3.75 0 1 1-7.5 0 3.75 3.75 0 0 1 7.5 0Zm-1.5 0a2.25 2.25 0 1 0-4.5 0 2.25 2.25 0 0 0 4.5 0Z"/>
  <path d="M2.68 11.3c.33-.4.8-.68 1.35-.76 1.9-.27 3.81-.33 5.72-.18.16-.52.4-1 .7-1.44a27.24 27.24 0 0 0-6.63.13c-.93.13-1.73.6-2.3 1.28-.75.92-.49 2.27.33 3.14a7.98 7.98 0 0 0 8.84 1.95 5.5 5.5 0 0 1-.77-1.31 6.49 6.49 0 0 1-6.98-1.67 1.4 1.4 0 0 1-.36-.72.59.59 0 0 1 .1-.43Z"/>
  <path fill-rule="evenodd" d="M19 12a4 4 0 1 1-8 0 4 4 0 0 1 8 0Zm-3.25-.31v-1.44a.75.75 0 0 0-1.5 0v1.65c0 .26.1.52.3.7l.39.4A.75.75 0 0 0 16 11.94l-.25-.25Z"/>
</svg>
