<svg xmlns="http://www.w3.org/2000/svg" viewBox="0 0 20 16" fill="currentColor"><path fill-rule="evenodd" d="M12.6 3.75a3.75 3.75 0 1 1-7.5 0 3.75 3.75 0 0 1 7.5 0Zm-1.5 0a2.25 2.25 0 1 0-4.5 0 2.25 2.25 0 0 0 4.5 0Z"/><path d="M10.08 15.33c.22.25.52.38.83.4-.65.18-1.33.27-2.03.27h-.04a7.98 7.98 0 0 1-6.21-2.98c-.72-.9-.92-2.22-.07-2.99.39-.35.88-.6 1.43-.69 1.94-.33 3.9-.47 5.87-.4a5 5 0 0 0-.33.48l-.01.01-.08.14v.01c-.15.27-.28.55-.37.84-1.62 0-3.23.12-4.83.4-.26.04-.5.16-.68.33-.02.02-.07.06-.06.23.01.2.11.47.3.7a6.5 6.5 0 0 0 5.04 2.42h.03l.6-.03.05.1c.17.27.35.52.56.76Z"/><path fill-rule="evenodd" d="M17.69 11.03c.1-.06.14-.18.1-.29a3.98 3.98 0 0 0-.29-.67l-.07-.13a4 4 0 0 0-.44-.6.24.24 0 0 0-.3-.05l-.59.34a.28.28 0 0 1-.29-.02 3 3 0 0 0-.65-.38A.26.26 0 0 1 15 9v-.67a.24.24 0 0 0-.19-.24 4.02 4.02 0 0 0-1.62 0 .24.24 0 0 0-.19.24V9c0 .11-.07.2-.16.24a3 3 0 0 0-.65.38.26.26 0 0 1-.3.02l-.58-.34a.24.24 0 0 0-.3.05 4.4 4.4 0 0 0-.44.6l-.07.13c-.12.21-.22.44-.3.67-.03.11.01.23.11.29l.59.33c.09.06.14.16.12.27a3.02 3.02 0 0 0 0 .74c.02.1-.03.21-.12.27l-.59.33a.24.24 0 0 0-.1.29c.07.23.17.46.29.67l.07.13c.13.21.28.42.44.6.08.09.2.1.3.05l.59-.34c.09-.05.2-.04.29.02a3 3 0 0 0 .65.38c.1.04.16.13.16.24v.67c0 .11.08.21.19.24a4.01 4.01 0 0 0 1.62 0 .24.24 0 0 0 .19-.24v-.67c0-.11.07-.2.16-.24a3 3 0 0 0 .65-.38.3.3 0 0 1 .3-.02l.58.34c.1.05.22.04.3-.05.16-.18.31-.39.44-.6l.07-.13c.12-.21.22-.44.3-.67a.24.24 0 0 0-.11-.29l-.59-.33a.26.26 0 0 1-.12-.27 3.04 3.04 0 0 0 0-.74.26.26 0 0 1 .12-.27l.59-.33ZM14 10.5a1.5 1.5 0 1 1 0 3 1.5 1.5 0 0 1 0-3Z"/></svg>