<svg xmlns="http://www.w3.org/2000/svg" viewBox="0 0 20 16" fill="currentColor">
  <path fill-rule="evenodd" d="M6.07 11.72a35.35 35.35 0 0 1 7.86 0c.69.08 1.23.35 1.56.66a.82.82 0 0 1-.27.37c-1.25 1.05-3.1 1.75-5.22 1.75s-3.97-.7-5.22-1.75a.8.8 0 0 1-.27-.36c.33-.32.87-.6 1.56-.67zm9.44.69zM3.48 11.29c-.8.76-.53 1.88.34 2.6A9.67 9.67 0 0 0 10 16a9.6 9.6 0 0 0 6.18-2.1c.87-.73 1.15-1.85.34-2.6a4.21 4.21 0 0 0-2.42-1.07 36.85 36.85 0 0 0-8.2 0c-.98.1-1.83.5-2.42 1.06z"/>
  <path d="M14 6v-.5a4 4 0 0 0-7.93-.75c-.08.41-.4.75-.82.75-.41 0-.76-.34-.7-.75a5.5 5.5 0 0 1 10.95.75V6a3 3 0 0 1-3 3h-1.75a.76.76 0 0 1-.12 0 1 1 0 0 1-.13 0h-1a1 1 0 1 1 0-2h1a1 1 0 0 1 .87.5h1.13A1.5 1.5 0 0 0 14 6z"/>
  <path d="M11.34 6.18a1.5 1.5 0 1 0-2.68 0 2 2 0 0 0-1.04 1.14 3 3 0 1 1 5.27-1 .5.5 0 0 1-.39.18h-.68a2 2 0 0 0-.48-.32z"/>
</svg>
