<svg xmlns="http://www.w3.org/2000/svg" viewBox="0 0 20 16" fill="currentColor">
  <path fill-rule="evenodd" d="M11.687 3.75a3.75 3.75 0 1 1-7.5 0 3.75 3.75 0 0 1 7.5 0zm-1.5 0a2.25 2.25 0 1 0-4.5 0 2.25 2.25 0 0 0 4.5 0z"/>
  <path d="M2.933 11.291a2.14 2.14 0 0 1 1.348-.753 25.87 25.87 0 0 1 2.765-.245A2.253 2.253 0 0 1 8.165 8.78a27.355 27.355 0 0 0-4.096.274 3.64 3.64 0 0 0-2.29 1.28c-.762.917-.496 2.266.32 3.136A7.978 7.978 0 0 0 7.937 16c1.28 0 2.49-.3 3.563-.835v-1.727A6.466 6.466 0 0 1 7.937 14.5a6.478 6.478 0 0 1-4.744-2.056 1.35 1.35 0 0 1-.359-.72c-.027-.211.023-.342.099-.433z"/>
  <path d="M14.5 6.25V10h3.75a.75.75 0 0 1 0 1.5H14.5v3.75a.75.75 0 0 1-1.5 0V11.5H9.25a.75.75 0 0 1 0-1.5H13V6.25a.75.75 0 0 1 1.5 0z"/>
</svg>
