<svg xmlns="http://www.w3.org/2000/svg" viewBox="0 0 20 16" fill="currentColor">
  <path fill-rule="evenodd" d="M11.6 3.75a3.75 3.75 0 1 1-7.5 0 3.75 3.75 0 0 1 7.5 0Zm-1.5 0a2.25 2.25 0 1 0-4.5 0 2.25 2.25 0 0 0 4.5 0Z"/>
  <path d="M9.94 14.16c.2.47.47.91.8 1.3-.9.35-1.86.54-2.86.54h-.04a7.98 7.98 0 0 1-6.21-2.98c-.72-.9-.92-2.22-.07-2.99.39-.35.88-.6 1.43-.69 2.44-.42 4.92-.52 7.38-.3a5.3 5.3 0 0 0-.66 1.45 27.17 27.17 0 0 0-6.47.33c-.26.04-.5.16-.68.33-.02.02-.07.06-.06.23.01.2.11.47.3.7a6.5 6.5 0 0 0 5.04 2.42h.03c.73 0 1.42-.12 2.07-.34Z"/>
  <path fill-rule="evenodd" d="M19 12a4 4 0 1 1-8 0 4 4 0 0 1 8 0Zm-3.25-.31v-1.44a.75.75 0 0 0-1.5 0v1.65c0 .26.1.52.3.7l.39.4A.75.75 0 0 0 16 11.94l-.25-.25Z"/>
</svg>
