<svg xmlns="http://www.w3.org/2000/svg" viewBox="0 0 20 16" fill="currentColor">
  <path fill-rule="evenodd" d="M7.69 7.5a3.75 3.75 0 1 0 0-7.5 3.75 3.75 0 0 0 0 7.5Zm0-1.5a2.25 2.25 0 1 1 0-4.5 2.25 2.25 0 0 1 0 4.5Z"/>
  <path d="M4.03 10.54c-.54.08-1.02.35-1.35.75a.59.59 0 0 0-.1.43c.03.23.15.5.36.72a6.48 6.48 0 0 0 7.56 1.42V15c0 .16.02.32.04.47a7.98 7.98 0 0 1-8.7-2c-.8-.87-1.07-2.22-.31-3.14a3.64 3.64 0 0 1 2.29-1.28c2.56-.36 5.17-.36 7.74 0 .18.03.36.07.53.12-.6.24-1.1.7-1.36 1.29a25.85 25.85 0 0 0-6.7.08Z"/>
  <path fill-rule="evenodd" d="M17.5 10.5V10a2 2 0 1 0-4 0v.5H13a1 1 0 0 0-1 1V15a1 1 0 0 0 1 1h5a1 1 0 0 0 1-1v-3.5a1 1 0 0 0-1-1h-.5Zm-1.5 0h-1V10a.5.5 0 0 1 1 0v.5Zm.25 2.75a.75.75 0 1 1-1.5 0 .75.75 0 0 1 1.5 0Z"/>
</svg>
