<svg xmlns="http://www.w3.org/2000/svg" viewBox="0 0 20 16" fill="currentColor">
  <path fill-rule="evenodd" d="M11.687 3.75a3.75 3.75 0 1 1-7.5 0 3.75 3.75 0 0 1 7.5 0zm-1.5 0a2.25 2.25 0 1 0-4.5 0 2.25 2.25 0 0 0 4.5 0z"/>
  <path d="M2.933 11.291a2.14 2.14 0 0 1 1.348-.753 25.849 25.849 0 0 1 3.939-.259A2.25 2.25 0 0 1 10.25 9h1.167a27.355 27.355 0 0 0-7.348.053 3.64 3.64 0 0 0-2.29 1.28c-.762.917-.496 2.266.32 3.136A7.978 7.978 0 0 0 7.937 16 7.964 7.964 0 0 0 12 14.893V13.5h-.597a6.466 6.466 0 0 1-3.466 1 6.478 6.478 0 0 1-4.744-2.056 1.35 1.35 0 0 1-.359-.72c-.027-.211.023-.342.099-.433z"/>
  <path d="M15 7.25v3.25h3.25a.75.75 0 0 1 0 1.5H15v3.25a.75.75 0 0 1-1.5 0V12h-3.25a.75.75 0 0 1 0-1.5h3.25V7.25a.75.75 0 0 1 1.5 0z"/>
</svg>
