<svg xmlns="http://www.w3.org/2000/svg" viewBox="0 0 20 16" fill="currentColor"><path fill-rule="evenodd" d="M12.6 3.75a3.75 3.75 0 1 1-7.5 0 3.75 3.75 0 0 1 7.5 0Zm-1.5 0a2.25 2.25 0 1 0-4.5 0 2.25 2.25 0 0 0 4.5 0Z"/><path d="M9.64 14.45c.29.5.65.95 1.09 1.33-.6.14-1.22.22-1.85.22h-.04a7.98 7.98 0 0 1-6.21-2.98c-.72-.9-.92-2.22-.07-2.99.39-.35.88-.6 1.43-.69 2-.35 4.03-.48 6.05-.4-.34.45-.6.95-.79 1.49-1.67-.03-3.35.1-5 .39-.27.04-.5.16-.69.33-.02.02-.07.06-.06.23.01.2.11.47.3.7a6.5 6.5 0 0 0 5.04 2.42h.03c.26 0 .52-.02.77-.05Z"/><path fill-rule="evenodd" d="M18 12a4 4 0 1 1-8 0 4 4 0 0 1 8 0Zm-3.25-.31v-1.44a.75.75 0 0 0-1.5 0v1.65c0 .26.1.52.3.7l.64.65a.75.75 0 0 0 1.06-1.06l-.5-.5Z"/></svg>