<svg xmlns="http://www.w3.org/2000/svg" viewBox="0 0 20 16" fill="currentColor"><path d="M16.5 11.11v.14a.75.75 0 0 0 1.5 0V10a2.75 2.75 0 0 0-2.75-2.75h-2.24l-.01.01v.94c.39.05.77.1 1.16.18.36.07.7.2 1.01.37h.08c.69 0 1.25.56 1.25 1.25v1.11ZM5.84 8.38c-.36.07-.7.2-1.01.37h-.08c-.69 0-1.25.56-1.25 1.25v1.25a.75.75 0 0 1-1.5 0V10a2.75 2.75 0 0 1 2.75-2.75h2.24l.01.01v.94c-.39.05-.77.1-1.16.18ZM2 4.75a1.75 1.75 0 1 0 3.5 0 1.75 1.75 0 0 0-3.5 0ZM16.25 6.5a1.75 1.75 0 1 1 0-3.5 1.75 1.75 0 0 1 0 3.5Z"/><path fill-rule="evenodd" d="M13.25 4.25a3.25 3.25 0 1 1-6.5 0 3.25 3.25 0 0 1 6.5 0Zm-1.5 0a1.75 1.75 0 1 0-3.5 0 1.75 1.75 0 0 0 3.5 0Zm3.22 8.22A6.23 6.23 0 0 1 10.02 15h-.04c-2 0-3.78-1-4.95-2.53-.6-.8-.8-1.98-.03-2.62a2.2 2.2 0 0 1 1.02-.49c2.63-.48 5.33-.48 7.96 0 .39.07.74.25 1.03.49.76.65.56 1.82-.04 2.62ZM6 11.01a1 1 0 0 0 .23.55 4.73 4.73 0 0 0 3.75 1.94h.04a4.7 4.7 0 0 0 3.75-1.94 1.1 1.1 0 0 0 .23-.6.7.7 0 0 0-.3-.12 20.53 20.53 0 0 0-7.4 0 .7.7 0 0 0-.3.13.4.4 0 0 0 0 .04Z"/></svg>