<svg xmlns="http://www.w3.org/2000/svg" viewBox="0 0 20 16" fill="currentColor"><path fill-rule="evenodd" d="M8.86 7.5a3.75 3.75 0 1 0 0-7.5 3.75 3.75 0 0 0 0 7.5Zm0-6a2.25 2.25 0 1 1 0 4.5 2.25 2.25 0 0 1 0-4.5Zm3.39 13.75v-1.5h-.36a6.4 6.4 0 0 1-3.02.75h-.03a6.48 6.48 0 0 1-5.05-2.42 1.3 1.3 0 0 1-.29-.7c0-.17.04-.21.06-.23.19-.17.42-.29.68-.33 1.89-.33 3.8-.45 5.7-.38.25-.12.52-.19.81-.19h1.5V9.12a28.67 28.67 0 0 0-8.26.22c-.55.1-1.04.34-1.43.7-.85.76-.65 2.09.07 2.98A7.98 7.98 0 0 0 8.83 16h.05c1.2 0 2.35-.27 3.37-.75Z"/><path d="M14.75 11.25v-2.5a.75.75 0 0 0-1.5 0v2.5h-2.5a.75.75 0 0 0 0 1.5h2.5v2.5a.75.75 0 0 0 1.5 0v-2.5h2.5a.75.75 0 0 0 0-1.5h-2.5Z"/><path fill-rule="evenodd" d="M8.86 7.5a3.75 3.75 0 1 0 0-7.5 3.75 3.75 0 0 0 0 7.5Zm0-6a2.25 2.25 0 1 1 0 4.5 2.25 2.25 0 0 1 0-4.5Z"/><path d="M12.25 15.25v-1.5h-.36a6.4 6.4 0 0 1-3.02.75h-.03a6.48 6.48 0 0 1-5.05-2.42 1.3 1.3 0 0 1-.29-.7c0-.17.04-.21.06-.23.19-.17.42-.29.68-.33 1.89-.33 3.8-.45 5.7-.38.25-.12.52-.19.81-.19h1.5V9.12a28.67 28.67 0 0 0-8.26.22c-.55.1-1.04.34-1.43.7-.85.76-.65 2.09.07 2.98A7.98 7.98 0 0 0 8.83 16h.05c1.2 0 2.35-.27 3.37-.75Z"/><path d="M14.75 11.25v-2.5a.75.75 0 0 0-1.5 0v2.5h-2.5a.75.75 0 0 0 0 1.5h2.5v2.5a.75.75 0 0 0 1.5 0v-2.5h2.5a.75.75 0 0 0 0-1.5h-2.5Z"/></svg>