<svg xmlns="http://www.w3.org/2000/svg" viewBox="0 0 20 16" fill="currentColor">
  <path fill-rule="evenodd" d="M11.69 3.75a3.75 3.75 0 1 1-7.5 0 3.75 3.75 0 0 1 7.5 0Zm-1.5 0a2.25 2.25 0 1 0-4.5 0 2.25 2.25 0 0 0 4.5 0Z"/>
  <path d="M2.93 11.3c.33-.4.8-.68 1.35-.76 1.42-.2 2.86-.29 4.3-.25.1-.55.35-1.06.69-1.48-1.74-.08-3.48 0-5.2.24-.93.13-1.73.6-2.3 1.28-.75.92-.49 2.27.33 3.14a7.98 7.98 0 0 0 6.97 2.45 3.48 3.48 0 0 1-.54-1.45l-.6.03a6.48 6.48 0 0 1-4.74-2.06 1.4 1.4 0 0 1-.36-.72.59.59 0 0 1 .1-.43Zm12.32 1.2a.75.75 0 1 1-1.5 0 .75.75 0 0 1 1.5 0Z"/>
  <path fill-rule="evenodd" d="M17 9a2 2 0 0 1 2 2v3a2 2 0 0 1-2 2h-5a2 2 0 0 1-2-2v-3c0-1.1.9-2 2-2v-.5a2.5 2.5 0 0 1 5 0V9Zm-1.5 0v-.5a1 1 0 1 0-2 0V9h2Zm-4 2v3c0 .28.22.5.5.5h5a.5.5 0 0 0 .5-.5v-3a.5.5 0 0 0-.5-.5h-5a.5.5 0 0 0-.5.5Z"/>
</svg>
