<svg xmlns="http://www.w3.org/2000/svg" viewBox="0 0 20 16" fill="currentColor">
  <path fill-rule="evenodd" d="M11.687 3.75a3.75 3.75 0 1 1-7.5 0 3.75 3.75 0 0 1 7.5 0zm-1.5 0a2.25 2.25 0 1 0-4.5 0 2.25 2.25 0 0 0 4.5 0z"/>
  <path d="M2.933 11.291a2.14 2.14 0 0 1 1.348-.753 25.852 25.852 0 0 1 4.301-.252 1.91 1.91 0 0 1 .12-1.058c.06-.147.126-.292.198-.433a27.31 27.31 0 0 0-4.831.258 3.64 3.64 0 0 0-2.29 1.28c-.762.917-.496 2.266.32 3.136A7.978 7.978 0 0 0 7.937 16a8.02 8.02 0 0 0 2.189-.303 1.928 1.928 0 0 1-.613-.522 6.02 6.02 0 0 1-.4-.584l-.007-.011-.096-.167a6.553 6.553 0 0 1-1.073.087 6.478 6.478 0 0 1-4.744-2.056 1.35 1.35 0 0 1-.359-.72c-.027-.211.023-.342.099-.433z"/>
  <path fill-rule="evenodd" d="M10.09 13.204c.066.162.142.32.226.471l.082.143c.092.152.192.298.3.438a.465.465 0 0 0 .604.104l.227-.13a.55.55 0 0 1 .606.054c.235.18.494.33.77.446a.551.551 0 0 1 .351.498v.261c0 .234.162.44.393.47a4.54 4.54 0 0 0 1.214 0 .465.465 0 0 0 .393-.47v-.261a.55.55 0 0 1 .351-.498c.277-.116.535-.266.77-.446a.55.55 0 0 1 .607-.055l.226.131c.203.117.46.08.604-.104a4.52 4.52 0 0 0 .3-.438l.083-.143c.084-.152.16-.31.226-.471a.465.465 0 0 0-.211-.575l-.228-.131a.551.551 0 0 1-.256-.553 3.536 3.536 0 0 0 0-.89.55.55 0 0 1 .256-.553l.228-.131a.465.465 0 0 0 .21-.575 4.487 4.487 0 0 0-.226-.471l-.082-.143a4.493 4.493 0 0 0-.3-.438.465.465 0 0 0-.604-.104l-.226.13a.55.55 0 0 1-.607-.054 3.498 3.498 0 0 0-.77-.446.551.551 0 0 1-.35-.498v-.261a.465.465 0 0 0-.394-.47 4.54 4.54 0 0 0-1.214 0 .465.465 0 0 0-.393.47v.261a.551.551 0 0 1-.35.498 3.494 3.494 0 0 0-.77.446.55.55 0 0 1-.607.055l-.227-.131a.465.465 0 0 0-.604.104 4.59 4.59 0 0 0-.3.439l-.082.142c-.084.152-.16.31-.226.471a.465.465 0 0 0 .21.575l.228.131a.55.55 0 0 1 .256.553 3.536 3.536 0 0 0 0 .89.551.551 0 0 1-.256.553l-.227.13a.465.465 0 0 0-.211.576zm2.166-1.704a2 2 0 1 1 4 0 2 2 0 0 1-4 0z"/>
</svg>
