<svg xmlns="http://www.w3.org/2000/svg" viewBox="0 0 20 16" fill="currentColor">
  <path fill-rule="evenodd" d="M11.687 3.75c0 .559-.122 1.09-.341 1.566a2.009 2.009 0 0 0-.34.59 3.17 3.17 0 0 1-.048.066 1.945 1.945 0 0 0-1.81.574c-.268.284-.51.593-.724.923a3.75 3.75 0 1 1 3.263-3.719zm-1.5 0a2.25 2.25 0 1 0-4.5 0 2.25 2.25 0 0 0 4.5 0z"/>
  <path d="M4.069 9.053a27.354 27.354 0 0 1 3.703-.275c-.042.115-.08.232-.116.35-.12.4-.105.797.009 1.151a25.849 25.849 0 0 0-3.384.259 2.14 2.14 0 0 0-1.348.753c-.076.09-.126.222-.099.433.03.228.15.497.36.72a6.478 6.478 0 0 0 5.2 2.04c.22.348.473.672.754.97.143.152.302.275.471.369A8.026 8.026 0 0 1 7.937 16 7.978 7.978 0 0 1 2.1 13.47c-.816-.871-1.082-2.22-.32-3.138a3.64 3.64 0 0 1 2.29-1.28z"/>
  <path fill-rule="evenodd" d="m18.26 8.583-.091-.158a5.02 5.02 0 0 0-.646-.851.47.47 0 0 0-.578-.074l-.31.178a.542.542 0 0 1-.566-.028 3.985 3.985 0 0 0-.38-.22.542.542 0 0 1-.307-.476v-.358a.47.47 0 0 0-.354-.464 5.014 5.014 0 0 0-2.292 0 .47.47 0 0 0-.354.464v.358a.542.542 0 0 1-.307.476 4.08 4.08 0 0 0-.38.22.542.542 0 0 1-.567.028l-.31-.178a.47.47 0 0 0-.578.074c-.244.26-.46.544-.645.85l-.092.16a4.97 4.97 0 0 0-.41.975.47.47 0 0 0 .224.538l.311.18c.177.101.27.3.26.503a4.065 4.065 0 0 0 0 .44.542.542 0 0 1-.26.504l-.31.18a.47.47 0 0 0-.226.537c.103.342.242.669.412.976l.09.158c.185.307.402.592.646.851a.47.47 0 0 0 .579.074l.309-.178a.542.542 0 0 1 .566.028c.123.08.25.153.381.22a.542.542 0 0 1 .307.476v.358a.47.47 0 0 0 .354.464 5.015 5.015 0 0 0 2.292 0 .47.47 0 0 0 .354-.464v-.358c0-.203.125-.384.306-.476a4.08 4.08 0 0 0 .38-.22.542.542 0 0 1 .567-.028l.31.178c.189.11.429.085.578-.074a5.06 5.06 0 0 0 .646-.851l.09-.158a4.98 4.98 0 0 0 .412-.976.47.47 0 0 0-.225-.538l-.311-.18a.542.542 0 0 1-.26-.503 4.128 4.128 0 0 0 0-.44.542.542 0 0 1 .26-.504l.31-.18a.47.47 0 0 0 .226-.537 4.97 4.97 0 0 0-.411-.976zM13.882 8.5a2.5 2.5 0 1 1 0 5 2.5 2.5 0 0 1 0-5z"/>
</svg>
