<svg xmlns="http://www.w3.org/2000/svg" viewBox="0 0 20 16" fill="currentColor">
  <path fill-rule="evenodd" d="M11.69 3.75a3.74 3.74 0 0 1-1.04 2.6 1.94 1.94 0 0 0-1.85.75 5.76 5.76 0 0 0-.24.35 3.75 3.75 0 1 1 3.13-3.7zm-1.5 0a2.25 2.25 0 1 0-4.5 0 2.25 2.25 0 0 0 4.5 0z"/>
  <path d="M4.07 9.05a27.36 27.36 0 0 1 3.84-.27 1.93 1.93 0 0 0 .28 1.5 25.86 25.86 0 0 0-3.9.26 2.14 2.14 0 0 0-1.36.75.59.59 0 0 0-.1.43c.03.23.15.5.36.72a6.48 6.48 0 0 0 5.32 2.04l.29.42a1.92 1.92 0 0 0 1.41.77 8 8 0 0 1-2.27.33 7.98 7.98 0 0 1-5.84-2.53c-.82-.87-1.08-2.22-.32-3.14a3.64 3.64 0 0 1 2.29-1.28z"/>
  <path fill-rule="evenodd" d="m9.4 12.97.22.45.1.16c.08.14.18.28.28.42.14.19.4.23.61.11l.37-.21a.26.26 0 0 1 .3.04c.44.4.96.7 1.53.88a.26.26 0 0 1 .19.25v.42c0 .24.17.45.4.47a5.06 5.06 0 0 0 1.2 0 .47.47 0 0 0 .4-.47v-.42a.26.26 0 0 1 .19-.25 4 4 0 0 0 1.53-.88.26.26 0 0 1 .3-.04l.37.21A.47.47 0 0 0 18 14l.29-.43.09-.15.22-.45a.47.47 0 0 0-.21-.6l-.37-.2a.26.26 0 0 1-.12-.29 4.02 4.02 0 0 0 0-1.76.26.26 0 0 1 .12-.29l.37-.21a.47.47 0 0 0 .2-.59 4.97 4.97 0 0 0-.21-.45l-.1-.16A4.99 4.99 0 0 0 18 8a.47.47 0 0 0-.61-.11l-.37.21a.26.26 0 0 1-.3-.04 4 4 0 0 0-1.53-.88.26.26 0 0 1-.2-.25v-.42a.47.47 0 0 0-.4-.47 5.05 5.05 0 0 0-1.19 0 .47.47 0 0 0-.4.47v.42a.26.26 0 0 1-.19.25 4 4 0 0 0-1.53.88.26.26 0 0 1-.3.04l-.37-.21A.47.47 0 0 0 10 8a5 5 0 0 0-.29.42l-.09.16a4.7 4.7 0 0 0-.22.45.47.47 0 0 0 .21.59l.37.21a.26.26 0 0 1 .12.29 4.01 4.01 0 0 0 0 1.76.26.26 0 0 1-.12.29l-.37.21a.47.47 0 0 0-.2.59zM11.5 11a2.5 2.5 0 1 1 5 0 2.5 2.5 0 0 1-5 0z"/>
</svg>
