<svg xmlns="http://www.w3.org/2000/svg" viewBox="0 0 20 16" fill="currentColor">
  <path fill-rule="evenodd" d="M11.69 3.75a3.75 3.75 0 1 1-7.5 0 3.75 3.75 0 0 1 7.5 0zm-1.5 0a2.25 2.25 0 1 0-4.5 0 2.25 2.25 0 0 0 4.5 0z"/>
  <path d="M2.93 11.3a2.14 2.14 0 0 1 1.35-.76 25.87 25.87 0 0 1 2.77-.25 2.25 2.25 0 0 1 1.11-1.51 27.36 27.36 0 0 0-4.1.27 3.64 3.64 0 0 0-2.28 1.28c-.76.92-.5 2.27.32 3.14A7.98 7.98 0 0 0 7.94 16a8 8 0 0 0 3.56-.83v-1.73a6.47 6.47 0 0 1-3.56 1.06 6.48 6.48 0 0 1-4.75-2.06 1.35 1.35 0 0 1-.36-.72.59.59 0 0 1 .1-.43z"/>
  <path d="M14.5 6.25V10h3.75a.75.75 0 0 1 0 1.5H14.5v3.75a.75.75 0 0 1-1.5 0V11.5H9.25a.75.75 0 0 1 0-1.5H13V6.25a.75.75 0 0 1 1.5 0z"/>
</svg>
