<svg xmlns="http://www.w3.org/2000/svg" viewBox="0 0 20 16" fill="currentColor">
  <path fill-rule="evenodd" d="M11.06 5.83a3.75 3.75 0 1 0-1.12 1.09c.33-.4.7-.77 1.12-1.09ZM7.94 6a2.25 2.25 0 1 1 0-4.5 2.25 2.25 0 0 1 0 4.5Z"/>
  <path d="M8.88 8.8a26.7 26.7 0 0 0-4.81.25c-.93.13-1.73.6-2.3 1.28-.75.92-.49 2.27.33 3.14a7.98 7.98 0 0 0 8.32 2.14 6.52 6.52 0 0 1-1-1.28 6.52 6.52 0 0 1-6.23-1.89 1.4 1.4 0 0 1-.36-.72.59.59 0 0 1 .1-.43c.33-.4.8-.67 1.35-.75 1.41-.2 2.84-.29 4.26-.26.06-.51.17-1.01.34-1.49Zm5.37.45v1.54c0 .33.13.65.37.89l.32.32A.75.75 0 0 0 16 10.94l-.25-.25V9.25a.75.75 0 0 0-1.5 0Z"/>
  <path fill-rule="evenodd" d="M15 16a5 5 0 1 0 0-10 5 5 0 0 0 0 10Zm0-1.5a3.5 3.5 0 1 1 0-7 3.5 3.5 0 0 1 0 7Z"/>
</svg>
