<svg xmlns="http://www.w3.org/2000/svg" viewBox="0 0 20 16" fill="currentColor">
  <path fill-rule="evenodd" d="M11.69 3.75a3.75 3.75 0 1 1-7.5 0 3.75 3.75 0 0 1 7.5 0zm-1.5 0a2.25 2.25 0 1 0-4.5 0 2.25 2.25 0 0 0 4.5 0z"/>
  <path d="M2.93 11.3a2.14 2.14 0 0 1 1.35-.76 25.85 25.85 0 0 1 4.47-.25 2.24 2.24 0 0 1-.2-1.5 27.36 27.36 0 0 0-4.48.26 3.64 3.64 0 0 0-2.3 1.28c-.75.92-.49 2.27.33 3.14a7.98 7.98 0 0 0 6.52 2.5 2.25 2.25 0 0 1 .02-1.5 6.48 6.48 0 0 1-5.45-2.03 1.35 1.35 0 0 1-.36-.72.59.59 0 0 1 .1-.43zm7.82 3.2a.75.75 0 0 0 0 1.5h7.5a.75.75 0 0 0 0-1.5h-7.5zM10 12.25a.75.75 0 0 1 .75-.75h7.5a.75.75 0 0 1 0 1.5h-7.5a.75.75 0 0 1-.75-.75zm.75-3.75a.75.75 0 0 0 0 1.5h7.5a.75.75 0 0 0 0-1.5h-7.5z"/>
</svg>
