<svg xmlns="http://www.w3.org/2000/svg" viewBox="0 0 20 16" fill="currentColor">
  <path fill-rule="evenodd" d="M9.94 7.5a3.75 3.75 0 1 0 0-7.5 3.75 3.75 0 0 0 0 7.5zm0-1.5a2.25 2.25 0 1 1 0-4.5 2.25 2.25 0 0 1 0 4.5zm-6.16 4.33c-.76.92-.5 2.27.32 3.14a7.98 7.98 0 0 0 11.68 0c.81-.87 1.08-2.22.31-3.14a3.64 3.64 0 0 0-2.28-1.28 27.35 27.35 0 0 0-7.74 0c-.93.13-1.73.6-2.3 1.28zm2.5.2c2.43-.34 4.89-.34 7.31 0 .55.09 1.02.36 1.35.76.08.1.13.22.1.43-.03.23-.15.5-.36.72a6.48 6.48 0 0 1-9.49 0 1.4 1.4 0 0 1-.36-.72.59.59 0 0 1 .1-.43c.33-.4.8-.67 1.35-.75zM2.25 6.5a2.25 2.25 0 1 0 0-4.5 2.25 2.25 0 0 0 0 4.5zm0-1.5a.75.75 0 1 1 0-1.5.75.75 0 0 1 0 1.5z"/>
  <path d="M4.48 7.25c.29 0 .52.23.52.52-.66.2-1.25.55-1.76.98h-.49c-.69 0-1.25.56-1.25 1.25v1.25a.75.75 0 0 1-1.5 0V10a2.75 2.75 0 0 1 2.75-2.75h1.73zm12.77 1.5h-.62A5.14 5.14 0 0 0 15 7.81c0-.31.25-.56.56-.56h1.69A2.75 2.75 0 0 1 20 10v1.25a.75.75 0 0 1-1.5 0V10c0-.69-.56-1.25-1.25-1.25z"/>
  <path fill-rule="evenodd" d="M17.75 6.5a2.25 2.25 0 1 1 0-4.5 2.25 2.25 0 0 1 0 4.5zm0-1.5a.75.75 0 1 0 0-1.5.75.75 0 0 0 0 1.5z"/>
</svg>
