<svg xmlns="http://www.w3.org/2000/svg" viewBox="0 0 20 16" fill="currentColor">
  <path fill-rule="evenodd" d="M9.94 7.5a3.75 3.75 0 1 0 0-7.5 3.75 3.75 0 0 0 0 7.5Zm0-1.5a2.25 2.25 0 1 1 0-4.5 2.25 2.25 0 0 1 0 4.5Z"/>
  <path d="M4.8 7.84c.12-.05.2-.16.2-.3a.3.3 0 0 0-.3-.29H2.75A2.75 2.75 0 0 0 0 10v1.25a.75.75 0 0 0 1.5 0V10c0-.69.56-1.25 1.25-1.25h.5c.44-.39.97-.7 1.54-.91Zm11.83.91h.62c.69 0 1.25.56 1.25 1.25v1.25a.75.75 0 0 0 1.5 0V10a2.75 2.75 0 0 0-2.75-2.75h-1.92a.33.33 0 0 0-.33.33c0 .14.09.26.22.31.52.21 1 .5 1.41.86ZM4.5 4a2 2 0 1 1-4 0 2 2 0 0 1 4 0Zm13 2a2 2 0 1 1 0-4 2 2 0 0 1 0 4Z"/>
  <path fill-rule="evenodd" d="M4.1 13.47c-.82-.87-1.08-2.22-.32-3.14a3.64 3.64 0 0 1 2.29-1.28c2.56-.36 5.17-.36 7.74 0 .92.13 1.72.6 2.28 1.28.77.92.5 2.27-.31 3.14a7.98 7.98 0 0 1-11.68 0Zm.83-2.18a.59.59 0 0 0-.1.43c.03.23.15.5.36.72a6.48 6.48 0 0 0 9.5 0c.2-.22.32-.49.35-.72.03-.2-.02-.34-.1-.43-.33-.4-.8-.67-1.35-.75a25.85 25.85 0 0 0-7.3 0c-.55.08-1.03.35-1.36.75Z"/>
</svg>
