<svg xmlns="http://www.w3.org/2000/svg" viewBox="0 0 20 16" fill="currentColor">
  <path fill-rule="evenodd" d="M9.94 7.5a3.75 3.75 0 1 0 0-7.5 3.75 3.75 0 0 0 0 7.5zm0-1.5a2.25 2.25 0 1 1 0-4.5 2.25 2.25 0 0 1 0 4.5zm-6.16 4.33c-.76.92-.5 2.27.32 3.14A7.98 7.98 0 0 0 9.94 16a7.98 7.98 0 0 0 5.84-2.53c.81-.87 1.08-2.22.32-3.14a3.64 3.64 0 0 0-2.3-1.28 27.35 27.35 0 0 0-7.73 0 3.64 3.64 0 0 0-2.3 1.28zm2.5.2a25.85 25.85 0 0 1 7.31 0 2.14 2.14 0 0 1 1.35.76c.08.1.13.22.1.43a1.35 1.35 0 0 1-.36.72 6.48 6.48 0 0 1-4.74 2.06 6.48 6.48 0 0 1-4.75-2.06 1.35 1.35 0 0 1-.36-.72.59.59 0 0 1 .1-.43 2.14 2.14 0 0 1 1.35-.75zM2.25 6.5a2.25 2.25 0 1 0 0-4.5 2.25 2.25 0 0 0 0 4.5zm0-1.5a.75.75 0 1 1 0-1.5.75.75 0 0 1 0 1.5z"/>
  <path d="M4.48 7.25c.29 0 .52.23.52.52a5.13 5.13 0 0 0-1.76.98h-.49c-.69 0-1.25.56-1.25 1.25v1.25a.75.75 0 0 1-1.5 0V10a2.75 2.75 0 0 1 2.75-2.75h1.73zm12.77 1.5h-.62A5.13 5.13 0 0 0 15 7.81c0-.31.25-.56.56-.56h1.69A2.75 2.75 0 0 1 20 10v1.25a.75.75 0 0 1-1.5 0V10c0-.69-.56-1.25-1.25-1.25z"/>
  <path fill-rule="evenodd" d="M17.75 6.5a2.25 2.25 0 1 1 0-4.5 2.25 2.25 0 0 1 0 4.5zm0-1.5a.75.75 0 1 0 0-1.5.75.75 0 0 0 0 1.5z"/>
</svg>
