<svg xmlns="http://www.w3.org/2000/svg" viewBox="0 0 20 16" fill="currentColor">
  <path fill-rule="evenodd" d="M9.937 7.5a3.75 3.75 0 1 0 0-7.5 3.75 3.75 0 0 0 0 7.5zm0-1.5a2.25 2.25 0 1 1 0-4.5 2.25 2.25 0 0 1 0 4.5zM3.78 10.332c-.763.918-.497 2.267.319 3.137A7.978 7.978 0 0 0 9.937 16a7.978 7.978 0 0 0 5.839-2.53c.816-.871 1.082-2.22.319-3.138a3.64 3.64 0 0 0-2.29-1.28 27.354 27.354 0 0 0-7.736 0 3.64 3.64 0 0 0-2.29 1.28zm2.5.206a25.852 25.852 0 0 1 7.314 0 2.14 2.14 0 0 1 1.348.753c.075.09.126.222.098.433a1.35 1.35 0 0 1-.359.72A6.478 6.478 0 0 1 9.937 14.5a6.478 6.478 0 0 1-4.744-2.056 1.35 1.35 0 0 1-.359-.72c-.027-.211.023-.342.099-.433a2.14 2.14 0 0 1 1.348-.753zM2.25 6.5a2.25 2.25 0 1 0 0-4.5 2.25 2.25 0 0 0 0 4.5zm0-1.5a.75.75 0 1 1 0-1.5.75.75 0 0 1 0 1.5z"/>
  <path d="M4.484 7.25c.285 0 .516.23.516.516a5.135 5.135 0 0 0-1.76.984h-.49c-.69 0-1.25.56-1.25 1.25v1.25a.75.75 0 0 1-1.5 0V10a2.75 2.75 0 0 1 2.75-2.75h1.734zm12.766 1.5h-.616A5.135 5.135 0 0 0 15 7.808c0-.308.25-.558.558-.558h1.692A2.75 2.75 0 0 1 20 10v1.25a.75.75 0 0 1-1.5 0V10c0-.69-.56-1.25-1.25-1.25z"/>
  <path fill-rule="evenodd" d="M17.75 6.5a2.25 2.25 0 1 1 0-4.5 2.25 2.25 0 0 1 0 4.5zm0-1.5a.75.75 0 1 0 0-1.5.75.75 0 0 0 0 1.5z"/>
</svg>
