<svg xmlns="http://www.w3.org/2000/svg" viewBox="0 0 20 16" fill="currentColor"><path fill-rule="evenodd" d="M15.4 5.39c.16.32.28.64.38.98.1.36.4.63.78.63.46 0 .82-.4.7-.86a7.46 7.46 0 0 0-.63-1.65 2.25 2.25 0 0 0-3.12-3.12 7.46 7.46 0 0 0-1.65-.64c-.45-.11-.86.25-.86.7 0 .38.27.7.63.8.34.09.66.21.98.37a2.25 2.25 0 0 0 2.8 2.79Zm-1.16-1.63A.75.75 0 1 1 15.3 2.7a.75.75 0 0 1-1.06 1.06ZM6.5 1.37a2.25 2.25 0 0 0-3.13 3.12c-.28.53-.5 1.09-.64 1.65-.11.45.25.86.7.86.38 0 .7-.27.8-.63.09-.34.21-.66.37-.98a2.25 2.25 0 0 0 2.79-2.8c.32-.15.64-.27.98-.37.36-.1.63-.4.63-.78 0-.46-.4-.82-.86-.7-.56.14-1.12.35-1.65.63ZM5.75 2.7A.75.75 0 1 1 4.7 3.76.75.75 0 0 1 5.76 2.7Zm7.75 11.93c-.52.28-1.08.5-1.64.64-.45.11-.86-.25-.86-.7 0-.38.27-.7.63-.8.34-.09.66-.21.98-.37a2.25 2.25 0 0 1 2.8-2.79c.15-.32.27-.64.37-.98.1-.36.4-.63.78-.63.46 0 .82.4.7.86a7.46 7.46 0 0 1-.63 1.65 2.25 2.25 0 0 1-3.12 3.12Zm.74-2.39a.75.75 0 1 0 1.06 1.06.75.75 0 0 0-1.06-1.06ZM3.37 11.5a7.46 7.46 0 0 1-.64-1.64c-.11-.45.25-.86.7-.86.38 0 .7.27.8.63.09.34.21.66.37.98a2.25 2.25 0 0 1 2.79 2.8c.32.15.64.27.98.37.36.1.63.4.63.78 0 .46-.4.82-.86.7a7.46 7.46 0 0 1-1.65-.63 2.25 2.25 0 0 1-3.12-3.12Zm2.39.74A.75.75 0 1 0 4.7 13.3a.75.75 0 0 0 1.06-1.06Z"/></svg>