<svg xmlns="http://www.w3.org/2000/svg" viewBox="0 0 20 16" fill="currentColor">
  <path fill-rule="evenodd" d="M11.687 3.75a3.74 3.74 0 0 1-1.041 2.594A1.937 1.937 0 0 0 8.8 7.1a5.76 5.76 0 0 0-.245.35 3.75 3.75 0 1 1 3.132-3.7zm-1.5 0a2.25 2.25 0 1 0-4.5 0 2.25 2.25 0 0 0 4.5 0z"/>
  <path d="M4.069 9.053a27.355 27.355 0 0 1 3.844-.275 1.933 1.933 0 0 0 .273 1.5 25.865 25.865 0 0 0-3.905.26 2.14 2.14 0 0 0-1.348.753c-.076.09-.126.222-.099.433.03.228.15.497.36.72a6.478 6.478 0 0 0 5.312 2.031c.093.146.19.288.294.425a1.92 1.92 0 0 0 1.413.772A8.004 8.004 0 0 1 7.937 16 7.978 7.978 0 0 1 2.1 13.47c-.816-.871-1.082-2.22-.32-3.138a3.64 3.64 0 0 1 2.29-1.28z"/>
  <path fill-rule="evenodd" d="M9.401 12.966c.066.154.14.305.22.45l.092.16c.088.146.184.287.286.423.143.19.406.231.612.112l.367-.212a.26.26 0 0 1 .307.038c.432.4.952.705 1.529.884a.26.26 0 0 1 .186.247v.423c0 .238.167.446.403.474a5.064 5.064 0 0 0 1.194 0A.468.468 0 0 0 15 15.49v-.423a.26.26 0 0 1 .186-.247 3.996 3.996 0 0 0 1.53-.884.26.26 0 0 1 .306-.038l.367.213a.468.468 0 0 0 .612-.113c.102-.136.198-.277.286-.424l.091-.158c.08-.146.155-.297.22-.451a.467.467 0 0 0-.208-.586l-.367-.212a.26.26 0 0 1-.12-.285 4.017 4.017 0 0 0 0-1.766.26.26 0 0 1 .12-.285l.367-.212a.467.467 0 0 0 .209-.586 4.972 4.972 0 0 0-.22-.45l-.092-.159A4.988 4.988 0 0 0 18 8a.468.468 0 0 0-.612-.111l-.367.212a.26.26 0 0 1-.307-.038 3.996 3.996 0 0 0-1.529-.884.26.26 0 0 1-.186-.247V6.51a.468.468 0 0 0-.403-.474 5.051 5.051 0 0 0-1.194 0A.468.468 0 0 0 13 6.51v.423a.26.26 0 0 1-.186.247 3.996 3.996 0 0 0-1.53.884.26.26 0 0 1-.306.038l-.367-.213A.468.468 0 0 0 9.999 8a5.008 5.008 0 0 0-.286.425l-.091.158a4.696 4.696 0 0 0-.22.451.468.468 0 0 0 .208.586l.367.212a.26.26 0 0 1 .12.285 4.01 4.01 0 0 0 0 1.766.26.26 0 0 1-.12.285l-.367.212a.467.467 0 0 0-.209.586zM11.5 11a2.5 2.5 0 1 1 5 0 2.5 2.5 0 0 1-5 0z"/>
</svg>
