<svg xmlns="http://www.w3.org/2000/svg" viewBox="0 0 20 16" fill="currentColor">
  <path fill-rule="evenodd" d="M13.687 3.75a3.75 3.75 0 1 1-7.5 0 3.75 3.75 0 0 1 7.5 0zm-1.5 0a2.25 2.25 0 1 0-4.5 0 2.25 2.25 0 0 0 4.5 0zm-8.088 9.72c-.816-.871-1.082-2.22-.32-3.138a3.64 3.64 0 0 1 2.29-1.28 27.354 27.354 0 0 1 7.737 0 3.64 3.64 0 0 1 2.289 1.28c.763.918.497 2.267-.32 3.137A7.978 7.978 0 0 1 9.938 16 7.978 7.978 0 0 1 4.1 13.47zm.834-2.179c-.076.09-.126.222-.099.433.03.228.15.497.36.72A6.478 6.478 0 0 0 9.936 14.5a6.478 6.478 0 0 0 4.744-2.056 1.35 1.35 0 0 0 .359-.72c.028-.211-.023-.342-.098-.433a2.14 2.14 0 0 0-1.348-.753 25.852 25.852 0 0 0-7.313 0 2.14 2.14 0 0 0-1.348.753z"/>
</svg>
