<svg xmlns="http://www.w3.org/2000/svg" fill="currentColor" class="vi" viewBox="0 0 16 16"><path d="M2.75 3.5c-.69 0-1.25.56-1.25 1.25v6.5c0 .69.56 1.25 1.25 1.25h5c.69 0 1.25-.56 1.25-1.25v-6.5c0-.69-.56-1.25-1.25-1.25zM0 4.75A2.75 2.75 0 0 1 2.75 2h5a2.75 2.75 0 0 1 2.75 2.75v.036l2.967-1.483A1.75 1.75 0 0 1 16 4.868v6.264a1.75 1.75 0 0 1-2.533 1.565L10.5 11.214v.036A2.75 2.75 0 0 1 7.75 14h-5A2.75 2.75 0 0 1 0 11.25zm10.5 4.786 3.638 1.82a.25.25 0 0 0 .362-.224V4.868a.25.25 0 0 0-.362-.224L10.5 6.464z"/></svg>