<svg xmlns="http://www.w3.org/2000/svg" fill="currentColor" class="vi" viewBox="0 0 16 16"><path d="M1.28.22A.75.75 0 1 0 .22 1.28l3.825 3.826A2.74 2.74 0 0 0 3.5 6.75v2.5A2.75 2.75 0 0 0 6.25 12h.933a.25.25 0 0 1 .144.046l3.202 2.26c.757.535 1.777.086 1.947-.77l2.244 2.244a.75.75 0 1 0 1.06-1.06zM11 12.06v.743L8.192 10.82a1.75 1.75 0 0 0-1.01-.32H6.25C5.56 10.5 5 9.94 5 9.25v-2.5c0-.2.047-.39.131-.558zm0-8.863V7.94l1.5 1.5V2.715a1.25 1.25 0 0 0-1.97-1.021l-3.203 2.26A.25.25 0 0 1 7.183 4H7.06l1.16 1.16z"/></svg>