<svg xmlns="http://www.w3.org/2000/svg" fill="currentColor" class="vi" viewBox="0 0 16 16"><path d="M10.25 2a.75.75 0 0 0-1.19-.608l-4.237 3.06a.25.25 0 0 1-.146.048H3.75A1.75 1.75 0 0 0 2 6.25v4c0 .966.784 1.75 1.75 1.75h.927a.25.25 0 0 1 .146.047l4.238 3.061a.75.75 0 0 0 1.189-.608zM5.701 5.669 8.75 3.467v9.566l-3.049-2.202a1.75 1.75 0 0 0-1.024-.331H3.75a.25.25 0 0 1-.25-.25v-4A.25.25 0 0 1 3.75 6h.927A1.75 1.75 0 0 0 5.7 5.669m7.417 5.865c-.19.354-.641.451-.984.24-.362-.223-.46-.702-.27-1.082.408-.81.637-1.724.637-2.692s-.23-1.883-.636-2.692c-.192-.38-.093-.86.27-1.082.342-.211.793-.114.983.24A7.5 7.5 0 0 1 14 8c0 1.278-.32 2.481-.883 3.534"/></svg>