<svg xmlns="http://www.w3.org/2000/svg" fill="currentColor" class="vi" viewBox="0 0 16 16"><path fill-rule="evenodd" d="M1.28.22A.75.75 0 1 0 .22 1.28l4.044 4.045A1.742 1.742 0 0 0 4 6.25v4c0 .966.784 1.75 1.75 1.75h.927a.25.25 0 0 1 .146.047l4.238 3.061a.75.75 0 0 0 1.189-.608v-1.19l2.47 2.47a.75.75 0 1 0 1.06-1.06L1.28.22Zm9.47 11.59L5.5 6.56v3.69c0 .138.112.25.25.25h.927c.368 0 .726.116 1.024.331l3.049 2.202v-1.222Zm0-8.343v4.222l1.5 1.5V2a.75.75 0 0 0-1.19-.608L7.225 4.163l1.074 1.075 2.452-1.771Z"/><path d="M1.28.22A.75.75 0 1 0 .22 1.28l4.044 4.045A1.742 1.742 0 0 0 4 6.25v4c0 .966.784 1.75 1.75 1.75h.927a.25.25 0 0 1 .146.047l4.238 3.061a.75.75 0 0 0 1.189-.608v-1.19l2.47 2.47a.75.75 0 1 0 1.06-1.06L1.28.22Zm9.47 11.59v1.223l-3.049-2.202a1.75 1.75 0 0 0-1.024-.331H5.75a.25.25 0 0 1-.25-.25V6.56l5.25 5.25Zm0-8.343v4.222l1.5 1.5V2a.75.75 0 0 0-1.19-.608L7.225 4.163l1.074 1.075 2.452-1.771Z"/></svg>