<svg xmlns="http://www.w3.org/2000/svg" fill="currentColor" class="vi" viewBox="0 0 16 16"><path d="M11 2.715a1.25 1.25 0 0 0-1.97-1.021l-3.203 2.26A.25.25 0 0 1 5.683 4H4.75A2.75 2.75 0 0 0 2 6.75v2.5A2.75 2.75 0 0 0 4.75 12h.933a.25.25 0 0 1 .144.046l3.202 2.26A1.25 1.25 0 0 0 11 13.285zM6.692 5.18 9.5 3.197v9.606L6.692 10.82a1.75 1.75 0 0 0-1.01-.32H4.75c-.69 0-1.25-.56-1.25-1.25v-2.5c0-.69.56-1.25 1.25-1.25h.933a1.75 1.75 0 0 0 1.009-.32m6.425 6.354c-.19.354-.641.451-.984.24-.362-.223-.46-.702-.27-1.082.408-.81.637-1.724.637-2.692s-.23-1.883-.636-2.692c-.192-.38-.093-.86.27-1.082.342-.211.793-.114.983.24A7.5 7.5 0 0 1 14 8c0 1.278-.32 2.481-.883 3.534"/></svg>