<svg xmlns="http://www.w3.org/2000/svg" fill="currentColor" class="vi" viewBox="0 0 16 16"><path d="M8.75 2a.75.75 0 0 0-1.19-.608l-4.237 3.06a.25.25 0 0 1-.146.048H2.25A1.75 1.75 0 0 0 .5 6.25v4c0 .966.784 1.75 1.75 1.75h.927a.25.25 0 0 1 .146.047l4.238 3.061A.75.75 0 0 0 8.75 14.5zM4.201 5.669 7.25 3.467v9.566l-3.049-2.202a1.75 1.75 0 0 0-1.024-.331H2.25a.25.25 0 0 1-.25-.25v-4A.25.25 0 0 1 2.25 6h.927A1.75 1.75 0 0 0 4.2 5.669Zm8.719 6.608c-.2.371-.097.845.262 1.066a.71.71 0 0 0 .998-.242C15.02 11.59 15.5 9.85 15.5 8s-.48-3.59-1.32-5.1a.71.71 0 0 0-.998-.243c-.36.221-.462.695-.261 1.066A8.96 8.96 0 0 1 14 8a8.96 8.96 0 0 1-1.08 4.277m-1.303-7.811c-.19-.354-.641-.451-.984-.24-.362.223-.46.702-.27 1.082.408.81.637 1.724.637 2.692 0 .968-.23 1.883-.636 2.692-.192.38-.093.86.27 1.082.342.211.793.115.983-.24A7.467 7.467 0 0 0 12.5 8c0-1.278-.32-2.481-.883-3.534"/></svg>