<svg xmlns="http://www.w3.org/2000/svg" viewBox="0 0 20 16" fill="currentColor">
  <path d="m8.872 5.311 5.189 5.189h-2.122L7.811 6.372a1.25 1.25 0 0 0-1.72-.045L3.5 8.659V6.641l1.588-1.43a2.75 2.75 0 0 1 3.784.1zM13.5 7a1.5 1.5 0 1 0 0-3 1.5 1.5 0 0 0 0 3z"/>
  <path fill-rule="evenodd" d="M1 2a2 2 0 0 1 2-2h14a2 2 0 0 1 2 2v9a2 2 0 0 1-2 2h-6.25v1.5h2a.75.75 0 0 1 0 1.5h-5.5a.75.75 0 0 1 0-1.5h2V13H3a2 2 0 0 1-2-2V2zm2-.5a.5.5 0 0 0-.5.5v9a.5.5 0 0 0 .5.5h14a.5.5 0 0 0 .5-.5V2a.5.5 0 0 0-.5-.5H3z"/>
</svg>
