<svg xmlns="http://www.w3.org/2000/svg" fill="currentColor" class="vi" viewBox="0 0 16 16"><path d="M10.5 6a1.5 1.5 0 1 0 0-3 1.5 1.5 0 0 0 0 3"/><path d="M2.75 0A2.75 2.75 0 0 0 0 2.75v7.5A2.75 2.75 0 0 0 2.75 13h4.5v1.5h-2.5a.75.75 0 0 0 0 1.5h6.5a.75.75 0 0 0 0-1.5h-2.5V13h4.5A2.75 2.75 0 0 0 16 10.25v-7.5A2.75 2.75 0 0 0 13.25 0zM1.5 2.75c0-.69.56-1.25 1.25-1.25h10.5c.69 0 1.25.56 1.25 1.25v7.5c0 .69-.56 1.25-1.25 1.25h-2.19L5.738 6.177a1.75 1.75 0 0 0-2.474 0L1.5 7.939zm3.177 4.487L8.939 11.5H2.75c-.69 0-1.25-.56-1.25-1.25v-.19l2.823-2.823a.25.25 0 0 1 .354 0"/></svg>