<svg xmlns="http://www.w3.org/2000/svg" fill="currentColor" class="vi" viewBox="0 0 16 16"><path d="M9.5 0a.75.75 0 0 1 .75.75v14.5a.75.75 0 0 1-1.5 0V.75A.75.75 0 0 1 9.5 0M4 2a.75.75 0 0 1 .75.75v10.5a.75.75 0 0 1-1.5 0V2.75A.75.75 0 0 1 4 2m8.25 1a.75.75 0 0 1 .75.75v8.5a.75.75 0 0 1-1.5 0v-8.5a.75.75 0 0 1 .75-.75m-5.5 1.5a.75.75 0 0 1 .75.75v5.5a.75.75 0 0 1-1.5 0v-5.5a.75.75 0 0 1 .75-.75M15 6a.75.75 0 0 1 .75.75v2.5a.75.75 0 0 1-1.5 0v-2.5A.75.75 0 0 1 15 6m-13.75.5a.75.75 0 0 1 .75.75v1.5a.75.75 0 0 1-1.5 0v-1.5a.75.75 0 0 1 .75-.75"/></svg>