<svg xmlns="http://www.w3.org/2000/svg" fill="currentColor" class="vi" viewBox="0 0 16 16"><path d="M8.689 2.484a2 2 0 0 1 1.049 1.993c-.047.411.074.87.44 1.064.366.194.83.056.942-.343a3.501 3.501 0 1 0-5.64 1.716l-2.392 4.483a.75.75 0 1 0 1.324.706L6.765 7.69l.004.002.352-.662a.75.75 0 0 0-.31-1.014A2 2 0 0 1 8.69 2.484Z"/><path d="m7.107 4.636 1.98 3.3a4.983 4.983 0 0 1 1.34-.683L8.392 3.864a.75.75 0 1 0-1.286.772ZM7 12c0-.342.034-.677.1-1h-.6a.75.75 0 0 0-.75.75 2 2 0 1 1-2.733-1.862c.386-.151.733-.474.733-.888 0-.414-.34-.758-.745-.67a3.501 3.501 0 1 0 4.068 4.523A5.033 5.033 0 0 1 7 12Zm9 0a4 4 0 1 1-8 0 4 4 0 0 1 8 0Zm-4-3a.5.5 0 0 0-.5.5v2h-1a.5.5 0 1 0 .001 1H12a.5.5 0 0 0 .5-.5V9.5A.5.5 0 0 0 12 9Z"/></svg>