<svg xmlns="http://www.w3.org/2000/svg" fill="currentColor" class="vi" viewBox="0 0 16 16"><path d="M8.689 2.484a2 2 0 0 1 .827 2.705l1.324.704a3.5 3.5 0 1 0-5.36 1.021l-2.392 4.483a.75.75 0 1 0 1.324.706L6.765 7.69l.004.002.704-1.324-.662-.352A2 2 0 0 1 8.69 2.484Z"/><path d="m7.107 4.636 2.6 4.335c.392-.31.836-.556 1.316-.723l-2.63-4.384a.75.75 0 1 0-1.286.772ZM8 12.5c0-.526.09-1.03.256-1.5H5.75v.75a2 2 0 1 1-2-2v-1.5a3.5 3.5 0 1 0 3.42 4.25H8Zm8 0a3.5 3.5 0 1 1-7 0 3.5 3.5 0 0 1 7 0ZM12.5 10a.5.5 0 0 0-.5.5v2a.5.5 0 0 0 .146.354l1 1a.5.5 0 0 0 .708-.708L13 12.293V10.5a.5.5 0 0 0-.5-.5Z"/></svg>