<svg xmlns="http://www.w3.org/2000/svg" fill="currentColor" class="vi" viewBox="0 0 16 16"><path d="M8.689 2.484a2 2 0 0 1 .827 2.705l1.324.704a3.5 3.5 0 1 0-5.36 1.021l-2.392 4.483a.75.75 0 1 0 1.324.706L6.765 7.69l.004.002.704-1.324-.662-.352A2 2 0 0 1 8.69 2.484Z"/><path d="m7.107 4.636 1.98 3.3a4.983 4.983 0 0 1 1.34-.683L8.392 3.864a.75.75 0 1 0-1.286.772ZM7 12c0-.342.034-.677.1-1H5.75v.75a2 2 0 1 1-2-2v-1.5a3.5 3.5 0 1 0 3.323 4.603A5.033 5.033 0 0 1 7 12Zm9 0a4 4 0 1 1-8 0 4 4 0 0 1 8 0Zm-4-2.5a.5.5 0 0 0-.5.5v2a.5.5 0 0 0 .146.354l1 1a.5.5 0 1 0 .708-.708l-.854-.853V10a.5.5 0 0 0-.5-.5Z"/></svg>