<svg xmlns="http://www.w3.org/2000/svg" viewBox="0 0 16 16" fill="currentColor"><path d="M8.69 2.48a2 2 0 0 1 1.05 2c-.05.4.07.87.44 1.06.36.2.83.06.94-.34a3.5 3.5 0 1 0-5.64 1.7l-2.4 4.49a.75.75 0 0 0 1.33.7L6.77 7.7l.35-.66a.75.75 0 0 0-.3-1.01 2 2 0 0 1 1.87-3.54Z"/><path d="m7.1 4.64 1.99 3.3c.4-.3.85-.53 1.34-.69L8.39 3.86a.75.75 0 1 0-1.28.78ZM7 12c0-.34.03-.68.1-1h-.6a.75.75 0 0 0-.75.75 2 2 0 1 1-2.73-1.86c.38-.15.73-.48.73-.89 0-.41-.34-.76-.74-.67a3.5 3.5 0 1 0 4.06 4.52A5.03 5.03 0 0 1 7 12Zm9 0a4 4 0 1 1-8 0 4 4 0 0 1 8 0Zm-4-3a.5.5 0 0 0-.5.5v2h-1a.5.5 0 1 0 0 1H12a.5.5 0 0 0 .5-.5V9.5A.5.5 0 0 0 12 9Z"/></svg>