<svg xmlns="http://www.w3.org/2000/svg" viewBox="0 0 20 16" fill="currentColor"><path fill-rule="evenodd" d="M14 16a4 4 0 1 0 0-8 4 4 0 0 0 0 8Zm.75-5.75v1.44l.5.5a.75.75 0 0 1-1.06 1.06l-.65-.65a1 1 0 0 1-.29-.7v-1.65a.75.75 0 0 1 1.5 0Z"/><path d="M10.69 2.48a2 2 0 0 1 1.05 2c-.05.4.07.87.44 1.06.36.2.83.06.94-.34a3.5 3.5 0 1 0-5.64 1.7l-2.4 4.49a.75.75 0 0 0 1.33.7L8.77 7.7l.35-.66a.75.75 0 0 0-.3-1.01 2 2 0 1 1 1.87-3.54Z"/><path d="M11.09 7.94c.4-.3.85-.53 1.34-.69l-2.04-3.39a.75.75 0 1 0-1.28.78l1.98 3.3ZM5.02 9.89c.38-.15.73-.48.73-.89 0-.41-.34-.76-.74-.67a3.5 3.5 0 1 0 4.06 4.52A5.03 5.03 0 0 1 9.1 11h-.6a.75.75 0 0 0-.75.75 2 2 0 1 1-2.73-1.86Z"/></svg>