<svg xmlns="http://www.w3.org/2000/svg" viewBox="0 0 16 16" fill="currentColor"><path d="M8.69 2.48a2 2 0 0 1 1.05 2c-.05.4.07.87.44 1.06.36.2.83.06.94-.34a3.5 3.5 0 1 0-5.64 1.7l-2.4 4.49a.75.75 0 1 0 1.33.7L6.77 7.7l.35-.66a.75.75 0 0 0-.3-1.01 2 2 0 0 1 1.87-3.54Z"/><path d="M9.9 13.17c.35-.22.8-.09 1.13.17a2 2 0 1 0 .19-3.3.75.75 0 0 1-1.03-.26l-.39-.64-2.7-4.5a.75.75 0 1 1 1.3-.78l2.73 4.57a3.5 3.5 0 1 1-1.43 5.72c-.28-.3-.16-.77.2-.98Z"/><path d="M3.75 9c0 .41-.35.74-.73.89a2 2 0 1 0 2.73 1.86c0-.41.34-.75.75-.75h5.75a.75.75 0 1 1 0 1.5H7.17A3.5 3.5 0 1 1 3 8.33c.4-.09.74.26.74.67Z"/></svg>