<svg xmlns="http://www.w3.org/2000/svg" viewBox="0 0 20 16" fill="currentColor"><path d="M11.74 4.48A2 2 0 1 0 8.8 6.02c.37.19.5.64.31 1.01l-.35.66L6.4 12.1a.75.75 0 0 1-1.32-.7l2.4-4.5a3.5 3.5 0 1 1 5.64-1.71c-.11.4-.58.54-.94.34-.37-.2-.49-.65-.44-1.06Z"/><path d="M12.37 7.17c-.44.24-.85.54-1.2.9L9.1 4.63a.75.75 0 1 1 1.28-.78l1.98 3.3ZM5.75 9c0 .41-.35.74-.73.89a2 2 0 1 0 2.73 1.86c0-.41.34-.75.75-.75h1.1a5.53 5.53 0 0 0-.08 1.5h-.35A3.5 3.5 0 1 1 5 8.33c.4-.09.74.26.74.67Z"/><path fill-rule="evenodd" d="M19 12a4 4 0 1 1-8 0 4 4 0 0 1 8 0Zm-3.25-.31v-1.44a.75.75 0 0 0-1.5 0v1.65c0 .26.1.52.3.7l.64.65a.75.75 0 0 0 1.06-1.06l-.5-.5Z"/></svg>