<svg xmlns="http://www.w3.org/2000/svg" fill="currentColor" class="vi" viewBox="0 0 16 16"><path d="M8.689 2.484a2 2 0 0 1 1.049 1.993c-.047.411.074.87.44 1.064.366.194.83.056.942-.343a3.501 3.501 0 1 0-5.64 1.716l-2.392 4.483a.75.75 0 1 0 1.324.706L6.765 7.69l.004.002.352-.662a.75.75 0 0 0-.31-1.014A2 2 0 0 1 8.69 2.484Z"/><path d="M9.893 13.166c.355-.213.81-.081 1.139.17a2 2 0 1 0 .188-3.3.75.75 0 0 1-1.03-.257l-.386-.643.002-.001-2.7-4.5a.75.75 0 1 1 1.287-.77l2.74 4.567a3.501 3.501 0 1 1-1.432 5.718c-.283-.302-.163-.77.192-.984Z"/><path d="M3.75 9c0 .414-.347.737-.733.888A2 2 0 1 0 5.75 11.75.75.75 0 0 1 6.5 11h5.75a.75.75 0 1 1 0 1.5H7.17a3.501 3.501 0 1 1-4.165-4.17c.405-.088.745.256.745.67Z"/></svg>