<svg xmlns="http://www.w3.org/2000/svg" fill="currentColor" class="vi" viewBox="0 0 16 16"><path d="M9.738 4.477A2 2 0 1 0 6.81 6.016a.75.75 0 0 1 .31 1.014l-.352.662-.004-.002-2.353 4.413a.75.75 0 0 1-1.324-.706L5.48 6.914a3.501 3.501 0 1 1 5.64-1.716c-.112.4-.575.537-.94.343-.367-.194-.488-.653-.441-1.064Z"/><path d="M11.023 8.248c-.48.167-.924.413-1.315.723L7.107 4.636a.75.75 0 1 1 1.286-.772zM8.256 11c-.166.47-.256.974-.256 1.5h-.83a3.501 3.501 0 1 1-4.165-4.17c.405-.088.745.256.745.67 0 .414-.347.737-.733.888A2 2 0 1 0 5.75 11.75.75.75 0 0 1 6.5 11zM16 12.5a3.5 3.5 0 1 1-7 0 3.5 3.5 0 0 1 7 0M12.5 10a.5.5 0 0 0-.5.5v2a.5.5 0 0 0 .146.354l1 1a.5.5 0 0 0 .708-.708L13 12.293V10.5a.5.5 0 0 0-.5-.5"/></svg>