<svg xmlns="http://www.w3.org/2000/svg" {{ with .width }} width="{{ . }}"{{ end }}{{ with .height }} height="{{ . }}"{{ end }}{{ with .class }} class="{{ . }}"{{ end }} fill="currentColor" viewBox="0 0 16 16" role="img">
  <path d="M8 0a.75.75 0 0 1 .75.75v8.402L8 9.55l-.75-.397V.75A.75.75 0 0 1 8 0Z"/>
  <path d="M3.1 8.087a.75.75 0 1 0-.7 1.326l3.997 2.116-1.998 1.058a.75.75 0 1 0 .702 1.326l2.149-1.138v2.475a.75.75 0 0 0 1.5 0v-2.475l2.15 1.138a.75.75 0 1 0 .7-1.326L9.604 11.53l3.998-2.116a.75.75 0 0 0-.702-1.326L8 10.681 3.1 8.087Z"/>
</svg>
